<?xml version="1.0" encoding="UTF-8"?>
<svg width="32px" height="32px" viewBox="0 0 32 32" version="1.1" xmlns="http://www.w3.org/2000/svg" xmlns:xlink="http://www.w3.org/1999/xlink">
    <!-- Generator: Sketch 51.1 (57501) - http://www.bohemiancoding.com/sketch -->
    <title>Facebook</title>
   <defs></defs>
    <g id="Facebook" stroke="none" stroke-width="1" fill="none" fill-rule="evenodd">
        <g id="flogo-HexRBG-Wht-58" fill="#FFFFFF" fill-rule="nonzero">
            <path d="M30.2315789,0 L1.76842105,0 C0.791749074,-5.98039106e-17 1.19607821e-16,0.791749074 0,1.76842105 L0,30.2315789 C1.19607821e-16,31.2082509 0.791749074,32 1.76842105,32 L17.0947368,32 L17.0947368,19.6491228 L12.9122807,19.6491228 L12.9122807,14.7817544 L17.0722807,14.7817544 L17.0722807,11.2280702 C17.0722807,7.09052632 19.5929825,4.83929825 23.2814035,4.83929825 C24.5343857,4.84302102 25.7862578,4.9142353 27.0315789,5.05263158 L27.0315789,9.36982456 L24.482807,9.36982456 C22.4785965,9.36982456 22.0912281,10.3185965 22.0912281,11.7164912 L22.0912281,14.8042105 L26.8912281,14.8042105 L26.2680702,19.6491228 L22.0912281,19.6491228 L22.0912281,32 L30.2315789,32 C31.2082509,32 32,31.2082509 32,30.2315789 L32,1.76842105 C32,0.791749074 31.2082509,5.98039106e-17 30.2315789,0 Z" id="Shape"></path>
        </g>
    </g>
</svg>