<?xml version="1.0" encoding="UTF-8"?>
<svg 
   xmlns="http://www.w3.org/2000/svg" viewBox="0 0 26 26">
   <defs/>
   <path d="M13 0C9.468 0 9.027.016 7.64.078 6.257.143 5.315.361 4.486.683a6.366 6.366 0 00-2.303 1.499 6.343 6.343 0 00-1.5 2.303c-.321.829-.54 1.771-.604 3.156C.013 9.027 0 9.468 0 13s.016 3.973.078 5.36c.065 1.383.283 2.326.605 3.155.331.854.776 1.58 1.499 2.303a6.357 6.357 0 002.303 1.5c.83.32 1.772.54 3.156.604C9.027 25.987 9.468 26 13 26s3.973-.016 5.36-.078c1.383-.065 2.326-.284 3.155-.605a6.39 6.39 0 002.303-1.499 6.348 6.348 0 001.5-2.303c.32-.829.54-1.772.604-3.156.065-1.386.078-1.827.078-5.359s-.016-3.973-.078-5.36c-.065-1.383-.284-2.327-.605-3.155a6.38 6.38 0 00-1.499-2.303 6.334 6.334 0 00-2.303-1.5c-.829-.321-1.772-.54-3.156-.604C16.973.013 16.532 0 13 0zm-.475 2.032c3.41 0 3.817.017 5.164.076 1.246.058 1.922.265 2.371.442a3.968 3.968 0 011.472.955c.446.447.723.872.954 1.471.174.45.383 1.126.44 2.373.06 1.35.074 1.754.074 5.168s-.016 3.82-.079 5.168c-.065 1.247-.272 1.923-.448 2.373a4.06 4.06 0 01-.957 1.473 3.986 3.986 0 01-1.47.954c-.447.175-1.134.384-2.38.44-1.356.061-1.755.075-5.173.075-3.419 0-3.818-.016-5.174-.079-1.246-.065-1.933-.273-2.38-.448a3.956 3.956 0 01-1.469-.958 3.883 3.883 0 01-.958-1.47c-.176-.448-.382-1.136-.447-2.382C2.017 16.32 2 15.906 2 12.5c0-3.405.017-3.821.065-5.18.065-1.246.271-1.933.447-2.38.224-.607.51-1.023.958-1.472.447-.446.863-.734 1.469-.956.447-.177 1.119-.385 2.365-.45C8.66 2.017 9.06 2 12.477 2l.048.032zM13.5 7a6.5 6.5 0 100 13 6.5 6.5 0 100-13zm0 11A4.499 4.499 0 019 13.5C9 11.014 11.014 9 13.5 9s4.5 2.014 4.5 4.5-2.014 4.5-4.5 4.5zM21 6.5c0 .828-.673 1.5-1.5 1.5-.828 0-1.5-.673-1.5-1.5a1.501 1.501 0 013 0z" fill="#FFF" fill-rule="nonzero"/>
</svg>
