<?xml version="1.0" encoding="UTF-8"?>
<svg xmlns="http://www.w3.org/2000/svg" viewBox="0 0 29 27">
   <defs/>
       <g id="Snapchat" stroke="none" stroke-width="1" fill="none" fill-rule="evenodd">
        <g fill="#FFFFFF" fill-rule="nonzero">
           <path d="M14.732 1.001c1.114 0 4.89.308 6.671 4.262.595 1.33.453 3.59.336 5.405l-.003.067c-.013.201-.025.385-.034.569.085.05.229.1.451.1.338-.017.742-.133 1.163-.335.185-.098.387-.116.522-.116.204 0 .403.032.572.1.506.166.826.534.826.935.017.5-.439.935-1.365 1.302-.1.033-.235.084-.387.133-.506.15-1.281.402-1.5.903-.1.25-.068.585.136.968l.017.017c.067.152 1.716 3.876 5.39 4.477.286.049.489.301.472.568a.67.67 0 01-.05.25c-.27.635-1.433 1.102-3.54 1.418-.066.102-.135.418-.184.636-.033.2-.084.401-.151.616-.086.303-.304.452-.625.452h-.033a3.62 3.62 0 01-.606-.082 6.845 6.845 0 00-1.432-.15c-.337 0-.674.016-1.027.082-.675.116-1.263.517-1.938.986-.96.668-2.054 1.436-3.706 1.436-.067 0-.134-.017-.203-.017h-.167c-1.652 0-2.73-.753-3.689-1.436-.674-.469-1.245-.869-1.92-.986a7.514 7.514 0 00-1.044-.083c-.608 0-1.078.1-1.431.167-.238.047-.44.082-.608.082-.42 0-.588-.25-.656-.468-.068-.214-.101-.434-.152-.633-.051-.202-.118-.55-.186-.635-2.158-.248-3.32-.716-3.588-1.368a.665.665 0 01-.062-.25.555.555 0 01.472-.568c3.673-.603 5.322-4.327 5.39-4.484l.018-.032c.203-.385.252-.72.134-.97-.22-.483-.994-.733-1.498-.902a2.527 2.527 0 01-.39-.132c-1.245-.485-1.414-1.037-1.346-1.42.101-.534.758-.884 1.314-.884.164 0 .304.032.43.082.473.216.888.335 1.243.335.263 0 .432-.067.523-.117l-.052-.635c-.11-1.813-.253-4.072.346-5.395 1.73-3.933 5.496-4.234 6.608-4.234L14.664 1h.068v.001z" fill="#F7FAFC" fill-rule="nonzero" stroke="#000"/>
        </g>
    </g>
</svg>
