<svg xmlns="http://www.w3.org/2000/svg" viewBox="0 0 20 20"><g fill="#322BAA" fill-rule="nonzero"><path d="M5.344 7.228c.015-.62.207-1.224.554-1.74a4.21 4.21 0 011.609-1.46c.76-.4 1.61-.6 2.47-.581.8-.024 1.596.135 2.325.465a3.81 3.81 0 011.554 1.316c.358.535.549 1.165.549 1.81.01.468-.1.932-.317 1.348-.193.37-.443.707-.74 1-.288.28-.8.744-1.539 1.395-.176.153-.34.318-.493.493a1.79 1.79 0 00-.418.74c-.033.12-.084.326-.15.623a1.01 1.01 0 01-1.074.93 1.093 1.093 0 01-.79-.307 1.214 1.214 0 01-.321-.93c-.012-.45.067-.897.232-1.316.153-.358.364-.688.624-.977.26-.279.609-.61 1.05-.995.443-.386.666-.595.838-.768.17-.17.316-.362.433-.572.117-.21.178-.447.176-.688a1.59 1.59 0 00-.54-1.219 1.944 1.944 0 00-1.395-.497 1.916 1.916 0 00-1.47.562c-.37.428-.64.931-.795 1.475-.204.684-.595 1.023-1.167 1.023A1.135 1.135 0 015.693 8a1.084 1.084 0 01-.349-.772zm4.423 9.912c-.354.007-.699-.121-.962-.359a1.251 1.251 0 01-.433-1c-.007-.36.136-.707.395-.958a1.353 1.353 0 011-.404 1.326 1.326 0 011.35 1.344c.024.384-.13.759-.42 1.014a1.363 1.363 0 01-.93.363z"/><path d="M9.865 1.567a8.372 8.372 0 110 16.745 8.372 8.372 0 010-16.745zm0-1.395C4.471.172.098 4.545.098 9.94c0 5.394 4.373 9.767 9.767 9.767 5.395 0 9.768-4.373 9.768-9.767 0-5.395-4.373-9.768-9.768-9.768z"/></g></svg>