<svg id="Layer_1" data-name="Layer 1" xmlns="http://www.w3.org/2000/svg" xmlns:xlink="http://www.w3.org/1999/xlink" viewBox="0 0 639 215"><defs><style>.cls-1{fill:none;}.cls-2{clip-path:url(#clip-path);}.cls-3{fill:#983ac9;}.cls-4{fill:#731daa;}</style><clipPath id="clip-path"><rect class="cls-1" width="639" height="215"/></clipPath></defs><title>Group_5 (1)</title><g class="cls-2"><g id="Mask"><rect class="cls-3" width="639" height="215"/></g></g><g class="cls-2"><polygon class="cls-4" points="260.7 80.8 226.1 128.6 203.1 112 237.6 64.1 260.7 80.8"/><path id="Path" class="cls-1" d="M241.7,102.5a7.5,7.5,0,0,0,1-2l-2.6,3.6A12.09,12.09,0,0,0,241.7,102.5Z"/><path class="cls-1" d="M225.4,104.9a13.31,13.31,0,0,1-5.7-10.6l-9.6,13.6a4.76,4.76,0,0,1,1,5.3l11.2,8.2a4.25,4.25,0,0,1,5.2-.7l9.6-13.6A13.07,13.07,0,0,1,225.4,104.9Z"/><path class="cls-1" d="M238,88.3a13.31,13.31,0,0,1,5.7,10.6l9.7-13.6a4.76,4.76,0,0,1-1-5.3l-11.2-8.2a4.25,4.25,0,0,1-5.2.7l-9.6,13.6A12.92,12.92,0,0,1,238,88.3Z"/><path class="cls-1" d="M222.2,89.3a7.5,7.5,0,0,0-1,2l2.6-3.6a8.08,8.08,0,0,0-1.6,1.6Z"/><path class="cls-3" d="M236.1,72.3a4.41,4.41,0,0,0,5.2-.8l10.9,7.8a4.27,4.27,0,0,0,.9,5.1l-9.7,13.3a5.7,5.7,0,0,1-.1,1.3L254,84.3l-.1-.1a3.84,3.84,0,0,1-1.5-2.4,3.3,3.3,0,0,1,.7-2.7l-12-8.6a3.67,3.67,0,0,1-5.1.8l-.1-.1L225.2,85.9a6.12,6.12,0,0,1,1.2-.5Z"/><path class="cls-3" d="M209.8,113.1l12,8.6a3.67,3.67,0,0,1,5.1-.8l.1.1,10.7-14.7a6.12,6.12,0,0,1-1.2.5l-9.7,13.3a4.41,4.41,0,0,0-5.2.8l-11-7.9a4.27,4.27,0,0,0-.9-5.1l9.7-13.3a5.7,5.7,0,0,1,.1-1.3L208.8,108l.1.1A3.39,3.39,0,0,1,209.8,113.1Z"/><path class="cls-3" d="M237.7,88.8c3.7,2.7,5.6,6.8,5.1,10.6l.8-1a12.62,12.62,0,0,0-5.5-10.1,13.29,13.29,0,0,0-11.4-2l-.8,1A12,12,0,0,1,237.7,88.8Z"/><path class="cls-3" d="M225.8,104.4c-3.7-2.7-5.6-6.8-5.1-10.6l-.8,1a12.62,12.62,0,0,0,5.5,10.1,13.29,13.29,0,0,0,11.4,2l.8-1A12.14,12.14,0,0,1,225.8,104.4Z"/><path class="cls-3" d="M222.2,89.3a8.56,8.56,0,0,1,1.9-1.9l1-1.4a9.38,9.38,0,0,0-5.3,7.2l1-1.4A8.57,8.57,0,0,1,222.2,89.3Z"/><path class="cls-3" d="M240.8,103a8.56,8.56,0,0,1-1.9,1.9l-1,1.4a9.38,9.38,0,0,0,5.3-7.2l-1,1.4A10.1,10.1,0,0,1,240.8,103Z"/><path class="cls-3" d="M226.2,86.3l.7-1.2a6.94,6.94,0,0,0-1.3.5l-1,1.6c.6-.3,1.1-.6,1.6-.9Z"/><path class="cls-3" d="M220.9,93a9.85,9.85,0,0,1,.2-1.7l-.9,1.4V94Z"/><path class="cls-3" d="M243,98.8a9.85,9.85,0,0,1-.2,1.7l.9-1.4V97.8Z"/><path class="cls-3" d="M237.6,105.5l-.7,1.2a6.94,6.94,0,0,0,1.3-.5l1-1.6C238.7,104.9,238.2,105.2,237.6,105.5Z"/><path id="Oval" class="cls-3" d="M255.3,81.3a1,1,0,1,1-1,1A.94.94,0,0,1,255.3,81.3Z"/><circle class="cls-3" cx="238.6" cy="69.4" r="1"/><circle class="cls-3" cx="226.2" cy="124.1" r="1"/><circle class="cls-3" cx="208.2" cy="110.9" r="1"/><path id="Shape" class="cls-3" d="M227.8,93.8a9.4,9.4,0,0,1,4-2.8l.9,2.5a7.89,7.89,0,0,0-2.9,1.8l1,.7c2-1.8,3.5-2.5,5.1-1.4h0c1.5,1.1,1.8,2.9.3,5.2l.7.5-.9,1.3-.7-.5a7.65,7.65,0,0,1-3.1,2.2l-1-2.5a5.61,5.61,0,0,0,2-1.2l-1-.7c-1.9,1.8-3.4,2.5-5,1.3h0c-1.6-1.1-1.6-3.1-.3-5.1l-1.2-.8.9-1.3Zm6.4,4.7c.4-.6.4-1,.2-1.1h0c-.3-.2-.5-.1-1.1.5Zm-5.4-.9h0c.3.2.5.1,1.1-.4l-1-.7C228.5,97.1,228.5,97.4,228.8,97.6Z"/><path class="cls-3" d="M225.7,94.3l.9-1.2h.1l1.1.8a10.8,10.8,0,0,1,3.9-2.8h.1l.9,2.5v.1a10,10,0,0,0-2.8,1.7l.9.6c1.8-1.7,3.4-2.5,5.1-1.4h0c1.6,1.1,1.7,3.1.4,5.2l.6.4v.1l-.9,1.3h-.1l-.7-.5a7.79,7.79,0,0,1-3,2.1h-.1l-1-2.4v-.1h.1a4.74,4.74,0,0,0,1.9-1.2l-.9-.6c-1.8,1.6-3.3,2.5-5,1.2h0c-1.5-1.1-1.7-3-.4-5l-1.1-.8h0Zm1-1.1-.8,1.1,1.1.8v.1c-1.3,2.1-1.2,3.8.3,4.9h0c1.6,1.2,3.1.4,4.9-1.3h.1l1,.7h0v.1a6.66,6.66,0,0,1-2,1.2l.9,2.3a9,9,0,0,0,3-2.1h.1l.7.5.8-1.1-.6-.4h0v-.1c1.4-2,1.3-3.9-.3-5h0c-1.4-1-2.8-.6-4.9,1.4h-.1l-1-.7h0v-.1a8.39,8.39,0,0,1,2.8-1.8l-.9-2.4A9.45,9.45,0,0,0,228,94h-.1Zm2.2,3.3h.1l1,.7h0v.1c-.6.5-.8.6-1.2.4h0c-.3-.2-.3-.6.1-1.2Zm.9.7-.8-.6c-.4.7-.2.9-.1.9h0c.2.2.4.2.9-.3Zm3.4.6h0c.6-.5.9-.7,1.2-.5h0c.2.1.4.5-.1,1.2h-.2l-.9-.7Zm1,.6c.3-.5.4-.8.1-1h0c-.2-.1-.4-.1-1,.4Z"/></g><g class="cls-2"><polygon class="cls-4" points="48.4 186.6 -5.1 211.5 -17.1 185.7 36.5 160.8 48.4 186.6"/><path id="Path-2" data-name="Path" class="cls-1" d="M21.2,196.3a7.61,7.61,0,0,0,1.9-1.2L19,196.9A7.94,7.94,0,0,0,21.2,196.3Z"/><path class="cls-1" d="M5.9,190.4a13.27,13.27,0,0,1,.2-12L-9,185.5a4.56,4.56,0,0,1-1.7,5.1L-5,203.2a4.32,4.32,0,0,1,4.9,1.9L15,198A12.89,12.89,0,0,1,5.9,190.4Z"/><path class="cls-1" d="M25,182.1a13.27,13.27,0,0,1-.2,12L39.9,187a4.56,4.56,0,0,1,1.7-5.1l-5.7-12.6a4.32,4.32,0,0,1-4.9-1.9l-15.1,7.1A13.13,13.13,0,0,1,25,182.1Z"/><path class="cls-1" d="M10.7,175.3a7.61,7.61,0,0,0-1.9,1.2l4.1-1.8a5.55,5.55,0,0,0-2.2.6Z"/><path class="cls-3" d="M31.1,167.3a4.27,4.27,0,0,0,4.9,1.8l5.7,12.2a4.32,4.32,0,0,0-1.7,4.9L25.1,193c-.2.4-.5.7-.7,1.1l16.5-7.6v-.1a3.42,3.42,0,0,1-.1-2.8,3.57,3.57,0,0,1,1.9-2.1l-6.2-13.3a3.82,3.82,0,0,1-4.9-1.8l-.1-.1L15,173.9a5.85,5.85,0,0,1,1.3.2Z"/><path class="cls-3" d="M-11.7,190l6.2,13.3a3.82,3.82,0,0,1,4.9,1.8l.1.1L16,197.6a5.85,5.85,0,0,1-1.3-.2L-.2,204.3a4.27,4.27,0,0,0-4.9-1.8l-5.7-12.2a4.32,4.32,0,0,0,1.7-4.9l14.9-6.9c.2-.4.5-.7.7-1.1L-10,185v.1A3.68,3.68,0,0,1-11.7,190Z"/><path class="cls-3" d="M24.4,182.4c2,4.1,1.6,8.7-.7,11.7l1.2-.5a12.56,12.56,0,0,0,.1-11.5,13,13,0,0,0-9-7.3l-1.2.5A11.78,11.78,0,0,1,24.4,182.4Z"/><path class="cls-3" d="M6.5,190.2c-2-4.1-1.6-8.7.7-11.7L6,179a12.56,12.56,0,0,0-.1,11.5,13,13,0,0,0,9,7.3l1.2-.5A12.18,12.18,0,0,1,6.5,190.2Z"/><path class="cls-3" d="M10.7,175.2a7.71,7.71,0,0,1,2.6-.7l1.6-.7a9.38,9.38,0,0,0-8.1,3.7l1.6-.7A7.33,7.33,0,0,1,10.7,175.2Z"/><path class="cls-3" d="M20.2,196.3a7.71,7.71,0,0,1-2.6.7l-1.6.7a9.38,9.38,0,0,0,8.1-3.7l-1.6.7A4.61,4.61,0,0,1,20.2,196.3Z"/><path class="cls-3" d="M15.7,174.6l1.2-.7a6.75,6.75,0,0,0-1.4-.2l-1.7.9Z"/><path class="cls-3" d="M7.8,177.9c.3-.5.7-.9,1-1.4l-1.4.8c-.2.4-.5.7-.7,1.1Z"/><path class="cls-3" d="M24.1,193.7c-.3.5-.7.9-1,1.4l1.4-.8c.2-.4.5-.7.7-1.1Z"/><path class="cls-3" d="M16.3,196.9l-1.2.7a6.75,6.75,0,0,0,1.4.2l1.7-.9A6,6,0,0,1,16.3,196.9Z"/><circle id="Oval-2" data-name="Oval" class="cls-3" cx="43" cy="185.3" r="1"/><circle class="cls-3" cx="34.7" cy="166" r="1"/><path id="Shape-2" data-name="Shape" class="cls-3" d="M13.4,181.9a10.06,10.06,0,0,1,4.9-.5l-.4,2.7a7.84,7.84,0,0,0-3.4.2l.5,1.1c2.7-.6,4.3-.5,5.1,1.3h0c.8,1.7.2,3.5-2.3,4.7l.4.8-1.4.7-.4-.8a8.13,8.13,0,0,1-3.8.4l.4-2.7a6.47,6.47,0,0,0,2.4-.1l-.5-1.1c-2.5.6-4.2.5-5-1.3h0c-.8-1.8.1-3.5,2.2-4.6l-.6-1.3,1.4-.6Zm3.3,7.3c.7-.3.8-.6.7-.9h0c-.1-.3-.4-.4-1.2-.1Zm-4.3-3.5h0c.1.3.4.3,1.1.2l-.5-1.1C12.4,185.1,12.3,185.4,12.4,185.7Z"/><path class="cls-3" d="M11.3,181.3l1.4-.6h.1l.6,1.3a11.12,11.12,0,0,1,4.8-.5h0v.1l-.4,2.6a.1.1,0,0,1-.1.1,7.39,7.39,0,0,0-3.3.2l.5,1c2.4-.6,4.2-.5,5.1,1.3h0c.9,1.8,0,3.5-2.2,4.7l.3.7v.1l-1.4.6h-.1l-.4-.7a9.19,9.19,0,0,1-3.7.4.1.1,0,0,1-.1-.1l.3-2.6h.1a5.45,5.45,0,0,0,2.2-.1l-.5-1c-2.3.5-4.1.5-5-1.4h0c-.8-1.7,0-3.4,2.1-4.6l-.6-1.2c.2-.1.2-.2.3-.3Zm1.4-.5-1.3.6.6,1.2v.1c-2.1,1.2-2.9,2.8-2.1,4.4h0c.9,1.8,2.5,1.8,4.9,1.3h.1l.5,1.1v.1h0a6,6,0,0,1-2.3.1l-.3,2.5a7.31,7.31,0,0,0,3.6-.4h.1l.3.7,1.3-.6-.3-.7v-.1h0c2.2-1.1,3-2.8,2.2-4.5h0c-.7-1.6-2.1-1.9-5-1.2h-.1l-.5-1.1v-.1h0a7.39,7.39,0,0,1,3.3-.2l.4-2.5a10.67,10.67,0,0,0-4.7.5h-.1Zm.3,4h0l.6,1.1v.1h0c-.7.2-1.1.1-1.2-.2h0c-.2-.3,0-.7.6-1Zm.5,1.1L13,185c-.7.4-.6.7-.6.8h0a1.54,1.54,0,0,0,1.1.1Zm2.6,2.2h0c.8-.2,1.1-.1,1.3.2h0c.1.2.1.6-.7,1h-.1l-.5-1.2Zm.6,1c.5-.3.7-.5.6-.8h0c-.1-.2-.3-.3-1-.1Z"/></g><g class="cls-2"><polygon class="cls-4" points="629 -6.1 594.4 41.8 571.3 25.1 605.9 -22.8 629 -6.1"/><path id="Path-3" data-name="Path" class="cls-1" d="M610,15.6a5.38,5.38,0,0,0,1-2l-2.6,3.6A6.07,6.07,0,0,0,610,15.6Z"/><path class="cls-1" d="M593.7,18A13.31,13.31,0,0,1,588,7.4L578.4,21a4.76,4.76,0,0,1,1,5.3l11.2,8.2a4.25,4.25,0,0,1,5.2-.7l9.6-13.6A13.07,13.07,0,0,1,593.7,18Z"/><path class="cls-1" d="M606.3,1.4A13.46,13.46,0,0,1,612,12l9.7-13.6a4.76,4.76,0,0,1-1-5.3l-11.2-8.2a4.25,4.25,0,0,1-5.2.7L594.7-.8A12.92,12.92,0,0,1,606.3,1.4Z"/><path class="cls-1" d="M590.5,2.5a7.5,7.5,0,0,0-1,2L592.1.9a4.89,4.89,0,0,0-1.6,1.6Z"/><path class="cls-3" d="M604.4-14.5a4.41,4.41,0,0,0,5.2-.8l10.9,7.8a4.27,4.27,0,0,0,.9,5.1l-9.7,13.3a5.7,5.7,0,0,1-.1,1.3L622.3-2.5l-.1-.1A3.84,3.84,0,0,1,620.7-5a3.3,3.3,0,0,1,.7-2.7l-12-8.6a3.67,3.67,0,0,1-5.1.8l-.1-.1L593.5-.8a6.12,6.12,0,0,1,1.2-.5Z"/><path class="cls-3" d="M578.1,26.2l12,8.6a3.67,3.67,0,0,1,5.1-.8l.1.1L606,19.4a6.12,6.12,0,0,1-1.2.5l-9.7,13.3a4.41,4.41,0,0,0-5.2.8l-11-7.9A4.27,4.27,0,0,0,578,21l9.7-13.3a5.7,5.7,0,0,1,.1-1.3L577.1,21.1l.1.1A3.4,3.4,0,0,1,578.1,26.2Z"/><path class="cls-3" d="M606,1.9c3.7,2.7,5.6,6.8,5.1,10.6l.8-1a12.62,12.62,0,0,0-5.5-10.1A13.29,13.29,0,0,0,595-.6l-.8,1C597.6-1.2,602.2-.7,606,1.9Z"/><path class="cls-3" d="M594.1,17.5c-3.7-2.7-5.6-6.8-5.1-10.6l-.8,1A12.62,12.62,0,0,0,593.7,18a13.29,13.29,0,0,0,11.4,2l.8-1A11.9,11.9,0,0,1,594.1,17.5Z"/><path class="cls-3" d="M590.4,2.4A8.56,8.56,0,0,1,592.3.5l1-1.4A9.38,9.38,0,0,0,588,6.3l1-1.4A28,28,0,0,1,590.4,2.4Z"/><path class="cls-3" d="M609.1,16.2a8.56,8.56,0,0,1-1.9,1.9l-1,1.4a9.38,9.38,0,0,0,5.3-7.2l-1,1.4A12.29,12.29,0,0,1,609.1,16.2Z"/><path class="cls-3" d="M594.5-.5l.7-1.2a6.94,6.94,0,0,0-1.3.5l-1,1.6a8.94,8.94,0,0,1,1.6-.9Z"/><path class="cls-3" d="M589.2,6.1a9.85,9.85,0,0,1,.2-1.7l-.9,1.4V7.1Z"/><path class="cls-3" d="M611.3,12a9.85,9.85,0,0,1-.2,1.7l.9-1.4V11Z"/><path class="cls-3" d="M605.9,18.6l-.7,1.2a6.94,6.94,0,0,0,1.3-.5l1-1.6A5.07,5.07,0,0,1,605.9,18.6Z"/><circle class="cls-3" cx="594.5" cy="37.3" r="1"/><circle class="cls-3" cx="576.5" cy="24" r="1"/><path id="Shape-3" data-name="Shape" class="cls-3" d="M596.1,7a9.4,9.4,0,0,1,4-2.8l.9,2.5a7.89,7.89,0,0,0-2.9,1.8l1,.7c2-1.8,3.5-2.5,5.1-1.4h0c1.5,1.1,1.8,2.9.3,5.2l.7.5-.9,1.3-.7-.5a7.65,7.65,0,0,1-3.1,2.2l-1-2.5a5.61,5.61,0,0,0,2-1.2l-1-.7c-1.9,1.8-3.4,2.5-5,1.3h0c-1.6-1.1-1.6-3.1-.3-5.1L594,7.4l.9-1.3Zm6.4,4.7c.4-.6.4-1,.2-1.1h0c-.3-.2-.5-.1-1.1.5Zm-5.4-1h0c.3.2.5.1,1.1-.4l-1-.7C596.8,10.2,596.8,10.5,597.1,10.7Z"/><path class="cls-3" d="M594,7.4l.9-1.2h.1l1.1.8A10.8,10.8,0,0,1,600,4.2h.1l.9,2.5v.1a10,10,0,0,0-2.8,1.7l.9.6c1.8-1.7,3.4-2.5,5.1-1.4h0c1.6,1.1,1.7,3.1.4,5.2l.6.4v.1l-.9,1.3h-.1l-.7-.5a7.79,7.79,0,0,1-3,2.1h-.1l-1-2.4v-.1h.1a4.74,4.74,0,0,0,1.9-1.2l-.9-.6c-1.8,1.6-3.3,2.5-5,1.2h0c-1.5-1.1-1.7-3-.4-5L594,7.6h-.1C593.9,7.5,593.9,7.5,594,7.4Zm1-1.1-.8,1.1,1.1.8v.1c-1.3,2.1-1.2,3.8.3,4.9h0c1.6,1.2,3.1.4,4.9-1.3h.1l1,.7h0v.1a6.66,6.66,0,0,1-2,1.2l.9,2.3a9,9,0,0,0,3-2.1h.1l.7.5.8-1.1-.6-.4h0V13c1.4-2,1.3-3.9-.3-5h0c-1.4-1-2.8-.6-4.9,1.4h-.1l-1-.7h0V8.6A8.39,8.39,0,0,1,601,6.8l-.9-2.4a9.45,9.45,0,0,0-3.8,2.7h-.1Zm2.2,3.3h0l1.1.7h0v.1c-.6.5-.8.6-1.2.4h0c-.3-.2-.3-.6.1-1.2Zm.9.8-.8-.6c-.4.7-.2.9-.1.9h0c.2.1.4.1.9-.3Zm3.4.6h0c.6-.5.9-.7,1.2-.5h0c.2.1.4.5-.1,1.2h-.2l-.9-.7c-.1.1-.1,0,0,0Zm1,.6c.3-.5.4-.8.1-1h0c-.2-.1-.4-.1-1,.4Z"/></g><g class="cls-2"><polygon class="cls-4" points="55.3 124.3 101.1 107 118.3 152.9 72.5 170.1 55.3 124.3"/><polygon class="cls-3" points="74.4 117.1 82 114.2 99.2 160.1 91.6 162.9 74.4 117.1"/><polygon class="cls-3" points="108.3 126.1 111.1 133.8 65.3 151 62.5 143.4 108.3 126.1"/><path class="cls-4" d="M78,115.4l-10.8,4.1s-8.6,3.2-11-3.4S68.5,105.2,78,115.4Z"/><path class="cls-4" d="M78,115.4l11.2-4.2s8.9-3.5,6.3-10.2S78.6,100.9,78,115.4Z"/><path class="cls-4" d="M78,115.4S58.7,102.1,71.3,97C82.8,92.3,78,115.4,78,115.4Z"/></g><g class="cls-2"><polygon class="cls-4" points="34.4 28.5 10.8 71.4 -32.1 47.8 -8.5 4.9 34.4 28.5"/><polygon class="cls-3" points="24.6 46.4 20.7 53.5 -22.2 29.9 -18.3 22.7 24.6 46.4"/><polygon class="cls-3" points="-7 61.6 -14.2 57.6 9.4 14.7 16.6 18.7 -7 61.6"/><path class="cls-4" d="M22.9,50l5.5-10.1s4.5-8,10.5-4.6S36.8,51.6,22.9,50Z"/><path class="cls-4" d="M23,50.1,17.2,60.6S12.7,69,19,72.4,31.9,61.4,23,50.1Z"/><path class="cls-4" d="M23,50.1s23.3-2.5,17.1,9.6C34.3,70.7,23,50.1,23,50.1Z"/></g><g class="cls-2"><polygon class="cls-4" points="193.2 188.3 231.5 218.6 201.1 257 162.8 226.6 193.2 188.3"/><polygon class="cls-3" points="209.1 200.9 215.6 206 185.1 244.4 178.7 239.3 209.1 200.9"/><polygon class="cls-3" points="218.9 234.6 213.8 241 175.4 210.6 180.5 204.2 218.9 234.6"/><path class="cls-4" d="M212.4,203.2l-9.1-7.1s-7.2-5.7-2.8-11.2S216.3,189.7,212.4,203.2Z"/><path class="cls-4" d="M212.5,203.1l9.4,7.4s7.6,5.8,12,.2S225.2,196.2,212.5,203.1Z"/><path class="cls-4" d="M212.5,203.1s1.4-23.4,12.3-15.2C234.8,195.4,212.5,203.1,212.5,203.1Z"/></g><g class="cls-2"><polygon class="cls-4" points="302.1 40.9 261.4 13.7 288.6 -27 329.3 0.1 302.1 40.9"/><polygon class="cls-3" points="285.2 29.6 278.4 25 305.5 -15.7 312.3 -11.2 285.2 29.6"/><polygon class="cls-3" points="272.7 -3.2 277.3 -10 318 17.1 313.4 23.9 272.7 -3.2"/><path class="cls-4" d="M281.7,27.6l9.6,6.3s7.6,5.1,3.7,10.9S278.9,41.3,281.7,27.6Z"/><path class="cls-4" d="M281.6,27.6l-10-6.6s-8-5.2-12,.8C255.8,27.8,269.6,35.6,281.6,27.6Z"/><path class="cls-4" d="M281.7,27.6s.5,23.4-11,16.2C260.1,37.2,281.7,27.6,281.7,27.6Z"/></g><g class="cls-2"><polygon class="cls-4" points="599.5 171.8 646.3 186 632 232.8 585.2 218.6 599.5 171.8"/><polygon class="cls-3" points="619 177.7 626.8 180.1 612.5 226.9 604.7 224.5 619 177.7"/><polygon class="cls-3" points="640.4 205.5 638 213.3 591.2 199.1 593.5 191.3 640.4 205.5"/><path class="cls-4" d="M622.9,178.6l-11.1-3.3s-8.8-2.7-6.7-9.4S621.6,164.6,622.9,178.6Z"/><path class="cls-4" d="M622.9,178.5l11.5,3.5s9.2,2.6,11.2-4.2S632.2,167.4,622.9,178.5Z"/><path class="cls-4" d="M622.9,178.5s-7.3-22.3,5.8-18.7C640.8,163.2,622.9,178.5,622.9,178.5Z"/></g><g class="cls-2"><polygon class="cls-4" points="127.1 33 77.8 0.5 93.5 -23.3 142.8 9.3 127.1 33"/><path id="Path-4" data-name="Path" class="cls-1" d="M104.6,14.9a12.44,12.44,0,0,0,2,1l-3.7-2.5A6.12,6.12,0,0,0,104.6,14.9Z"/><path class="cls-1" d="M101.5-1.2a13.51,13.51,0,0,1,10.3-6.2l-14-9.1a4.47,4.47,0,0,1-5.2,1.2L84.9-3.7a4.57,4.57,0,0,1,1,5.2l14,9.1A13,13,0,0,1,101.5-1.2Z"/><path class="cls-1" d="M118.6,10.7a13.51,13.51,0,0,1-10.3,6.2l14,9.1a4.47,4.47,0,0,1,5.2-1.2l7.7-11.5a4.57,4.57,0,0,1-1-5.2L120.2-1A12.28,12.28,0,0,1,118.6,10.7Z"/><path class="cls-3" d="M134.5,8.1a4.45,4.45,0,0,0,1,5.1l-7.4,11.3a4.3,4.3,0,0,0-5.1,1.1l-13.7-9.1H108l15.1,10.1.1-.1a3.76,3.76,0,0,1,2.3-1.6,4,4,0,0,1,2.8.5l8.1-12.3A3.71,3.71,0,0,1,135.3,8l.1-.1L120.3-2.2l.6,1.2Z"/><path class="cls-3" d="M92.7-16.4,84.6-4.1A3.71,3.71,0,0,1,85.7,1l-.1.1,15.1,10.1-.6-1.2L86.5.9a4.45,4.45,0,0,0-1-5.1l7.4-11.3A4.44,4.44,0,0,0,98-16.6l13.7,9.1H113L97.8-17.6l-.1.1A3.59,3.59,0,0,1,92.7-16.4Z"/><path class="cls-3" d="M118.1,10.4c-2.5,3.8-6.6,5.9-10.3,5.6l1.1.7a12.3,12.3,0,0,0,9.8-5.9A13,13,0,0,0,120.2-.7l-1.1-.7C120.9,1.9,120.6,6.5,118.1,10.4Z"/><path class="cls-3" d="M102-.9c2.5-3.8,6.6-5.9,10.3-5.6l-1.1-.7a12.3,12.3,0,0,0-9.8,5.9,13,13,0,0,0-1.5,11.5l1.1.8A12.22,12.22,0,0,1,102-.9Z"/><path class="cls-3" d="M104,14.1a7.21,7.21,0,0,1-2-1.9l-1.5-1a9.52,9.52,0,0,0,7.4,5l-1.5-1A8.56,8.56,0,0,1,104,14.1Z"/><path class="cls-3" d="M108.3,16.1a9.85,9.85,0,0,1-1.7-.2l1.4.8h1.3Z"/><path class="cls-3" d="M101.4,11l-1.2-.7a7.54,7.54,0,0,0,.6,1.3l1.7.9A4.18,4.18,0,0,1,101.4,11Z"/><circle id="Oval-3" data-name="Oval" class="cls-3" cx="125.3" cy="27.7" r="1"/><circle class="cls-3" cx="137.5" cy="10.5" r="1"/><circle class="cls-3" cx="82.3" cy="0.3" r="1"/><path id="Shape-4" data-name="Shape" class="cls-3" d="M112.7.7a10.49,10.49,0,0,1,3,3.9l-2.5,1a7.74,7.74,0,0,0-1.9-2.8l-.7,1c1.9,1.9,2.7,3.4,1.6,5h0c-1,1.6-2.9,1.9-5.2.5l-.5.7-1.3-.9.5-.7a7.56,7.56,0,0,1-2.3-3l2.4-1.1a8.58,8.58,0,0,0,1.3,2l.7-1c-1.8-1.8-2.6-3.3-1.5-5h0c1.1-1.7,3-1.7,5-.6l.8-1.2,1.3.9Zm-4.5,6.6c.6.4,1,.4,1.1.1h0c.2-.3.1-.5-.5-1.1Zm.8-5.5h0c-.2.3-.1.5.5,1.1l.7-1C109.5,1.6,109.1,1.6,109,1.8Z"/><path class="cls-3" d="M112.1-1.4l1.3.9h0v.1L112.6.8a9,9,0,0,1,2.9,3.8v.1h0l-2.5,1h-.1A8,8,0,0,0,111.1,3l-.6.9c1.7,1.8,2.7,3.3,1.6,5h0c-1.1,1.7-3,1.9-5.1.6l-.4.7h-.1l-1.3-.9V9.2l.4-.7a7.73,7.73,0,0,1-2.2-2.9V5.5l2.4-1.1h.1v.1a7.61,7.61,0,0,0,1.2,1.9l.6-.9c-1.7-1.7-2.6-3.2-1.5-5h0c1-1.6,2.9-1.8,5-.6l.9-1.3Zm1.1,1L112-1.2,111.3,0h-.1c-2.1-1.2-3.9-1-4.9.5h0c-1.1,1.7-.3,3.1,1.5,4.8v.1l-.7,1H107a8,8,0,0,1-1.3-1.9l-2.3,1a8.93,8.93,0,0,0,2.2,2.9v.1l-.4.7,1.2.8.4-.7h.1c2.1,1.3,4,1.1,5-.5h0c.9-1.4.5-2.8-1.6-4.9V3.8l.7-1h.1A8.3,8.3,0,0,1,113,5.5l2.3-1A8.73,8.73,0,0,0,112.4.8V.7ZM110,1.9h0L109.4,3h-.1c-.6-.5-.7-.8-.5-1.1h0c.3-.4.7-.3,1.2,0Zm-.7.9.6-.9c-.7-.4-.9-.1-.9-.1h0c-.2.3-.1.5.3,1Zm-.4,3.4h0c.6.5.7.9.5,1.2h0c-.1.2-.4.4-1.2-.1V7.1l.7-.9Zm-.6,1.1c.5.3.8.3,1,.1h0c.1-.2.1-.4-.4-.9Z"/></g></svg>