<svg id="Layer_1" data-name="Layer 1" xmlns="http://www.w3.org/2000/svg" xmlns:xlink="http://www.w3.org/1999/xlink" viewBox="0 0 313 386"><defs><style>.cls-1{fill:none;}.cls-2{clip-path:url(#clip-path);}.cls-3{fill:#983ac9;}.cls-4{fill:#731daa;}</style><clipPath id="clip-path"><rect class="cls-1" width="313" height="386"/></clipPath></defs><title>Group_16-01 (1)</title><g class="cls-2"><rect id="Rectangle" class="cls-3" x="-2.6" width="315.6" height="386"/><polygon class="cls-4" points="265 82.3 212.4 109.2 199.5 83.9 252 57 265 82.3"/><path id="Path" class="cls-1" d="M238.2,93a6,6,0,0,0,1.8-1.3l-4,2A5.73,5.73,0,0,0,238.2,93Z"/><path class="cls-1" d="M222.6,87.7a13.38,13.38,0,0,1-.3-12l-14.8,7.7a4.66,4.66,0,0,1-1.5,5.2l6.2,12.4a4.42,4.42,0,0,1,5,1.7L232,95C228.3,94.5,224.7,91.8,222.6,87.7Z"/><path class="cls-1" d="M241.4,78.7a13.38,13.38,0,0,1,.3,12L256.5,83a4.66,4.66,0,0,1,1.5-5.2l-6.2-12.4a4.42,4.42,0,0,1-5-1.7L232,71.4A13.27,13.27,0,0,1,241.4,78.7Z"/><path class="cls-1" d="M226.8,72.4a6,6,0,0,0-1.8,1.3l4-2A8.18,8.18,0,0,0,226.8,72.4Z"/><path class="cls-3" d="M247,63.6a4.42,4.42,0,0,0,5,1.7l6.2,12a4.23,4.23,0,0,0-1.5,5L242,89.7a6.61,6.61,0,0,1-.7,1.1l16.2-8.2-.1-.1a3.93,3.93,0,0,1-.2-2.8,3.76,3.76,0,0,1,1.8-2.1l-6.7-13.1a3.79,3.79,0,0,1-5-1.6l-.1-.1L231,70.9a5.66,5.66,0,0,1,1.3.1Z"/><path class="cls-3" d="M205,87.9l6.7,13.1a3.79,3.79,0,0,1,5,1.6l.1.1L233,94.5a5.66,5.66,0,0,1-1.3-.1L217,101.8a4.42,4.42,0,0,0-5-1.7l-6.2-12a4.23,4.23,0,0,0,1.5-5L222,75.7a4.11,4.11,0,0,1,.7-1.1l-16.2,8.2.1.1A3.73,3.73,0,0,1,205,87.9Z"/><path class="cls-3" d="M240.8,79c2.1,4.1,1.9,8.6-.2,11.7l1.1-.6a12.64,12.64,0,0,0-.3-11.5,13,13,0,0,0-9.3-7l-1.1.6A12.12,12.12,0,0,1,240.8,79Z"/><path class="cls-3" d="M223.2,87.5c-2.1-4.1-1.9-8.6.2-11.7l-1.1.6a12.64,12.64,0,0,0,.3,11.5,13,13,0,0,0,9.3,7l1.1-.6A12.56,12.56,0,0,1,223.2,87.5Z"/><path class="cls-3" d="M226.8,72.3a7.63,7.63,0,0,1,2.6-.8l1.6-.8a9.34,9.34,0,0,0-8,4l1.6-.8A12.37,12.37,0,0,1,226.8,72.3Z"/><path class="cls-3" d="M237.2,93.1a7.63,7.63,0,0,1-2.6.8l-1.6.8a9.34,9.34,0,0,0,8-4l-1.6.8A7,7,0,0,1,237.2,93.1Z"/><path class="cls-3" d="M231.8,71.6l1.2-.7a6.56,6.56,0,0,0-1.4-.1l-1.6,1A5.73,5.73,0,0,1,231.8,71.6Z"/><path class="cls-3" d="M224,75.1a7,7,0,0,1,1-1.4l-1.4.8-.6,1.2Z"/><path class="cls-3" d="M241,90.3a7,7,0,0,1-1,1.4l1.4-.8.6-1.2Z"/><path class="cls-3" d="M233.2,93.9l-1.2.7a6.56,6.56,0,0,0,1.4.1l1.6-1A10.9,10.9,0,0,1,233.2,93.9Z"/><circle id="Oval" class="cls-3" cx="259.5" cy="81.2" r="1"/><circle class="cls-3" cx="250.5" cy="62.2" r="1"/><circle class="cls-3" cx="214.5" cy="105.2" r="1"/><circle class="cls-3" cx="204.5" cy="85.2" r="1"/><path id="Shape" class="cls-3" d="M229.8,79a9.86,9.86,0,0,1,4.8-.7l-.3,2.7a9.76,9.76,0,0,0-3.4.3l.6,1.1c2.6-.7,4.3-.6,5.2,1.1h0c.9,1.6.3,3.4-2.1,4.8l.4.8-1.4.7-.4-.8a7.92,7.92,0,0,1-3.7.5l.2-2.7a6.47,6.47,0,0,0,2.4-.2l-.6-1.1c-2.5.7-4.1.6-5.1-1.1h0c-.9-1.8-.1-3.5,2-4.7l-.7-1.3,1.4-.7Zm3.5,7.1c.7-.3.8-.7.7-.9h0c-.1-.3-.4-.3-1.2-.1Zm-4.4-3.3h0c.1.3.4.3,1.2.1l-.6-1.1c-.6.4-.7.7-.6,1Z"/><path class="cls-3" d="M227.7,78.4l1.4-.7h.1l.6,1.2a10.78,10.78,0,0,1,4.7-.7h0v.1l-.3,2.6a.09.09,0,0,1-.1.1h0a8.64,8.64,0,0,0-3.2.3l.5,1c2.4-.7,4.2-.7,5.1,1.1h0c.9,1.7.2,3.5-2,4.8l.4.7V89l-1.4.7h-.1L233,89a7.65,7.65,0,0,1-3.7.5.09.09,0,0,1-.1-.1h0l.2-2.6h.1a7.75,7.75,0,0,0,2.2-.1l-.5-.9c-2.3.6-4.1.7-5-1.2h0c-.9-1.7-.1-3.4,1.9-4.7l-.6-1.2c.1-.1.1-.2.2-.3C227.6,78.5,227.6,78.4,227.7,78.4Zm1.4-.5-1.3.6.6,1.2v.1c-2.1,1.2-2.8,2.9-1.9,4.5h0c.9,1.8,2.6,1.7,4.9,1.1h.1l.6,1.1v.1h0a6.17,6.17,0,0,1-2.3.2l-.2,2.5a8.65,8.65,0,0,0,3.6-.5h.1l.4.7,1.3-.6-.4-.7v-.1h0c2.1-1.2,2.9-2.9,2-4.6h0c-.8-1.5-2.2-1.8-5-1h-.1l-.6-1.1v-.1h0a9.18,9.18,0,0,1,3.3-.3l.3-2.5a9.46,9.46,0,0,0-4.7.7h-.1Zm.4,3.9h0c.1,0,.1.1,0,0l.6,1.1V83h0c-.7.2-1,.2-1.2-.1h0c-.2-.4,0-.7.6-1.1Zm.5,1.1-.5-.9c-.7.4-.6.7-.5.8h0C229.1,83,229.3,83.1,230,82.9Zm2.7,2.1h0c.7-.2,1.1-.2,1.3.1h0c.1.2.2.6-.7,1h-.1Zm.6,1c.5-.3.7-.6.6-.8h0c-.1-.2-.3-.3-1-.1Z"/><polygon class="cls-4" points="48.8 169.7 -3.8 196.6 -16.8 171.2 35.8 144.3 48.8 169.7"/><path id="Path-2" class="cls-1" d="M21.9,180.4a6,6,0,0,0,1.8-1.3l-4,2A11.27,11.27,0,0,0,21.9,180.4Z"/><path class="cls-1" d="M6.4,175.1a13.38,13.38,0,0,1-.3-12l-14.8,7.7a4.66,4.66,0,0,1-1.5,5.2L-4,188.4a4.42,4.42,0,0,1,5,1.7l14.8-7.7A13.1,13.1,0,0,1,6.4,175.1Z"/><path class="cls-1" d="M25.1,166.1a13.38,13.38,0,0,1,.3,12l14.8-7.7a4.66,4.66,0,0,1,1.5-5.2l-6.2-12.4a4.42,4.42,0,0,1-5-1.7l-14.8,7.7A12.7,12.7,0,0,1,25.1,166.1Z"/><path class="cls-1" d="M10.6,159.8a6,6,0,0,0-1.8,1.3l4-2A5.73,5.73,0,0,0,10.6,159.8Z"/><path class="cls-3" d="M30.7,151a4.42,4.42,0,0,0,5,1.7l6.2,12a4.23,4.23,0,0,0-1.5,5L25.7,177a6.61,6.61,0,0,1-.7,1.1l16.2-8.2-.1-.1a3.93,3.93,0,0,1-.2-2.8,3.76,3.76,0,0,1,1.8-2.1L36,151.8a3.79,3.79,0,0,1-5-1.6l-.1-.1-16.2,8.2a5.66,5.66,0,0,1,1.3.1Z"/><path class="cls-3" d="M-11.2,175.3l6.7,13.1a3.79,3.79,0,0,1,5,1.6l.1.1,16.2-8.2a5.66,5.66,0,0,1-1.3-.1L.8,189.2a4.42,4.42,0,0,0-5-1.7l-6.2-12a4.23,4.23,0,0,0,1.5-5l14.7-7.4a4.11,4.11,0,0,1,.7-1.1l-16.2,8.2.1.1A3.73,3.73,0,0,1-11.2,175.3Z"/><path class="cls-3" d="M24.6,166.3c2.1,4.1,1.9,8.6-.2,11.7l1.1-.6a12.64,12.64,0,0,0-.3-11.5,13,13,0,0,0-9.3-7l-1.1.6A12.56,12.56,0,0,1,24.6,166.3Z"/><path class="cls-3" d="M6.9,174.8c-2.1-4.1-1.9-8.6.2-11.7l-1.1.5a12.64,12.64,0,0,0,.3,11.5,13,13,0,0,0,9.3,7l1.1-.6C13,181.4,9.1,178.9,6.9,174.8Z"/><path class="cls-3" d="M10.6,159.7a7.63,7.63,0,0,1,2.6-.8l1.6-.8a9.34,9.34,0,0,0-8,4l1.6-.8A7,7,0,0,1,10.6,159.7Z"/><path class="cls-3" d="M21,180.4a7.63,7.63,0,0,1-2.6.8l-1.6.8a9.34,9.34,0,0,0,8-4l-1.6.8A8.28,8.28,0,0,1,21,180.4Z"/><path class="cls-3" d="M15.6,158.9l1.2-.7a6.56,6.56,0,0,0-1.4-.1l-1.6,1A10.9,10.9,0,0,1,15.6,158.9Z"/><path class="cls-3" d="M7.8,162.5a7,7,0,0,1,1-1.4l-1.4.8-.6,1.2Z"/><path class="cls-3" d="M24.8,177.7a7,7,0,0,1-1,1.4l1.4-.8.6-1.2Z"/><path class="cls-3" d="M17,181.2l-1.2.7a6.56,6.56,0,0,0,1.4.1l1.6-1A5.73,5.73,0,0,1,17,181.2Z"/><circle id="Oval-2" class="cls-3" cx="43.3" cy="168.6" r="1"/><circle class="cls-3" cx="34.3" cy="149.6" r="1"/><path id="Shape-2" class="cls-3" d="M13.5,166.3a9.86,9.86,0,0,1,4.8-.7l-.3,2.7a9.76,9.76,0,0,0-3.4.3l.6,1.1c2.6-.7,4.3-.6,5.2,1.1h0c.9,1.6.3,3.4-2.1,4.8l.4.8-1.4.7-.4-.8a7.92,7.92,0,0,1-3.7.5l.2-2.7a6.47,6.47,0,0,0,2.4-.2l-.6-1.1c-2.5.7-4.1.6-5.1-1.1h0c-.9-1.8-.1-3.5,2-4.7l-.7-1.3,1.4-.7Zm3.6,7.1c.7-.3.8-.7.7-.9h0c-.1-.3-.4-.3-1.2-.1Zm-4.4-3.3h0c.1.3.4.3,1.2.1l-.6-1.1C12.7,169.5,12.6,169.8,12.7,170.1Z"/><path class="cls-3" d="M11.4,165.8l1.4-.7h.1l.6,1.2a10.78,10.78,0,0,1,4.7-.7h0v.1l-.3,2.6a.09.09,0,0,1-.1.1h0a8.64,8.64,0,0,0-3.2.3l.5,1c2.4-.7,4.2-.7,5.1,1.1h0c.9,1.7.2,3.5-2,4.8l.4.7v.1l-1.4.7h-.1l-.4-.7a7.65,7.65,0,0,1-3.7.5.09.09,0,0,1-.1-.1h0l.2-2.6h.1a7.75,7.75,0,0,0,2.2-.1l-.5-.9c-2.3.6-4.1.7-5-1.2h0c-.9-1.7-.1-3.4,1.9-4.7l-.6-1.2c.2-.2.2-.2.2-.3Zm1.4-.5-1.3.6.6,1.2v.1c-2.1,1.2-2.8,2.9-1.9,4.5h0c.9,1.8,2.6,1.7,4.9,1.1h.1l.6,1.1v.1h0a6.17,6.17,0,0,1-2.3.2l-.2,2.5a8.65,8.65,0,0,0,3.6-.5H17l.4.7,1.3-.6-.4-.7v-.1h0c2.1-1.2,2.9-2.9,2-4.6h0c-.8-1.5-2.2-1.8-5-1h-.1l-.6-1.1v-.1h0a9.18,9.18,0,0,1,3.3-.3l.3-2.5a9.46,9.46,0,0,0-4.7.7h-.1Zm.5,3.9h0l.6,1.1v.1h0c-.7.2-1,.2-1.2-.1h0C12.5,169.9,12.7,169.5,13.3,169.2Zm.5,1.1-.5-.9c-.7.4-.6.7-.5.8h0c.1.2.3.2,1,.1Zm2.7,2h0c.7-.2,1.1-.2,1.3.1h0c.1.2.2.6-.7,1H17Zm.6,1.1c.5-.3.7-.6.6-.8h0c-.1-.2-.3-.3-1-.1Z"/><polygon class="cls-4" points="303.6 378.4 258 340.8 276.1 318.9 321.7 356.4 303.6 378.4"/><path id="Path-3" class="cls-1" d="M283.1,358a7.53,7.53,0,0,0,1.9,1.2l-3.4-2.9A6.1,6.1,0,0,0,283.1,358Z"/><path class="cls-1" d="M281.8,341.7a13.59,13.59,0,0,1,10.9-5.1l-12.9-10.5a4.53,4.53,0,0,1-5.3.6l-8.9,10.7a4.36,4.36,0,0,1,.4,5.3l12.9,10.5A12.64,12.64,0,0,1,281.8,341.7Z"/><path class="cls-1" d="M297.5,355.3a13.59,13.59,0,0,1-10.9,5.1l13,10.5a4.53,4.53,0,0,1,5.3-.6l8.9-10.6a4.36,4.36,0,0,1-.4-5.3l-13-10.5A12.59,12.59,0,0,1,297.5,355.3Z"/><path class="cls-1" d="M297.5,339.4a7.53,7.53,0,0,0-1.9-1.2l3.4,2.9a7.86,7.86,0,0,0-1.5-1.7Z"/><path class="cls-3" d="M313.6,354.4a4.37,4.37,0,0,0,.5,5.2L305.6,370a4.22,4.22,0,0,0-5.2.6l-12.6-10.5a5.68,5.68,0,0,1-1.3-.2l14,11.6.1-.1a3.46,3.46,0,0,1,2.5-1.3,3.75,3.75,0,0,1,2.7.8l9.3-11.4a3.67,3.67,0,0,1-.53-5.16l0,0,.1-.1-14-11.6a5.64,5.64,0,0,1,.4,1.2Z"/><path class="cls-3" d="M274.6,325.6,265.3,337a3.67,3.67,0,0,1,.53,5.16l0,0-.1.1,14,11.6a5.64,5.64,0,0,1-.4-1.2l-12.6-10.5a4.37,4.37,0,0,0-.5-5.2l8.5-10.4a4.36,4.36,0,0,0,5.2-.6l12.6,10.5a5.68,5.68,0,0,1,1.3.2l-14-11.6-.1.1A3.73,3.73,0,0,1,274.6,325.6Z"/><path class="cls-3" d="M297.1,354.9a11.6,11.6,0,0,1-10.9,4.5l1,.8a12.38,12.38,0,0,0,10.4-4.8,13,13,0,0,0,2.7-11.3l-1-.8C300.7,346.8,299.9,351.3,297.1,354.9Z"/><path class="cls-3" d="M282.2,342.1a11.6,11.6,0,0,1,10.9-4.5l-1-.8a12.38,12.38,0,0,0-10.4,4.8,13,13,0,0,0-2.7,11.3l1,.8C278.6,350.2,279.4,345.6,282.2,342.1Z"/><path class="cls-3" d="M297.6,339.4a9.06,9.06,0,0,1,1.8,2.1l1.4,1.1a9.32,9.32,0,0,0-6.8-5.7l1.4,1.1A9,9,0,0,1,297.6,339.4Z"/><path class="cls-3" d="M282.6,357.2a9.06,9.06,0,0,1-1.8-2.1l-1.4-1.1a9.32,9.32,0,0,0,6.8,5.7l-1.4-1.1A13,13,0,0,1,282.6,357.2Z"/><path class="cls-3" d="M300.2,343.7l1.2.8a4.9,4.9,0,0,0-.4-1.3l-1.6-1.1A8,8,0,0,1,300.2,343.7Z"/><path class="cls-3" d="M293.9,337.9l1.7.3-1.3-.9a5.66,5.66,0,0,0-1.3-.1Z"/><path class="cls-3" d="M286.7,359.5l-1.7-.3,1.3.9a5.66,5.66,0,0,0,1.3.1Z"/><path class="cls-3" d="M280.4,353.8l-1.2-.8a4.9,4.9,0,0,0,.4,1.3l1.6,1.1A8,8,0,0,1,280.4,353.8Z"/><circle id="Oval-3" class="cls-3" cx="302.4" cy="372.9" r="1"/><circle class="cls-3" cx="262.5" cy="341.2" r="1"/><circle class="cls-3" cx="276.9" cy="324" r="1"/><path id="Shape-3" class="cls-3" d="M292.7,344.7a10.22,10.22,0,0,1,2.6,4.2l-2.6.8a8.61,8.61,0,0,0-1.6-3l-.8,1c1.7,2.1,2.3,3.7,1.1,5.2h0c-1.2,1.4-3,1.6-5.2,0l-.5.7-1.2-1,.6-.7a8.3,8.3,0,0,1-2-3.2l2.5-.8a5.3,5.3,0,0,0,1.1,2.1l.8-1c-1.6-2-2.2-3.5-1-5.1h0c1.2-1.5,3.2-1.4,5.1,0l.9-1.1,1.2,1Zm-5.2,6.2c.6.5.9.5,1.1.2h0c.2-.2.1-.5-.4-1.1Zm1.4-5.4h0c-.2.2-.1.5.4,1.1l.8-.9c-.7-.4-1-.5-1.2-.2Z"/><path class="cls-3" d="M292.3,342.6l1.2,1h0v.1l-.9,1.1a9.12,9.12,0,0,1,2.5,4.1v.1h0l-2.6.7h-.1a8.11,8.11,0,0,0-1.5-2.9l-.7.9c1.6,1.9,2.3,3.6,1,5.2h0c-1.2,1.5-3.2,1.5-5.2,0l-.5.6h-.1l-1.2-1v-.1l.5-.6a7.91,7.91,0,0,1-1.9-3.2v-.1l2.5-.8h.1v.1a7.5,7.5,0,0,0,1,2l.7-.8c-1.5-1.9-2.2-3.5-.9-5.1h0c1.2-1.5,3.1-1.5,5.1-.1l.9-1.1v-.1C292.3,342.5,292.3,342.5,292.3,342.6Zm1.1,1.1-1.1-.9-.9,1.1h-.1c-2-1.4-3.8-1.4-4.9,0h0c-1.3,1.6-.6,3.1,1,5v.1l-.8.9h-.2a5.68,5.68,0,0,1-1.1-2l-2.4.8a7.78,7.78,0,0,0,1.9,3.1v.1l-.5.6,1.1.9.5-.6h.1c2,1.5,3.8,1.5,5,0h0c1.1-1.3.8-2.8-1.1-5v-.1l.8-.9h.2a7.52,7.52,0,0,1,1.6,2.9l2.4-.7a9.43,9.43,0,0,0-2.5-4v-.1Zm-3.5,1.9h0v.1l-.7.9H289c-.5-.6-.6-.9-.4-1.2h0A1.28,1.28,0,0,1,289.9,345.6Zm-.8.9.6-.8c-.7-.5-.9-.2-.9-.2h0C288.7,345.8,288.7,346,289.1,346.5Zm-.8,3.3h0c.5.6.6.9.4,1.2h0c-.1.2-.5.4-1.2-.2v-.2l.8-.8Zm-.7,1c.4.3.8.4,1,.2h0c.1-.2.1-.4-.3-1Z"/><polygon class="cls-4" points="83.7 337.5 41.8 379.2 21.7 359 63.6 317.4 83.7 337.5"/><path id="Path-4" class="cls-1" d="M61.4,355.9a8.71,8.71,0,0,0,1.4-1.8l-3.2,3.1A7.44,7.44,0,0,0,61.4,355.9Z"/><path class="cls-1" d="M45,355.6a13.53,13.53,0,0,1-4-11.3L29.3,356.2a4.66,4.66,0,0,1,.1,5.4l9.7,9.9a4.35,4.35,0,0,1,5.3.1l11.7-11.9A12.85,12.85,0,0,1,45,355.6Z"/><path class="cls-1" d="M60.1,341.3a13.53,13.53,0,0,1,4,11.3l11.7-11.9a4.66,4.66,0,0,1-.1-5.4L66,325.4a4.35,4.35,0,0,1-5.3-.1L49,337.2A13,13,0,0,1,60.1,341.3Z"/><path class="cls-1" d="M44.3,339.7a6,6,0,0,0-1.3,1.8l3.2-3.1a13,13,0,0,0-1.9,1.3Z"/><path class="cls-3" d="M60.8,325.2a4.35,4.35,0,0,0,5.2.1l9.5,9.5a4.35,4.35,0,0,0,.1,5.2L63.9,351.5c-.1.4-.2.8-.3,1.3L76.5,340l-.1-.1a3.62,3.62,0,0,1-.08-5.12l.08-.08L66,324.3a3.74,3.74,0,0,1-5.2,0l-.1-.1L47.8,337c.4-.1.8-.2,1.3-.3Z"/><path class="cls-3" d="M28.3,361.2l10.4,10.4a3.74,3.74,0,0,1,5.2,0l.1.1,13-12.8c-.4.1-.8.2-1.3.3L44,370.8a4.35,4.35,0,0,0-5.2-.1l-9.5-9.5a4.35,4.35,0,0,0-.1-5.2l11.7-11.6c.1-.4.2-.8.3-1.3L28.2,356l.1.1c2,0,3.62.55,3.62,2.55S30.3,362.27,28.3,361.2Z"/><path class="cls-3" d="M59.7,341.7A11.69,11.69,0,0,1,63.1,353l.9-.9a12.63,12.63,0,0,0-3.8-10.8,12.91,12.91,0,0,0-11-3.8l-.9.9C51.9,337.3,56.4,338.5,59.7,341.7Z"/><path class="cls-3" d="M45.4,355.2A11.69,11.69,0,0,1,42,343.9l-.9.9a12.63,12.63,0,0,0,3.8,10.8,12.91,12.91,0,0,0,11,3.8l.9-.9C53.2,359.6,48.7,358.4,45.4,355.2Z"/><path class="cls-3" d="M44.3,339.7a11.15,11.15,0,0,1,2.2-1.6l1.3-1.2a9.22,9.22,0,0,0-6.4,6.3l1.3-1.2A6.37,6.37,0,0,1,44.3,339.7Z"/><path class="cls-3" d="M60.5,356.3a11.15,11.15,0,0,1-2.2,1.6L57,359.1a9.22,9.22,0,0,0,6.4-6.3L62.1,354A6.37,6.37,0,0,1,60.5,356.3Z"/><path class="cls-3" d="M48.8,337.5l.9-1.1-1.4.3-1.2,1.4a5.75,5.75,0,0,1,1.7-.6Z"/><path class="cls-3" d="M42.5,343.2a7.43,7.43,0,0,1,.5-1.6l-1.1,1.2a5.68,5.68,0,0,0-.2,1.3Z"/><path class="cls-3" d="M63.3,352.5a7.43,7.43,0,0,1-.5,1.6l1.1-1.2a5.68,5.68,0,0,0,.2-1.3Z"/><path class="cls-3" d="M56.9,358.2l-.9,1.1,1.4-.3,1.2-1.4A8.37,8.37,0,0,1,56.9,358.2Z"/><circle id="Oval-4" class="cls-3" cx="78.1" cy="338.2" r="1"/><circle class="cls-3" cx="63.7" cy="322.8" r="1"/><circle class="cls-3" cx="42.6" cy="374.8" r="1"/><circle class="cls-3" cx="27" cy="358.8" r="1"/><path id="Shape-4" class="cls-3" d="M49.1,345.1a9.48,9.48,0,0,1,4.4-2.1l.5,2.7a8.57,8.57,0,0,0-3.1,1.3l.9.9c2.3-1.5,3.9-1.9,5.3-.5h0c1.3,1.3,1.3,3.2-.5,5.2l.6.6-1.1,1.1-.6-.6a7.58,7.58,0,0,1-3.4,1.6l-.6-2.6a4.75,4.75,0,0,0,2.2-.9l-.9-.9c-2.2,1.4-3.7,1.9-5.2.5h0c-1.4-1.4-1.1-3.3.5-5l-1-1,1.1-1.1Zm5.6,5.7c.5-.5.5-.9.3-1.1h0c-.2-.2-.5-.2-1.2.3ZM49.5,349h0c.2.2.5.2,1.1-.2l-.9-.8C49.3,348.4,49.3,348.7,49.5,349Z"/><path class="cls-3" d="M46.9,345.2l1.1-1.1h.1l1,1a10.87,10.87,0,0,1,4.3-2.1h.1l.5,2.6a.09.09,0,0,1-.1.1h0a6.78,6.78,0,0,0-3,1.3l.8.8c2.1-1.4,3.8-2,5.2-.5h0c1.4,1.4,1.2,3.3-.5,5.1l.6.5v.1l-1.1,1.1h-.1l-.6-.6a8.52,8.52,0,0,1-3.3,1.6h-.1l-.6-2.6v-.1h.1a5.49,5.49,0,0,0,2.1-.8l-.8-.7c-2,1.3-3.7,1.9-5.2.4h0c-1.3-1.3-1.2-3.2.4-5l-1-1c.1.1.1.1.1-.1Zm1.2-.9-1,1,1,1v.1c-1.6,1.8-1.8,3.6-.5,4.9h0c1.4,1.4,3,.9,5-.5h.1l.9.8v.2a9.5,9.5,0,0,1-2.1.9l.5,2.4a8.52,8.52,0,0,0,3.3-1.6h.1l.6.6,1-1-.6-.5h0c1.7-1.8,1.9-3.7.5-5h0c-1.2-1.2-2.7-1.1-5.1.6h-.1l-.9-.9v-.2a8.57,8.57,0,0,1,3.1-1.3l-.5-2.5a9.28,9.28,0,0,0-4.2,2.1h-.1Zm1.6,3.6h.1l.9.8v.2c-.6.4-.9.5-1.2.2h0C49.2,348.8,49.3,348.4,49.7,347.9Zm.8.9-.7-.7c-.5.6-.3.8-.3.9h0c.2.1.4.2,1-.2Zm3.3,1.1h0q.9-.6,1.2-.3h0c.2.2.3.5-.3,1.2h-.2l-.7-.9Zm.9.8q.6-.6.3-.9h0c-.2-.2-.4-.2-1,.2Z"/><polygon class="cls-4" points="195.8 34.1 146.5 1.5 162.2 -22.3 211.5 10.3 195.8 34.1"/><path id="Path-5" class="cls-1" d="M173.3,15.9a12.45,12.45,0,0,0,2,1l-3.7-2.5A8.1,8.1,0,0,0,173.3,15.9Z"/><path class="cls-1" d="M170.2-.2a13.52,13.52,0,0,1,10.3-6.2l-14-9.1a4.48,4.48,0,0,1-5.2,1.2L153.5-2.8a4.56,4.56,0,0,1,1,5.2l14,9.1A13.19,13.19,0,0,1,170.2-.2Z"/><path class="cls-1" d="M187.3,11.7A13.52,13.52,0,0,1,177,17.9L191,27a4.48,4.48,0,0,1,5.2-1.2l7.7-11.5a4.56,4.56,0,0,1-1-5.2L188.9,0A12.27,12.27,0,0,1,187.3,11.7Z"/><path class="cls-3" d="M203.2,9.2a4.45,4.45,0,0,0,1,5.1l-7.4,11.3a4.31,4.31,0,0,0-5.1,1.1L178,17.6h-1.3l15.1,10.1.1-.1a3.78,3.78,0,0,1,2.3-1.6,4,4,0,0,1,2.8.5l8.1-12.3A3.71,3.71,0,0,1,204,9.1l.1-.1L189-1.2l.6,1.2Z"/><path class="cls-3" d="M161.4-15.4,153.3-3.1A3.71,3.71,0,0,1,154.4,2l-.1.1,15.1,10.1-.6-1.2L155.1,1.9a4.45,4.45,0,0,0-1-5.1l7.4-11.3a4.44,4.44,0,0,0,5.1-1.1l13.7,9.1h1.3L166.5-16.6l-.1.1a3.58,3.58,0,0,1-5,1.13Z"/><path class="cls-3" d="M186.8,11.4c-2.5,3.8-6.6,5.9-10.3,5.6l1.1.7a12.31,12.31,0,0,0,9.8-5.9A13,13,0,0,0,188.9.3l-1.1-.7C189.6,2.9,189.3,7.5,186.8,11.4Z"/><path class="cls-3" d="M170.8.1c2.5-3.8,6.6-5.9,10.3-5.6L180-6.1a12.31,12.31,0,0,0-9.8,5.9,13,13,0,0,0-1.5,11.5l1.1.7C168,8.6,168.3,4,170.8.1Z"/><path class="cls-3" d="M172.7,15.1a7.24,7.24,0,0,1-2-1.9l-1.5-1a9.52,9.52,0,0,0,7.4,5l-1.5-1A8.56,8.56,0,0,1,172.7,15.1Z"/><path class="cls-3" d="M188.8-.1l1.2.7a7.66,7.66,0,0,0-.6-1.3l-1.7-.9A4.2,4.2,0,0,1,188.8-.1Z"/><path class="cls-3" d="M177,17.1a9.74,9.74,0,0,1-1.7-.2l1.4.8H178Z"/><path class="cls-3" d="M170.1,12l-1.2-.7a7.66,7.66,0,0,0,.6,1.3l1.7.9A4.2,4.2,0,0,1,170.1,12Z"/><circle id="Oval-5" class="cls-3" cx="194.1" cy="28.7" r="1"/><circle class="cls-3" cx="206.2" cy="11.5" r="1"/><circle class="cls-3" cx="151" cy="1.3" r="1"/><path id="Shape-5" class="cls-3" d="M181.4,1.7a10.44,10.44,0,0,1,3,3.9l-2.5,1A7.78,7.78,0,0,0,180,3.8l-.7,1c1.9,1.9,2.7,3.4,1.6,5h0c-1,1.6-2.9,1.9-5.2.5l-.5.7-1.3-.9.5-.7a7.54,7.54,0,0,1-2.3-3l2.4-1.1a8.81,8.81,0,0,0,1.3,2l.7-1c-1.8-1.8-2.6-3.3-1.5-5h0c1.1-1.7,3-1.7,5-.6l.8-1.2,1.3.9ZM177,8.3c.6.4,1,.4,1.1.1h0c.2-.3.1-.5-.5-1.1Zm.7-5.4h0c-.2.3-.1.5.5,1.1l.7-1C178.2,2.6,177.9,2.6,177.7,2.9Z"/><path class="cls-3" d="M180.8-.4l1.3.9h0V.6l-.8,1.2a9.06,9.06,0,0,1,2.9,3.8v.1h0l-2.5,1h-.1A8,8,0,0,0,179.8,4l-.6.9c1.7,1.8,2.7,3.3,1.6,5h0c-1.1,1.7-3,1.9-5.1.6l-.4.7h-.1l-1.3-.9v-.1l.4-.7a7.75,7.75,0,0,1-2.2-2.9V6.5l2.4-1.1h.1v.1a7.53,7.53,0,0,0,1.2,1.9l.6-.9c-1.7-1.7-2.6-3.2-1.5-5h0c1-1.6,2.9-1.8,5-.6l.8-1.2V-.4Zm1.2,1-1.2-.8L180.1,1H180c-2.1-1.2-3.9-1-4.9.5h0c-1.1,1.7-.3,3.1,1.5,4.8v.1l-.7,1h-.1a8.21,8.21,0,0,1-1.3-1.9l-2.3,1a9.07,9.07,0,0,0,2.2,2.9v.1l-.4.7,1.2.8.4-.7h.1c2.1,1.3,4,1.1,5-.5h0c.9-1.4.5-2.8-1.6-4.9V4.8l.7-1h.1a8.27,8.27,0,0,1,1.9,2.7l2.3-1a8.65,8.65,0,0,0-2.9-3.7V1.7Zm-3.2,2.3h0L178.1,4H178c-.6-.5-.7-.8-.5-1.1h0C177.8,2.6,178.2,2.6,178.8,2.9Zm-.7,1,.6-.9c-.7-.4-.9-.1-.9-.1h0c-.2.3-.2.5.3,1Zm-.5,3.4h0c.6.5.7.9.5,1.2h0c-.1.2-.4.4-1.2-.1V8.2Zm-.6,1c.5.3.8.3,1,.1h0c.1-.2.1-.4-.4-.9Z"/><path class="cls-3" d="M166.3,178.7a3.47,3.47,0,0,1,.7,1l-.4-1.3c-.2-.2-.4-.5-.6-.7Z"/><polygon class="cls-4" points="54.5 82.2 99.7 65.2 116.7 110.5 71.5 127.5 54.5 82.2"/><polygon class="cls-3" points="73.3 75.1 80.9 72.3 97.9 117.5 90.3 120.4 73.3 75.1"/><polygon class="cls-3" points="106.8 84 109.7 91.6 64.4 108.6 61.6 101 106.8 84"/><path class="cls-4" d="M77,73.8,66.2,77.9s-8.6,3.2-11-3.4S67.5,63.5,77,73.8Z"/><path class="cls-4" d="M77,73.7l11.2-4.2s8.9-3.5,6.3-10.2S77.6,59.3,77,73.7Z"/><path class="cls-4" d="M77,73.7S57.7,60.4,70.3,55.3C81.8,50.6,77,73.7,77,73.7Z"/><polygon class="cls-4" points="70.7 -4.7 25.6 12.8 8.1 -32.3 53.2 -49.8 70.7 -4.7"/><polygon class="cls-3" points="51.9 2.6 44.4 5.5 26.9 -39.6 34.4 -42.5 51.9 2.6"/><path class="cls-4" d="M48.3,3.9,59-.3S67.6-3.6,70,3,57.9,14.1,48.3,3.9Z"/><path class="cls-4" d="M48.3,4,37.1,8.4S28.3,12,30.9,18.6,47.8,18.5,48.3,4Z"/><path class="cls-4" d="M48.3,4s19.5,13,6.9,18.3C43.7,27.1,48.3,4,48.3,4Z"/><polygon class="cls-4" points="315 35.7 283.6 -1.1 320.4 -32.5 351.8 4.3 315 35.7"/><polygon class="cls-3" points="301.9 20.4 296.7 14.2 333.4 -17.2 338.7 -11 301.9 20.4"/><polygon class="cls-3" points="298.9 -14.2 305 -19.4 336.4 17.4 330.3 22.6 298.9 -14.2"/><path class="cls-4" d="M299.4,17.4l7.6,8.7s5.9,7,.6,11.5S293,29.8,299.4,17.4Z"/><path class="cls-4" d="M299.4,17.4l-7.8-9.1s-6.3-7.2-11.7-2.5S285.6,21.7,299.4,17.4Z"/><path class="cls-4" d="M299.4,17.4s-5.9,22.7-15,12.6C276,20.7,299.4,17.4,299.4,17.4Z"/><polygon class="cls-4" points="287.7 123.5 335 133.1 325.4 180.5 278 170.9 287.7 123.5"/><polygon class="cls-3" points="307.4 127.5 315.3 129.1 305.6 176.5 297.7 174.9 307.4 127.5"/><polygon class="cls-3" points="331 152.9 329.4 160.8 282 151.1 283.6 143.2 331 152.9"/><path class="cls-4" d="M311.2,128.4l-11.3-2.2s-9-1.9-7.5-8.7S308.6,114.6,311.2,128.4Z"/><path class="cls-4" d="M311.3,128.3l11.7,2.4s9.4,1.8,10.8-5.2S319.4,116.4,311.3,128.3Z"/><path class="cls-4" d="M311.2,128.3s-9.3-21.5,4.1-19.1C327.6,111.3,311.2,128.3,311.2,128.3Z"/><polygon class="cls-4" points="175.8 339.2 207.2 376 170.4 407.4 139 370.6 175.8 339.2"/><polygon class="cls-3" points="188.9 354.5 194.1 360.7 157.3 392.1 152.1 385.9 188.9 354.5"/><polygon class="cls-3" points="191.9 389.1 185.7 394.3 154.3 357.5 160.5 352.3 191.9 389.1"/><path class="cls-4" d="M191.3,357.5l-7.6-8.7s-5.9-7-.6-11.5C188.6,332.9,197.7,345.1,191.3,357.5Z"/><path class="cls-4" d="M191.4,357.5l7.8,9.1s6.3,7.2,11.7,2.5S205.2,353.2,191.4,357.5Z"/><path class="cls-4" d="M191.4,357.5s5.9-22.7,15-12.6C214.8,354.2,191.4,357.5,191.4,357.5Z"/><polygon class="cls-4" points="-23.6 283.4 19.1 260.7 41.8 303.5 -0.9 326.1 -23.6 283.4"/><polygon class="cls-3" points="-5.8 274 1.4 270.2 24 312.9 16.9 316.7 -5.8 274"/><polygon class="cls-3" points="28.6 278.5 32.4 285.7 -10.4 308.3 -14.2 301.2 28.6 278.5"/><path class="cls-4" d="M-2.3,272.1l10.6-5.6s8.4-4.6,5-10.9S-3.6,257.7-2.3,272.1Z"/><circle class="cls-3" cx="138.5" cy="165.2" r="1"/><circle class="cls-3" cx="158.5" cy="159.2" r="1"/><circle class="cls-3" cx="134.5" cy="271.2" r="1"/><circle class="cls-3" cx="79.5" cy="283.2" r="1"/></g></svg>