<?xml version="1.0" encoding="utf-8"?>
<!-- Generator: Adobe Illustrator 23.0.6, SVG Export Plug-In . SVG Version: 6.00 Build 0)  -->
<svg version="1.1" id="Layer_1" xmlns="http://www.w3.org/2000/svg" xmlns:xlink="http://www.w3.org/1999/xlink" x="0px" y="0px"
	 viewBox="0 0 639 215" style="enable-background:new 0 0 639 215;" xml:space="preserve">
<style type="text/css">
	.st0{clip-path:url(#SVGID_2_);}
	.st1{fill-rule:evenodd;clip-rule:evenodd;fill:#983AC9;}
	.st2{fill:#731DAA;}
	.st3{fill:none;}
	.st4{fill:#983AC9;}
	.st5{fill:#FCCE2F;}
	.st6{fill:#2FE4DA;}
	.st7{fill:#EFEFEF;}
	.st8{fill:#E2E2E2;}
	.st9{fill:#332BAA;}
	.st10{fill:#06C9B1;}
	.st11{fill:#FFFFFF;}
</style>
<title>Group 5</title>
<desc>Created with Sketch.</desc>
<g>
	<defs>
		<rect id="SVGID_1_" width="639" height="215"/>
	</defs>
	<clipPath id="SVGID_2_">
		<use xlink:href="#SVGID_1_"  style="overflow:visible;"/>
	</clipPath>
	<g id="Mask" class="st0">
		<rect class="st1" width="639" height="215"/>
	</g>
	<g class="st0">
		<polygon class="st2" points="260.7,80.8 226.1,128.6 203.1,112 237.6,64.1 		"/>
		<path id="Path_2_" class="st3" d="M241.7,102.5c0.4-0.6,0.8-1.3,1-2l-2.6,3.6C240.7,103.6,241.2,103.1,241.7,102.5z"/>
		<path class="st3" d="M225.4,104.9c-3.7-2.7-5.7-6.7-5.7-10.6l-9.6,13.6c1.4,1.4,1.8,3.5,1,5.3l11.2,8.2c1.4-1.4,3.5-1.7,5.2-0.7
			l9.6-13.6C233.5,108.3,229.1,107.6,225.4,104.9z"/>
		<path class="st3" d="M238,88.3c3.7,2.7,5.7,6.7,5.7,10.6l9.7-13.6c-1.4-1.4-1.8-3.5-1-5.3l-11.2-8.2c-1.4,1.4-3.5,1.7-5.2,0.7
			l-9.6,13.6C229.9,84.9,234.3,85.6,238,88.3z"/>
		<path class="st3" d="M222.2,89.3c-0.4,0.6-0.8,1.3-1,2l2.6-3.6C223.2,88.1,222.7,88.7,222.2,89.3L222.2,89.3z"/>
		<path class="st4" d="M236.1,72.3c1.7,0.9,3.8,0.6,5.2-0.8l10.9,7.8c-0.9,1.7-0.5,3.8,0.9,5.1l-9.7,13.3c0,0.4,0,0.9-0.1,1.3
			L254,84.3l-0.1-0.1c-0.8-0.6-1.3-1.4-1.5-2.4s0.1-1.9,0.7-2.7l-12-8.6c-1.2,1.6-3.5,2-5.1,0.8l-0.1-0.1l-10.7,14.7
			c0.4-0.2,0.8-0.4,1.2-0.5L236.1,72.3z"/>
		<path class="st4" d="M209.8,113.1l12,8.6c1.2-1.6,3.5-2,5.1-0.8l0.1,0.1l10.7-14.7c-0.4,0.2-0.8,0.4-1.2,0.5l-9.7,13.3
			c-1.7-0.9-3.8-0.6-5.2,0.8l-11-7.9c0.9-1.7,0.5-3.8-0.9-5.1l9.7-13.3c0-0.4,0-0.9,0.1-1.3L208.8,108l0.1,0.1
			C210.7,109.2,211,111.4,209.8,113.1z"/>
		<path class="st4" d="M237.7,88.8c3.7,2.7,5.6,6.8,5.1,10.6l0.8-1c0-3.7-1.9-7.5-5.5-10.1c-3.6-2.5-7.9-3.1-11.4-2l-0.8,1
			C229.3,85.7,233.9,86.1,237.7,88.8z"/>
		<path class="st4" d="M225.8,104.4c-3.7-2.7-5.6-6.8-5.1-10.6l-0.8,1c0,3.7,1.9,7.5,5.5,10.1c3.6,2.5,7.9,3.1,11.4,2l0.8-1
			C234.1,107.5,229.5,107,225.8,104.4z"/>
		<path class="st4" d="M222.2,89.3c0.5-0.7,1.2-1.4,1.9-1.9l1-1.4c-2.9,1.4-4.9,4.1-5.3,7.2l1-1.4C221.2,90.8,221.6,90,222.2,89.3z"
			/>
		<path class="st4" d="M240.8,103c-0.5,0.7-1.2,1.4-1.9,1.9l-1,1.4c2.9-1.4,4.9-4.1,5.3-7.2l-1,1.4
			C241.8,101.4,241.4,102.3,240.8,103z"/>
		<path class="st4" d="M226.2,86.3l0.7-1.2c-0.4,0.1-0.9,0.3-1.3,0.5l-1,1.6C225.2,86.9,225.7,86.6,226.2,86.3L226.2,86.3z"/>
		<path class="st4" d="M220.9,93c0-0.6,0.1-1.1,0.2-1.7l-0.9,1.4c0,0.4,0,0.9,0,1.3L220.9,93z"/>
		<path class="st4" d="M243,98.8c0,0.6-0.1,1.1-0.2,1.7l0.9-1.4c0-0.4,0-0.9,0-1.3L243,98.8z"/>
		<path class="st4" d="M237.6,105.5l-0.7,1.2c0.4-0.1,0.9-0.3,1.3-0.5l1-1.6C238.7,104.9,238.2,105.2,237.6,105.5z"/>
		<path id="Oval_2_" class="st4" d="M255.3,81.3c0.6,0,1,0.4,1,1s-0.4,1-1,1s-1-0.4-1-1S254.7,81.3,255.3,81.3z"/>
		<circle class="st4" cx="238.6" cy="69.4" r="1"/>
		<circle class="st4" cx="226.2" cy="124.1" r="1"/>
		<circle class="st4" cx="208.2" cy="110.9" r="1"/>
		<path id="Shape_2_" class="st4" d="M227.8,93.8c1.1-1.3,2.4-2.2,4-2.8l0.9,2.5c-1.1,0.4-2.1,1-2.9,1.8l1,0.7
			c2-1.8,3.5-2.5,5.1-1.4l0,0c1.5,1.1,1.8,2.9,0.3,5.2l0.7,0.5l-0.9,1.3l-0.7-0.5c-0.8,1-1.9,1.7-3.1,2.2l-1-2.5
			c0.8-0.3,1.5-0.7,2-1.2l-1-0.7c-1.9,1.8-3.4,2.5-5,1.3l0,0c-1.6-1.1-1.6-3.1-0.3-5.1l-1.2-0.8l0.9-1.3L227.8,93.8z M234.2,98.5
			c0.4-0.6,0.4-1,0.2-1.1l0,0c-0.3-0.2-0.5-0.1-1.1,0.5L234.2,98.5z M228.8,97.6L228.8,97.6c0.3,0.2,0.5,0.1,1.1-0.4l-1-0.7
			C228.5,97.1,228.5,97.4,228.8,97.6z"/>
		<path class="st4" d="M225.7,94.3l0.9-1.2l0,0c0,0,0,0,0.1,0l1.1,0.8c1.1-1.2,2.4-2.2,3.9-2.8c0,0,0,0,0.1,0l0,0l0.9,2.5v0.1
			c-1,0.4-2,1-2.8,1.7l0.9,0.6c1.8-1.7,3.4-2.5,5.1-1.4l0,0c1.6,1.1,1.7,3.1,0.4,5.2l0.6,0.4v0.1l-0.9,1.3h-0.1l-0.7-0.5
			c-0.8,0.9-1.9,1.7-3,2.1h-0.1l-1-2.4c0,0,0,0,0-0.1c0,0,0,0,0.1,0c0.7-0.3,1.4-0.6,1.9-1.2l-0.9-0.6c-1.8,1.6-3.3,2.5-5,1.2l0,0
			c-1.5-1.1-1.7-3-0.4-5L225.7,94.3l-0.1,0C225.6,94.3,225.6,94.3,225.7,94.3z M226.7,93.2l-0.8,1.1l1.1,0.8v0.1
			c-1.3,2.1-1.2,3.8,0.3,4.9l0,0c1.6,1.2,3.1,0.4,4.9-1.3h0.1l1,0.7l0,0c0,0,0,0,0,0.1c-0.6,0.5-1.2,0.9-2,1.2l0.9,2.3
			c1.1-0.5,2.2-1.2,3-2.1h0.1l0.7,0.5l0.8-1.1l-0.6-0.4l0,0c0,0,0,0,0-0.1c1.4-2,1.3-3.9-0.3-5l0,0c-1.4-1-2.8-0.6-4.9,1.4h-0.1
			l-1-0.7l0,0c0,0,0,0,0-0.1c0.8-0.8,1.8-1.4,2.8-1.8l-0.9-2.4c-1.5,0.6-2.8,1.5-3.8,2.7h-0.1L226.7,93.2z M228.9,96.5L228.9,96.5
			c0.1,0,0.1,0,0.1,0l1,0.7l0,0c0,0,0,0,0,0.1c-0.6,0.5-0.8,0.6-1.2,0.4l0,0C228.5,97.5,228.5,97.1,228.9,96.5L228.9,96.5z
			 M229.8,97.2l-0.8-0.6c-0.4,0.7-0.2,0.9-0.1,0.9l0,0C229.1,97.7,229.3,97.7,229.8,97.2L229.8,97.2z M233.2,97.8L233.2,97.8
			c0.6-0.5,0.9-0.7,1.2-0.5l0,0c0.2,0.1,0.4,0.5-0.1,1.2c0,0,0,0-0.1,0c0,0,0,0-0.1,0L233.2,97.8C233.1,97.9,233.1,97.9,233.2,97.8
			C233.1,97.8,233.2,97.8,233.2,97.8L233.2,97.8z M234.2,98.4c0.3-0.5,0.4-0.8,0.1-1l0,0c-0.2-0.1-0.4-0.1-1,0.4L234.2,98.4z"/>
	</g>
	<g class="st0">
		<polygon class="st2" points="48.4,186.6 -5.1,211.5 -17.1,185.7 36.5,160.8 		"/>
		<path id="Path_4_" class="st3" d="M21.2,196.3c0.7-0.3,1.3-0.7,1.9-1.2l-4.1,1.8C19.8,196.8,20.5,196.6,21.2,196.3z"/>
		<path class="st3" d="M5.9,190.4c-1.9-4.2-1.7-8.7,0.2-12L-9,185.5c0.6,1.9-0.1,4-1.7,5.1l5.7,12.6c1.9-0.5,3.9,0.2,4.9,1.9L15,198
			C11.3,197.3,7.8,194.6,5.9,190.4z"/>
		<path class="st3" d="M25,182.1c1.9,4.2,1.7,8.7-0.2,12l15.1-7.1c-0.6-1.9,0.1-4,1.7-5.1l-5.7-12.6c-1.9,0.5-3.9-0.2-4.9-1.9
			l-15.1,7.1C19.6,175.2,23.1,178,25,182.1z"/>
		<path class="st3" d="M10.7,175.3c-0.7,0.3-1.3,0.7-1.9,1.2l4.1-1.8C12.1,174.7,11.4,175,10.7,175.3L10.7,175.3z"/>
		<path class="st4" d="M31.1,167.3c1,1.6,3,2.4,4.9,1.8l5.7,12.2c-1.6,1.1-2.3,3.1-1.7,4.9L25.1,193c-0.2,0.4-0.5,0.7-0.7,1.1
			l16.5-7.6v-0.1c-0.4-0.9-0.5-1.9-0.1-2.8c0.3-0.9,1-1.7,1.9-2.1l-6.2-13.3c-1.8,0.8-4,0-4.9-1.8l-0.1-0.1L15,173.9
			c0.4,0,0.9,0.1,1.3,0.2L31.1,167.3z"/>
		<path class="st4" d="M-11.7,190l6.2,13.3c1.8-0.8,4,0,4.9,1.8l0.1,0.1l16.5-7.6c-0.4,0-0.9-0.1-1.3-0.2l-14.9,6.9
			c-1-1.6-3-2.4-4.9-1.8l-5.7-12.2c1.6-1.1,2.3-3.1,1.7-4.9l14.9-6.9c0.2-0.4,0.5-0.7,0.7-1.1L-10,185v0.1
			C-9.1,186.9-9.9,189.1-11.7,190z"/>
		<path class="st4" d="M24.4,182.4c2,4.1,1.6,8.7-0.7,11.7l1.2-0.5c1.8-3.2,2-7.5,0.1-11.5s-5.4-6.6-9-7.3l-1.2,0.5
			C18.7,175.6,22.5,178.2,24.4,182.4z"/>
		<path class="st4" d="M6.5,190.2c-2-4.1-1.6-8.7,0.7-11.7L6,179c-1.8,3.2-2,7.5-0.1,11.5s5.4,6.6,9,7.3l1.2-0.5
			C12.2,196.9,8.4,194.3,6.5,190.2z"/>
		<path class="st4" d="M10.7,175.2c0.8-0.4,1.7-0.6,2.6-0.7l1.6-0.7c-3.2-0.2-6.2,1.2-8.1,3.7l1.6-0.7
			C9.1,176.1,9.8,175.6,10.7,175.2z"/>
		<path class="st4" d="M20.2,196.3c-0.8,0.4-1.7,0.6-2.6,0.7l-1.6,0.7c3.2,0.2,6.2-1.2,8.1-3.7l-1.6,0.7
			C21.9,195.5,21.1,196,20.2,196.3z"/>
		<path class="st4" d="M15.7,174.6l1.2-0.7c-0.5-0.1-0.9-0.2-1.4-0.2l-1.7,0.9C14.5,174.6,15.1,174.6,15.7,174.6L15.7,174.6z"/>
		<path class="st4" d="M7.8,177.9c0.3-0.5,0.7-0.9,1-1.4l-1.4,0.8c-0.2,0.4-0.5,0.7-0.7,1.1L7.8,177.9z"/>
		<path class="st4" d="M24.1,193.7c-0.3,0.5-0.7,0.9-1,1.4l1.4-0.8c0.2-0.4,0.5-0.7,0.7-1.1L24.1,193.7z"/>
		<path class="st4" d="M16.3,196.9l-1.2,0.7c0.5,0.1,0.9,0.2,1.4,0.2l1.7-0.9C17.4,197,16.8,197,16.3,196.9z"/>
		<circle id="Oval_4_" class="st4" cx="43" cy="185.3" r="1"/>
		<circle class="st4" cx="34.7" cy="166" r="1"/>
		<circle class="st4" cx="-2.9" cy="207.6" r="1"/>
		<circle class="st4" cx="-12.1" cy="187.2" r="1"/>
		<path id="Shape_4_" class="st4" d="M13.4,181.9c1.5-0.6,3.2-0.7,4.9-0.5l-0.4,2.7c-1.1-0.2-2.3-0.1-3.4,0.2l0.5,1.1
			c2.7-0.6,4.3-0.5,5.1,1.3l0,0c0.8,1.7,0.2,3.5-2.3,4.7l0.4,0.8l-1.4,0.7l-0.4-0.8c-1.2,0.4-2.5,0.6-3.8,0.4l0.4-2.7
			c0.8,0.1,1.6,0.1,2.4-0.1l-0.5-1.1c-2.5,0.6-4.2,0.5-5-1.3l0,0c-0.8-1.8,0.1-3.5,2.2-4.6l-0.6-1.3l1.4-0.6L13.4,181.9z
			 M16.7,189.2c0.7-0.3,0.8-0.6,0.7-0.9l0,0c-0.1-0.3-0.4-0.4-1.2-0.1L16.7,189.2z M12.4,185.7L12.4,185.7c0.1,0.3,0.4,0.3,1.1,0.2
			l-0.5-1.1C12.4,185.1,12.3,185.4,12.4,185.7z"/>
		<path class="st4" d="M11.3,181.3l1.4-0.6c0,0,0,0,0.1,0l0,0l0.6,1.3c1.5-0.5,3.2-0.7,4.8-0.5l0,0c0,0,0,0,0,0.1l-0.4,2.6
			c0,0,0,0.1-0.1,0.1c-1.1-0.2-2.2-0.1-3.3,0.2l0.5,1c2.4-0.6,4.2-0.5,5.1,1.3l0,0c0.9,1.8,0,3.5-2.2,4.7l0.3,0.7v0.1l-1.4,0.6h-0.1
			l-0.4-0.7c-1.2,0.4-2.4,0.5-3.7,0.4c0,0-0.1,0-0.1-0.1l0.3-2.6l0,0c0,0,0,0,0.1,0c0.7,0.1,1.5,0.1,2.2-0.1l-0.5-1
			c-2.3,0.5-4.1,0.5-5-1.4l0,0c-0.8-1.7,0-3.4,2.1-4.6l-0.6-1.2C11.2,181.5,11.2,181.4,11.3,181.3C11.2,181.3,11.2,181.3,11.3,181.3
			z M12.7,180.8l-1.3,0.6l0.6,1.2v0.1c-2.1,1.2-2.9,2.8-2.1,4.4l0,0c0.9,1.8,2.5,1.8,4.9,1.3h0.1l0.5,1.1c0,0,0,0,0,0.1l0,0
			c-0.8,0.2-1.5,0.2-2.3,0.1l-0.3,2.5c1.2,0.2,2.5,0,3.6-0.4h0.1l0.3,0.7l1.3-0.6l-0.3-0.7c0,0,0,0,0-0.1l0,0c2.2-1.1,3-2.8,2.2-4.5
			l0,0c-0.7-1.6-2.1-1.9-5-1.2h-0.1l-0.5-1.1c0,0,0,0,0-0.1l0,0c1.1-0.3,2.2-0.4,3.3-0.2l0.4-2.5c-1.6-0.2-3.2,0-4.7,0.5h-0.1
			L12.7,180.8z M13,184.8L13,184.8C13.1,184.8,13.1,184.8,13,184.8l0.6,1.1c0,0,0,0,0,0.1l0,0c-0.7,0.2-1.1,0.1-1.2-0.2l0,0
			C12.2,185.5,12.4,185.1,13,184.8L13,184.8z M13.5,185.9L13,185c-0.7,0.4-0.6,0.7-0.6,0.8l0,0C12.6,185.9,12.8,186,13.5,185.9
			L13.5,185.9z M16.1,188.1L16.1,188.1c0.8-0.2,1.1-0.1,1.3,0.2l0,0c0.1,0.2,0.1,0.6-0.7,1c0,0,0,0-0.1,0l0,0L16.1,188.1
			C16,188.1,16,188.1,16.1,188.1C16.1,188.1,16.1,188,16.1,188.1L16.1,188.1z M16.7,189.1c0.5-0.3,0.7-0.5,0.6-0.8l0,0
			c-0.1-0.2-0.3-0.3-1-0.1L16.7,189.1z"/>
	</g>
	<g class="st0">
		<polygon class="st2" points="629,-6.1 594.4,41.8 571.3,25.1 605.9,-22.8 		"/>
		<path id="Path_3_" class="st3" d="M610,15.6c0.5-0.6,0.8-1.3,1-2l-2.6,3.6C609,16.8,609.5,16.3,610,15.6z"/>
		<path class="st3" d="M593.7,18c-3.7-2.7-5.7-6.7-5.7-10.6L578.4,21c1.4,1.4,1.8,3.5,1,5.3l11.2,8.2c1.4-1.4,3.5-1.7,5.2-0.7
			l9.6-13.6C601.8,21.4,597.4,20.7,593.7,18z"/>
		<path class="st3" d="M606.3,1.4C610,4.1,612,8.2,612,12l9.7-13.6c-1.4-1.4-1.8-3.5-1-5.3l-11.2-8.2c-1.4,1.4-3.5,1.7-5.2,0.7
			l-9.6,13.6C598.2-2,602.6-1.3,606.3,1.4z"/>
		<path class="st3" d="M590.5,2.5c-0.4,0.6-0.8,1.3-1,2l2.6-3.6C591.5,1.3,590.9,1.8,590.5,2.5L590.5,2.5z"/>
		<path class="st4" d="M604.4-14.5c1.7,0.9,3.8,0.6,5.2-0.8l10.9,7.8c-0.9,1.7-0.5,3.8,0.9,5.1l-9.7,13.3c0,0.4,0,0.9-0.1,1.3
			l10.7-14.7l-0.1-0.1c-0.8-0.6-1.3-1.4-1.5-2.4s0.1-1.9,0.7-2.7l-12-8.6c-1.2,1.6-3.5,2-5.1,0.8l-0.1-0.1L593.5-0.8
			c0.4-0.2,0.8-0.4,1.2-0.5L604.4-14.5z"/>
		<path class="st4" d="M578.1,26.2l12,8.6c1.2-1.6,3.5-2,5.1-0.8l0.1,0.1L606,19.4c-0.4,0.2-0.8,0.4-1.2,0.5l-9.7,13.3
			c-1.7-0.9-3.8-0.6-5.2,0.8l-11-7.9c0.9-1.7,0.5-3.8-0.9-5.1l9.7-13.3c0-0.4,0-0.9,0.1-1.3l-10.7,14.7l0.1,0.1
			C579,22.3,579.3,24.6,578.1,26.2z"/>
		<path class="st4" d="M606,1.9c3.7,2.7,5.6,6.8,5.1,10.6l0.8-1c0-3.7-1.9-7.5-5.5-10.1c-3.6-2.5-7.9-3.1-11.4-2l-0.8,1
			C597.6-1.2,602.2-0.7,606,1.9z"/>
		<path class="st4" d="M594.1,17.5c-3.7-2.7-5.6-6.8-5.1-10.6l-0.8,1c0,3.7,1.9,7.5,5.5,10.1c3.6,2.5,7.9,3.1,11.4,2l0.8-1
			C602.4,20.6,597.8,20.2,594.1,17.5z"/>
		<path class="st4" d="M590.4,2.4c0.5-0.7,1.2-1.4,1.9-1.9l1-1.4c-2.9,1.4-4.9,4.1-5.3,7.2l1-1.4C589.5,4,589.9,3.1,590.4,2.4z"/>
		<path class="st4" d="M609.1,16.2c-0.5,0.7-1.2,1.4-1.9,1.9l-1,1.4c2.9-1.4,4.9-4.1,5.3-7.2l-1,1.4
			C610.1,14.6,609.7,15.4,609.1,16.2z"/>
		<path class="st4" d="M594.5-0.5l0.7-1.2c-0.4,0.1-0.9,0.3-1.3,0.5l-1,1.6C593.5,0,594-0.3,594.5-0.5L594.5-0.5z"/>
		<path class="st4" d="M589.2,6.1c0-0.6,0.1-1.1,0.2-1.7l-0.9,1.4c0,0.4,0,0.9,0,1.3L589.2,6.1z"/>
		<path class="st4" d="M611.3,12c0,0.6-0.1,1.1-0.2,1.7l0.9-1.4c0-0.4,0-0.9,0-1.3L611.3,12z"/>
		<path class="st4" d="M605.9,18.6l-0.7,1.2c0.4-0.1,0.9-0.3,1.3-0.5l1-1.6C607,18.1,606.5,18.4,605.9,18.6z"/>
		<circle id="Oval_3_" class="st4" cx="623.6" cy="-4.6" r="1"/>
		<circle class="st4" cx="606.9" cy="-17.4" r="1"/>
		<circle class="st4" cx="594.5" cy="37.3" r="1"/>
		<circle class="st4" cx="576.5" cy="24" r="1"/>
		<path id="Shape_3_" class="st4" d="M596.1,7c1.1-1.3,2.4-2.2,4-2.8l0.9,2.5c-1.1,0.4-2.1,1-2.9,1.8l1,0.7c2-1.8,3.5-2.5,5.1-1.4
			l0,0c1.5,1.1,1.8,2.9,0.3,5.2l0.7,0.5l-0.9,1.3l-0.7-0.5c-0.8,1-1.9,1.7-3.1,2.2l-1-2.5c0.8-0.3,1.5-0.7,2-1.2l-1-0.7
			c-1.9,1.8-3.4,2.5-5,1.3l0,0c-1.6-1.1-1.6-3.1-0.3-5.1L594,7.4l0.9-1.3L596.1,7z M602.5,11.7c0.4-0.6,0.4-1,0.2-1.1l0,0
			c-0.3-0.2-0.5-0.1-1.1,0.5L602.5,11.7z M597.1,10.7L597.1,10.7c0.3,0.2,0.5,0.1,1.1-0.4l-1-0.7C596.8,10.2,596.8,10.5,597.1,10.7z
			"/>
		<path class="st4" d="M594,7.4l0.9-1.2l0,0c0,0,0,0,0.1,0l1.1,0.8c1.1-1.2,2.4-2.2,3.9-2.8c0,0,0,0,0.1,0l0,0l0.9,2.5v0.1
			c-1,0.4-2,1-2.8,1.7l0.9,0.6c1.8-1.7,3.4-2.5,5.1-1.4l0,0c1.6,1.1,1.7,3.1,0.4,5.2l0.6,0.4v0.1l-0.9,1.3h-0.1l-0.7-0.5
			c-0.8,0.9-1.9,1.7-3,2.1h-0.1l-1-2.4c0,0,0,0,0-0.1c0,0,0,0,0.1,0c0.7-0.3,1.4-0.6,1.9-1.2l-0.9-0.6c-1.8,1.6-3.3,2.5-5,1.2l0,0
			c-1.5-1.1-1.7-3-0.4-5L594,7.6h-0.1C593.9,7.5,593.9,7.5,594,7.4z M595,6.3l-0.8,1.1l1.1,0.8v0.1c-1.3,2.1-1.2,3.8,0.3,4.9l0,0
			c1.6,1.2,3.1,0.4,4.9-1.3h0.1l1,0.7l0,0c0,0,0,0,0,0.1c-0.6,0.5-1.2,0.9-2,1.2l0.9,2.3c1.1-0.5,2.2-1.2,3-2.1h0.1l0.7,0.5l0.8-1.1
			l-0.6-0.4l0,0c0,0,0,0,0-0.1c1.4-2,1.3-3.9-0.3-5l0,0c-1.4-1-2.8-0.6-4.9,1.4h-0.1l-1-0.7l0,0c0,0,0,0,0-0.1
			c0.8-0.8,1.8-1.4,2.8-1.8l-0.9-2.4c-1.5,0.6-2.8,1.5-3.8,2.7h-0.1L595,6.3z M597.2,9.6L597.2,9.6C597.3,9.6,597.3,9.6,597.2,9.6
			l1.1,0.7l0,0c0,0,0,0,0,0.1c-0.6,0.5-0.8,0.6-1.2,0.4l0,0C596.8,10.6,596.8,10.2,597.2,9.6L597.2,9.6z M598.1,10.4l-0.8-0.6
			c-0.4,0.7-0.2,0.9-0.1,0.9l0,0C597.4,10.8,597.6,10.8,598.1,10.4L598.1,10.4z M601.5,11L601.5,11c0.6-0.5,0.9-0.7,1.2-0.5l0,0
			c0.2,0.1,0.4,0.5-0.1,1.2c0,0,0,0-0.1,0c0,0,0,0-0.1,0L601.5,11C601.4,11.1,601.4,11,601.5,11C601.4,11,601.4,11,601.5,11
			L601.5,11z M602.5,11.6c0.3-0.5,0.4-0.8,0.1-1l0,0c-0.2-0.1-0.4-0.1-1,0.4L602.5,11.6z"/>
	</g>
	<g class="st0">
		<polygon class="st2" points="55.3,124.3 101.1,107 118.3,152.9 72.5,170.1 		"/>
		<polygon class="st4" points="74.4,117.1 82,114.2 99.2,160.1 91.6,162.9 		"/>
		<polygon class="st4" points="108.3,126.1 111.1,133.8 65.3,151 62.5,143.4 		"/>
		<path class="st2" d="M78,115.4l-10.8,4.1c0,0-8.6,3.2-11-3.4C53.9,109.6,68.5,105.2,78,115.4z"/>
		<path class="st2" d="M78,115.4l11.2-4.2c0,0,8.9-3.5,6.3-10.2S78.6,100.9,78,115.4z"/>
		<path class="st2" d="M78,115.4c0,0-19.3-13.3-6.7-18.4C82.8,92.3,78,115.4,78,115.4z"/>
	</g>
	<g class="st0">
		<polygon class="st2" points="34.4,28.5 10.8,71.4 -32.1,47.8 -8.5,4.9 		"/>
		<polygon class="st4" points="24.6,46.4 20.7,53.5 -22.2,29.9 -18.3,22.7 		"/>
		<polygon class="st4" points="-7,61.6 -14.2,57.6 9.4,14.7 16.6,18.7 		"/>
		<path class="st2" d="M22.9,50l5.5-10.1c0,0,4.5-8,10.5-4.6C45,38.7,36.8,51.6,22.9,50z"/>
		<path class="st2" d="M23,50.1l-5.8,10.5c0,0-4.5,8.4,1.8,11.8S31.9,61.4,23,50.1z"/>
		<path class="st2" d="M23,50.1c0,0,23.3-2.5,17.1,9.6C34.3,70.7,23,50.1,23,50.1z"/>
	</g>
	<g class="st0">
		<polygon class="st2" points="193.2,188.3 231.5,218.6 201.1,257 162.8,226.6 		"/>
		<polygon class="st4" points="209.1,200.9 215.6,206 185.1,244.4 178.7,239.3 		"/>
		<polygon class="st4" points="218.9,234.6 213.8,241 175.4,210.6 180.5,204.2 		"/>
		<path class="st2" d="M212.4,203.2l-9.1-7.1c0,0-7.2-5.7-2.8-11.2S216.3,189.7,212.4,203.2z"/>
		<path class="st2" d="M212.5,203.1l9.4,7.4c0,0,7.6,5.8,12,0.2C238.3,205.1,225.2,196.2,212.5,203.1z"/>
		<path class="st2" d="M212.5,203.1c0,0,1.4-23.4,12.3-15.2C234.8,195.4,212.5,203.1,212.5,203.1z"/>
	</g>
	<g class="st0">
		<polygon class="st2" points="302.1,40.9 261.4,13.7 288.6,-27 329.3,0.1 		"/>
		<polygon class="st4" points="285.2,29.6 278.4,25 305.5,-15.7 312.3,-11.2 		"/>
		<polygon class="st4" points="272.7,-3.2 277.3,-10 318,17.1 313.4,23.9 		"/>
		<path class="st2" d="M281.7,27.6l9.6,6.3c0,0,7.6,5.1,3.7,10.9C291.1,50.6,278.9,41.3,281.7,27.6z"/>
		<path class="st2" d="M281.6,27.6l-10-6.6c0,0-8-5.2-12,0.8C255.8,27.8,269.6,35.6,281.6,27.6z"/>
		<path class="st2" d="M281.7,27.6c0,0,0.5,23.4-11,16.2C260.1,37.2,281.7,27.6,281.7,27.6z"/>
	</g>
	<g class="st0">
		<polygon class="st2" points="599.5,171.8 646.3,186 632,232.8 585.2,218.6 		"/>
		<polygon class="st4" points="619,177.7 626.8,180.1 612.5,226.9 604.7,224.5 		"/>
		<polygon class="st4" points="640.4,205.5 638,213.3 591.2,199.1 593.5,191.3 		"/>
		<path class="st2" d="M622.9,178.6l-11.1-3.3c0,0-8.8-2.7-6.7-9.4S621.6,164.6,622.9,178.6z"/>
		<path class="st2" d="M622.9,178.5l11.5,3.5c0,0,9.2,2.6,11.2-4.2C647.6,170.9,632.2,167.4,622.9,178.5z"/>
		<path class="st2" d="M622.9,178.5c0,0-7.3-22.3,5.8-18.7C640.8,163.2,622.9,178.5,622.9,178.5z"/>
	</g>
	<g class="st0">
		<path class="st5" d="M241,168.9c0,0-23.4-11.5-30.7-18.8s-36.5,0.9-30.3-6.5s24.8-1.4,31.6-4.2s1.5-7.5,1.5-7.5
			c-22.4-19.1-30.8,12.2-34.1,10.6c-3.3-1.5-2.9-5.4,5.1-17.6c8-12.1,23.1-5.6,23.1-5.6s-0.7-8.2,9.8-7.5c0,0,4.6-4,9.6-0.7
			c0,0,3.9-3.1,6.6,1.7c9.3,16.2,14.8,35.3,14.8,35.3"/>
		<rect x="93" y="94.9" class="st6" width="121" height="81"/>
		<polygon class="st7" points="93,94.9 153.5,38.9 214,94.9 		"/>
		<polygon class="st8" points="214,94.9 153.5,139.9 93,94.9 		"/>
		<path class="st9" d="M117.5,112.3l43.8-66.5c1.8-2.8,5.5-3.5,8.3-1.7l0,0l36.9,24.3c2.8,1.8,3.5,5.5,1.7,8.3l-43.8,66.5
			c-1.8,2.8-5.5,3.5-8.3,1.7l0,0l-36.9-24.3C116.5,118.8,115.7,115.1,117.5,112.3z"/>
		<polygon class="st6" points="147.6,101.9 163.7,77.5 188.1,93.6 172,118 		"/>
		<polygon class="st10" points="154.3,91.8 157,87.7 181.4,103.8 178.7,107.9 		"/>
		<polygon class="st10" points="173.8,84.2 177.9,86.9 161.8,111.3 157.7,108.6 		"/>
		<path class="st10" d="M155,90.1l-3.7,5.8c0,0-3,4.6-6.3,2.3C141.7,95.9,147.1,88.6,155,90.1z"/>
		<path class="st10" d="M156,89.9l3.8-5.8c0,0,3-4.6-0.5-6.9C155.9,75,151.4,83,156,89.9z"/>
		<path class="st10" d="M156,89.9c0,0-14.7,0.5-10.1-6.2C150.1,77.4,156,89.9,156,89.9z"/>
		<polygon class="st11" points="93,94.9 153.5,139.8 214,94.9 214,175.9 93,175.9 		"/>
		<path class="st5" d="M235,165.9c0,0-16.9-9.1-24.8-15.9c-6.3-5.4-34.6-1-28.3-8.5c6.3-7.5,24.5-0.6,31.3-3.5"/>
		<polygon class="st9" points="223.1,165.6 250.5,139.4 382.9,277.4 355.5,303.7 		"/>
	</g>
	<g class="st0">
		<polygon class="st2" points="127.1,33 77.8,0.5 93.5,-23.3 142.8,9.3 		"/>
		<path id="Path_1_" class="st3" d="M104.6,14.9c0.6,0.4,1.3,0.7,2,1l-3.7-2.5C103.4,14,103.9,14.5,104.6,14.9z"/>
		<path class="st3" d="M101.5-1.2c2.5-3.8,6.5-6,10.3-6.2l-14-9.1c-1.3,1.5-3.4,2-5.2,1.2L84.9-3.7c1.4,1.3,1.8,3.4,1,5.2l14,9.1
			C98.5,7,99,2.6,101.5-1.2z"/>
		<path class="st3" d="M118.6,10.7c-2.5,3.8-6.5,6-10.3,6.2l14,9.1c1.3-1.5,3.4-2,5.2-1.2l7.7-11.5c-1.4-1.3-1.8-3.4-1-5.2l-14-9.1
			C121.7,2.5,121.2,6.9,118.6,10.7z"/>
		<path class="st3" d="M116.9-5.1c-0.6-0.4-1.3-0.7-2-0.9l3.7,2.5C118.1-4.1,117.6-4.6,116.9-5.1L116.9-5.1z"/>
		<path class="st4" d="M134.5,8.1c-0.8,1.7-0.4,3.8,1,5.1l-7.4,11.3c-1.8-0.8-3.8-0.4-5.1,1.1l-13.7-9.1c-0.4,0-0.9,0-1.3,0
			l15.1,10.1l0.1-0.1c0.5-0.8,1.4-1.4,2.3-1.6c1-0.2,1.9,0,2.8,0.5l8.1-12.3c-1.7-1.1-2.2-3.4-1.1-5.1l0.1-0.1L120.3-2.2
			c0.2,0.4,0.4,0.8,0.6,1.2L134.5,8.1z"/>
		<path class="st4" d="M92.7-16.4L84.6-4.1C86.3-3,86.8-0.7,85.7,1l-0.1,0.1l15.1,10.1c-0.2-0.4-0.4-0.8-0.6-1.2L86.5,0.9
			c0.8-1.7,0.4-3.8-1-5.1l7.4-11.3c1.8,0.8,3.8,0.3,5.1-1.1l13.7,9.1c0.4,0,0.9,0,1.3,0L97.8-17.6l-0.1,0.1
			C96.6-15.8,94.4-15.3,92.7-16.4z"/>
		<path class="st4" d="M118.1,10.4c-2.5,3.8-6.6,5.9-10.3,5.6l1.1,0.7c3.7-0.1,7.4-2.2,9.8-5.9s2.8-8.1,1.5-11.5l-1.1-0.7
			C120.9,1.9,120.6,6.5,118.1,10.4z"/>
		<path class="st4" d="M102-0.9c2.5-3.8,6.6-5.9,10.3-5.6l-1.1-0.7c-3.7,0.1-7.4,2.2-9.8,5.9s-2.8,8.1-1.5,11.5L101,11
			C99.3,7.6,99.5,3,102-0.9z"/>
		<path class="st4" d="M117-5.1c0.8,0.5,1.4,1.1,2,1.9l1.5,1c-1.5-2.8-4.3-4.7-7.4-5l1.5,1C115.4-6,116.2-5.6,117-5.1z"/>
		<path class="st4" d="M104,14.1c-0.8-0.5-1.4-1.1-2-1.9l-1.5-1c1.5,2.8,4.3,4.7,7.4,5l-1.5-1C105.6,15,104.8,14.6,104,14.1z"/>
		<path class="st4" d="M120.1-1.2l1.2,0.7c-0.2-0.4-0.3-0.9-0.6-1.3L119-2.7C119.5-2.2,119.8-1.7,120.1-1.2L120.1-1.2z"/>
		<path class="st4" d="M113.2-6.2c0.6,0,1.1,0.1,1.7,0.2l-1.4-0.8c-0.4,0-0.9,0-1.3,0L113.2-6.2z"/>
		<path class="st4" d="M108.3,16.1c-0.6,0-1.1-0.1-1.7-0.2l1.4,0.8c0.4,0,0.9,0,1.3,0L108.3,16.1z"/>
		<path class="st4" d="M101.4,11l-1.2-0.7c0.2,0.4,0.3,0.9,0.6,1.3l1.7,0.9C102,12.1,101.7,11.6,101.4,11z"/>
		<circle id="Oval_1_" class="st4" cx="125.3" cy="27.7" r="1"/>
		<circle class="st4" cx="137.5" cy="10.5" r="1"/>
		<circle class="st4" cx="82.3" cy="0.3" r="1"/>
		<circle class="st4" cx="94.8" cy="-18.2" r="1"/>
		<path id="Shape_1_" class="st4" d="M112.7,0.7c1.3,1,2.3,2.4,3,3.9l-2.5,1c-0.4-1.1-1.1-2-1.9-2.8l-0.7,1c1.9,1.9,2.7,3.4,1.6,5
			l0,0c-1,1.6-2.9,1.9-5.2,0.5l-0.5,0.7l-1.3-0.9l0.5-0.7c-1-0.8-1.8-1.8-2.3-3l2.4-1.1c0.3,0.7,0.8,1.4,1.3,2l0.7-1
			c-1.8-1.8-2.6-3.3-1.5-5l0,0c1.1-1.7,3-1.7,5-0.6l0.8-1.2l1.3,0.9L112.7,0.7z M108.2,7.3c0.6,0.4,1,0.4,1.1,0.1l0,0
			c0.2-0.3,0.1-0.5-0.5-1.1L108.2,7.3z M109,1.8L109,1.8c-0.2,0.3-0.1,0.5,0.5,1.1l0.7-1C109.5,1.6,109.1,1.6,109,1.8z"/>
		<path class="st4" d="M112.1-1.4l1.3,0.9l0,0c0,0,0,0,0,0.1l-0.8,1.2c1.3,1,2.3,2.3,2.9,3.8c0,0,0,0,0,0.1l0,0l-2.5,1h-0.1
			c-0.4-1-1-1.9-1.8-2.7l-0.6,0.9c1.7,1.8,2.7,3.3,1.6,5l0,0c-1.1,1.7-3,1.9-5.1,0.6l-0.4,0.7h-0.1l-1.3-0.9V9.2l0.4-0.7
			c-1-0.8-1.7-1.8-2.2-2.9V5.5l2.4-1.1c0,0,0,0,0.1,0c0,0,0,0,0,0.1c0.3,0.7,0.7,1.3,1.2,1.9l0.6-0.9c-1.7-1.7-2.6-3.2-1.5-5l0,0
			c1-1.6,2.9-1.8,5-0.6L112.1-1.4L112.1-1.4C112-1.4,112.1-1.4,112.1-1.4z M113.2-0.4L112-1.2L111.3,0h-0.1c-2.1-1.2-3.9-1-4.9,0.5
			l0,0c-1.1,1.7-0.3,3.1,1.5,4.8v0.1l-0.7,1l0,0c0,0,0,0-0.1,0c-0.5-0.6-1-1.2-1.3-1.9l-2.3,1c0.5,1.1,1.3,2.1,2.2,2.9v0.1l-0.4,0.7
			l1.2,0.8l0.4-0.7l0,0c0,0,0,0,0.1,0c2.1,1.3,4,1.1,5-0.5l0,0c0.9-1.4,0.5-2.8-1.6-4.9V3.8l0.7-1l0,0c0,0,0,0,0.1,0
			c0.8,0.8,1.5,1.7,1.9,2.7l2.3-1c-0.6-1.5-1.6-2.7-2.9-3.7V0.7L113.2-0.4z M110,1.9C110.1,1.9,110.1,1.9,110,1.9
			C110.1,2,110.1,2,110,1.9L109.4,3l0,0c0,0,0,0-0.1,0c-0.6-0.5-0.7-0.8-0.5-1.1l0,0C109.1,1.5,109.5,1.6,110,1.9L110,1.9z
			 M109.3,2.8l0.6-0.9c-0.7-0.4-0.9-0.1-0.9-0.1l0,0C108.8,2.1,108.9,2.3,109.3,2.8L109.3,2.8z M108.9,6.2L108.9,6.2
			c0.6,0.5,0.7,0.9,0.5,1.2l0,0c-0.1,0.2-0.4,0.4-1.2-0.1c0,0,0,0,0-0.1c0,0,0,0,0-0.1L108.9,6.2C108.8,6.2,108.8,6.2,108.9,6.2
			L108.9,6.2L108.9,6.2z M108.3,7.3c0.5,0.3,0.8,0.3,1,0.1l0,0c0.1-0.2,0.1-0.4-0.4-0.9L108.3,7.3z"/>
	</g>
</g>
</svg>
