<svg id="Layer_1" data-name="Layer 1" xmlns="http://www.w3.org/2000/svg" xmlns:xlink="http://www.w3.org/1999/xlink" viewBox="0 0 600 630"><defs><style>.cls-1{fill:none;}.cls-2{clip-path:url(#clip-path);}.cls-3{fill:#983ac9;}.cls-4{fill:#731daa;}.cls-5{fill:#fcce2f;}.cls-6{fill:#2fe4da;}.cls-7{fill:#efefef;}.cls-8{fill:#e2e2e2;}.cls-9{fill:#332baa;}.cls-10{fill:#06c9b1;}.cls-11{fill:#fff;}</style><clipPath id="clip-path"><rect class="cls-1" width="600" height="630"/></clipPath></defs><title>refer a friend</title><g class="cls-2"><rect class="cls-3" x="-4.16" y="-4.37" width="608.32" height="638.73"/><rect class="cls-4" x="391.96" y="125.99" width="114.46" height="55.16" transform="translate(919.07 85.89) rotate(152.93)"/><path class="cls-1" d="M459.56,173.85a16.48,16.48,0,0,0,4.16-3l-9.07,4.64A16.6,16.6,0,0,0,459.56,173.85Z"/><path class="cls-1" d="M430.89,162.93c-4-7.78-3.93-16.39-.58-22.86l-28.68,14.66a8.6,8.6,0,0,1-3,9.8l12.08,23.63a8.58,8.58,0,0,1,9.71,3.28l28.68-14.66C441.87,175.71,434.86,170.7,430.89,162.93Z"/><path class="cls-1" d="M467.5,144.21c4,7.78,3.93,16.39.58,22.86l28.69-14.66a8.58,8.58,0,0,1,3-9.8L487.71,119A8.58,8.58,0,0,1,478,115.7l-28.68,14.66C456.52,131.43,463.53,136.44,467.5,144.21Z"/><path class="cls-1" d="M438.83,133.29a16.48,16.48,0,0,0-4.16,3.05l9.08-4.64A16.57,16.57,0,0,0,438.83,133.29Z"/><path class="cls-3" d="M478,115.7a8.58,8.58,0,0,0,9.71,3.28l12.08,23.63a8.58,8.58,0,0,0-3,9.8l-28.69,14.66a20.13,20.13,0,0,1-1.33,2.18L498.5,153l-.1-.2a7.22,7.22,0,0,1,3.14-9.72l-13.2-25.82a7.22,7.22,0,0,1-9.71-3.15l-.11-.2-31.75,16.23a18.25,18.25,0,0,1,2.55.2Z"/><path class="cls-3" d="M396.85,164l13.2,25.82a7.22,7.22,0,0,1,9.71,3.15l.11.2L451.62,177a18.25,18.25,0,0,1-2.55-.2l-28.68,14.66a8.58,8.58,0,0,0-9.71-3.28L398.6,164.53a8.6,8.6,0,0,0,3-9.8l28.68-14.66a20.13,20.13,0,0,1,1.33-2.18l-31.75,16.23.1.2A7.22,7.22,0,0,1,396.85,164Z"/><path class="cls-3" d="M466.31,144.82c4.15,8.11,3.69,17.18-.47,23.39l2.24-1.14c3.35-6.47,3.4-15.08-.58-22.86s-11-12.78-18.18-13.85l-2.24,1.14C454.55,131.77,462.17,136.72,466.31,144.82Z"/><path class="cls-3" d="M432.08,162.32c-4.14-8.11-3.69-17.18.47-23.39l-2.24,1.14c-3.35,6.47-3.4,15.08.58,22.86s11,12.78,18.18,13.85l2.24-1.14C443.84,175.37,436.22,170.42,432.08,162.32Z"/><path class="cls-3" d="M438.83,133.29a16.57,16.57,0,0,1,4.92-1.59l3-1.54a17.77,17.77,0,0,0-15.13,7.73l3-1.55A16.48,16.48,0,0,1,438.83,133.29Z"/><path class="cls-3" d="M459.56,173.85a16.6,16.6,0,0,1-4.91,1.59l-3,1.54a17.77,17.77,0,0,0,15.13-7.73l-3,1.55A16.48,16.48,0,0,1,459.56,173.85Z"/><path class="cls-3" d="M447.08,131.5l2.24-1.14a18.25,18.25,0,0,0-2.55-.2l-3,1.54A17.64,17.64,0,0,1,447.08,131.5Z"/><path class="cls-3" d="M432.55,138.93a17,17,0,0,1,2.12-2.59l-3,1.55a20.13,20.13,0,0,0-1.33,2.18Z"/><path class="cls-3" d="M465.84,168.21a17,17,0,0,1-2.12,2.59l3-1.55a20.13,20.13,0,0,0,1.33-2.18Z"/><path class="cls-3" d="M451.31,175.64l-2.24,1.14a18.25,18.25,0,0,0,2.55.2l3-1.54A17.74,17.74,0,0,1,451.31,175.64Z"/><circle class="cls-3" cx="503.04" cy="149.18" r="1.44"/><circle class="cls-3" cx="484.33" cy="112.58" r="1.44"/><circle class="cls-3" cx="414.1" cy="194.64" r="1.44"/><circle class="cls-3" cx="395.39" cy="158.03" r="1.44"/><path class="cls-3" d="M445.67,144.77a18.39,18.39,0,0,1,9.11-1.33l-.64,5.19a14.9,14.9,0,0,0-6.39.59l1.08,2.12c4.95-1.4,8.06-1.25,9.77,2.1l0,.05c1.62,3.16.54,6.65-3.92,9.22l.75,1.45-2.66,1.36L452,164a14.78,14.78,0,0,1-7.06,1l.47-5.14a11.06,11.06,0,0,0,4.49-.33l-1.07-2.1c-4.69,1.34-7.8,1.25-9.57-2.22l0,0c-1.72-3.38-.1-6.69,3.76-9l-1.28-2.51,2.65-1.35Zm6.76,13.75c1.24-.67,1.49-1.31,1.23-1.82l0,0c-.28-.54-.82-.65-2.26-.2Zm-8.32-6.44,0,0c.27.53.75.64,2.17.21l-1.06-2.07C444.12,151,443.84,151.54,444.11,152.08Z"/><path class="cls-3" d="M441.66,143.48l2.65-1.35a.12.12,0,0,1,.18.06l1.24,2.41a18.51,18.51,0,0,1,9.06-1.3.13.13,0,0,1,.12.15l-.63,5.19a.14.14,0,0,1-.15.12,14.73,14.73,0,0,0-6.19.54l1,1.88c4.57-1.28,8-1.38,9.82,2.19l0,.06c1.75,3.4.3,6.89-3.86,9.33l.69,1.34a.14.14,0,0,1-.06.18l-2.66,1.36a.14.14,0,0,1-.18-.06l-.73-1.42a14.74,14.74,0,0,1-7,1,.14.14,0,0,1-.12-.14l.47-5.14a.13.13,0,0,1,.05-.09.11.11,0,0,1,.11,0,10.71,10.71,0,0,0,4.28-.29l-.94-1.85c-4.44,1.25-7.77,1.32-9.63-2.32l0,0c-1.66-3.26-.28-6.67,3.7-9.15l-1.22-2.4A.13.13,0,0,1,441.66,143.48Zm2.66-1-2.42,1.23,1.22,2.39a.13.13,0,0,1-.05.17c-4,2.44-5.34,5.67-3.71,8.87l0,0c1.79,3.51,4.93,3.43,9.42,2.15a.13.13,0,0,1,.15.07l1.07,2.1a.14.14,0,0,1,0,.11.18.18,0,0,1-.09.08,11.23,11.23,0,0,1-4.41.35l-.45,4.87a14.6,14.6,0,0,0,6.87-1,.15.15,0,0,1,.17.07l.72,1.41,2.42-1.23-.69-1.34a.13.13,0,0,1,.06-.18c4.1-2.36,5.55-5.75,3.87-9l0-.05c-1.53-3-4.22-3.56-9.61-2a.13.13,0,0,1-.16-.07l-1.08-2.12a.14.14,0,0,1,0-.11.2.2,0,0,1,.08-.08,15,15,0,0,1,6.33-.61l.6-4.93a18.29,18.29,0,0,0-8.91,1.35.13.13,0,0,1-.17-.06Zm.87,7.72a.12.12,0,0,1,.1,0,.11.11,0,0,1,.08.07l1.06,2.07a.11.11,0,0,1,0,.11s0,.06-.08.08c-1.41.43-2,.36-2.33-.28l0-.05c-.34-.65.06-1.32,1.18-2Zm.93,2.11-.92-1.8c-1.33.83-1.06,1.37-1,1.55l0,.06C444.47,152.49,444.83,152.63,446.12,152.26Zm5.2,4.07h0c1.43-.44,2.09-.37,2.41.27l0,0c.2.38.29,1.15-1.28,2a.14.14,0,0,1-.11,0,.18.18,0,0,1-.08-.07l-1.05-2.07a.14.14,0,0,1,0-.11A.23.23,0,0,1,451.32,156.33Zm1.17,2c.93-.53,1.3-1.09,1.05-1.58l0,0c-.21-.41-.61-.58-1.95-.18Z"/><rect class="cls-4" x="247.21" y="325.69" width="114.46" height="55.16" transform="translate(80.18 762.15) rotate(-110.5)"/><path class="cls-1" d="M283.12,361.24a16.69,16.69,0,0,0,2.55,4.49l-3.57-9.55A16.28,16.28,0,0,0,283.12,361.24Z"/><path class="cls-1" d="M297.25,334c8.18-3.05,16.73-2,22.77,2.05l-11.29-30.18a8.58,8.58,0,0,1-9.38-4.12L274.5,311a8.58,8.58,0,0,1-4.38,9.27l11.28,30.18C283.29,343.45,289.07,337.06,297.25,334Z"/><path class="cls-1" d="M311.65,372.52c-8.18,3.06-16.73,2-22.77-2l11.28,30.18a8.57,8.57,0,0,1,9.38,4.12l24.86-9.29a8.58,8.58,0,0,1,4.37-9.27L327.49,356C325.61,363.08,319.83,369.47,311.65,372.52Z"/><path class="cls-1" d="M325.77,345.29a16.17,16.17,0,0,0-2.55-4.49l3.57,9.55A16.22,16.22,0,0,0,325.77,345.29Z"/><path class="cls-3" d="M338.77,386.22a8.58,8.58,0,0,0-4.37,9.27l-24.86,9.29a8.57,8.57,0,0,0-9.38-4.12l-11.28-30.18a19.16,19.16,0,0,1-2-1.57l12.49,33.4.21-.08a7.22,7.22,0,0,1,9.3,4.24L336,396.31a7.22,7.22,0,0,1,4.24-9.29l.21-.08L328,353.54a19.71,19.71,0,0,1-.49,2.5Z"/><path class="cls-3" d="M300,300.06l-27.17,10.16a7.21,7.21,0,0,1-4.23,9.29l-.22.08L280.91,353a19.37,19.37,0,0,1,.49-2.5l-11.28-30.18A8.58,8.58,0,0,0,274.5,311l24.85-9.29a8.58,8.58,0,0,0,9.38,4.12L320,336.05a18.07,18.07,0,0,1,2,1.57l-12.49-33.4-.21.08A7.22,7.22,0,0,1,300,300.06Z"/><path class="cls-3" d="M311.18,371.27c-8.53,3.19-17.48,1.7-23.18-3.15l.88,2.36c6,4.07,14.59,5.1,22.77,2s14-9.44,15.84-16.48l-.88-2.35C325.49,361.08,319.71,368.08,311.18,371.27Z"/><path class="cls-3" d="M297.71,335.26c8.53-3.19,17.49-1.7,23.19,3.15l-.88-2.36c-6-4.07-14.59-5.1-22.77-2.05s-14,9.45-15.85,16.49l.88,2.35C283.41,345.45,289.19,338.45,297.71,335.26Z"/><path class="cls-3" d="M325.77,345.29a16.22,16.22,0,0,1,1,5.06l1.19,3.19a17.77,17.77,0,0,0-6-15.92l1.19,3.18A16.17,16.17,0,0,1,325.77,345.29Z"/><path class="cls-3" d="M283.12,361.24a16.28,16.28,0,0,1-1-5.06L280.91,353a17.77,17.77,0,0,0,5.95,15.92l-1.19-3.18A16.69,16.69,0,0,1,283.12,361.24Z"/><path class="cls-3" d="M326.61,353.69l.88,2.35a19.71,19.71,0,0,0,.49-2.5l-1.19-3.19A17,17,0,0,1,326.61,353.69Z"/><path class="cls-3" d="M320.9,338.41a16.91,16.91,0,0,1,2.32,2.39L322,337.62a18.07,18.07,0,0,0-2-1.57Z"/><path class="cls-3" d="M288,368.12a17,17,0,0,1-2.33-2.39l1.19,3.18a19.16,19.16,0,0,0,2,1.57Z"/><path class="cls-3" d="M282.28,352.84l-.88-2.35a19.37,19.37,0,0,0-.49,2.5l1.19,3.19A17.78,17.78,0,0,1,282.28,352.84Z"/><circle class="cls-3" cx="302.65" cy="407.25" r="1.44"/><circle class="cls-3" cx="341.15" cy="392.86" r="1.44"/><circle class="cls-3" cx="267.67" cy="313.7" r="1.44"/><circle class="cls-3" cx="306.17" cy="299.3" r="1.44"/><path class="cls-3" d="M313.59,350.77a18.36,18.36,0,0,1,.29,9.2l-5.09-1.22a14.83,14.83,0,0,0,.14-6.43l-2.23.84c.83,5.08.32,8.15-3.2,9.46l-.05,0c-3.33,1.25-6.67-.23-8.71-4.95l-1.53.57-1-2.79,1.62-.6a14.57,14.57,0,0,1-.19-7.13l5.05,1.05a10.94,10.94,0,0,0-.18,4.51l2.2-.82c-.79-4.82-.35-7.9,3.31-9.26l0,0c3.55-1.33,6.65.66,8.55,4.76l2.63-1,1.05,2.79Zm-14.43,5.15c.52,1.3,1.13,1.62,1.67,1.42l.05,0c.56-.21.74-.73.46-2.22Zm7.35-7.53-.05,0c-.56.21-.73.67-.46,2.13l2.18-.81C307.63,348.52,307.08,348.18,306.51,348.39Z"/><path class="cls-3" d="M315.33,346.93l1,2.79a.14.14,0,0,1-.07.18l-2.55,1A18.39,18.39,0,0,1,314,360a.14.14,0,0,1-.17.1l-5.08-1.22a.14.14,0,0,1-.1-.16,15,15,0,0,0,.18-6.22l-2,.74c.75,4.69.47,8.1-3.3,9.51l-.05,0c-3.59,1.34-6.88-.5-8.83-4.91l-1.42.53a.14.14,0,0,1-.17-.08l-1-2.79a.14.14,0,0,1,.08-.18l1.49-.56a14.86,14.86,0,0,1-.15-7.07.13.13,0,0,1,.16-.1l5.05,1.05a.16.16,0,0,1,.08.06.14.14,0,0,1,0,.11,10.69,10.69,0,0,0-.2,4.29l1.94-.73c-.73-4.55-.42-7.87,3.41-9.3l.05,0c3.43-1.28,6.66.48,8.67,4.72l2.52-.94A.14.14,0,0,1,315.33,346.93Zm.75,2.76-.95-2.54-2.51.94a.14.14,0,0,1-.17-.07c-2-4.24-5-6-8.38-4.7l-.06,0c-3.7,1.38-4,4.51-3.22,9.11a.13.13,0,0,1-.08.15l-2.21.82a.11.11,0,0,1-.11,0,.11.11,0,0,1-.06-.09,11.27,11.27,0,0,1,.14-4.43l-4.78-1a14.55,14.55,0,0,0,.21,6.93.12.12,0,0,1-.08.16l-1.48.56,1,2.54,1.4-.53a.14.14,0,0,1,.17.08c1.88,4.35,5.08,6.17,8.54,4.88l.06,0c3.14-1.18,4-3.79,3.11-9.32a.13.13,0,0,1,.09-.15l2.23-.83a.14.14,0,0,1,.11,0,.13.13,0,0,1,.06.09,14.75,14.75,0,0,1-.11,6.36l4.83,1.16a18.33,18.33,0,0,0-.32-9,.13.13,0,0,1,.08-.16Zm-7.78,0a.17.17,0,0,1,0,.1.11.11,0,0,1-.08.07l-2.17.82a.17.17,0,0,1-.12,0,.17.17,0,0,1-.06-.1c-.27-1.45-.13-2,.54-2.28l.06,0q1-.37,1.83,1.41Zm-2.2.68,1.9-.71c-.68-1.42-1.25-1.21-1.44-1.14l-.05,0C306.06,348.7,305.88,349,306.1,350.36Zm-4.64,4.69v0c.28,1.47.13,2.12-.54,2.37l-.06,0c-.4.15-1.18.16-1.84-1.51a.12.12,0,0,1,0-.1.12.12,0,0,1,.07-.07l2.18-.81a.14.14,0,0,1,.11,0A.19.19,0,0,1,301.46,355.05Zm-2.12.94c.41,1,.92,1.42,1.44,1.23l.05,0c.44-.16.64-.54.4-1.92Z"/><path class="cls-5" d="M460.79,295.85s-45-22.06-59-36.17-70.18,1.73-58.15-12.46,47.6-2.63,60.62-8,2.81-14.43,2.81-14.43c-42.95-36.81-59.21,23.4-65.5,20.46s-5.55-10.44,9.78-33.78,44.4-10.86,44.4-10.86-1.38-15.85,18.89-14.4c0,0,8.79-7.73,18.44-1.32,0,0,7.41-5.93,12.72,3.31,17.86,31.08,28.46,67.94,28.46,67.94"/><rect class="cls-6" x="176.43" y="153.57" width="232.16" height="154.29"/><rect class="cls-4" x="333.67" y="-64.66" width="93.72" height="93.72" transform="translate(0.33 -41.57) rotate(6.26)"/><rect class="cls-3" x="372.7" y="-64.66" width="15.66" height="93.72" transform="translate(0.33 -41.57) rotate(6.26)"/><rect class="cls-4" x="118.2" y="132.3" width="93.72" height="93.72" transform="translate(-52.49 69.54) rotate(-20.6)"/><rect class="cls-3" x="157.23" y="132.3" width="15.66" height="93.72" transform="translate(-52.49 69.54) rotate(-20.6)"/><rect class="cls-3" x="157.23" y="132.3" width="15.66" height="93.72" transform="translate(274.68 -38.39) rotate(69.4)"/><path class="cls-4" d="M148.57,135.3l-21,7.9s-16.82,6.08-21.45-6.45S129.94,115.73,148.57,135.3Z"/><path class="cls-4" d="M148.57,135.3l21-7.9s16.66-6.51,11.89-19S149.7,108.31,148.57,135.3Z"/><path class="cls-4" d="M148.57,135.3s-38.51-25.77-13.43-35.72C158.23,90.42,148.57,135.3,148.57,135.3Z"/><rect class="cls-4" x="-4.9" y="444.38" width="93.72" height="93.72" transform="translate(378.09 130.55) rotate(47.86)"/><rect class="cls-3" x="34.14" y="444.38" width="15.66" height="93.72" transform="translate(378.09 130.55) rotate(47.86)"/><rect class="cls-3" x="34.14" y="444.38" width="15.66" height="93.72" transform="translate(402.65 827.36) rotate(137.86)"/><path class="cls-4" d="M76.71,459.8,61.65,443.15s-11.83-13.42-1.87-22.32S88.08,435.29,76.71,459.8Z"/><path class="cls-4" d="M76.71,459.8l15.07,16.65s12.17,13.11,22,4.09S102.24,450.94,76.71,459.8Z"/><path class="cls-4" d="M76.71,459.8s9.85-45.28,28.3-25.6C122,452.31,76.71,459.8,76.71,459.8Z"/><rect class="cls-4" x="457.61" y="458.7" width="93.72" height="93.72" transform="translate(-145.35 209.22) rotate(-20.55)"/><rect class="cls-3" x="496.64" y="458.7" width="15.66" height="93.72" transform="translate(-145.35 209.22) rotate(-20.55)"/><rect class="cls-3" x="496.64" y="458.7" width="15.66" height="93.72" transform="translate(800.82 -144.26) rotate(69.45)"/><path class="cls-4" d="M488,461.69l-21,7.88s-16.83,6.06-21.44-6.48S469.41,442.1,488,461.69Z"/><path class="cls-4" d="M488,461.69l21-7.88s16.67-6.5,11.91-19S489.18,434.69,488,461.69Z"/><path class="cls-4" d="M488,461.69s-38.48-25.81-13.4-35.74C497.73,416.82,488,461.69,488,461.69Z"/><rect class="cls-4" x="299.38" y="595.16" width="93.72" height="93.72" transform="translate(307.61 -86.39) rotate(25.3)"/><rect class="cls-3" x="338.41" y="595.16" width="15.66" height="93.72" transform="translate(307.61 -86.39) rotate(25.3)"/><rect class="cls-3" x="338.41" y="595.16" width="15.66" height="93.72" transform="translate(1074.65 603.4) rotate(115.3)"/><path class="cls-4" d="M366.27,599.65,346,590.06s-16.07-7.85-10.29-19.89S367.35,572.66,366.27,599.65Z"/><path class="cls-4" d="M366.27,599.65l20.29,9.6s16.27,7.44,21.91-4.67S386.44,581.68,366.27,599.65Z"/><path class="cls-4" d="M366.27,599.65s-8.29-45.58,16.31-34.5C405.22,575.36,366.27,599.65,366.27,599.65Z"/><polygon class="cls-7" points="176.43 153.57 292.51 46.01 408.59 153.57 176.43 153.57"/><polygon class="cls-8" points="408.59 153.57 292.51 239.08 176.43 153.57 408.59 153.57"/><rect class="cls-4" x="529.07" y="212.81" width="93.72" height="93.72" transform="translate(166.9 -221.81) rotate(25.38)"/><rect class="cls-3" x="568.11" y="212.81" width="15.66" height="93.72" transform="translate(166.9 -221.81) rotate(25.38)"/><rect class="cls-3" x="568.11" y="212.81" width="15.66" height="93.72" transform="translate(1057.41 -149.37) rotate(115.38)"/><path class="cls-4" d="M596,217.33l-20.28-9.63s-16.06-7.87-10.27-19.9S597.15,190.34,596,217.33Z"/><path class="cls-4" d="M596,217.33,616.31,227s16.25,7.46,21.91-4.64S616.22,199.38,596,217.33Z"/><path class="cls-4" d="M596,217.33s-8.22-45.6,16.36-34.48C635,193.09,596,217.33,596,217.33Z"/><rect class="cls-4" x="564.96" y="-42.2" width="93.72" height="93.72" transform="translate(984.51 489.9) rotate(-127.96)"/><rect class="cls-3" x="604" y="-42.2" width="15.66" height="93.72" transform="matrix(-0.62, -0.79, 0.79, -0.62, 984.51, 489.9)"/><rect class="cls-3" x="604" y="-42.2" width="15.66" height="93.72" transform="translate(126.59 377.35) rotate(-37.96)"/><path class="cls-4" d="M574.88,33.49l13.81,17.7s10.82,14.24.24,22.39S561.76,57.11,574.88,33.49Z"/><path class="cls-4" d="M574.88,33.49,561.07,15.78S549.88,1.83,539.4,10.1,548.78,40.46,574.88,33.49Z"/><path class="cls-4" d="M574.88,33.49S561.77,77.93,544.79,57C529.16,37.66,574.88,33.49,574.88,33.49Z"/><rect class="cls-9" x="223.03" y="99.37" width="175.41" height="107.54" rx="6" transform="translate(11.83 328.25) rotate(-56.6)"/><rect class="cls-6" x="292.26" y="131.43" width="55.97" height="55.97" transform="translate(10.87 339.02) rotate(-56.6)"/><rect class="cls-10" x="315.57" y="131.43" width="9.35" height="55.97" transform="translate(10.87 339.02) rotate(-56.6)"/><rect class="cls-10" x="315.57" y="131.43" width="9.35" height="55.97" transform="translate(140.64 -149.96) rotate(33.4)"/><path class="cls-10" d="M296.88,144,289.5,155.2s-6,8.84-12.63,4.41S281,141.09,296.88,144Z"/><path class="cls-10" d="M296.88,144l7.39-11.2s5.76-9-.92-13.34S288,130.57,296.88,144Z"/><path class="cls-10" d="M296.88,144s-27.65,1.06-19-12.55C285.8,118.93,296.88,144,296.88,144Z"/><polygon class="cls-11" points="176.43 153.57 292.51 239.08 408.59 153.57 408.59 307.86 176.43 307.86 176.43 153.57"/><path class="cls-5" d="M449.2,290s-32.07-17.14-47.11-30.1c-12-10.31-65.85-1.84-53.82-16s46.51-1.22,59.53-6.63"/><rect class="cls-9" x="574.47" y="180.85" width="72.57" height="366.22" transform="translate(-22.58 687.02) rotate(-57.82)"/><rect class="cls-4" x="-22.58" y="253.93" width="114.46" height="55.16" transform="matrix(-0.96, -0.3, 0.3, -0.96, -15.41, 560.69)"/><path class="cls-1" d="M27.93,303.26A16.28,16.28,0,0,0,33,304l-9.74-3A16.15,16.15,0,0,0,27.93,303.26Z"/><path class="cls-1" d="M15,275.43c2.58-8.34,8.63-14.48,15.54-16.77L-.23,249.14a8.57,8.57,0,0,1-9,4.91l-7.84,25.35a8.57,8.57,0,0,1,4.66,9.13l30.78,9.52C14,292.25,12.43,283.78,15,275.43Z"/><path class="cls-1" d="M54.3,287.58c-2.58,8.35-8.62,14.48-15.54,16.77l30.78,9.52a8.59,8.59,0,0,1,9-4.9l7.84-25.35a8.59,8.59,0,0,1-4.66-9.13L50.94,265C55.36,270.76,56.88,279.24,54.3,287.58Z"/><path class="cls-1" d="M41.38,259.75a16.28,16.28,0,0,0-5.11-.72L46,262A16.68,16.68,0,0,0,41.38,259.75Z"/><path class="cls-3" d="M81.72,274.49a8.59,8.59,0,0,0,4.66,9.13L78.54,309a8.59,8.59,0,0,0-9,4.9l-30.78-9.52a19.48,19.48,0,0,1-2.47.64l34.06,10.53.07-.21a7.22,7.22,0,0,1,9-4.77L88,282.83a7.22,7.22,0,0,1-4.76-9l.07-.22L49.26,263.05A19.24,19.24,0,0,1,50.94,265Z"/><path class="cls-3" d="M-10.14,252.47l-8.57,27.71a7.22,7.22,0,0,1,4.76,9l-.06.22L20.05,300a20.43,20.43,0,0,1-1.68-1.92l-30.78-9.52a8.57,8.57,0,0,0-4.66-9.13l7.84-25.35a8.57,8.57,0,0,0,9-4.91l30.78,9.52A19.48,19.48,0,0,1,33,258L-1,247.49l-.07.22A7.22,7.22,0,0,1-10.14,252.47Z"/><path class="cls-3" d="M53,287.19c-2.69,8.69-9.35,14.87-16.66,16.42l2.4.74c6.92-2.29,13-8.42,15.54-16.77s1.06-16.82-3.36-22.61l-2.4-.74C53.7,269.63,55.71,278.49,53,287.19Z"/><path class="cls-3" d="M16.29,275.83C19,267.13,25.64,261,33,259.41l-2.4-.75c-6.91,2.29-13,8.43-15.54,16.77S14,292.25,18.37,298.05l2.4.74C15.61,293.38,13.6,284.52,16.29,275.83Z"/><path class="cls-3" d="M41.38,259.75A16.68,16.68,0,0,1,46,262l3.25,1A17.79,17.79,0,0,0,33,258l3.25,1A16.28,16.28,0,0,1,41.38,259.75Z"/><path class="cls-3" d="M27.93,303.26A16.15,16.15,0,0,1,23.3,301l-3.25-1a17.82,17.82,0,0,0,16.24,5L33,304A16.28,16.28,0,0,1,27.93,303.26Z"/><path class="cls-3" d="M48.54,264.23l2.4.74a19.24,19.24,0,0,0-1.68-1.92L46,262A17.6,17.6,0,0,1,48.54,264.23Z"/><path class="cls-3" d="M33,259.41a17,17,0,0,1,3.32-.38L33,258a19.48,19.48,0,0,0-2.47.64Z"/><path class="cls-3" d="M36.36,303.61A17,17,0,0,1,33,304l3.25,1a19.48,19.48,0,0,0,2.47-.64Z"/><path class="cls-3" d="M20.77,298.79l-2.4-.74A20.43,20.43,0,0,0,20.05,300l3.25,1A17.44,17.44,0,0,1,20.77,298.79Z"/><circle class="cls-3" cx="76.28" cy="315.94" r="1.44"/><circle class="cls-3" cx="88.43" cy="276.66" r="1.44"/><path class="cls-3" d="M38.27,272.74a18.26,18.26,0,0,1,7.45,5.4l-4.07,3.28a14.74,14.74,0,0,0-5-4l-.7,2.27c4.53,2.46,6.64,4.73,5.53,8.32V288c-1,3.4-4.26,5.14-9.25,3.86l-.48,1.57-2.85-.88.51-1.65a14.53,14.53,0,0,1-5.75-4.21l3.91-3.35a11.13,11.13,0,0,0,3.46,2.9l.7-2.25c-4.3-2.32-6.46-4.55-5.31-8.28l0-.05c1.11-3.62,4.59-4.86,9-3.85l.83-2.69,2.85.88Zm-4.75,14.57c1.35.39,2,.1,2.15-.44l0-.06c.18-.57-.13-1-1.48-1.72Zm-1.46-10.42,0,.06c-.18.57.09,1,1.41,1.66l.69-2.22C32.85,276.08,32.24,276.32,32.06,276.89Z"/><path class="cls-3" d="M36.29,269l2.85.88a.14.14,0,0,1,.09.17l-.8,2.6a18.42,18.42,0,0,1,7.4,5.39.14.14,0,0,1,0,.19l-4.08,3.27a.12.12,0,0,1-.18,0,14.85,14.85,0,0,0-4.82-3.93l-.62,2c4.17,2.27,6.69,4.58,5.5,8.42l0,.06c-1.13,3.65-4.59,5.14-9.28,4l-.44,1.44a.13.13,0,0,1-.17.08l-2.85-.88a.13.13,0,0,1-.09-.16l.48-1.53a14.75,14.75,0,0,1-5.7-4.21.13.13,0,0,1,0-.18l3.92-3.35a.13.13,0,0,1,.1,0,.15.15,0,0,1,.09.06,11,11,0,0,0,3.27,2.78l.62-2c-4-2.2-6.49-4.48-5.28-8.39l0-.05c1.08-3.5,4.45-5,9-4l.8-2.57A.13.13,0,0,1,36.29,269Zm2.65,1.1-2.6-.8-.79,2.56a.15.15,0,0,1-.16.09c-4.55-1-7.78.33-8.84,3.76v0c-1.17,3.78,1.14,5.91,5.24,8.12a.13.13,0,0,1,.06.16l-.69,2.25a.11.11,0,0,1-.08.08.14.14,0,0,1-.11,0,11.31,11.31,0,0,1-3.42-2.83l-3.71,3.18a14.61,14.61,0,0,0,5.62,4.07.13.13,0,0,1,.08.16l-.47,1.52,2.59.8.45-1.43a.13.13,0,0,1,.16-.09c4.59,1.17,8-.25,9.08-3.78l0-.06c1-3.2-.55-5.49-5.48-8.16a.13.13,0,0,1-.06-.15l.7-2.28s0-.07.08-.08a.11.11,0,0,1,.11,0,14.94,14.94,0,0,1,5,4l3.87-3.11a18.23,18.23,0,0,0-7.32-5.25.13.13,0,0,1-.08-.16Zm-4.77,6.14a.14.14,0,0,1,.08.07.12.12,0,0,1,0,.1l-.68,2.22a.14.14,0,0,1-.08.09.14.14,0,0,1-.11,0c-1.32-.68-1.69-1.14-1.48-1.82l0-.06c.22-.69,1-.89,2.24-.59Zm-.8,2.16.59-1.93c-1.53-.33-1.71.25-1.77.44l0,.05C32,277.44,32.18,277.79,33.37,278.42Zm.88,6.54h0c1.34.68,1.76,1.19,1.55,1.88l0,.06c-.13.41-.6,1-2.32.53a.16.16,0,0,1-.08-.06.21.21,0,0,1,0-.11l.69-2.22a.11.11,0,0,1,.08-.08A.13.13,0,0,1,34.25,285Zm-.56,2.26c1,.27,1.69.13,1.85-.39l0-.06c.14-.44,0-.83-1.27-1.49Z"/><rect class="cls-4" x="149.59" y="501.86" width="114.46" height="55.16" transform="translate(677.06 848.73) rotate(145.51)"/><path class="cls-1" d="M219.72,548.2a16.41,16.41,0,0,0,3.73-3.56l-8.4,5.77A16.37,16.37,0,0,0,219.72,548.2Z"/><path class="cls-1" d="M189.87,541.08c-4.94-7.2-6-15.75-3.51-22.59L159.8,536.73a8.57,8.57,0,0,1-1.73,10.1l15,21.87a8.59,8.59,0,0,1,10,2l26.56-18.24C202.42,552.34,194.82,548.28,189.87,541.08Z"/><path class="cls-1" d="M223.77,517.79c4.95,7.2,6,15.75,3.52,22.59l26.56-18.24a8.56,8.56,0,0,1,1.73-10.1l-15-21.87a8.6,8.6,0,0,1-10.06-2L204,506.4C211.23,506.53,218.83,510.59,223.77,517.79Z"/><path class="cls-1" d="M193.93,510.67a16.24,16.24,0,0,0-3.74,3.56l8.41-5.78A16.67,16.67,0,0,0,193.93,510.67Z"/><path class="cls-3" d="M230.5,488.16a8.6,8.6,0,0,0,10.06,2l15,21.87a8.56,8.56,0,0,0-1.73,10.1l-26.56,18.24a18.72,18.72,0,0,1-1,2.33l29.39-20.18-.13-.19a7.22,7.22,0,0,1,1.86-10L241,488.39a7.22,7.22,0,0,1-10-1.86l-.13-.19L201.4,506.53a19.62,19.62,0,0,1,2.55-.13Z"/><path class="cls-3" d="M156.26,546.57l16.43,23.91a7.22,7.22,0,0,1,10,1.86l.13.19,29.39-20.19a19.8,19.8,0,0,1-2.55.13l-26.56,18.24a8.59,8.59,0,0,0-10-2l-15-21.87a8.57,8.57,0,0,0,1.73-10.1l26.56-18.24a19.53,19.53,0,0,1,1-2.34L158,536.34l.13.19A7.22,7.22,0,0,1,156.26,546.57Z"/><path class="cls-3" d="M222.67,518.55c5.15,7.5,5.87,16.56,2.55,23.26l2.07-1.43c2.49-6.84,1.43-15.39-3.52-22.59S211.23,506.53,204,506.4l-2.07,1.43C209.32,507.13,217.51,511.05,222.67,518.55Z"/><path class="cls-3" d="M191,540.32c-5.16-7.5-5.87-16.56-2.55-23.26l-2.07,1.43c-2.5,6.84-1.43,15.39,3.51,22.59s12.55,11.26,19.83,11.39l2.07-1.43C204.32,551.74,196.13,547.82,191,540.32Z"/><path class="cls-3" d="M193.93,510.67a16.67,16.67,0,0,1,4.67-2.22l2.8-1.92a17.79,17.79,0,0,0-14,9.62l2.8-1.92A16.24,16.24,0,0,1,193.93,510.67Z"/><path class="cls-3" d="M219.72,548.2a16.37,16.37,0,0,1-4.67,2.21l-2.8,1.93a17.81,17.81,0,0,0,14-9.63l-2.81,1.93A16.41,16.41,0,0,1,219.72,548.2Z"/><path class="cls-3" d="M201.88,507.83,204,506.4a19.62,19.62,0,0,0-2.55.13l-2.8,1.92A17.27,17.27,0,0,1,201.88,507.83Z"/><path class="cls-3" d="M188.43,517.06a17.86,17.86,0,0,1,1.76-2.83l-2.8,1.92a19.53,19.53,0,0,0-1,2.34Z"/><path class="cls-3" d="M225.22,541.81a17.22,17.22,0,0,1-1.77,2.83l2.81-1.93a18.72,18.72,0,0,0,1-2.33Z"/><path class="cls-3" d="M211.77,551l-2.07,1.43a19.8,19.8,0,0,0,2.55-.13l2.8-1.93A16.67,16.67,0,0,1,211.77,551Z"/><circle class="cls-3" cx="259.65" cy="518.13" r="1.44"/><circle class="cls-3" cx="236.37" cy="484.25" r="1.44"/><circle class="cls-3" cx="177.32" cy="574.69" r="1.44"/><circle class="cls-3" cx="154.04" cy="540.8" r="1.44"/><path class="cls-3" d="M202.19,521.17a18.18,18.18,0,0,1,8.86-2.5l0,5.22a14.84,14.84,0,0,0-6.27,1.42l1.35,2c4.73-2,7.83-2.28,10,.82l0,0c2,2.94,1.39,6.53-2.7,9.65l.93,1.35-2.46,1.69-1-1.42a14.57,14.57,0,0,1-6.88,1.9l-.19-5.15a11.08,11.08,0,0,0,4.41-.91L207,533.3c-4.48,1.93-7.57,2.24-9.78-1l0-.05c-2.15-3.12-1-6.61,2.55-9.45l-1.59-2.31,2.46-1.69Zm8.48,12.75c1.15-.82,1.31-1.49,1-2l0-.05c-.34-.49-.89-.53-2.26.1Zm-9.08-5.31,0,0c.35.5.83.55,2.18-.07l-1.31-1.91C201.45,527.49,201.25,528.11,201.59,528.61Z"/><path class="cls-3" d="M198.05,520.41l2.46-1.69a.12.12,0,0,1,.18,0l1.54,2.24a18.4,18.4,0,0,1,8.82-2.46.13.13,0,0,1,.13.13l0,5.23a.13.13,0,0,1-.13.14,14.94,14.94,0,0,0-6.07,1.33l1.2,1.74c4.37-1.86,7.74-2.4,10,.91l0,0c2.17,3.15,1.19,6.79-2.62,9.75l.85,1.25a.13.13,0,0,1,0,.18L212,540.93a.14.14,0,0,1-.19,0l-.91-1.32a14.76,14.76,0,0,1-6.82,1.86.13.13,0,0,1-.14-.13l-.2-5.15a.12.12,0,0,1,0-.1.13.13,0,0,1,.1,0,10.82,10.82,0,0,0,4.21-.84l-1.18-1.71c-4.23,1.81-7.53,2.3-9.84-1.07l0,0c-2.08-3-1.14-6.58,2.48-9.55L198,520.59A.13.13,0,0,1,198.05,520.41Zm2.5-1.4-2.24,1.54,1.51,2.21a.14.14,0,0,1,0,.18c-3.64,2.93-4.57,6.31-2.53,9.27l0,0c2.24,3.26,5.34,2.77,9.62.93a.12.12,0,0,1,.16,0l1.33,1.94a.13.13,0,0,1,0,.12.14.14,0,0,1-.07.08,11.35,11.35,0,0,1-4.34.93l.19,4.88a14.59,14.59,0,0,0,6.68-1.88.13.13,0,0,1,.18,0l.9,1.3,2.23-1.53-.85-1.24a.14.14,0,0,1,0-.18c3.77-2.88,4.77-6.42,2.67-9.47l0-.05c-1.9-2.76-4.65-3-9.79-.77a.14.14,0,0,1-.17,0l-1.35-2a.14.14,0,0,1,0-.11.18.18,0,0,1,.07-.08,15,15,0,0,1,6.2-1.43l0-5a18.22,18.22,0,0,0-8.66,2.48.13.13,0,0,1-.18,0Zm1.86,7.55a.12.12,0,0,1,.1,0,.12.12,0,0,1,.09.05l1.31,1.92a.11.11,0,0,1,0,.11.13.13,0,0,1-.07.09c-1.35.61-1.94.61-2.35,0l0-.05c-.41-.6-.1-1.31.93-2.12Zm1.19,2-1.14-1.67c-1.22,1-.87,1.5-.76,1.67l0,.05C202,529,202.37,529.07,203.6,528.53Zm5.68,3.37h0c1.37-.63,2-.64,2.43,0l0,0c.24.35.43,1.1-1,2.14a.12.12,0,0,1-.1,0,.15.15,0,0,1-.09-.06l-1.31-1.92a.11.11,0,0,1,0-.11A.18.18,0,0,1,209.28,531.9Zm1.43,1.83c.85-.64,1.15-1.24.84-1.69l0,0c-.26-.38-.67-.49-1.95.07Z"/><rect class="cls-4" x="61.15" y="-13.26" width="114.46" height="55.16" transform="translate(235.22 38.16) rotate(-175.36)"/><path class="cls-1" d="M116.54,37a16.69,16.69,0,0,0,5.15-.4l-10.16-.83A16.22,16.22,0,0,0,116.54,37Z"/><path class="cls-1" d="M97.89,12.65c.71-8.7,5.27-16,11.52-19.74L77.3-9.7a8.59,8.59,0,0,1-7.72,6.75L67.44,23.5A8.57,8.57,0,0,1,74,31.39L106.08,34C100.51,29.3,97.18,21.36,97.89,12.65Z"/><path class="cls-1" d="M138.88,16c-.71,8.7-5.27,16-11.53,19.74l32.12,2.61a8.56,8.56,0,0,1,7.71-6.74l2.15-26.45a8.58,8.58,0,0,1-6.53-7.9L130.69-5.37C136.26-.67,139.59,7.27,138.88,16Z"/><path class="cls-3" d="M162.8-2.76a8.58,8.58,0,0,0,6.53,7.9l-2.15,26.45a8.56,8.56,0,0,0-7.71,6.74l-32.12-2.61a18,18,0,0,1-2.27,1.16l35.54,2.88,0-.22a7.22,7.22,0,0,1,7.78-6.62L170.76,4a7.22,7.22,0,0,1-6.61-7.78l0-.22L128.63-6.88a21.31,21.31,0,0,1,2.06,1.51Z"/><path class="cls-3" d="M68.35-4.29,66,24.62a7.22,7.22,0,0,1,6.62,7.78l0,.23,35.54,2.88A20.14,20.14,0,0,1,106.08,34L74,31.39a8.57,8.57,0,0,0-6.53-7.89L69.58-2.95A8.59,8.59,0,0,0,77.3-9.7l32.11,2.61a20.36,20.36,0,0,1,2.28-1.16L76.15-11.13l0,.23A7.22,7.22,0,0,1,68.35-4.29Z"/><path class="cls-3" d="M137.54,15.87c-.73,9.07-5.89,16.55-12.69,19.65l2.5.2c6.26-3.73,10.82-11,11.53-19.74S136.26-.67,130.69-5.37l-2.51-.2C134.4-1.41,138.28,6.8,137.54,15.87Z"/><path class="cls-3" d="M99.22,12.76c.74-9.07,5.89-16.55,12.7-19.65l-2.51-.2C103.16-3.35,98.6,4,97.89,12.65S100.51,29.3,106.08,34l2.51.2C102.37,30,98.49,21.83,99.22,12.76Z"/><path class="cls-3" d="M116.54,37a16.22,16.22,0,0,1-5-1.23l-3.39-.27a17.78,17.78,0,0,0,16.94,1.37l-3.39-.27A16.69,16.69,0,0,1,116.54,37Z"/><path class="cls-3" d="M124.85,35.52a17.89,17.89,0,0,1-3.16,1.09l3.39.27a18,18,0,0,0,2.27-1.16Z"/><path class="cls-3" d="M108.59,34.2l-2.51-.2a20.14,20.14,0,0,0,2.06,1.51l3.39.27A17.34,17.34,0,0,1,108.59,34.2Z"/><circle class="cls-3" cx="166.5" cy="38.88" r="1.44"/><circle class="cls-3" cx="66.94" cy="30.81" r="1.44"/><path class="cls-3" d="M120,5a18.2,18.2,0,0,1,8.46,3.65l-3.27,4.08a14.91,14.91,0,0,0-5.75-2.86l-.2,2.38c5,1.41,7.52,3.17,7.21,6.91v.06c-.29,3.55-3,5.94-8.18,5.78l-.14,1.63-3-.24.14-1.71a14.73,14.73,0,0,1-6.53-2.86l3.1-4.13a10.88,10.88,0,0,0,4,2.08l.19-2.34c-4.7-1.33-7.29-3-7-6.93v-.05c.3-3.78,3.43-5.74,7.94-5.72l.23-2.8,3,.24Zm-1.46,15.25c1.4.08,1.95-.33,2-.9v-.06c0-.6-.35-1-1.81-1.36Zm-3.69-9.86v.06c0,.6.3,1,1.74,1.32l.19-2.31C115.44,9.41,114.9,9.77,114.85,10.37Z"/><path class="cls-3" d="M117.27,1.77l3,.24a.15.15,0,0,1,.12.15l-.22,2.71a18.37,18.37,0,0,1,8.39,3.65.13.13,0,0,1,0,.19l-3.26,4.08a.14.14,0,0,1-.19,0,14.77,14.77,0,0,0-5.55-2.8l-.17,2.11c4.56,1.31,7.52,3,7.2,7v.06c-.31,3.82-3.37,6-8.19,5.91l-.12,1.5a.14.14,0,0,1-.15.13l-3-.24a.14.14,0,0,1-.12-.15l.13-1.59a14.78,14.78,0,0,1-6.47-2.87.13.13,0,0,1,0-.18l3.1-4.13a.12.12,0,0,1,.09-.05.15.15,0,0,1,.1,0,10.77,10.77,0,0,0,3.8,2l.17-2.07c-4.43-1.27-7.3-3-7-7v-.06c.3-3.64,3.27-5.82,8-5.83l.22-2.68A.13.13,0,0,1,117.27,1.77Zm2.82.5-2.71-.22-.21,2.67a.14.14,0,0,1-.14.12c-4.67,0-7.52,2-7.81,5.6v.05c-.32,3.94,2.39,5.52,6.88,6.79a.13.13,0,0,1,.09.14L116,19.76a.12.12,0,0,1,0,.1.13.13,0,0,1-.12,0,11.2,11.2,0,0,1-3.94-2L109,21.77a14.59,14.59,0,0,0,6.36,2.76.12.12,0,0,1,.11.14l-.12,1.58,2.7.22.12-1.5a.14.14,0,0,1,.14-.12c4.74.15,7.75-2,8-5.66v-.06c.27-3.34-1.72-5.24-7.11-6.77a.15.15,0,0,1-.1-.14l.19-2.38a.15.15,0,0,1,.06-.09.14.14,0,0,1,.11,0,15,15,0,0,1,5.7,2.8l3.1-3.87A18.21,18.21,0,0,0,120,5.11a.13.13,0,0,1-.11-.14Zm-3.31,7a.14.14,0,0,1,.08,0,.12.12,0,0,1,0,.1l-.19,2.31a.11.11,0,0,1-.06.1.14.14,0,0,1-.11,0c-1.43-.37-1.89-.74-1.83-1.46v-.06c.06-.72.75-1.08,2.06-1.06Zm-.32,2.28.16-2c-1.57,0-1.62.61-1.64.81v.06C114.94,10.91,115.16,11.22,116.46,11.58Zm2.28,6.2h0c1.46.38,2,.78,1.92,1.5v.06c0,.43-.36,1.13-2.14,1a.13.13,0,0,1-.09,0,.14.14,0,0,1,0-.1l.19-2.32a.21.21,0,0,1,.06-.1A.13.13,0,0,1,118.74,17.78Zm-.06,2.32c1.07,0,1.68-.23,1.73-.78v-.06c0-.46-.21-.81-1.56-1.18Z"/></g></svg>