<svg id="Layer_1" data-name="Layer 1" xmlns="http://www.w3.org/2000/svg" xmlns:xlink="http://www.w3.org/1999/xlink" viewBox="0 0 223.6 189.55"><defs><style>.cls-1{fill:none;}.cls-2{clip-path:url(#clip-path);}.cls-3{fill:#983ac9;}.cls-4{fill:#fcce2f;}.cls-5{fill:#efefef;}.cls-6{fill:#e2e2e2;}.cls-7{fill:#332baa;}.cls-8{fill:#2fe4da;}.cls-9{fill:#06c9b1;}.cls-10{fill:#fff;}</style><clipPath id="clip-path"><rect class="cls-1" x="-89.4" y="-118" width="313" height="386"/></clipPath></defs><title>Group_16-01 (1)</title><g class="cls-2"><path class="cls-3" d="M76.9,60.7a3.68,3.68,0,0,1,.7,1l-.4-1.3c-.2-.2-.4-.5-.6-.7Z"/><circle class="cls-3" cx="49.1" cy="47.2" r="1"/><circle class="cls-3" cx="69.1" cy="41.2" r="1"/><path class="cls-4" d="M149.6,129.71s-23.4-11.3-30.7-18.5-36.5.9-30.3-6.4,24.8-1.3,31.6-4.1,1.5-7.4,1.5-7.4c-22.4-18.8-30.8,12-34.1,10.5s-2.9-5.3,5.1-17.3S115.8,81,115.8,81s-.7-8.1,9.8-7.4c0,0,4.6-4,9.6-.7,0,0,3.9-3,6.6,1.7,9.3,15.9,14.8,34.7,14.8,34.7"/><polygon class="cls-5" points="2.6 56.81 62.6 1.81 122.6 56.81 2.6 56.81"/><polygon class="cls-6" points="122.6 56.71 62.6 100.71 2.6 56.71 122.6 56.71"/><path class="cls-7" d="M26.6,74.41,69.8,8.81a6,6,0,0,1,8.3-1.7h0L114.4,31a6,6,0,0,1,1.7,8.3l-43.2,65.6a6,6,0,0,1-8.3,1.7h0L28.3,82.71A6,6,0,0,1,26.6,74.41Z"/><polygon class="cls-8" points="56.3 64.21 72.2 40.11 96.3 56.01 80.4 80.11 56.3 64.21"/><polygon class="cls-9" points="62.9 54.21 65.6 50.21 89.7 66.11 87 70.11 62.9 54.21"/><polygon class="cls-9" points="82.2 46.71 86.2 49.41 70.3 73.51 66.3 70.91 82.2 46.71"/><path class="cls-9" d="M63.6,52.91l-3.7,5.8s-3,4.6-6.3,2.3S55.7,51.41,63.6,52.91Z"/><path class="cls-9" d="M64.6,51.71l3.8-5.8s3-4.6-.5-6.9C64.5,36.91,60,44.81,64.6,51.71Z"/><path class="cls-9" d="M63.6,52.71s-13.4.5-9.2-6.2C58.2,40.21,63.6,52.71,63.6,52.71Z"/><polygon class="cls-10" points="2.6 56.71 62.6 101.11 122.6 56.71 122.6 136.71 2.6 136.71 2.6 56.71"/><path class="cls-4" d="M142.6,127.71s-16.6-8.7-24.3-15.3c-6.2-5.3-34-.9-27.8-8.2s25.1-1.3,32.1-4.9"/><polygon class="cls-7" points="136.2 131.21 156.2 99.51 316.1 200.21 296.2 231.91 136.2 131.21"/></g></svg>