<svg id="Layer_1" data-name="Layer 1" xmlns="http://www.w3.org/2000/svg" xmlns:xlink="http://www.w3.org/1999/xlink" viewBox="0 0 238.1 178.79"><defs><style>.cls-1{fill:none;}.cls-2{clip-path:url(#clip-path);}.cls-3{fill:#fcce2f;}.cls-4{fill:#2fe4da;}.cls-5{fill:#efefef;}.cls-6{fill:#e2e2e2;}.cls-7{fill:#332baa;}.cls-8{fill:#06c9b1;}.cls-9{fill:#fff;}</style><clipPath id="clip-path"><rect class="cls-1" width="238.1" height="178.79"/></clipPath></defs><title>Group_5 (1)</title><g class="cls-2"><path class="cls-3" d="M150.67,132.69s-23.4-11.5-30.7-18.8-36.5.9-30.3-6.5,24.8-1.4,31.6-4.2,1.5-7.5,1.5-7.5c-22.4-19.1-30.8,12.2-34.1,10.6s-2.9-5.4,5.1-17.6,23.1-5.6,23.1-5.6-.7-8.2,9.8-7.5c0,0,4.6-4,9.6-.7,0,0,3.9-3.1,6.6,1.7,9.3,16.2,14.8,35.3,14.8,35.3"/><rect class="cls-4" x="2.67" y="58.69" width="121" height="81"/><polygon class="cls-5" points="2.67 58.69 63.17 2.69 123.67 58.69 2.67 58.69"/><polygon class="cls-6" points="123.67 58.69 63.17 103.69 2.67 58.69 123.67 58.69"/><path class="cls-7" d="M27.17,76.09,71,9.59a6,6,0,0,1,8.3-1.7h0l36.9,24.3a6,6,0,0,1,1.7,8.3L74.07,107a6,6,0,0,1-8.3,1.7h0l-36.9-24.3A6.06,6.06,0,0,1,27.17,76.09Z"/><polygon class="cls-4" points="57.27 65.69 73.37 41.29 97.77 57.39 81.67 81.79 57.27 65.69"/><polygon class="cls-8" points="63.97 55.59 66.67 51.49 91.07 67.59 88.37 71.69 63.97 55.59"/><polygon class="cls-8" points="83.47 47.99 87.57 50.69 71.47 75.09 67.37 72.39 83.47 47.99"/><path class="cls-8" d="M64.67,53.89,61,59.69s-3,4.6-6.3,2.3S56.77,52.39,64.67,53.89Z"/><path class="cls-8" d="M65.67,53.69l3.8-5.8s3-4.6-.5-6.9S61.07,46.79,65.67,53.69Z"/><path class="cls-8" d="M65.67,53.69s-14.7.5-10.1-6.2C59.77,41.19,65.67,53.69,65.67,53.69Z"/><polygon class="cls-9" points="2.67 58.69 63.17 103.59 123.67 58.69 123.67 139.69 2.67 139.69 2.67 58.69"/><path class="cls-3" d="M144.67,129.69s-16.9-9.1-24.8-15.9c-6.3-5.4-34.6-1-28.3-8.5s24.5-.6,31.3-3.5"/><polygon class="cls-7" points="132.77 129.39 160.17 103.19 292.57 241.19 265.17 267.49 132.77 129.39"/></g></svg>