<svg version="1.1" id="Layer_1" xmlns="http://www.w3.org/2000/svg" xmlns:xlink="http://www.w3.org/1999/xlink" x="0" y="0" viewBox="0 0 238.1 178.8" xml:space="preserve">
  <style>
    .st1{fill:#fcce2f}.st2{fill:#2fe4da}.st5{enable-background:new}
  </style>
  <defs>
    <path id="SVGID_1_" d="M0 0h238.1v178.8H0z"/>
  </defs>
  <clipPath id="SVGID_2_">
    <use xlink:href="#SVGID_1_" overflow="visible"/>
  </clipPath>
  <g clip-path="url(#SVGID_2_)">
    <path class="st1" d="M150.7 132.7s-23.4-11.5-30.7-18.8-36.5.9-30.3-6.5 24.8-1.4 31.6-4.2 1.5-7.5 1.5-7.5c-22.4-19.1-30.8 12.2-34.1 10.6s-2.9-5.4 5.1-17.6 23.1-5.6 23.1-5.6-.7-8.2 9.8-7.5c0 0 4.6-4 9.6-.7 0 0 3.9-3.1 6.6 1.7 9.3 16.2 14.8 35.3 14.8 35.3"/>
    <path class="st2" d="M2.7 58.7h121v81H2.7z"/>
    <path fill="#efefef" d="M2.7 58.7l60.5-56 60.5 56z"/>
    <path fill="#e2e2e2" d="M123.7 58.7l-60.5 45-60.5-45z"/>
    <g class="st5">
      <path class="st2" d="M44.3 79.2l1.9 7-8.8 2.4-1.8-6.6c-6.4 1.3-12.9 1.2-17.3-.1l1.9-12.1c4.8 1.3 10.7 1.4 15.6.1 4.2-1.1 5.5-2.4 5.1-3.9-1.5-5.5-24.6 5.4-28.9-10.9-1.9-7.1 1.6-14.4 11.5-18.6l-1.8-6.8 8.8-2.4 1.8 6.7c4.8-.8 9.6-.8 13.7.2L44.3 46c-4.9-1-9.3-1-13.1 0-4.3 1.2-5.4 2.8-5 4.3 1.4 5.3 24.5-5.6 28.8 10.6 1.9 6.7-1.4 14-10.7 18.3z"/>
    </g>
    <g class="st5">
      <path class="st2" d="M92.9 81.9l-1.9 7-8.8-2.4 1.8-6.6c-6.2-2.1-11.8-5.4-14.9-8.7l7.7-9.5c3.5 3.6 8.6 6.6 13.4 7.9 4.2 1.1 5.9.7 6.3-.9 1.5-5.5-24-7.6-19.6-23.9 1.9-7.1 8.6-11.7 19.3-10.4l1.8-6.8 8.8 2.4-1.8 6.7c4.5 1.7 8.7 4.1 11.8 7l-7.3 9.5c-3.7-3.4-7.5-5.5-11.4-6.5-4.3-1.2-6-.3-6.4 1.2-1.4 5.3 24 7.4 19.7 23.6-1.8 6.8-8.3 11.3-18.5 10.4z"/>
    </g>
    <path d="M69.9 82.5v9.7H57.6v-9.3c-8.7-.5-17.2-2.9-22.5-6.1l6.6-15c5.8 3.4 13.5 5.6 20.2 5.6 5.9 0 8-1.2 8-3.3 0-7.7-33.8-1.5-33.8-24.3 0-9.9 7.2-18.2 21.5-20.2v-9.5h12.3v9.4c6.5.6 12.8 2.3 17.7 5.1l-6.2 15c-6-3.1-11.7-4.5-17-4.5-6 0-8 1.7-8 3.8 0 7.3 33.8 1.2 33.8 23.8.1 9.2-6.8 17.4-20.3 19.8z" fill="#00c4ab"/>
    <path fill="#fff" d="M2.7 58.7l60.5 44.9 60.5-44.9v81H2.7z"/>
    <path class="st1" d="M144.7 129.7s-16.9-9.1-24.8-15.9c-6.3-5.4-34.6-1-28.3-8.5s24.5-.6 31.3-3.5"/>
    <path fill="#332baa" d="M132.8 129.4l27.4-26.2 132.4 138-27.4 26.3z"/>
  </g>
</svg>
