<svg version="1.1" id="Layer_1" xmlns="http://www.w3.org/2000/svg" xmlns:xlink="http://www.w3.org/1999/xlink" x="0" y="0" viewBox="0 0 223.6 189.6" xml:space="preserve">
  <style>
    .st1{fill:#983ac9}.st2{fill:#fcce2f}.st5{enable-background:new}.st6{fill:#2fe4da}
  </style>
  <defs>
    <path id="SVGID_1_" d="M-89.4-118h313v386h-313z"/>
  </defs>
  <clipPath id="SVGID_2_">
    <use xlink:href="#SVGID_1_" overflow="visible"/>
  </clipPath>
  <g clip-path="url(#SVGID_2_)">
    <path class="st1" d="M76.9 60.7c.3.3.5.6.7 1l-.4-1.3c-.2-.2-.4-.5-.6-.7l.3 1z"/>
    <circle class="st1" cx="49.1" cy="47.2" r="1"/>
    <circle class="st1" cx="69.1" cy="41.2" r="1"/>
    <path class="st2" d="M149.6 129.7s-23.4-11.3-30.7-18.5-36.5.9-30.3-6.4 24.8-1.3 31.6-4.1 1.5-7.4 1.5-7.4c-22.4-18.8-30.8 12-34.1 10.5s-2.9-5.3 5.1-17.3 23.1-5.5 23.1-5.5-.7-8.1 9.8-7.4c0 0 4.6-4 9.6-.7 0 0 3.9-3 6.6 1.7 9.3 15.9 14.8 34.7 14.8 34.7"/>
    <path fill="#efefef" d="M2.6 56.8l60-55 60 55z"/>
    <path fill="#e2e2e2" d="M122.6 56.7l-60 44-60-44z"/>
    <g class="st5">
      <path class="st6" d="M43.8 78.5l1.9 6.9-8.8 2.4-1.8-6.6c-6.4 1.3-12.9 1.2-17.2-.1l1.9-12c4.8 1.3 10.7 1.4 15.5.1 4.2-1.1 5.5-2.4 5.1-3.9-1.5-5.5-24.5 5.4-28.9-10.9C9.6 47.3 13.1 40 23 35.8L21.2 29l8.8-2.4 1.8 6.7c4.7-.8 9.6-.8 13.7.2l-1.6 11.9c-4.9-1-9.3-1-13.1 0-4.3 1.2-5.4 2.8-5 4.3 1.4 5.3 24.4-5.6 28.8 10.5 1.8 6.8-1.5 14-10.8 18.3z"/>
    </g>
    <g class="st5">
      <path class="st6" d="M92.3 81.2l-1.9 6.9-8.8-2.4 1.8-6.6c-6.2-2.1-11.8-5.4-14.9-8.7l7.6-9.5c3.5 3.5 8.6 6.6 13.4 7.9 4.2 1.1 5.9.6 6.3-.9 1.5-5.5-23.9-7.5-19.5-23.9 1.9-7.1 8.6-11.6 19.3-10.3l1.8-6.8 8.8 2.4-1.8 6.7c4.5 1.7 8.7 4.1 11.7 7l-7.3 9.5c-3.7-3.3-7.5-5.5-11.3-6.5-4.3-1.2-6-.3-6.4 1.2-1.4 5.3 24 7.4 19.6 23.5-1.8 6.9-8.3 11.5-18.4 10.5z"/>
    </g>
    <path d="M69.3 81.8v9.7H57v-9.2c-8.7-.5-17.2-2.9-22.4-6.1l6.6-15c5.8 3.4 13.4 5.6 20.1 5.6 5.8 0 7.9-1.2 7.9-3.3 0-7.7-33.8-1.5-33.8-24.2 0-9.9 7.2-18.1 21.5-20.1V9.7h12.3V19c6.5.6 12.7 2.3 17.7 5.1L80.7 39c-6-3.1-11.7-4.5-17-4.5-6 0-7.9 1.7-7.9 3.8 0 7.3 33.8 1.2 33.8 23.7.1 9.2-6.7 17.4-20.3 19.8z" fill="#00c4ab"/>
    <path fill="#fff" d="M2.6 56.7l60 44.4 60-44.4v80H2.6z"/>
    <path class="st2" d="M142.6 127.7s-16.6-8.7-24.3-15.3c-6.2-5.3-34-.9-27.8-8.2s25.1-1.3 32.1-4.9"/>
    <path fill="#332baa" d="M136.2 131.2l20-31.7 159.9 100.7-19.9 31.7z"/>
  </g>
</svg>
