<svg xmlns="http://www.w3.org/2000/svg" xmlns:xlink="http://www.w3.org/1999/xlink" viewBox="0 0 600 290"><defs><style>.cls-1,.cls-8{fill:none;}.cls-2{clip-path:url(#clip-path);}.cls-3{fill:#3de2d8;}.cls-4{fill:#1fc2aa;}.cls-5{fill:#fff;}.cls-5,.cls-6{stroke:#000;}.cls-6{fill:#facc43;stroke-miterlimit:10;}.cls-7{clip-path:url(#clip-path-2);}.cls-8{stroke:#ff4c22;stroke-linecap:round;stroke-linejoin:round;stroke-width:4px;}</style><clipPath id="clip-path"><rect class="cls-1" width="600" height="290"/></clipPath><clipPath id="clip-path-2"><rect class="cls-1" x="-672.49" y="-0.51" width="600" height="290"/></clipPath></defs><title>final email header banners</title><g id="Layer_2" data-name="Layer 2"><g class="cls-2"><rect class="cls-3" x="-3.98" y="-4.87" width="607.96" height="299.74"/><path class="cls-4" d="M75.19,252.94a45,45,0,0,0-37.45-38.5l0-139.07A45,45,0,0,0,75.27,36.89L244.12,37a103.39,103.39,0,0,1,11.37-7L68.63,29.87v1.2A37.84,37.84,0,0,1,30.78,68.9l-.06,152a37.85,37.85,0,0,1,37.83,37.86V260l186.86.06A101.07,101.07,0,0,1,244,253Z"/><path class="cls-4" d="M569.22,221.1l.06-152a37.85,37.85,0,0,1-37.83-37.86V30L344.59,30A101.07,101.07,0,0,1,356,37l168.85.06a45,45,0,0,0,37.45,38.5l0,139.07a45,45,0,0,0-37.48,38.48l-168.85-.06a103.39,103.39,0,0,1-11.37,7l186.86.07v-1.2A37.84,37.84,0,0,1,569.22,221.1Z"/><path class="cls-4" d="M199.25,145c0-47.7,23.8-88.93,58-108H244.12C213,59.11,192.25,99.19,192.24,145S213,230.83,244,253h13.17C223,233.91,199.24,192.67,199.25,145Z"/><path class="cls-4" d="M400.75,145c0,47.7-23.8,88.93-58,108h13.17c31.09-22.16,51.87-62.24,51.88-108S387,59.17,356,37H342.79C377,56.09,400.76,97.33,400.75,145Z"/><path class="cls-4" d="M300,264.33a85.83,85.83,0,0,1-26.72-4.3H255.41a93.4,93.4,0,0,0,89.1,0H326.68A85.57,85.57,0,0,1,300,264.33Z"/><path class="cls-4" d="M300,25.67A85.83,85.83,0,0,1,326.76,30h17.83a93.4,93.4,0,0,0-89.1,0h17.83A85.57,85.57,0,0,1,300,25.67Z"/><path class="cls-4" d="M257.21,253H244a101.07,101.07,0,0,0,11.37,7h17.83A90.21,90.21,0,0,1,257.21,253Z"/><path class="cls-4" d="M342.71,253a90.48,90.48,0,0,1-16,7h17.83a103.39,103.39,0,0,0,11.37-7Z"/><path class="cls-4" d="M257.29,37a90.48,90.48,0,0,1,16-7H255.49a103.39,103.39,0,0,0-11.37,7Z"/><path class="cls-4" d="M342.79,37H356a101.07,101.07,0,0,0-11.37-7H326.76A90.21,90.21,0,0,1,342.79,37Z"/><path class="cls-4" d="M559.25,50.47A17.47,17.47,0,0,1,551,47.7l2.78-4.07a14,14,0,0,0,5.66,2.24V43.63c-4.79-.94-7.34-2.4-7.34-5.92v-.06c0-3.33,2.42-5.78,7.29-6V30.09h2.83v1.62a13.87,13.87,0,0,1,6.39,2.18L566,38A10.6,10.6,0,0,0,562,36.34v2.21c4.54.89,7.12,2.29,7.12,6v0c0,3.56-2.8,5.63-7.07,6v2.64h-2.83Zm.22-14.38c-1.34,0-1.82.46-1.82,1v0c0,.57.4.89,1.82,1.14ZM563.71,45V45c0-.56-.35-.86-1.74-1.1v2.18C563.22,46,563.71,45.6,563.71,45Z"/><path class="cls-4" d="M562.07,53.26h-2.83a.12.12,0,0,1-.12-.12V50.59a17.55,17.55,0,0,1-8.22-2.79.13.13,0,0,1,0-.17l2.78-4.07a.12.12,0,0,1,.17,0,14.15,14.15,0,0,0,5.46,2.19v-2c-4.41-.89-7.34-2.26-7.34-6v-.06c0-3.59,2.72-5.88,7.29-6.14V30.09a.12.12,0,0,1,.12-.13h2.83a.12.12,0,0,1,.13.12v1.5a14,14,0,0,1,6.33,2.2.12.12,0,0,1,0,.17l-2.61,4.09a.15.15,0,0,1-.09.06.16.16,0,0,1-.09,0,10.53,10.53,0,0,0-3.75-1.59v1.95c4.29.85,7.13,2.22,7.13,6.06v0c0,3.44-2.65,5.7-7.08,6.07v2.52A.12.12,0,0,1,562.07,53.26Zm-2.7-.25H562V50.5a.12.12,0,0,1,.12-.12c4.42-.34,6.95-2.46,7-5.83v0c0-3.71-2.69-5-7-5.83a.12.12,0,0,1-.1-.12V36.34a.14.14,0,0,1,.05-.1.12.12,0,0,1,.1,0,10.64,10.64,0,0,1,3.88,1.58l2.48-3.87a13.83,13.83,0,0,0-6.23-2.1.12.12,0,0,1-.12-.12V30.22h-2.57v1.41a.12.12,0,0,1-.12.12c-4.49.22-7.18,2.43-7.18,5.9v.06c0,3.15,2,4.77,7.25,5.8a.12.12,0,0,1,.1.12v2.24a.11.11,0,0,1,0,.09.09.09,0,0,1-.1,0,14.09,14.09,0,0,1-5.6-2.19l-2.64,3.86a17.33,17.33,0,0,0,8.11,2.69.12.12,0,0,1,.11.12Zm2.6-6.83a.14.14,0,0,1-.09,0,.15.15,0,0,1,0-.09V43.88a.12.12,0,0,1,0-.1.17.17,0,0,1,.1,0c1.38.25,1.85.56,1.85,1.23V45c0,.68-.63,1.06-1.86,1.14ZM562.1,44v1.89c1.48-.13,1.48-.69,1.48-.88V45C563.58,44.54,563.35,44.26,562.1,44Zm-2.63-5.63h0c-1.41-.24-1.93-.58-1.93-1.26v0c0-.4.25-1.09,2-1.12a.16.16,0,0,1,.09,0,.18.18,0,0,1,0,.09v2.19a.11.11,0,0,1,0,.09A.11.11,0,0,1,559.47,38.4Zm-.13-2.18c-1,.05-1.57.35-1.57.87v0c0,.44.26.74,1.57,1Z"/><path class="cls-4" d="M559.25,257.23a17.47,17.47,0,0,1-8.28-2.77l2.78-4.07a14,14,0,0,0,5.66,2.24v-2.24c-4.79-.94-7.34-2.4-7.34-5.92v-.06c0-3.33,2.42-5.78,7.29-6v-1.54h2.83v1.62a13.87,13.87,0,0,1,6.39,2.18L566,244.74A10.6,10.6,0,0,0,562,243.1v2.21c4.54.89,7.12,2.29,7.12,5.95v.05c0,3.56-2.8,5.63-7.07,5.95v2.64h-2.83Zm.22-14.38c-1.34,0-1.82.46-1.82,1v.05c0,.57.4.89,1.82,1.14Zm4.24,9v-.06c0-.56-.35-.86-1.74-1.1v2.18C563.22,252.74,563.71,252.36,563.71,251.8Z"/><path class="cls-4" d="M562.07,260h-2.83a.12.12,0,0,1-.12-.12v-2.55a17.55,17.55,0,0,1-8.22-2.79.13.13,0,0,1,0-.17l2.78-4.07a.12.12,0,0,1,.17,0,14.15,14.15,0,0,0,5.46,2.19v-2c-4.41-.89-7.34-2.26-7.34-6v-.06c0-3.59,2.72-5.88,7.29-6.14v-1.42a.11.11,0,0,1,.12-.12h2.83a.12.12,0,0,1,.13.12v1.5a14,14,0,0,1,6.33,2.2.12.12,0,0,1,0,.17l-2.61,4.09a.15.15,0,0,1-.09.06.16.16,0,0,1-.09,0,10.53,10.53,0,0,0-3.75-1.59v1.95c4.29.85,7.13,2.22,7.13,6.06v.05c0,3.44-2.65,5.7-7.08,6.07v2.52A.12.12,0,0,1,562.07,260Zm-2.7-.25H562v-2.51a.12.12,0,0,1,.12-.12c4.42-.34,6.95-2.46,7-5.83v-.05c0-3.71-2.69-5-7-5.83a.12.12,0,0,1-.1-.12V243.1a.14.14,0,0,1,.05-.1.12.12,0,0,1,.1,0,10.64,10.64,0,0,1,3.88,1.58l2.48-3.87a13.83,13.83,0,0,0-6.23-2.1.12.12,0,0,1-.12-.12V237h-2.57v1.41a.12.12,0,0,1-.12.12c-4.49.22-7.18,2.43-7.18,5.9v.06c0,3.15,2,4.77,7.25,5.8a.12.12,0,0,1,.1.12v2.24a.11.11,0,0,1,0,.09.09.09,0,0,1-.1,0,14.09,14.09,0,0,1-5.6-2.19l-2.64,3.86a17.33,17.33,0,0,0,8.11,2.69.12.12,0,0,1,.11.12Zm2.6-6.83a.14.14,0,0,1-.09,0,.15.15,0,0,1,0-.09v-2.18a.12.12,0,0,1,0-.1.17.17,0,0,1,.1,0c1.38.25,1.85.56,1.85,1.23v.06c0,.68-.63,1.06-1.86,1.14Zm.13-2.15v1.89c1.48-.13,1.48-.69,1.48-.88v-.06C563.58,251.3,563.35,251,562.1,250.79Zm-2.63-5.63h0c-1.41-.24-1.93-.58-1.93-1.26v-.05c0-.4.25-1.09,2-1.12l.09,0a.18.18,0,0,1,0,.09V245a.11.11,0,0,1,0,.09A.11.11,0,0,1,559.47,245.16Zm-.13-2.18c-1,.05-1.57.35-1.57.87v.05c0,.44.26.74,1.57,1Z"/><path class="cls-4" d="M39.12,50.47a17.43,17.43,0,0,1-8.27-2.77l2.77-4.07a14.07,14.07,0,0,0,5.66,2.24V43.63c-4.79-.94-7.34-2.4-7.34-5.92v-.06c0-3.33,2.42-5.78,7.29-6V30.09h2.83v1.62a14,14,0,0,1,6.4,2.18L45.84,38a10.6,10.6,0,0,0-3.94-1.64v2.21c4.54.89,7.13,2.29,7.12,6v0c0,3.56-2.8,5.63-7.07,6v2.64H39.12Zm.22-14.38c-1.33,0-1.82.46-1.82,1v0c0,.57.4.89,1.82,1.14ZM43.58,45V45c0-.56-.35-.86-1.74-1.1v2.18C43.09,46,43.58,45.6,43.58,45Z"/><path class="cls-4" d="M42,53.26H39.12a.12.12,0,0,1-.13-.12V50.59a17.55,17.55,0,0,1-8.22-2.79.13.13,0,0,1,0-.17l2.78-4.07a.12.12,0,0,1,.17,0,14.19,14.19,0,0,0,5.47,2.19v-2c-4.42-.89-7.35-2.26-7.35-6v-.06c0-3.59,2.73-5.88,7.3-6.14V30.09a.12.12,0,0,1,.12-.13h2.83a.12.12,0,0,1,.13.12v1.5a14.11,14.11,0,0,1,6.34,2.2.12.12,0,0,1,0,.17L46,38.05a.16.16,0,0,1-.08.06.17.17,0,0,1-.1,0A10.53,10.53,0,0,0,42,36.49v1.95c4.29.85,7.13,2.22,7.13,6.06v0c0,3.44-2.64,5.7-7.08,6.07v2.52A.12.12,0,0,1,42,53.26ZM39.24,53h2.58V50.5a.12.12,0,0,1,.12-.12c4.42-.34,7-2.46,7-5.83v0c0-3.71-2.69-5-7-5.83a.12.12,0,0,1-.1-.12V36.34a.14.14,0,0,1,0-.1.12.12,0,0,1,.1,0,10.76,10.76,0,0,1,3.89,1.58l2.47-3.87a13.75,13.75,0,0,0-6.23-2.1.12.12,0,0,1-.11-.12V30.22H39.36v1.41a.12.12,0,0,1-.12.12c-4.49.22-7.17,2.43-7.17,5.9v.06c0,3.15,2,4.77,7.24,5.8a.12.12,0,0,1,.1.12v2.24a.13.13,0,0,1,0,.09.11.11,0,0,1-.11,0,14.09,14.09,0,0,1-5.6-2.19L31,47.66a17.36,17.36,0,0,0,8.11,2.69.12.12,0,0,1,.11.12Zm2.6-6.83a.16.16,0,0,1-.09,0,.15.15,0,0,1,0-.09V43.88a.12.12,0,0,1,0-.1.19.19,0,0,1,.1,0c1.38.25,1.85.56,1.85,1.23V45c0,.68-.63,1.06-1.86,1.14ZM42,44v1.89c1.48-.13,1.48-.69,1.48-.88V45C43.45,44.54,43.22,44.26,42,44ZM39.34,38.4h0c-1.41-.24-1.93-.58-1.93-1.26v0c0-.4.25-1.09,2-1.12a.16.16,0,0,1,.09,0,.18.18,0,0,1,0,.09v2.19a.12.12,0,0,1,0,.09A.11.11,0,0,1,39.34,38.4Zm-.13-2.18c-1,.05-1.57.35-1.57.87v0c0,.44.26.74,1.57,1Z"/><path class="cls-4" d="M39.12,257.23a17.43,17.43,0,0,1-8.27-2.77l2.77-4.07a14.07,14.07,0,0,0,5.66,2.24v-2.24c-4.79-.94-7.34-2.4-7.34-5.92v-.06c0-3.33,2.42-5.78,7.29-6v-1.54h2.83v1.62a14,14,0,0,1,6.4,2.18l-2.62,4.09a10.6,10.6,0,0,0-3.94-1.64v2.21c4.54.89,7.13,2.29,7.12,5.95v.05c0,3.56-2.8,5.63-7.07,5.95v2.64H39.12Zm.22-14.38c-1.33,0-1.82.46-1.82,1v.05c0,.57.4.89,1.82,1.14Zm4.24,9v-.06c0-.56-.35-.86-1.74-1.1v2.18C43.09,252.74,43.58,252.36,43.58,251.8Z"/><path class="cls-4" d="M42,260H39.12a.12.12,0,0,1-.13-.12v-2.55a17.55,17.55,0,0,1-8.22-2.79.13.13,0,0,1,0-.17l2.78-4.07a.12.12,0,0,1,.17,0,14.19,14.19,0,0,0,5.47,2.19v-2c-4.42-.89-7.35-2.26-7.35-6v-.06c0-3.59,2.73-5.88,7.3-6.14v-1.42a.11.11,0,0,1,.12-.12h2.83a.12.12,0,0,1,.13.12v1.5a14.11,14.11,0,0,1,6.34,2.2.12.12,0,0,1,0,.17L46,244.81a.16.16,0,0,1-.08.06.17.17,0,0,1-.1,0A10.53,10.53,0,0,0,42,243.25v1.95c4.29.85,7.13,2.22,7.13,6.06v.05c0,3.44-2.64,5.7-7.08,6.07v2.52A.12.12,0,0,1,42,260Zm-2.71-.25h2.58v-2.51a.12.12,0,0,1,.12-.12c4.42-.34,7-2.46,7-5.83v-.05c0-3.71-2.69-5-7-5.83a.12.12,0,0,1-.1-.12V243.1a.14.14,0,0,1,0-.1.12.12,0,0,1,.1,0,10.76,10.76,0,0,1,3.89,1.58l2.47-3.87a13.75,13.75,0,0,0-6.23-2.1.12.12,0,0,1-.11-.12V237H39.36v1.41a.12.12,0,0,1-.12.12c-4.49.22-7.17,2.43-7.17,5.9v.06c0,3.15,2,4.77,7.24,5.8a.12.12,0,0,1,.1.12v2.24a.13.13,0,0,1,0,.09.11.11,0,0,1-.11,0,14.09,14.09,0,0,1-5.6-2.19L31,254.42a17.36,17.36,0,0,0,8.11,2.69.12.12,0,0,1,.11.12Zm2.6-6.83a.16.16,0,0,1-.09,0,.15.15,0,0,1,0-.09v-2.18a.12.12,0,0,1,0-.1.19.19,0,0,1,.1,0c1.38.25,1.85.56,1.85,1.23v.06c0,.68-.63,1.06-1.86,1.14Zm.13-2.15v1.89c1.48-.13,1.48-.69,1.48-.88v-.06C43.45,251.3,43.22,251,42,250.79Zm-2.63-5.63h0c-1.41-.24-1.93-.58-1.93-1.26v-.05c0-.4.25-1.09,2-1.12l.09,0a.18.18,0,0,1,0,.09V245a.12.12,0,0,1,0,.09A.11.11,0,0,1,39.34,245.16ZM39.21,243c-1,.05-1.57.35-1.57.87v.05c0,.44.26.74,1.57,1Z"/><path class="cls-5" d="M153.13,70.72h23.66c12.62,0,18.53,7.39,18.53,20.45,0,16.27-9,20.09-20.36,20.09H168.7v29.93H153.13Zm20.79,29.67c5.74,0,6.79-3,6.79-9.49,0-5.3-.61-9.22-6.88-9.22H168.7v18.71Z"/><path class="cls-5" d="M208.63,70.72h17.75l13.14,70.47H225.16l-2.35-14.87H212.46L210,141.19h-14.7ZM221.33,117l-3.74-27.5L213.85,117Z"/><path class="cls-5" d="M252,112.4,238.65,70.72h14.7L260.05,93l6-22.27h14.1L267,112.4v28.79H252Z"/><path class="cls-5" d="M283.8,119.88l13.31-2c.18,9.13,2.26,12.53,6.18,12.53,3.22,0,3.91-2.7,3.91-5.14,0-5.83-2.95-9.31-7.74-13.4l-6.09-5.3c-5.39-4.53-9.48-9.84-9.48-18.36,0-11.92,7.57-18.45,19.75-18.45,15.05,0,17.22,11.75,17.48,20l-13.39,1.66c-.18-6.27-.61-10.27-4.61-10.27-2.88,0-4.18,3-4.18,5.48,0,5.22,2.7,8,6.79,11.57l5.82,5.14c6.09,5.22,11,11.39,11,21.14,0,10-7.22,17.75-18.45,17.75C290.76,142.24,284.32,135.54,283.8,119.88Z"/><path class="cls-5" d="M358.71,82.29H348.09V70.72H384.9V82.29H374.37v58.9H358.71Z"/><path class="cls-5" d="M389.42,119V92.82c0-14.53,5.3-23.06,21.14-23.06s21.32,8.53,21.32,23.06V119c0,14.53-5.4,23.23-21.32,23.23S389.42,133.54,389.42,119ZM416,122.92V89c0-4.18-.52-8.26-5.39-8.26-4.61,0-5.22,4.08-5.22,8.26v33.93c0,4,.35,8.27,5.22,8.27S416,126.92,416,122.92Z"/><path class="cls-5" d="M133.33,151.72h17.84c18.36,0,23.67,6.61,23.67,22.27v25.58c0,15.84-5.31,22.62-23.5,22.62h-18Zm18,59.69c7,0,7.49-3,7.49-9.4V171.3c0-6.18-.7-8.7-7.57-8.7h-2.35v48.81Z"/><path class="cls-5" d="M183.36,200V173.82c0-14.53,5.31-23.06,21.14-23.06s21.32,8.53,21.32,23.06V200c0,14.53-5.4,23.23-21.32,23.23S183.36,214.54,183.36,200Zm26.54,3.91V170c0-4.18-.53-8.26-5.4-8.26-4.61,0-5.22,4.08-5.22,8.26v33.93c0,4,.35,8.27,5.22,8.27S209.9,207.93,209.9,203.92Z"/><path class="cls-6" d="M256.61,198.88V175.21c0-15,5.05-24.45,21.14-24.45,15.58,0,20.63,8.35,20.63,20.62v4.53H283.15v-5.75c0-4.43-.35-8.43-5.22-8.43-5.05,0-5.4,4.61-5.4,8.87v32.63c0,4.78,1.05,9,5.83,9s6.09-4.35,6.09-9.14v-8.26H278.1v-9.14h20.36v36.54H288.2l-.87-5.83c-1.92,4-5.23,6.88-11.4,6.88C261.31,223.24,256.61,213.41,256.61,198.88Z"/><path class="cls-6" d="M307.25,200V173.82c0-14.53,5.3-23.06,21.14-23.06s21.31,8.53,21.31,23.06V200c0,14.53-5.39,23.23-21.31,23.23S307.25,214.54,307.25,200Zm26.53,3.91V170c0-4.18-.52-8.26-5.39-8.26-4.61,0-5.22,4.08-5.22,8.26v33.93c0,4,.34,8.27,5.22,8.27S333.78,207.93,333.78,203.92Z"/><path class="cls-6" d="M358.23,200V173.82c0-14.53,5.3-23.06,21.14-23.06s21.31,8.53,21.31,23.06V200c0,14.53-5.39,23.23-21.31,23.23S358.23,214.54,358.23,200Zm26.53,3.91V170c0-4.18-.52-8.26-5.39-8.26-4.61,0-5.22,4.08-5.22,8.26v33.93c0,4,.35,8.27,5.22,8.27S384.76,207.93,384.76,203.92Z"/><path class="cls-6" d="M410.17,151.72H428c18.36,0,23.67,6.61,23.67,22.27v25.58c0,15.84-5.31,22.62-23.5,22.62h-18Zm18,59.69c7.05,0,7.49-3,7.49-9.4V171.3c0-6.18-.7-8.7-7.57-8.7h-2.35v48.81Z"/><path class="cls-5" d="M153.63,70.22h23.66c12.62,0,18.53,7.39,18.53,20.45,0,16.27-9,20.09-20.36,20.09H169.2v29.93H153.63Zm20.79,29.67c5.74,0,6.79-3,6.79-9.49,0-5.3-.61-9.22-6.88-9.22H169.2V99.89Z"/><path class="cls-5" d="M209.13,70.22h17.75L240,140.69H225.66l-2.35-14.87H213l-2.44,14.87h-14.7Zm12.7,46.29L218.09,89l-3.74,27.5Z"/><path class="cls-5" d="M252.54,111.9,239.15,70.22h14.7l6.7,22.27,6-22.27h14.1L267.51,111.9v28.79h-15Z"/><path class="cls-5" d="M284.3,119.38l13.31-2c.18,9.13,2.26,12.53,6.18,12.53,3.22,0,3.91-2.7,3.91-5.14,0-5.83-2.95-9.31-7.74-13.4l-6.09-5.3c-5.39-4.53-9.48-9.84-9.48-18.36,0-11.92,7.57-18.45,19.75-18.45,15.05,0,17.22,11.75,17.48,20l-13.39,1.66c-.18-6.27-.61-10.27-4.61-10.27-2.88,0-4.18,3-4.18,5.48,0,5.22,2.7,8,6.79,11.57l5.82,5.14c6.09,5.22,11,11.39,11,21.14,0,10-7.22,17.75-18.45,17.75C291.26,141.74,284.82,135,284.3,119.38Z"/><path class="cls-5" d="M359.21,81.79H348.59V70.22H385.4V81.79H374.87v58.9H359.21Z"/><path class="cls-5" d="M389.92,118.51V92.32c0-14.53,5.3-23.06,21.14-23.06s21.32,8.53,21.32,23.06v26.19c0,14.53-5.4,23.23-21.32,23.23S389.92,133,389.92,118.51Zm26.53,3.91V88.49c0-4.18-.52-8.26-5.39-8.26-4.61,0-5.22,4.08-5.22,8.26v33.93c0,4,.35,8.27,5.22,8.27S416.45,126.42,416.45,122.42Z"/><path class="cls-5" d="M133.83,151.22h17.84c18.36,0,23.67,6.61,23.67,22.27v25.58c0,15.84-5.31,22.62-23.5,22.62h-18Zm18,59.69c7,0,7.49-3,7.49-9.4V170.8c0-6.18-.7-8.7-7.57-8.7h-2.35v48.81Z"/><path class="cls-5" d="M183.86,199.51V173.32c0-14.53,5.31-23.06,21.14-23.06s21.32,8.53,21.32,23.06v26.19c0,14.53-5.4,23.23-21.32,23.23S183.86,214,183.86,199.51Zm26.54,3.91V169.49c0-4.18-.53-8.26-5.4-8.26-4.61,0-5.22,4.08-5.22,8.26v33.93c0,4,.35,8.27,5.22,8.27S210.4,207.43,210.4,203.42Z"/><path class="cls-6" d="M257.11,198.38V174.71c0-15,5.05-24.45,21.14-24.45,15.58,0,20.63,8.35,20.63,20.62v4.53H283.65v-5.75c0-4.43-.35-8.43-5.22-8.43-5.05,0-5.4,4.61-5.4,8.87v32.63c0,4.78,1.05,9,5.83,9s6.09-4.35,6.09-9.14v-8.26H278.6v-9.14H299v36.54H288.7l-.87-5.83c-1.92,4-5.23,6.88-11.4,6.88C261.81,222.74,257.11,212.91,257.11,198.38Z"/><path class="cls-6" d="M307.75,199.51V173.32c0-14.53,5.3-23.06,21.14-23.06s21.31,8.53,21.31,23.06v26.19c0,14.53-5.39,23.23-21.31,23.23S307.75,214,307.75,199.51Zm26.53,3.91V169.49c0-4.18-.52-8.26-5.39-8.26-4.61,0-5.22,4.08-5.22,8.26v33.93c0,4,.34,8.27,5.22,8.27S334.28,207.43,334.28,203.42Z"/><path class="cls-6" d="M358.73,199.51V173.32c0-14.53,5.3-23.06,21.14-23.06s21.31,8.53,21.31,23.06v26.19c0,14.53-5.39,23.23-21.31,23.23S358.73,214,358.73,199.51Zm26.53,3.91V169.49c0-4.18-.52-8.26-5.39-8.26-4.61,0-5.22,4.08-5.22,8.26v33.93c0,4,.35,8.27,5.22,8.27S385.26,207.43,385.26,203.42Z"/><path class="cls-6" d="M410.67,151.22H428.5c18.36,0,23.67,6.61,23.67,22.27v25.58c0,15.84-5.31,22.62-23.5,22.62h-18Zm18,59.69c7.05,0,7.49-3,7.49-9.4V170.8c0-6.18-.7-8.7-7.57-8.7h-2.35v48.81Z"/><path class="cls-5" d="M154.13,69.72h23.66c12.62,0,18.53,7.39,18.53,20.45,0,16.27-9,20.09-20.36,20.09H169.7v29.93H154.13Zm20.79,29.67c5.74,0,6.79-3,6.79-9.49,0-5.3-.61-9.22-6.88-9.22H169.7V99.39Z"/><path class="cls-5" d="M209.63,69.72h17.75l13.14,70.47H226.16l-2.35-14.87H213.46L211,140.19h-14.7ZM222.33,116l-3.74-27.5L214.85,116Z"/><path class="cls-5" d="M253,111.4,239.65,69.72h14.7L261.05,92l6-22.27h14.1L268,111.4v28.79H253Z"/><path class="cls-5" d="M284.8,118.88l13.31-2c.18,9.13,2.26,12.53,6.18,12.53,3.22,0,3.91-2.7,3.91-5.14,0-5.83-2.95-9.31-7.74-13.4l-6.09-5.3c-5.39-4.53-9.48-9.84-9.48-18.36,0-11.92,7.57-18.45,19.75-18.45,15.05,0,17.22,11.75,17.48,20l-13.39,1.66c-.18-6.27-.61-10.27-4.61-10.27-2.88,0-4.18,3-4.18,5.48,0,5.22,2.7,8,6.79,11.57l5.82,5.14c6.09,5.22,11,11.39,11,21.14,0,10-7.22,17.75-18.45,17.75C291.76,141.24,285.32,134.54,284.8,118.88Z"/><path class="cls-5" d="M359.71,81.29H349.09V69.72H385.9V81.29H375.37v58.9H359.71Z"/><path class="cls-5" d="M390.42,118V91.82c0-14.53,5.3-23.06,21.14-23.06s21.32,8.53,21.32,23.06V118c0,14.53-5.4,23.23-21.32,23.23S390.42,132.54,390.42,118ZM417,121.92V88c0-4.18-.52-8.26-5.39-8.26-4.61,0-5.22,4.08-5.22,8.26v33.93c0,4,.35,8.27,5.22,8.27S417,125.92,417,121.92Z"/><path class="cls-5" d="M134.33,150.72h17.84c18.36,0,23.67,6.61,23.67,22.27v25.58c0,15.84-5.31,22.62-23.5,22.62h-18Zm18,59.69c7,0,7.49-3,7.49-9.4V170.3c0-6.18-.7-8.7-7.57-8.7h-2.35v48.81Z"/><path class="cls-5" d="M184.36,199V172.82c0-14.53,5.31-23.06,21.14-23.06s21.32,8.53,21.32,23.06V199c0,14.53-5.4,23.23-21.32,23.23S184.36,213.54,184.36,199Zm26.54,3.91V169c0-4.18-.53-8.26-5.4-8.26-4.61,0-5.22,4.08-5.22,8.26v33.93c0,4,.35,8.27,5.22,8.27S210.9,206.93,210.9,202.92Z"/><path class="cls-6" d="M257.61,197.88V174.21c0-15,5.05-24.45,21.14-24.45,15.58,0,20.63,8.35,20.63,20.62v4.53H284.15v-5.75c0-4.43-.35-8.43-5.22-8.43-5.05,0-5.4,4.61-5.4,8.87v32.63c0,4.78,1.05,9,5.83,9s6.09-4.35,6.09-9.14v-8.26H279.1v-9.14h20.36v36.54H289.2l-.87-5.83c-1.92,4-5.23,6.88-11.4,6.88C262.31,222.24,257.61,212.41,257.61,197.88Z"/><path class="cls-6" d="M308.25,199V172.82c0-14.53,5.3-23.06,21.14-23.06s21.31,8.53,21.31,23.06V199c0,14.53-5.39,23.23-21.31,23.23S308.25,213.54,308.25,199Zm26.53,3.91V169c0-4.18-.52-8.26-5.39-8.26-4.61,0-5.22,4.08-5.22,8.26v33.93c0,4,.34,8.27,5.22,8.27S334.78,206.93,334.78,202.92Z"/><path class="cls-6" d="M359.23,199V172.82c0-14.53,5.3-23.06,21.14-23.06s21.31,8.53,21.31,23.06V199c0,14.53-5.39,23.23-21.31,23.23S359.23,213.54,359.23,199Zm26.53,3.91V169c0-4.18-.52-8.26-5.39-8.26-4.61,0-5.22,4.08-5.22,8.26v33.93c0,4,.35,8.27,5.22,8.27S385.76,206.93,385.76,202.92Z"/><path class="cls-6" d="M411.17,150.72H429c18.36,0,23.67,6.61,23.67,22.27v25.58c0,15.84-5.31,22.62-23.5,22.62h-18Zm18,59.69c7.05,0,7.49-3,7.49-9.4V170.3c0-6.18-.7-8.7-7.57-8.7h-2.35v48.81Z"/><path class="cls-5" d="M154.63,69.22h23.66c12.62,0,18.53,7.39,18.53,20.45,0,16.27-9,20.09-20.36,20.09H170.2v29.93H154.63Zm20.79,29.67c5.74,0,6.79-3,6.79-9.49,0-5.3-.61-9.22-6.88-9.22H170.2V98.89Z"/><path class="cls-5" d="M210.13,69.22h17.75L241,139.69H226.66l-2.35-14.87H214l-2.44,14.87h-14.7Zm12.7,46.29L219.09,88l-3.74,27.5Z"/><path class="cls-5" d="M253.54,110.9,240.15,69.22h14.7l6.7,22.27,6-22.27h14.1L268.51,110.9v28.79h-15Z"/><path class="cls-5" d="M285.3,118.38l13.31-2c.18,9.13,2.26,12.53,6.18,12.53,3.22,0,3.91-2.7,3.91-5.14,0-5.83-2.95-9.31-7.74-13.4l-6.09-5.3c-5.39-4.53-9.48-9.84-9.48-18.36,0-11.92,7.57-18.45,19.75-18.45,15.05,0,17.22,11.75,17.48,20l-13.39,1.66c-.18-6.27-.61-10.27-4.61-10.27-2.88,0-4.18,3-4.18,5.48,0,5.22,2.7,8,6.79,11.57l5.82,5.14c6.09,5.22,11,11.39,11,21.14,0,10-7.22,17.75-18.45,17.75C292.26,140.74,285.82,134,285.3,118.38Z"/><path class="cls-5" d="M360.21,80.79H349.59V69.22H386.4V80.79H375.87v58.9H360.21Z"/><path class="cls-5" d="M390.92,117.51V91.32c0-14.53,5.3-23.06,21.14-23.06s21.32,8.53,21.32,23.06v26.19c0,14.53-5.4,23.23-21.32,23.23S390.92,132,390.92,117.51Zm26.53,3.91V87.49c0-4.18-.52-8.26-5.39-8.26-4.61,0-5.22,4.08-5.22,8.26v33.93c0,4,.35,8.27,5.22,8.27S417.45,125.42,417.45,121.42Z"/><path class="cls-5" d="M134.83,150.22h17.84c18.36,0,23.67,6.61,23.67,22.27v25.58c0,15.84-5.31,22.62-23.5,22.62h-18Zm18,59.69c7,0,7.49-3,7.49-9.4V169.8c0-6.18-.7-8.7-7.57-8.7h-2.35v48.81Z"/><path class="cls-5" d="M184.86,198.51V172.32c0-14.53,5.31-23.06,21.14-23.06s21.32,8.53,21.32,23.06v26.19c0,14.53-5.4,23.23-21.32,23.23S184.86,213,184.86,198.51Zm26.54,3.91V168.49c0-4.18-.53-8.26-5.4-8.26-4.61,0-5.22,4.08-5.22,8.26v33.93c0,4,.35,8.27,5.22,8.27S211.4,206.43,211.4,202.42Z"/><path class="cls-6" d="M258.11,197.38V173.71c0-15,5.05-24.45,21.14-24.45,15.58,0,20.63,8.35,20.63,20.62v4.53H284.65v-5.75c0-4.43-.35-8.43-5.22-8.43-5.05,0-5.4,4.61-5.4,8.87v32.63c0,4.78,1.05,9,5.83,9s6.09-4.35,6.09-9.14v-8.26H279.6v-9.14H300v36.54H289.7l-.87-5.83c-1.92,4-5.23,6.88-11.4,6.88C262.81,221.74,258.11,211.91,258.11,197.38Z"/><path class="cls-6" d="M308.75,198.51V172.32c0-14.53,5.3-23.06,21.14-23.06s21.31,8.53,21.31,23.06v26.19c0,14.53-5.39,23.23-21.31,23.23S308.75,213,308.75,198.51Zm26.53,3.91V168.49c0-4.18-.52-8.26-5.39-8.26-4.61,0-5.22,4.08-5.22,8.26v33.93c0,4,.34,8.27,5.22,8.27S335.28,206.43,335.28,202.42Z"/><path class="cls-6" d="M359.73,198.51V172.32c0-14.53,5.3-23.06,21.14-23.06s21.31,8.53,21.31,23.06v26.19c0,14.53-5.39,23.23-21.31,23.23S359.73,213,359.73,198.51Zm26.53,3.91V168.49c0-4.18-.52-8.26-5.39-8.26-4.61,0-5.22,4.08-5.22,8.26v33.93c0,4,.35,8.27,5.22,8.27S386.26,206.43,386.26,202.42Z"/><path class="cls-6" d="M411.67,150.22H429.5c18.36,0,23.67,6.61,23.67,22.27v25.58c0,15.84-5.31,22.62-23.5,22.62h-18Zm18,59.69c7.05,0,7.49-3,7.49-9.4V169.8c0-6.18-.7-8.7-7.57-8.7h-2.35v48.81Z"/><path class="cls-5" d="M155.13,68.72h23.66c12.62,0,18.53,7.39,18.53,20.45,0,16.27-9,20.09-20.36,20.09H170.7v29.93H155.13Zm20.79,29.67c5.74,0,6.79-3,6.79-9.49,0-5.3-.61-9.22-6.88-9.22H170.7V98.39Z"/><path class="cls-5" d="M210.63,68.72h17.75l13.14,70.47H227.16l-2.35-14.87H214.46L212,139.19h-14.7ZM223.33,115l-3.74-27.5L215.85,115Z"/><path class="cls-5" d="M254,110.4,240.65,68.72h14.7L262.05,91l6-22.27h14.1L269,110.4v28.79H254Z"/><path class="cls-5" d="M285.8,117.88l13.31-2c.18,9.13,2.26,12.53,6.18,12.53,3.22,0,3.91-2.7,3.91-5.14,0-5.83-2.95-9.31-7.74-13.4l-6.09-5.3c-5.39-4.53-9.48-9.84-9.48-18.36,0-11.92,7.57-18.45,19.75-18.45,15.05,0,17.22,11.75,17.48,20l-13.39,1.66c-.18-6.27-.61-10.27-4.61-10.27-2.88,0-4.18,3-4.18,5.48,0,5.22,2.7,8,6.79,11.57l5.82,5.14c6.09,5.22,11,11.39,11,21.14,0,10-7.22,17.75-18.45,17.75C292.76,140.24,286.32,133.54,285.8,117.88Z"/><path class="cls-5" d="M360.71,80.29H350.09V68.72H386.9V80.29H376.37v58.9H360.71Z"/><path class="cls-5" d="M391.42,117V90.82c0-14.53,5.3-23.06,21.14-23.06s21.32,8.53,21.32,23.06V117c0,14.53-5.4,23.23-21.32,23.23S391.42,131.54,391.42,117ZM418,120.92V87c0-4.18-.52-8.26-5.39-8.26-4.61,0-5.22,4.08-5.22,8.26v33.93c0,4,.35,8.27,5.22,8.27S418,124.92,418,120.92Z"/><path class="cls-5" d="M135.33,149.72h17.84c18.36,0,23.67,6.61,23.67,22.27v25.58c0,15.84-5.31,22.62-23.5,22.62h-18Zm18,59.69c7,0,7.49-3,7.49-9.4V169.3c0-6.18-.7-8.7-7.57-8.7h-2.35v48.81Z"/><path class="cls-5" d="M185.36,198V171.82c0-14.53,5.31-23.06,21.14-23.06s21.32,8.53,21.32,23.06V198c0,14.53-5.4,23.23-21.32,23.23S185.36,212.54,185.36,198Zm26.54,3.91V168c0-4.18-.53-8.26-5.4-8.26-4.61,0-5.22,4.08-5.22,8.26v33.93c0,4,.35,8.27,5.22,8.27S211.9,205.93,211.9,201.92Z"/><path class="cls-6" d="M258.61,196.88V173.21c0-15,5.05-24.45,21.14-24.45,15.58,0,20.63,8.35,20.63,20.62v4.53H285.15v-5.75c0-4.43-.35-8.43-5.22-8.43-5.05,0-5.4,4.61-5.4,8.87v32.63c0,4.78,1.05,9,5.83,9s6.09-4.35,6.09-9.14v-8.26H280.1v-9.14h20.36v36.54H290.2l-.87-5.83c-1.92,4-5.23,6.88-11.4,6.88C263.31,221.24,258.61,211.41,258.61,196.88Z"/><path class="cls-6" d="M309.25,198V171.82c0-14.53,5.3-23.06,21.14-23.06s21.31,8.53,21.31,23.06V198c0,14.53-5.39,23.23-21.31,23.23S309.25,212.54,309.25,198Zm26.53,3.91V168c0-4.18-.52-8.26-5.39-8.26-4.61,0-5.22,4.08-5.22,8.26v33.93c0,4,.34,8.27,5.22,8.27S335.78,205.93,335.78,201.92Z"/><path class="cls-6" d="M360.23,198V171.82c0-14.53,5.3-23.06,21.14-23.06s21.31,8.53,21.31,23.06V198c0,14.53-5.39,23.23-21.31,23.23S360.23,212.54,360.23,198Zm26.53,3.91V168c0-4.18-.52-8.26-5.39-8.26-4.61,0-5.22,4.08-5.22,8.26v33.93c0,4,.35,8.27,5.22,8.27S386.76,205.93,386.76,201.92Z"/><path class="cls-6" d="M412.17,149.72H430c18.36,0,23.67,6.61,23.67,22.27v25.58c0,15.84-5.31,22.62-23.5,22.62h-18Zm18,59.69c7.05,0,7.49-3,7.49-9.4V169.3c0-6.18-.7-8.7-7.57-8.7h-2.35v48.81Z"/><path class="cls-5" d="M155.63,68.22h23.66c12.62,0,18.53,7.39,18.53,20.45,0,16.27-9,20.09-20.36,20.09H171.2v29.93H155.63Zm20.79,29.67c5.74,0,6.79-3,6.79-9.49,0-5.3-.61-9.22-6.88-9.22H171.2V97.89Z"/><path class="cls-5" d="M211.13,68.22h17.75L242,138.69H227.66l-2.35-14.87H215l-2.44,14.87h-14.7Zm12.7,46.29L220.09,87l-3.74,27.5Z"/><path class="cls-5" d="M254.54,109.9,241.15,68.22h14.7l6.7,22.27,6-22.27h14.1L269.51,109.9v28.79h-15Z"/><path class="cls-5" d="M286.3,117.38l13.31-2c.18,9.13,2.26,12.53,6.18,12.53,3.22,0,3.91-2.7,3.91-5.14,0-5.83-2.95-9.31-7.74-13.4l-6.09-5.3c-5.39-4.53-9.48-9.84-9.48-18.36,0-11.92,7.57-18.45,19.75-18.45,15.05,0,17.22,11.75,17.48,20l-13.39,1.66c-.18-6.27-.61-10.27-4.61-10.27-2.88,0-4.18,3-4.18,5.48,0,5.22,2.7,8,6.79,11.57l5.82,5.14c6.09,5.22,11,11.39,11,21.14,0,10-7.22,17.75-18.45,17.75C293.26,139.74,286.82,133,286.3,117.38Z"/><path class="cls-5" d="M361.21,79.79H350.59V68.22H387.4V79.79H376.87v58.9H361.21Z"/><path class="cls-5" d="M391.92,116.51V90.32c0-14.53,5.3-23.06,21.14-23.06s21.32,8.53,21.32,23.06v26.19c0,14.53-5.4,23.23-21.32,23.23S391.92,131,391.92,116.51Zm26.53,3.91V86.49c0-4.18-.52-8.26-5.39-8.26-4.61,0-5.22,4.08-5.22,8.26v33.93c0,4,.35,8.27,5.22,8.27S418.45,124.42,418.45,120.42Z"/><path class="cls-5" d="M135.83,149.22h17.84c18.36,0,23.67,6.61,23.67,22.27v25.58c0,15.84-5.31,22.62-23.5,22.62h-18Zm18,59.69c7,0,7.49-3,7.49-9.4V168.8c0-6.18-.7-8.7-7.57-8.7h-2.35v48.81Z"/><path class="cls-5" d="M185.86,197.51V171.32c0-14.53,5.31-23.06,21.14-23.06s21.32,8.53,21.32,23.06v26.19c0,14.53-5.4,23.23-21.32,23.23S185.86,212,185.86,197.51Zm26.54,3.91V167.49c0-4.18-.53-8.26-5.4-8.26-4.61,0-5.22,4.08-5.22,8.26v33.93c0,4,.35,8.27,5.22,8.27S212.4,205.43,212.4,201.42Z"/><path class="cls-6" d="M259.11,196.38V172.71c0-15,5.05-24.45,21.14-24.45,15.58,0,20.63,8.35,20.63,20.62v4.53H285.65v-5.75c0-4.43-.35-8.43-5.22-8.43-5.05,0-5.4,4.61-5.4,8.87v32.63c0,4.78,1.05,9,5.83,9s6.09-4.35,6.09-9.14v-8.26H280.6v-9.14H301v36.54H290.7l-.87-5.83c-1.92,4-5.23,6.88-11.4,6.88C263.81,220.74,259.11,210.91,259.11,196.38Z"/><path class="cls-6" d="M309.75,197.51V171.32c0-14.53,5.3-23.06,21.14-23.06s21.31,8.53,21.31,23.06v26.19c0,14.53-5.39,23.23-21.31,23.23S309.75,212,309.75,197.51Zm26.53,3.91V167.49c0-4.18-.52-8.26-5.39-8.26-4.61,0-5.22,4.08-5.22,8.26v33.93c0,4,.34,8.27,5.22,8.27S336.28,205.43,336.28,201.42Z"/><path class="cls-6" d="M360.73,197.51V171.32c0-14.53,5.3-23.06,21.14-23.06s21.31,8.53,21.31,23.06v26.19c0,14.53-5.39,23.23-21.31,23.23S360.73,212,360.73,197.51Zm26.53,3.91V167.49c0-4.18-.52-8.26-5.39-8.26-4.61,0-5.22,4.08-5.22,8.26v33.93c0,4,.35,8.27,5.22,8.27S387.26,205.43,387.26,201.42Z"/><path class="cls-6" d="M412.67,149.22H430.5c18.36,0,23.67,6.61,23.67,22.27v25.58c0,15.84-5.31,22.62-23.5,22.62h-18Zm18,59.69c7.05,0,7.49-3,7.49-9.4V168.8c0-6.18-.7-8.7-7.57-8.7h-2.35v48.81Z"/><path class="cls-5" d="M156.13,67.72h23.66c12.62,0,18.53,7.39,18.53,20.45,0,16.27-9,20.09-20.36,20.09H171.7v29.93H156.13Zm20.79,29.67c5.74,0,6.79-3,6.79-9.49,0-5.3-.61-9.22-6.88-9.22H171.7V97.39Z"/><path class="cls-5" d="M211.63,67.72h17.75l13.14,70.47H228.16l-2.35-14.87H215.46L213,138.19h-14.7ZM224.33,114l-3.74-27.5L216.85,114Z"/><path class="cls-5" d="M255,109.4,241.65,67.72h14.7L263.05,90l6-22.27h14.1L270,109.4v28.79H255Z"/><path class="cls-5" d="M286.8,116.88l13.31-2c.18,9.13,2.26,12.53,6.18,12.53,3.22,0,3.91-2.7,3.91-5.14,0-5.83-2.95-9.31-7.74-13.4l-6.09-5.3c-5.39-4.53-9.48-9.84-9.48-18.36,0-11.92,7.57-18.45,19.75-18.45,15.05,0,17.22,11.75,17.48,20l-13.39,1.66c-.18-6.27-.61-10.27-4.61-10.27-2.88,0-4.18,3-4.18,5.48,0,5.22,2.7,8,6.79,11.57l5.82,5.14c6.09,5.22,11,11.39,11,21.14,0,10-7.22,17.75-18.45,17.75C293.76,139.24,287.32,132.54,286.8,116.88Z"/><path class="cls-5" d="M361.71,79.29H351.09V67.72H387.9V79.29H377.37v58.9H361.71Z"/><path class="cls-5" d="M392.42,116V89.82c0-14.53,5.3-23.06,21.14-23.06s21.32,8.53,21.32,23.06V116c0,14.53-5.4,23.23-21.32,23.23S392.42,130.54,392.42,116ZM419,119.92V86c0-4.18-.52-8.26-5.39-8.26-4.61,0-5.22,4.08-5.22,8.26v33.93c0,4,.35,8.27,5.22,8.27S419,123.92,419,119.92Z"/><path class="cls-5" d="M136.33,148.72h17.84c18.36,0,23.67,6.61,23.67,22.27v25.58c0,15.84-5.31,22.62-23.5,22.62h-18Zm18,59.69c7,0,7.49-3,7.49-9.4V168.3c0-6.18-.7-8.7-7.57-8.7h-2.35v48.81Z"/><path class="cls-5" d="M186.36,197V170.82c0-14.53,5.31-23.06,21.14-23.06s21.32,8.53,21.32,23.06V197c0,14.53-5.4,23.23-21.32,23.23S186.36,211.54,186.36,197Zm26.54,3.91V167c0-4.18-.53-8.26-5.4-8.26-4.61,0-5.22,4.08-5.22,8.26v33.93c0,4,.35,8.27,5.22,8.27S212.9,204.93,212.9,200.92Z"/><path class="cls-6" d="M259.61,195.88V172.21c0-15,5.05-24.45,21.14-24.45,15.58,0,20.63,8.35,20.63,20.62v4.53H286.15v-5.75c0-4.43-.35-8.43-5.22-8.43-5.05,0-5.4,4.61-5.4,8.87v32.63c0,4.78,1.05,9,5.83,9s6.09-4.35,6.09-9.14v-8.26H281.1v-9.14h20.36v36.54H291.2l-.87-5.83c-1.92,4-5.23,6.88-11.4,6.88C264.31,220.24,259.61,210.41,259.61,195.88Z"/><path class="cls-6" d="M310.25,197V170.82c0-14.53,5.3-23.06,21.14-23.06s21.31,8.53,21.31,23.06V197c0,14.53-5.39,23.23-21.31,23.23S310.25,211.54,310.25,197Zm26.53,3.91V167c0-4.18-.52-8.26-5.39-8.26-4.61,0-5.22,4.08-5.22,8.26v33.93c0,4,.34,8.27,5.22,8.27S336.78,204.93,336.78,200.92Z"/><path class="cls-6" d="M361.23,197V170.82c0-14.53,5.3-23.06,21.14-23.06s21.31,8.53,21.31,23.06V197c0,14.53-5.39,23.23-21.31,23.23S361.23,211.54,361.23,197Zm26.53,3.91V167c0-4.18-.52-8.26-5.39-8.26-4.61,0-5.22,4.08-5.22,8.26v33.93c0,4,.35,8.27,5.22,8.27S387.76,204.93,387.76,200.92Z"/><path class="cls-6" d="M413.17,148.72H431c18.36,0,23.67,6.61,23.67,22.27v25.58c0,15.84-5.31,22.62-23.5,22.62h-18Zm18,59.69c7.05,0,7.49-3,7.49-9.4V168.3c0-6.18-.7-8.7-7.57-8.7h-2.35v48.81Z"/><path class="cls-5" d="M156.63,67.22h23.66c12.62,0,18.53,7.39,18.53,20.45,0,16.27-9,20.09-20.36,20.09H172.2v29.93H156.63Zm20.79,29.67c5.74,0,6.79-3,6.79-9.49,0-5.3-.61-9.22-6.88-9.22H172.2V96.89Z"/><path class="cls-5" d="M212.13,67.22h17.75L243,137.69H228.66l-2.35-14.87H216l-2.44,14.87h-14.7Zm12.7,46.29L221.09,86l-3.74,27.5Z"/><path class="cls-5" d="M255.54,108.9,242.15,67.22h14.7l6.7,22.27,6-22.27h14.1L270.51,108.9v28.79h-15Z"/><path class="cls-5" d="M287.3,116.38l13.31-2c.18,9.13,2.26,12.53,6.18,12.53,3.22,0,3.91-2.7,3.91-5.14,0-5.83-2.95-9.31-7.74-13.4l-6.09-5.3c-5.39-4.53-9.48-9.84-9.48-18.36,0-11.92,7.57-18.45,19.75-18.45,15.05,0,17.22,11.75,17.48,20l-13.39,1.66c-.18-6.27-.61-10.27-4.61-10.27-2.88,0-4.18,3-4.18,5.48,0,5.22,2.7,8,6.79,11.57l5.82,5.14c6.09,5.22,11,11.39,11,21.14,0,10-7.22,17.75-18.45,17.75C294.26,138.74,287.82,132,287.3,116.38Z"/><path class="cls-5" d="M362.21,78.79H351.59V67.22H388.4V78.79H377.87v58.9H362.21Z"/><path class="cls-5" d="M392.92,115.51V89.32c0-14.53,5.3-23.06,21.14-23.06s21.32,8.53,21.32,23.06v26.19c0,14.53-5.4,23.23-21.32,23.23S392.92,130,392.92,115.51Zm26.53,3.91V85.49c0-4.18-.52-8.26-5.39-8.26-4.61,0-5.22,4.08-5.22,8.26v33.93c0,4,.35,8.27,5.22,8.27S419.45,123.42,419.45,119.42Z"/><path class="cls-5" d="M136.83,148.22h17.84c18.36,0,23.67,6.61,23.67,22.27v25.58c0,15.84-5.31,22.62-23.5,22.62h-18Zm18,59.69c7,0,7.49-3,7.49-9.4V167.8c0-6.18-.7-8.7-7.57-8.7h-2.35v48.81Z"/><path class="cls-5" d="M186.86,196.51V170.32c0-14.53,5.31-23.06,21.14-23.06s21.32,8.53,21.32,23.06v26.19c0,14.53-5.4,23.23-21.32,23.23S186.86,211,186.86,196.51Zm26.54,3.91V166.49c0-4.18-.53-8.26-5.4-8.26-4.61,0-5.22,4.08-5.22,8.26v33.93c0,4,.35,8.27,5.22,8.27S213.4,204.43,213.4,200.42Z"/><path class="cls-6" d="M260.11,195.38V171.71c0-15,5.05-24.45,21.14-24.45,15.58,0,20.63,8.35,20.63,20.62v4.53H286.65v-5.75c0-4.43-.35-8.43-5.22-8.43-5.05,0-5.4,4.61-5.4,8.87v32.63c0,4.78,1.05,9,5.83,9s6.09-4.35,6.09-9.14v-8.26H281.6v-9.14H302v36.54H291.7l-.87-5.83c-1.92,4-5.23,6.88-11.4,6.88C264.81,219.74,260.11,209.91,260.11,195.38Z"/><path class="cls-6" d="M310.75,196.51V170.32c0-14.53,5.3-23.06,21.14-23.06s21.31,8.53,21.31,23.06v26.19c0,14.53-5.39,23.23-21.31,23.23S310.75,211,310.75,196.51Zm26.53,3.91V166.49c0-4.18-.52-8.26-5.39-8.26-4.61,0-5.22,4.08-5.22,8.26v33.93c0,4,.34,8.27,5.22,8.27S337.28,204.43,337.28,200.42Z"/><path class="cls-6" d="M361.73,196.51V170.32c0-14.53,5.3-23.06,21.14-23.06s21.31,8.53,21.31,23.06v26.19c0,14.53-5.39,23.23-21.31,23.23S361.73,211,361.73,196.51Zm26.53,3.91V166.49c0-4.18-.52-8.26-5.39-8.26-4.61,0-5.22,4.08-5.22,8.26v33.93c0,4,.35,8.27,5.22,8.27S388.26,204.43,388.26,200.42Z"/><path class="cls-6" d="M413.67,148.22H431.5c18.36,0,23.67,6.61,23.67,22.27v25.58c0,15.84-5.31,22.62-23.5,22.62h-18Zm18,59.69c7.05,0,7.49-3,7.49-9.4V167.8c0-6.18-.7-8.7-7.57-8.7h-2.35v48.81Z"/><path class="cls-5" d="M157.13,66.72h23.66c12.62,0,18.53,7.39,18.53,20.45,0,16.27-9,20.09-20.36,20.09H172.7v29.93H157.13Zm20.79,29.67c5.74,0,6.79-3,6.79-9.49,0-5.3-.61-9.22-6.88-9.22H172.7V96.39Z"/><path class="cls-5" d="M212.63,66.72h17.75l13.14,70.47H229.16l-2.35-14.87H216.46L214,137.19h-14.7ZM225.33,113l-3.74-27.5L217.85,113Z"/><path class="cls-5" d="M256,108.4,242.65,66.72h14.7L264.05,89l6-22.27h14.1L271,108.4v28.79H256Z"/><path class="cls-5" d="M287.8,115.88l13.31-2c.18,9.13,2.26,12.53,6.18,12.53,3.22,0,3.91-2.7,3.91-5.14,0-5.83-2.95-9.31-7.74-13.4l-6.09-5.3c-5.39-4.53-9.48-9.84-9.48-18.36,0-11.92,7.57-18.45,19.75-18.45,15.05,0,17.22,11.75,17.48,20l-13.39,1.66c-.18-6.27-.61-10.27-4.61-10.27-2.88,0-4.18,3-4.18,5.48,0,5.22,2.7,8,6.79,11.57l5.82,5.14c6.09,5.22,11,11.39,11,21.14,0,10-7.22,17.75-18.45,17.75C294.76,138.24,288.32,131.54,287.8,115.88Z"/><path class="cls-5" d="M362.71,78.29H352.09V66.72H388.9V78.29H378.37v58.9H362.71Z"/><path class="cls-5" d="M393.42,115V88.82c0-14.53,5.3-23.06,21.14-23.06s21.32,8.53,21.32,23.06V115c0,14.53-5.4,23.23-21.32,23.23S393.42,129.54,393.42,115ZM420,118.92V85c0-4.18-.52-8.26-5.39-8.26-4.61,0-5.22,4.08-5.22,8.26v33.93c0,4,.35,8.27,5.22,8.27S420,122.92,420,118.92Z"/><path class="cls-5" d="M137.33,147.72h17.84c18.36,0,23.67,6.61,23.67,22.27v25.58c0,15.84-5.31,22.62-23.5,22.62h-18Zm18,59.69c7,0,7.49-3,7.49-9.4V167.3c0-6.18-.7-8.7-7.57-8.7h-2.35v48.81Z"/><path class="cls-5" d="M187.36,196V169.82c0-14.53,5.31-23.06,21.14-23.06s21.32,8.53,21.32,23.06V196c0,14.53-5.4,23.23-21.32,23.23S187.36,210.54,187.36,196Zm26.54,3.91V166c0-4.18-.53-8.26-5.4-8.26-4.61,0-5.22,4.08-5.22,8.26v33.93c0,4,.35,8.27,5.22,8.27S213.9,203.93,213.9,199.92Z"/><path class="cls-6" d="M260.61,194.88V171.21c0-15,5.05-24.45,21.14-24.45,15.58,0,20.63,8.35,20.63,20.62v4.53H287.15v-5.75c0-4.43-.35-8.43-5.22-8.43-5.05,0-5.4,4.61-5.4,8.87v32.63c0,4.78,1.05,9,5.83,9s6.09-4.35,6.09-9.14v-8.26H282.1v-9.14h20.36v36.54H292.2l-.87-5.83c-1.92,4-5.23,6.88-11.4,6.88C265.31,219.24,260.61,209.41,260.61,194.88Z"/><path class="cls-6" d="M311.25,196V169.82c0-14.53,5.3-23.06,21.14-23.06s21.31,8.53,21.31,23.06V196c0,14.53-5.39,23.23-21.31,23.23S311.25,210.54,311.25,196Zm26.53,3.91V166c0-4.18-.52-8.26-5.39-8.26-4.61,0-5.22,4.08-5.22,8.26v33.93c0,4,.34,8.27,5.22,8.27S337.78,203.93,337.78,199.92Z"/><path class="cls-6" d="M362.23,196V169.82c0-14.53,5.3-23.06,21.14-23.06s21.31,8.53,21.31,23.06V196c0,14.53-5.39,23.23-21.31,23.23S362.23,210.54,362.23,196Zm26.53,3.91V166c0-4.18-.52-8.26-5.39-8.26-4.61,0-5.22,4.08-5.22,8.26v33.93c0,4,.35,8.27,5.22,8.27S388.76,203.93,388.76,199.92Z"/><path class="cls-6" d="M414.17,147.72H432c18.36,0,23.67,6.61,23.67,22.27v25.58c0,15.84-5.31,22.62-23.5,22.62h-18Zm18,59.69c7.05,0,7.49-3,7.49-9.4V167.3c0-6.18-.7-8.7-7.57-8.7h-2.35v48.81Z"/><path class="cls-5" d="M157.63,66.22h23.66c12.62,0,18.53,7.39,18.53,20.45,0,16.27-9,20.09-20.36,20.09H173.2v29.93H157.63Zm20.79,29.67c5.74,0,6.79-3,6.79-9.49,0-5.3-.61-9.22-6.88-9.22H173.2V95.89Z"/><path class="cls-5" d="M213.13,66.22h17.75L244,136.69H229.66l-2.35-14.87H217l-2.44,14.87h-14.7Zm12.7,46.29L222.09,85l-3.74,27.5Z"/><path class="cls-5" d="M256.54,107.9,243.15,66.22h14.7l6.7,22.27,6-22.27h14.1L271.51,107.9v28.79h-15Z"/><path class="cls-5" d="M288.3,115.38l13.31-2c.18,9.13,2.26,12.53,6.18,12.53,3.22,0,3.91-2.7,3.91-5.14,0-5.83-2.95-9.31-7.74-13.4l-6.09-5.3c-5.39-4.53-9.48-9.84-9.48-18.36,0-11.92,7.57-18.45,19.75-18.45,15.05,0,17.22,11.75,17.48,20l-13.39,1.66c-.18-6.27-.61-10.27-4.61-10.27-2.88,0-4.18,3-4.18,5.48,0,5.22,2.7,8,6.79,11.57l5.82,5.14c6.09,5.22,11,11.39,11,21.14,0,10-7.22,17.75-18.45,17.75C295.26,137.74,288.82,131,288.3,115.38Z"/><path class="cls-5" d="M363.21,77.79H352.59V66.22H389.4V77.79H378.87v58.9H363.21Z"/><path class="cls-5" d="M393.92,114.51V88.32c0-14.53,5.3-23.06,21.14-23.06s21.32,8.53,21.32,23.06v26.19c0,14.53-5.4,23.23-21.32,23.23S393.92,129,393.92,114.51Zm26.53,3.91V84.49c0-4.18-.52-8.26-5.39-8.26-4.61,0-5.22,4.08-5.22,8.26v33.93c0,4,.35,8.27,5.22,8.27S420.45,122.42,420.45,118.42Z"/><path class="cls-5" d="M137.83,147.22h17.84c18.36,0,23.67,6.61,23.67,22.27v25.58c0,15.84-5.31,22.62-23.5,22.62h-18Zm18,59.69c7,0,7.49-3,7.49-9.4V166.8c0-6.18-.7-8.7-7.57-8.7h-2.35v48.81Z"/><path class="cls-5" d="M187.86,195.51V169.32c0-14.53,5.31-23.06,21.14-23.06s21.32,8.53,21.32,23.06v26.19c0,14.53-5.4,23.23-21.32,23.23S187.86,210,187.86,195.51Zm26.54,3.91V165.49c0-4.18-.53-8.26-5.4-8.26-4.61,0-5.22,4.08-5.22,8.26v33.93c0,4,.35,8.27,5.22,8.27S214.4,203.43,214.4,199.42Z"/><path class="cls-6" d="M261.11,194.38V170.71c0-15,5.05-24.45,21.14-24.45,15.58,0,20.63,8.35,20.63,20.62v4.53H287.65v-5.75c0-4.43-.35-8.43-5.22-8.43-5.05,0-5.4,4.61-5.4,8.87v32.63c0,4.78,1.05,9,5.83,9s6.09-4.35,6.09-9.14v-8.26H282.6v-9.14H303v36.54H292.7l-.87-5.83c-1.92,4-5.23,6.88-11.4,6.88C265.81,218.74,261.11,208.91,261.11,194.38Z"/><path class="cls-6" d="M311.75,195.51V169.32c0-14.53,5.3-23.06,21.14-23.06s21.31,8.53,21.31,23.06v26.19c0,14.53-5.39,23.23-21.31,23.23S311.75,210,311.75,195.51Zm26.53,3.91V165.49c0-4.18-.52-8.26-5.39-8.26-4.61,0-5.22,4.08-5.22,8.26v33.93c0,4,.34,8.27,5.22,8.27S338.28,203.43,338.28,199.42Z"/><path class="cls-6" d="M362.73,195.51V169.32c0-14.53,5.3-23.06,21.14-23.06s21.31,8.53,21.31,23.06v26.19c0,14.53-5.39,23.23-21.31,23.23S362.73,210,362.73,195.51Zm26.53,3.91V165.49c0-4.18-.52-8.26-5.39-8.26-4.61,0-5.22,4.08-5.22,8.26v33.93c0,4,.35,8.27,5.22,8.27S389.26,203.43,389.26,199.42Z"/><path class="cls-6" d="M414.67,147.22H432.5c18.36,0,23.67,6.61,23.67,22.27v25.58c0,15.84-5.31,22.62-23.5,22.62h-18Zm18,59.69c7.05,0,7.49-3,7.49-9.4V166.8c0-6.18-.7-8.7-7.57-8.7h-2.35v48.81Z"/><path class="cls-5" d="M158.13,65.72h23.66c12.62,0,18.53,7.39,18.53,20.45,0,16.27-9,20.09-20.36,20.09H173.7v29.93H158.13Zm20.79,29.67c5.74,0,6.79-3,6.79-9.49,0-5.3-.61-9.22-6.88-9.22H173.7V95.39Z"/><path class="cls-5" d="M213.63,65.72h17.75l13.14,70.47H230.16l-2.35-14.87H217.46L215,136.19h-14.7ZM226.33,112l-3.74-27.5L218.85,112Z"/><path class="cls-5" d="M257,107.4,243.65,65.72h14.7L265.05,88l6-22.27h14.1L272,107.4v28.79H257Z"/><path class="cls-5" d="M288.8,114.88l13.31-2c.18,9.13,2.26,12.53,6.18,12.53,3.22,0,3.91-2.7,3.91-5.14,0-5.83-2.95-9.31-7.74-13.4l-6.09-5.3c-5.39-4.53-9.48-9.84-9.48-18.36,0-11.92,7.57-18.45,19.75-18.45,15.05,0,17.22,11.75,17.48,20l-13.39,1.66c-.18-6.27-.61-10.27-4.61-10.27-2.88,0-4.18,3-4.18,5.48,0,5.22,2.7,8,6.79,11.57l5.82,5.14c6.09,5.22,11,11.39,11,21.14,0,10-7.22,17.75-18.45,17.75C295.76,137.24,289.32,130.54,288.8,114.88Z"/><path class="cls-5" d="M363.71,77.29H353.09V65.72H389.9V77.29H379.37v58.9H363.71Z"/><path class="cls-5" d="M394.42,114V87.82c0-14.53,5.3-23.06,21.14-23.06s21.32,8.53,21.32,23.06V114c0,14.53-5.4,23.23-21.32,23.23S394.42,128.54,394.42,114ZM421,117.92V84c0-4.18-.52-8.26-5.39-8.26-4.61,0-5.22,4.08-5.22,8.26v33.93c0,4,.35,8.27,5.22,8.27S421,121.92,421,117.92Z"/><path class="cls-5" d="M138.33,146.72h17.84c18.36,0,23.67,6.61,23.67,22.27v25.58c0,15.84-5.31,22.62-23.5,22.62h-18Zm18,59.69c7,0,7.49-3,7.49-9.4V166.3c0-6.18-.7-8.7-7.57-8.7h-2.35v48.81Z"/><path class="cls-5" d="M188.36,195V168.82c0-14.53,5.31-23.06,21.14-23.06s21.32,8.53,21.32,23.06V195c0,14.53-5.4,23.23-21.32,23.23S188.36,209.54,188.36,195Zm26.54,3.91V165c0-4.18-.53-8.26-5.4-8.26-4.61,0-5.22,4.08-5.22,8.26v33.93c0,4,.35,8.27,5.22,8.27S214.9,202.93,214.9,198.92Z"/><path class="cls-6" d="M261.61,193.88V170.21c0-15,5.05-24.45,21.14-24.45,15.58,0,20.63,8.35,20.63,20.62v4.53H288.15v-5.75c0-4.43-.35-8.43-5.22-8.43-5.05,0-5.4,4.61-5.4,8.87v32.63c0,4.78,1.05,9,5.83,9s6.09-4.35,6.09-9.14v-8.26H283.1v-9.14h20.36v36.54H293.2l-.87-5.83c-1.92,4-5.23,6.88-11.4,6.88C266.31,218.24,261.61,208.41,261.61,193.88Z"/><path class="cls-6" d="M312.25,195V168.82c0-14.53,5.3-23.06,21.14-23.06s21.31,8.53,21.31,23.06V195c0,14.53-5.39,23.23-21.31,23.23S312.25,209.54,312.25,195Zm26.53,3.91V165c0-4.18-.52-8.26-5.39-8.26-4.61,0-5.22,4.08-5.22,8.26v33.93c0,4,.34,8.27,5.22,8.27S338.78,202.93,338.78,198.92Z"/><path class="cls-6" d="M363.23,195V168.82c0-14.53,5.3-23.06,21.14-23.06s21.31,8.53,21.31,23.06V195c0,14.53-5.39,23.23-21.31,23.23S363.23,209.54,363.23,195Zm26.53,3.91V165c0-4.18-.52-8.26-5.39-8.26-4.61,0-5.22,4.08-5.22,8.26v33.93c0,4,.35,8.27,5.22,8.27S389.76,202.93,389.76,198.92Z"/><path class="cls-6" d="M415.17,146.72H433c18.36,0,23.67,6.61,23.67,22.27v25.58c0,15.84-5.31,22.62-23.5,22.62h-18Zm18,59.69c7.05,0,7.49-3,7.49-9.4V166.3c0-6.18-.7-8.7-7.57-8.7h-2.35v48.81Z"/><path class="cls-5" d="M158.63,65.22h23.66c12.62,0,18.53,7.39,18.53,20.45,0,16.27-9,20.09-20.36,20.09H174.2v29.93H158.63Zm20.79,29.67c5.74,0,6.79-3,6.79-9.49,0-5.3-.61-9.22-6.88-9.22H174.2V94.89Z"/><path class="cls-5" d="M214.13,65.22h17.75L245,135.69H230.66l-2.35-14.87H218l-2.44,14.87h-14.7Zm12.7,46.29L223.09,84l-3.74,27.5Z"/><path class="cls-5" d="M257.54,106.9,244.15,65.22h14.7l6.7,22.27,6-22.27h14.1L272.51,106.9v28.79h-15Z"/><path class="cls-5" d="M289.3,114.38l13.31-2c.18,9.13,2.26,12.53,6.18,12.53,3.22,0,3.91-2.7,3.91-5.14,0-5.83-2.95-9.31-7.74-13.4l-6.09-5.3c-5.39-4.53-9.48-9.84-9.48-18.36,0-11.92,7.57-18.45,19.75-18.45,15.05,0,17.22,11.75,17.48,20l-13.39,1.66c-.18-6.27-.61-10.27-4.61-10.27-2.88,0-4.18,3-4.18,5.48,0,5.22,2.7,8,6.79,11.57l5.82,5.14c6.09,5.22,11,11.39,11,21.14,0,10-7.22,17.75-18.45,17.75C296.26,136.74,289.82,130,289.3,114.38Z"/><path class="cls-5" d="M364.21,76.79H353.59V65.22H390.4V76.79H379.87v58.9H364.21Z"/><path class="cls-5" d="M394.92,113.51V87.32c0-14.53,5.3-23.06,21.14-23.06s21.32,8.53,21.32,23.06v26.19c0,14.53-5.4,23.23-21.32,23.23S394.92,128,394.92,113.51Zm26.53,3.91V83.49c0-4.18-.52-8.26-5.39-8.26-4.61,0-5.22,4.08-5.22,8.26v33.93c0,4,.35,8.27,5.22,8.27S421.45,121.42,421.45,117.42Z"/><path class="cls-5" d="M138.83,146.22h17.84c18.36,0,23.67,6.61,23.67,22.27v25.58c0,15.84-5.31,22.62-23.5,22.62h-18Zm18,59.69c7,0,7.49-3,7.49-9.4V165.8c0-6.18-.7-8.7-7.57-8.7h-2.35v48.81Z"/><path class="cls-5" d="M188.86,194.51V168.32c0-14.53,5.31-23.06,21.14-23.06s21.32,8.53,21.32,23.06v26.19c0,14.53-5.4,23.23-21.32,23.23S188.86,209,188.86,194.51Zm26.54,3.91V164.49c0-4.18-.53-8.26-5.4-8.26-4.61,0-5.22,4.08-5.22,8.26v33.93c0,4,.35,8.27,5.22,8.27S215.4,202.43,215.4,198.42Z"/><path class="cls-6" d="M262.11,193.38V169.71c0-15,5.05-24.45,21.14-24.45,15.58,0,20.63,8.35,20.63,20.62v4.53H288.65v-5.75c0-4.43-.35-8.43-5.22-8.43-5.05,0-5.4,4.61-5.4,8.87v32.63c0,4.78,1.05,9,5.83,9s6.09-4.35,6.09-9.14v-8.26H283.6v-9.14H304v36.54H293.7l-.87-5.83c-1.92,4-5.23,6.88-11.4,6.88C266.81,217.74,262.11,207.91,262.11,193.38Z"/><path class="cls-6" d="M312.75,194.51V168.32c0-14.53,5.3-23.06,21.14-23.06s21.31,8.53,21.31,23.06v26.19c0,14.53-5.39,23.23-21.31,23.23S312.75,209,312.75,194.51Zm26.53,3.91V164.49c0-4.18-.52-8.26-5.39-8.26-4.61,0-5.22,4.08-5.22,8.26v33.93c0,4,.34,8.27,5.22,8.27S339.28,202.43,339.28,198.42Z"/><path class="cls-6" d="M363.73,194.51V168.32c0-14.53,5.3-23.06,21.14-23.06s21.31,8.53,21.31,23.06v26.19c0,14.53-5.39,23.23-21.31,23.23S363.73,209,363.73,194.51Zm26.53,3.91V164.49c0-4.18-.52-8.26-5.39-8.26-4.61,0-5.22,4.08-5.22,8.26v33.93c0,4,.35,8.27,5.22,8.27S390.26,202.43,390.26,198.42Z"/><path class="cls-6" d="M415.67,146.22H433.5c18.36,0,23.67,6.61,23.67,22.27v25.58c0,15.84-5.31,22.62-23.5,22.62h-18Zm18,59.69c7.05,0,7.49-3,7.49-9.4V165.8c0-6.18-.7-8.7-7.57-8.7h-2.35v48.81Z"/><path class="cls-5" d="M159.13,64.72h23.66c12.62,0,18.53,7.39,18.53,20.45,0,16.27-9,20.09-20.36,20.09H174.7v29.93H159.13Zm20.79,29.67c5.74,0,6.79-3,6.79-9.49,0-5.3-.61-9.22-6.88-9.22H174.7V94.39Z"/><path class="cls-5" d="M214.63,64.72h17.75l13.14,70.47H231.16l-2.35-14.87H218.46L216,135.19h-14.7ZM227.33,111l-3.74-27.5L219.85,111Z"/><path class="cls-5" d="M258,106.4,244.65,64.72h14.7L266.05,87l6-22.27h14.1L273,106.4v28.79H258Z"/><path class="cls-5" d="M289.8,113.88l13.31-2c.18,9.13,2.26,12.53,6.18,12.53,3.22,0,3.91-2.7,3.91-5.14,0-5.83-2.95-9.31-7.74-13.4l-6.09-5.3c-5.39-4.53-9.48-9.84-9.48-18.36,0-11.92,7.57-18.45,19.75-18.45,15.05,0,17.22,11.75,17.48,20l-13.39,1.66c-.18-6.27-.61-10.27-4.61-10.27-2.88,0-4.18,3-4.18,5.48,0,5.22,2.7,8,6.79,11.57l5.82,5.14c6.09,5.22,11,11.39,11,21.14,0,10-7.22,17.75-18.45,17.75C296.76,136.24,290.32,129.54,289.8,113.88Z"/><path class="cls-5" d="M364.71,76.29H354.09V64.72H390.9V76.29H380.37v58.9H364.71Z"/><path class="cls-5" d="M395.42,113V86.82c0-14.53,5.3-23.06,21.14-23.06s21.32,8.53,21.32,23.06V113c0,14.53-5.4,23.23-21.32,23.23S395.42,127.54,395.42,113ZM422,116.92V83c0-4.18-.52-8.26-5.39-8.26-4.61,0-5.22,4.08-5.22,8.26v33.93c0,4,.35,8.27,5.22,8.27S422,120.92,422,116.92Z"/><path class="cls-5" d="M139.33,145.72h17.84c18.36,0,23.67,6.61,23.67,22.27v25.58c0,15.84-5.31,22.62-23.5,22.62h-18Zm18,59.69c7,0,7.49-3,7.49-9.4V165.3c0-6.18-.7-8.7-7.57-8.7h-2.35v48.81Z"/><path class="cls-5" d="M189.36,194V167.82c0-14.53,5.31-23.06,21.14-23.06s21.32,8.53,21.32,23.06V194c0,14.53-5.4,23.23-21.32,23.23S189.36,208.54,189.36,194Zm26.54,3.91V164c0-4.18-.53-8.26-5.4-8.26-4.61,0-5.22,4.08-5.22,8.26v33.93c0,4,.35,8.27,5.22,8.27S215.9,201.93,215.9,197.92Z"/><path class="cls-6" d="M262.61,192.88V169.21c0-15,5.05-24.45,21.14-24.45,15.58,0,20.63,8.35,20.63,20.62v4.53H289.15v-5.75c0-4.43-.35-8.43-5.22-8.43-5.05,0-5.4,4.61-5.4,8.87v32.63c0,4.78,1.05,9,5.83,9s6.09-4.35,6.09-9.14v-8.26H284.1v-9.14h20.36v36.54H294.2l-.87-5.83c-1.92,4-5.23,6.88-11.4,6.88C267.31,217.24,262.61,207.41,262.61,192.88Z"/><path class="cls-6" d="M313.25,194V167.82c0-14.53,5.3-23.06,21.14-23.06s21.31,8.53,21.31,23.06V194c0,14.53-5.39,23.23-21.31,23.23S313.25,208.54,313.25,194Zm26.53,3.91V164c0-4.18-.52-8.26-5.39-8.26-4.61,0-5.22,4.08-5.22,8.26v33.93c0,4,.34,8.27,5.22,8.27S339.78,201.93,339.78,197.92Z"/><path class="cls-6" d="M364.23,194V167.82c0-14.53,5.3-23.06,21.14-23.06s21.31,8.53,21.31,23.06V194c0,14.53-5.39,23.23-21.31,23.23S364.23,208.54,364.23,194Zm26.53,3.91V164c0-4.18-.52-8.26-5.39-8.26-4.61,0-5.22,4.08-5.22,8.26v33.93c0,4,.35,8.27,5.22,8.27S390.76,201.93,390.76,197.92Z"/><path class="cls-6" d="M416.17,145.72H434c18.36,0,23.67,6.61,23.67,22.27v25.58c0,15.84-5.31,22.62-23.5,22.62h-18Zm18,59.69c7.05,0,7.49-3,7.49-9.4V165.3c0-6.18-.7-8.7-7.57-8.7h-2.35v48.81Z"/><path class="cls-5" d="M159.63,64.22h23.66c12.62,0,18.53,7.39,18.53,20.45,0,16.27-9,20.09-20.36,20.09H175.2v29.93H159.63Zm20.79,29.67c5.74,0,6.79-3,6.79-9.49,0-5.3-.61-9.22-6.88-9.22H175.2V93.89Z"/><path class="cls-5" d="M215.13,64.22h17.75L246,134.69H231.66l-2.35-14.87H219l-2.44,14.87h-14.7Zm12.7,46.29L224.09,83l-3.74,27.5Z"/><path class="cls-5" d="M258.54,105.9,245.15,64.22h14.7l6.7,22.27,6-22.27h14.1L273.51,105.9v28.79h-15Z"/><path class="cls-5" d="M290.3,113.38l13.31-2c.18,9.13,2.26,12.53,6.18,12.53,3.22,0,3.91-2.7,3.91-5.14,0-5.83-2.95-9.31-7.74-13.4l-6.09-5.3c-5.39-4.53-9.48-9.84-9.48-18.36,0-11.92,7.57-18.45,19.75-18.45,15.05,0,17.22,11.75,17.48,20l-13.39,1.66c-.18-6.27-.61-10.27-4.61-10.27-2.88,0-4.18,3-4.18,5.48,0,5.22,2.7,8,6.79,11.57l5.82,5.14c6.09,5.22,11,11.39,11,21.14,0,10-7.22,17.75-18.45,17.75C297.26,135.74,290.82,129,290.3,113.38Z"/><path class="cls-5" d="M365.21,75.79H354.59V64.22H391.4V75.79H380.87v58.9H365.21Z"/><path class="cls-5" d="M395.92,112.51V86.32c0-14.53,5.3-23.06,21.14-23.06s21.32,8.53,21.32,23.06v26.19c0,14.53-5.4,23.23-21.32,23.23S395.92,127,395.92,112.51Zm26.53,3.91V82.49c0-4.18-.52-8.26-5.39-8.26-4.61,0-5.22,4.08-5.22,8.26v33.93c0,4,.35,8.27,5.22,8.27S422.45,120.42,422.45,116.42Z"/><path class="cls-5" d="M139.83,145.22h17.84c18.36,0,23.67,6.61,23.67,22.27v25.58c0,15.84-5.31,22.62-23.5,22.62h-18Zm18,59.69c7,0,7.49-3,7.49-9.4V164.8c0-6.18-.7-8.7-7.57-8.7h-2.35v48.81Z"/><path class="cls-5" d="M189.86,193.51V167.32c0-14.53,5.31-23.06,21.14-23.06s21.32,8.53,21.32,23.06v26.19c0,14.53-5.4,23.23-21.32,23.23S189.86,208,189.86,193.51Zm26.54,3.91V163.49c0-4.18-.53-8.26-5.4-8.26-4.61,0-5.22,4.08-5.22,8.26v33.93c0,4,.35,8.27,5.22,8.27S216.4,201.43,216.4,197.42Z"/><path class="cls-6" d="M263.11,192.38V168.71c0-15,5.05-24.45,21.14-24.45,15.58,0,20.63,8.35,20.63,20.62v4.53H289.65v-5.75c0-4.43-.35-8.43-5.22-8.43-5.05,0-5.4,4.61-5.4,8.87v32.63c0,4.78,1.05,9,5.83,9s6.09-4.35,6.09-9.14v-8.26H284.6v-9.14H305v36.54H294.7l-.87-5.83c-1.92,4-5.23,6.88-11.4,6.88C267.81,216.74,263.11,206.91,263.11,192.38Z"/><path class="cls-6" d="M313.75,193.51V167.32c0-14.53,5.3-23.06,21.14-23.06s21.31,8.53,21.31,23.06v26.19c0,14.53-5.39,23.23-21.31,23.23S313.75,208,313.75,193.51Zm26.53,3.91V163.49c0-4.18-.52-8.26-5.39-8.26-4.61,0-5.22,4.08-5.22,8.26v33.93c0,4,.34,8.27,5.22,8.27S340.28,201.43,340.28,197.42Z"/><path class="cls-6" d="M364.73,193.51V167.32c0-14.53,5.3-23.06,21.14-23.06s21.31,8.53,21.31,23.06v26.19c0,14.53-5.39,23.23-21.31,23.23S364.73,208,364.73,193.51Zm26.53,3.91V163.49c0-4.18-.52-8.26-5.39-8.26-4.61,0-5.22,4.08-5.22,8.26v33.93c0,4,.35,8.27,5.22,8.27S391.26,201.43,391.26,197.42Z"/><path class="cls-6" d="M416.67,145.22H434.5c18.36,0,23.67,6.61,23.67,22.27v25.58c0,15.84-5.31,22.62-23.5,22.62h-18Zm18,59.69c7.05,0,7.49-3,7.49-9.4V164.8c0-6.18-.7-8.7-7.57-8.7h-2.35v48.81Z"/><path class="cls-5" d="M160.13,63.72h23.66c12.62,0,18.53,7.39,18.53,20.45,0,16.27-9,20.09-20.36,20.09H175.7v29.93H160.13Zm20.79,29.67c5.74,0,6.79-3,6.79-9.49,0-5.3-.61-9.22-6.88-9.22H175.7V93.39Z"/><path class="cls-5" d="M215.63,63.72h17.75l13.14,70.47H232.16l-2.35-14.87H219.46L217,134.19h-14.7ZM228.33,110l-3.74-27.5L220.85,110Z"/><path class="cls-5" d="M259,105.4,245.65,63.72h14.7L267.05,86l6-22.27h14.1L274,105.4v28.79H259Z"/><path class="cls-5" d="M290.8,112.88l13.31-2c.18,9.13,2.26,12.53,6.18,12.53,3.22,0,3.91-2.7,3.91-5.14,0-5.83-2.95-9.31-7.74-13.4l-6.09-5.3c-5.39-4.53-9.48-9.84-9.48-18.36,0-11.92,7.57-18.45,19.75-18.45,15.05,0,17.22,11.75,17.48,20l-13.39,1.66c-.18-6.27-.61-10.27-4.61-10.27-2.88,0-4.18,3-4.18,5.48,0,5.22,2.7,8,6.79,11.57l5.82,5.14c6.09,5.22,11,11.39,11,21.14,0,10-7.22,17.75-18.45,17.75C297.76,135.24,291.32,128.54,290.8,112.88Z"/><path class="cls-5" d="M365.71,75.29H355.09V63.72H391.9V75.29H381.37v58.9H365.71Z"/><path class="cls-5" d="M396.42,112V85.82c0-14.53,5.3-23.06,21.14-23.06s21.32,8.53,21.32,23.06V112c0,14.53-5.4,23.23-21.32,23.23S396.42,126.54,396.42,112ZM423,115.92V82c0-4.18-.52-8.26-5.39-8.26-4.61,0-5.22,4.08-5.22,8.26v33.93c0,4,.35,8.27,5.22,8.27S423,119.92,423,115.92Z"/><path class="cls-5" d="M140.33,144.72h17.84c18.36,0,23.67,6.61,23.67,22.27v25.58c0,15.84-5.31,22.62-23.5,22.62h-18Zm18,59.69c7,0,7.49-3,7.49-9.4V164.3c0-6.18-.7-8.7-7.57-8.7h-2.35v48.81Z"/><path class="cls-5" d="M190.36,193V166.82c0-14.53,5.31-23.06,21.14-23.06s21.32,8.53,21.32,23.06V193c0,14.53-5.4,23.23-21.32,23.23S190.36,207.54,190.36,193Zm26.54,3.91V163c0-4.18-.53-8.26-5.4-8.26-4.61,0-5.22,4.08-5.22,8.26v33.93c0,4,.35,8.27,5.22,8.27S216.9,200.93,216.9,196.92Z"/><path class="cls-6" d="M263.61,191.88V168.21c0-15,5.05-24.45,21.14-24.45,15.58,0,20.63,8.35,20.63,20.62v4.53H290.15v-5.75c0-4.43-.35-8.43-5.22-8.43-5.05,0-5.4,4.61-5.4,8.87v32.63c0,4.78,1.05,9,5.83,9s6.09-4.35,6.09-9.14v-8.26H285.1v-9.14h20.36v36.54H295.2l-.87-5.83c-1.92,4-5.23,6.88-11.4,6.88C268.31,216.24,263.61,206.41,263.61,191.88Z"/><path class="cls-6" d="M314.25,193V166.82c0-14.53,5.3-23.06,21.14-23.06s21.31,8.53,21.31,23.06V193c0,14.53-5.39,23.23-21.31,23.23S314.25,207.54,314.25,193Zm26.53,3.91V163c0-4.18-.52-8.26-5.39-8.26-4.61,0-5.22,4.08-5.22,8.26v33.93c0,4,.34,8.27,5.22,8.27S340.78,200.93,340.78,196.92Z"/><path class="cls-6" d="M365.23,193V166.82c0-14.53,5.3-23.06,21.14-23.06s21.31,8.53,21.31,23.06V193c0,14.53-5.39,23.23-21.31,23.23S365.23,207.54,365.23,193Zm26.53,3.91V163c0-4.18-.52-8.26-5.39-8.26-4.61,0-5.22,4.08-5.22,8.26v33.93c0,4,.35,8.27,5.22,8.27S391.76,200.93,391.76,196.92Z"/><path class="cls-6" d="M417.17,144.72H435c18.36,0,23.67,6.61,23.67,22.27v25.58c0,15.84-5.31,22.62-23.5,22.62h-18Zm18,59.69c7.05,0,7.49-3,7.49-9.4V164.3c0-6.18-.7-8.7-7.57-8.7h-2.35v48.81Z"/><path class="cls-5" d="M160.63,63.22h23.66c12.62,0,18.53,7.39,18.53,20.45,0,16.27-9,20.09-20.36,20.09H176.2v29.93H160.63Zm20.79,29.67c5.74,0,6.79-3,6.79-9.49,0-5.3-.61-9.22-6.88-9.22H176.2V92.89Z"/><path class="cls-5" d="M216.13,63.22h17.75L247,133.69H232.66l-2.35-14.87H220l-2.44,14.87h-14.7Zm12.7,46.29L225.09,82l-3.74,27.5Z"/><path class="cls-5" d="M259.54,104.9,246.15,63.22h14.7l6.7,22.27,6-22.27h14.1L274.51,104.9v28.79h-15Z"/><path class="cls-5" d="M291.3,112.38l13.31-2c.18,9.13,2.26,12.53,6.18,12.53,3.22,0,3.91-2.7,3.91-5.14,0-5.83-2.95-9.31-7.74-13.4l-6.09-5.3c-5.39-4.53-9.48-9.84-9.48-18.36,0-11.92,7.57-18.45,19.75-18.45,15.05,0,17.22,11.75,17.48,20l-13.39,1.66c-.18-6.27-.61-10.27-4.61-10.27-2.88,0-4.18,3-4.18,5.48,0,5.22,2.7,8,6.79,11.57l5.82,5.14c6.09,5.22,11,11.39,11,21.14,0,10-7.22,17.75-18.45,17.75C298.26,134.74,291.82,128,291.3,112.38Z"/><path class="cls-5" d="M366.21,74.79H355.59V63.22H392.4V74.79H381.87v58.9H366.21Z"/><path class="cls-5" d="M396.92,111.51V85.32c0-14.53,5.3-23.06,21.14-23.06s21.32,8.53,21.32,23.06v26.19c0,14.53-5.4,23.23-21.32,23.23S396.92,126,396.92,111.51Zm26.53,3.91V81.49c0-4.18-.52-8.26-5.39-8.26-4.61,0-5.22,4.08-5.22,8.26v33.93c0,4,.35,8.27,5.22,8.27S423.45,119.42,423.45,115.42Z"/><path class="cls-5" d="M140.83,144.22h17.84c18.36,0,23.67,6.61,23.67,22.27v25.58c0,15.84-5.31,22.62-23.5,22.62h-18Zm18,59.69c7,0,7.49-3,7.49-9.4V163.8c0-6.18-.7-8.7-7.57-8.7h-2.35v48.81Z"/><path class="cls-5" d="M190.86,192.51V166.32c0-14.53,5.31-23.06,21.14-23.06s21.32,8.53,21.32,23.06v26.19c0,14.53-5.4,23.23-21.32,23.23S190.86,207,190.86,192.51Zm26.54,3.91V162.49c0-4.18-.53-8.26-5.4-8.26-4.61,0-5.22,4.08-5.22,8.26v33.93c0,4,.35,8.27,5.22,8.27S217.4,200.43,217.4,196.42Z"/><path class="cls-6" d="M264.11,191.38V167.71c0-15,5.05-24.45,21.14-24.45,15.58,0,20.63,8.35,20.63,20.62v4.53H290.65v-5.75c0-4.43-.35-8.43-5.22-8.43-5.05,0-5.4,4.61-5.4,8.87v32.63c0,4.78,1.05,9,5.83,9s6.09-4.35,6.09-9.14v-8.26H285.6v-9.14H306v36.54H295.7l-.87-5.83c-1.92,4-5.23,6.88-11.4,6.88C268.81,215.74,264.11,205.91,264.11,191.38Z"/><path class="cls-6" d="M314.75,192.51V166.32c0-14.53,5.3-23.06,21.14-23.06s21.31,8.53,21.31,23.06v26.19c0,14.53-5.39,23.23-21.31,23.23S314.75,207,314.75,192.51Zm26.53,3.91V162.49c0-4.18-.52-8.26-5.39-8.26-4.61,0-5.22,4.08-5.22,8.26v33.93c0,4,.34,8.27,5.22,8.27S341.28,200.43,341.28,196.42Z"/><path class="cls-6" d="M365.73,192.51V166.32c0-14.53,5.3-23.06,21.14-23.06s21.31,8.53,21.31,23.06v26.19c0,14.53-5.39,23.23-21.31,23.23S365.73,207,365.73,192.51Zm26.53,3.91V162.49c0-4.18-.52-8.26-5.39-8.26-4.61,0-5.22,4.08-5.22,8.26v33.93c0,4,.35,8.27,5.22,8.27S392.26,200.43,392.26,196.42Z"/><path class="cls-6" d="M417.67,144.22H435.5c18.36,0,23.67,6.61,23.67,22.27v25.58c0,15.84-5.31,22.62-23.5,22.62h-18Zm18,59.69c7.05,0,7.49-3,7.49-9.4V163.8c0-6.18-.7-8.7-7.57-8.7h-2.35v48.81Z"/></g><g class="cls-7"><line class="cls-8" x1="-192.06" y1="153.98" x2="24.18" y2="357.5"/><line class="cls-8" x1="-169.16" y1="153.98" x2="47.08" y2="357.5"/></g></g></svg>