<?xml version="1.0" encoding="UTF-8"?>
<svg width="32px" height="32px" viewBox="0 0 32 32" version="1.1" xmlns="http://www.w3.org/2000/svg" xmlns:xlink="http://www.w3.org/1999/xlink">
    <!-- Generator: Sketch 49.3 (51167) - http://www.bohemiancoding.com/sketch -->
    <title>Link Icon</title>
    <desc>Created with Sketch.</desc>
    <defs></defs>
    <g id="Link-Icon" stroke="none" stroke-width="1" fill="none" fill-rule="evenodd">
        <path d="M19.3846154,17.1538462 C21.9336219,17.1538462 24,19.2202242 24,21.7692308 L24,26.3846154 C24,28.9336219 21.9336219,31 19.3846154,31 L13.6153846,31 C11.0663781,31 9,28.9336219 9,26.3846154 L9,21.7692308 C9,19.2202242 11.0663781,17.1538462 13.6153846,17.1538462 L13.6153846,20.6153846 C12.978133,20.6153846 12.4615385,21.1319791 12.4615385,21.7692308 L12.4615385,26.3846154 C12.4615385,27.021867 12.978133,27.5384615 13.6153846,27.5384615 L19.3846154,27.5384615 C20.021867,27.5384615 20.5384615,27.021867 20.5384615,26.3846154 L20.5384615,21.7692308 C20.5384615,21.1319791 20.021867,20.6153846 19.3846154,20.6153846 L19.3846154,17.1538462 Z M19.3846154,14.8461538 L19.3846154,11.3846154 C20.021867,11.3846154 20.5384615,10.8680209 20.5384615,10.2307692 L20.5384615,5.61538462 C20.5384615,4.97813298 20.021867,4.46153846 19.3846154,4.46153846 L13.6153846,4.46153846 C12.978133,4.46153846 12.4615385,4.97813298 12.4615385,5.61538462 L12.4615385,10.2307692 C12.4615385,10.8680209 12.978133,11.3846154 13.6153846,11.3846154 L13.6153846,14.8461538 C11.0663781,14.8461538 9,12.7797758 9,10.2307692 L9,5.61538462 C9,3.06637808 11.0663781,1 13.6153846,1 L19.3846154,1 C21.9336219,1 24,3.06637808 24,5.61538462 L24,10.2307692 C24,12.7797758 21.9336219,14.8461538 19.3846154,14.8461538 Z M15.9230769,9.07692308 C15.2858253,9.07692308 14.7692308,9.5935176 14.7692308,10.2307692 L14.7692308,21.7692308 C14.7692308,22.4064824 15.2858253,22.9230769 15.9230769,22.9230769 L17.0769231,22.9230769 C17.7141747,22.9230769 18.2307692,22.4064824 18.2307692,21.7692308 L18.2307692,10.2307692 C18.2307692,9.5935176 17.7141747,9.07692308 17.0769231,9.07692308 L15.9230769,9.07692308 Z" id="Link" fill="#FFFFFF" fill-rule="nonzero" transform="translate(16.500000, 16.000000) rotate(45.000000) translate(-16.500000, -16.000000) "></path>
    </g>
</svg>