<svg id="Layer_1" data-name="Layer 1" xmlns="http://www.w3.org/2000/svg" xmlns:xlink="http://www.w3.org/1999/xlink" viewBox="0 0 1920 1080"><defs><style>.cls-1{fill:none;}.cls-2{clip-path:url(#clip-path);}.cls-3{fill:#983ac9;}.cls-4{fill:#731daa;}.cls-5{fill:#2fe4da;}.cls-6{fill:#efefef;}.cls-7{fill:#e2e2e2;}.cls-8{fill:#fcce2f;}.cls-9{fill:#332baa;}.cls-10{fill:#06c9b1;}.cls-11{fill:#fff;}.cls-12{fill:#f9bb0b;}.cls-13{fill:#141493;}</style><clipPath id="clip-path"><rect class="cls-1" width="1920" height="1080"/></clipPath></defs><g class="cls-2"><rect class="cls-3" x="-78.83" y="-60.62" width="2118.66" height="1199.13"/><rect class="cls-4" x="1091.4" y="218.66" width="301.9" height="145.48" transform="translate(2481.21 -14.51) rotate(152.93)"/><path class="cls-1" d="M1269.68,344.88a43.3,43.3,0,0,0,11-8l-23.94,12.23A43,43,0,0,0,1269.68,344.88Z"/><path class="cls-1" d="M1194.06,316.08c-10.48-20.51-10.36-43.23-1.51-60.28l-75.66,38.67a22.62,22.62,0,0,1-8,25.83l31.85,62.32a22.63,22.63,0,0,1,25.61,8.67L1242,352.62C1223,349.8,1204.54,336.59,1194.06,316.08Z"/><path class="cls-1" d="M1290.64,266.72c10.49,20.51,10.37,43.23,1.52,60.28l75.66-38.67a22.63,22.63,0,0,1,8-25.83l-31.85-62.32a22.62,22.62,0,0,1-25.6-8.67l-75.67,38.67C1261.68,233,1280.16,246.21,1290.64,266.72Z"/><path class="cls-1" d="M1215,237.92a43.27,43.27,0,0,0-11,8.05l24-12.24A43.39,43.39,0,0,0,1215,237.92Z"/><path class="cls-3" d="M1318.34,191.51a22.62,22.62,0,0,0,25.6,8.67l31.85,62.32a22.63,22.63,0,0,0-8,25.83L1292.16,327a53,53,0,0,1-3.49,5.75L1372.4,290l-.27-.53a19,19,0,0,1,8.29-25.63l-34.82-68.11a19,19,0,0,1-25.62-8.3l-.27-.53L1236,229.65a50.4,50.4,0,0,1,6.7.53Z"/><path class="cls-3" d="M1104.29,319l34.81,68.12a19,19,0,0,1,25.63,8.29l.27.54,83.74-42.8a52.31,52.31,0,0,1-6.71-.54l-75.66,38.67a22.63,22.63,0,0,0-25.61-8.67l-31.85-62.32a22.62,22.62,0,0,0,8-25.83l75.66-38.67a52.38,52.38,0,0,1,3.49-5.75l-83.74,42.8.28.54A19.05,19.05,0,0,1,1104.29,319Z"/><path class="cls-3" d="M1287.5,268.33c10.93,21.37,9.72,45.3-1.25,61.69l5.91-3c8.85-17.05,9-39.77-1.52-60.28s-29-33.72-48-36.54l-5.9,3C1256.48,233.91,1276.57,247,1287.5,268.33Z"/><path class="cls-3" d="M1197.21,314.48c-10.93-21.38-9.73-45.3,1.24-61.7l-5.9,3c-8.85,17.05-9,39.77,1.51,60.28s29,33.72,48,36.54l5.91-3C1228.22,348.89,1208.13,335.85,1197.21,314.48Z"/><path class="cls-3" d="M1215,237.92a43.39,43.39,0,0,1,13-4.19l8-4.08a47,47,0,0,0-39.93,20.4l8-4.08A43.27,43.27,0,0,1,1215,237.92Z"/><path class="cls-3" d="M1269.68,344.88a43,43,0,0,1-13,4.19l-8,4.09a47,47,0,0,0,39.93-20.41l-8,4.09A43.3,43.3,0,0,1,1269.68,344.88Z"/><path class="cls-3" d="M1236.77,233.2l5.9-3a50.4,50.4,0,0,0-6.7-.53l-8,4.08A45.3,45.3,0,0,1,1236.77,233.2Z"/><path class="cls-3" d="M1198.45,252.78A46.29,46.29,0,0,1,1204,246l-8,4.08a52.38,52.38,0,0,0-3.49,5.75Z"/><path class="cls-3" d="M1286.25,330a45.63,45.63,0,0,1-5.58,6.82l8-4.09a53,53,0,0,0,3.49-5.75Z"/><path class="cls-3" d="M1247.94,349.6l-5.91,3a52.31,52.31,0,0,0,6.71.54l8-4.09A45.3,45.3,0,0,1,1247.94,349.6Z"/><circle class="cls-3" cx="1384.36" cy="279.83" r="3.79"/><circle class="cls-3" cx="1335.01" cy="183.28" r="3.79"/><circle class="cls-3" cx="1149.79" cy="399.71" r="3.79"/><circle class="cls-3" cx="1100.44" cy="303.17" r="3.79"/><path class="cls-3" d="M1233,268.2a48.3,48.3,0,0,1,24-3.53l-1.67,13.69a39,39,0,0,0-16.87,1.57l2.86,5.59c13.06-3.7,21.25-3.3,25.76,5.53l.07.13c4.27,8.36,1.41,17.55-10.34,24.32l2,3.84-7,3.58-2.07-4a38.45,38.45,0,0,1-18.62,2.63l1.23-13.54a28.93,28.93,0,0,0,11.87-.89l-2.82-5.52c-12.39,3.53-20.58,3.3-25.26-5.87l-.07-.13c-4.55-8.89-.26-17.63,9.9-23.84l-3.37-6.61,7-3.58Zm17.85,36.26c3.27-1.76,3.93-3.46,3.24-4.8l-.07-.14c-.72-1.41-2.14-1.71-6-.52Zm-21.94-17,.07.13c.72,1.42,2,1.71,5.72.56L1232,282.7C1229,284.48,1228.23,286.05,1229,287.46Z"/><path class="cls-3" d="M1222.47,264.8l7-3.58a.35.35,0,0,1,.47.15l3.26,6.38a48.69,48.69,0,0,1,23.91-3.43.35.35,0,0,1,.3.4l-1.67,13.68a.36.36,0,0,1-.39.31,39.17,39.17,0,0,0-16.33,1.42l2.54,5c12.06-3.38,21.07-3.65,25.9,5.79l.07.13c4.59,9,.78,18.17-10.19,24.62l1.81,3.54a.36.36,0,0,1-.16.48l-7,3.58a.35.35,0,0,1-.48-.16l-1.92-3.75a39,39,0,0,1-18.49,2.54.36.36,0,0,1-.31-.39l1.23-13.54a.38.38,0,0,1,.13-.25.4.4,0,0,1,.28-.07,28.42,28.42,0,0,0,11.3-.76l-2.5-4.88c-11.69,3.29-20.48,3.47-25.39-6.13l-.07-.13c-4.39-8.59-.74-17.6,9.76-24.13l-3.22-6.31A.36.36,0,0,1,1222.47,264.8Zm7-2.79-6.37,3.26,3.21,6.29a.35.35,0,0,1-.13.46c-10.52,6.43-14.08,15-9.78,23.38l.07.13c4.74,9.28,13,9.06,24.85,5.69a.35.35,0,0,1,.41.18l2.82,5.52a.34.34,0,0,1,0,.31.32.32,0,0,1-.23.19,29.49,29.49,0,0,1-11.64.95l-1.17,12.83a38.27,38.27,0,0,0,18.11-2.65.35.35,0,0,1,.44.17l1.91,3.73,6.38-3.26-1.81-3.53a.35.35,0,0,1,.14-.46c10.84-6.25,14.65-15.16,10.21-23.86l-.07-.13c-4-7.88-11.14-9.38-25.36-5.35a.35.35,0,0,1-.41-.18l-2.86-5.59a.37.37,0,0,1,0-.29.34.34,0,0,1,.21-.2,39.36,39.36,0,0,1,16.68-1.63l1.59-13a48.07,48.07,0,0,0-23.5,3.55.35.35,0,0,1-.45-.17Zm2.31,20.37a.34.34,0,0,1,.26,0,.34.34,0,0,1,.22.17l2.79,5.46a.35.35,0,0,1,0,.3.34.34,0,0,1-.22.2c-3.73,1.14-5.28,1-6.14-.74l-.07-.13c-.88-1.71.18-3.47,3.13-5.23Zm2.45,5.56-2.43-4.74c-3.52,2.2-2.79,3.62-2.54,4.1l.06.13C1229.9,288.54,1230.83,288.93,1234.24,287.94Zm13.7,10.74.06,0c3.79-1.18,5.52-1,6.38.7l.07.14c.51,1,.76,3-3.39,5.27a.32.32,0,0,1-.27,0,.36.36,0,0,1-.21-.17l-2.79-5.46a.36.36,0,0,1,.15-.48ZM1251,304c2.46-1.39,3.44-2.86,2.78-4.15l-.07-.14c-.56-1.09-1.59-1.52-5.14-.47Z"/><rect class="cls-4" x="1463.84" y="-33.4" width="301.9" height="145.48" transform="translate(2651.25 1278.23) rotate(-131.31)"/><path class="cls-1" d="M1569.68,79a42.93,42.93,0,0,0,10.5,8.67l-17.76-20.2A43.05,43.05,0,0,0,1569.68,79Z"/><path class="cls-1" d="M1579-1.39c17.31-15.21,39.36-20.68,58.06-16.3L1581-81.51a22.63,22.63,0,0,1-27-1.38l-52.57,46.21a22.63,22.63,0,0,1-2.1,27l56.09,63.82C1553.43,35,1561.68,13.81,1579-1.39Z"/><path class="cls-1" d="M1650.59,80.08c-17.3,15.21-39.35,20.68-58.06,16.29l56.1,63.83a22.65,22.65,0,0,1,27,1.37l52.56-46.2a22.63,22.63,0,0,1,2.11-26.95l-56.1-63.83C1676.15,43.71,1667.89,64.87,1650.59,80.08Z"/><path class="cls-1" d="M1659.9-.3A43.39,43.39,0,0,0,1649.4-9l17.75,20.2A43.21,43.21,0,0,0,1659.9-.3Z"/><path class="cls-3" d="M1730.3,88.42a22.63,22.63,0,0,0-2.11,27l-52.56,46.2a22.65,22.65,0,0,0-27-1.37l-56.1-63.83a51.93,51.93,0,0,1-6.43-2L1648.18,165l.45-.4a19.05,19.05,0,0,1,26.88,1.74l57.46-50.5A19.05,19.05,0,0,1,1734.7,89l.46-.4L1673.07,18a51,51,0,0,1,1.13,6.63Z"/><path class="cls-3" d="M1554.06-87.69l-57.46,50.5a19,19,0,0,1-1.73,26.88l-.45.4,62.08,70.63a52.14,52.14,0,0,1-1.13-6.63L1499.28-9.73a22.63,22.63,0,0,0,2.1-26.95L1554-82.89a22.63,22.63,0,0,0,27,1.38L1637-17.69a53.74,53.74,0,0,1,6.43,2l-62.08-70.63-.45.39A19,19,0,0,1,1554.06-87.69Z"/><path class="cls-3" d="M1648.26,77.43c-18,15.85-41.52,20.56-60.11,14l4.38,5c18.71,4.39,40.76-1.08,58.06-16.29s25.56-36.37,23.61-55.49l-4.38-5C1674,38.9,1666.29,61.58,1648.26,77.43Z"/><path class="cls-3" d="M1581.32,1.26c18-15.85,41.51-20.57,60.1-14l-4.38-5c-18.7-4.38-40.75,1.09-58.06,16.3S1553.43,35,1555.37,54.09l4.38,5C1555.59,39.79,1563.28,17.11,1581.32,1.26Z"/><path class="cls-3" d="M1659.9-.3a43.21,43.21,0,0,1,7.25,11.52l5.92,6.74a47,47,0,0,0-29.6-33.68L1649.4-9A43.39,43.39,0,0,1,1659.9-.3Z"/><path class="cls-3" d="M1569.68,79a43.05,43.05,0,0,1-7.26-11.53l-5.92-6.74a47,47,0,0,0,29.6,33.69l-5.92-6.75A42.93,42.93,0,0,1,1569.68,79Z"/><path class="cls-3" d="M1669.82,19.62l4.38,5a51,51,0,0,0-1.13-6.63l-5.92-6.74A45.37,45.37,0,0,1,1669.82,19.62Z"/><path class="cls-3" d="M1588.15,91.39a44.52,44.52,0,0,1-8-3.73l5.92,6.75a51.93,51.93,0,0,0,6.43,2Z"/><path class="cls-3" d="M1559.75,59.07l-4.38-5a52.14,52.14,0,0,0,1.13,6.63l5.92,6.74A45,45,0,0,1,1559.75,59.07Z"/><circle class="cls-3" cx="1660.94" cy="174.14" r="3.79"/><circle class="cls-3" cx="1742.38" cy="102.56" r="3.79"/><path class="cls-3" d="M1635,24.62A48.1,48.1,0,0,1,1644.31,47l-13.67,1.74a39.17,39.17,0,0,0-5.67-16L1620.25,37c6.8,11.75,8.43,19.79,1,26.34l-.11.09c-7,6.2-16.67,5.69-26.12-4l-3.24,2.85-5.19-5.91,3.41-3a38.56,38.56,0,0,1-7.14-17.4l13.44-2.13A28.92,28.92,0,0,0,1600.05,45l4.66-4.09c-6.46-11.14-8.25-19.14-.52-25.93l.11-.1c7.5-6.59,17-4.59,25.54,3.74l5.57-4.9,5.2,5.91Zm-30.74,26.21c2.5,2.74,4.31,3,5.44,2l.12-.1c1.19-1,1.13-2.5-1-5.9Zm11.07-25.45-.11.1c-1.2,1.05-1.17,2.34.86,5.69l4.61-4.05C1618.2,24.66,1616.5,24.34,1615.31,25.38Z"/><path class="cls-3" d="M1635.68,13.53l5.19,5.91a.35.35,0,0,1,0,.5l-5.38,4.73a48.54,48.54,0,0,1,9.2,22.32.35.35,0,0,1-.3.4l-13.68,1.74a.35.35,0,0,1-.39-.3,39.2,39.2,0,0,0-5.4-15.48L1620.7,37c6.24,10.85,8.73,19.52.76,26.52l-.11.1c-7.58,6.67-17.42,5.23-26.37-3.82l-3,2.62a.34.34,0,0,1-.49,0l-5.2-5.91a.36.36,0,0,1,0-.5l3.17-2.78a38.9,38.9,0,0,1-7-17.3.37.37,0,0,1,.3-.4l13.43-2.13a.33.33,0,0,1,.27.07.33.33,0,0,1,.14.24,28.39,28.39,0,0,0,3.52,10.77l4.11-3.62c-6.07-10.52-8.41-19-.31-26.12l.12-.1c7.24-6.37,16.87-5,25.79,3.53l5.32-4.68A.35.35,0,0,1,1635.68,13.53Zm4.43,6.11-4.73-5.38-5.3,4.66a.35.35,0,0,1-.48,0c-8.82-8.62-18-10-25.07-3.73l-.11.1c-7.83,6.88-5.58,14.86.6,25.49a.37.37,0,0,1-.07.44l-4.66,4.1a.36.36,0,0,1-.3.08.35.35,0,0,1-.24-.17A29.62,29.62,0,0,1,1596,34.16l-12.72,2a38.31,38.31,0,0,0,7,16.9.34.34,0,0,1,0,.47l-3.14,2.76,4.72,5.38,3-2.61a.34.34,0,0,1,.48,0c8.72,9,18.3,10.47,25.63,4l.12-.1c6.64-5.84,6.35-13.1-1.06-25.89a.36.36,0,0,1,.07-.44l4.72-4.15a.32.32,0,0,1,.28-.08.37.37,0,0,1,.25.15,39.49,39.49,0,0,1,5.68,15.77l13-1.66a48.08,48.08,0,0,0-9.22-21.9.36.36,0,0,1,0-.48Zm-19.18,7.25a.38.38,0,0,1,.09.25.37.37,0,0,1-.12.25l-4.6,4.05a.38.38,0,0,1-.29.08.39.39,0,0,1-.25-.17c-2-3.33-2.22-4.88-.79-6.13l.11-.1c1.44-1.27,3.4-.68,5.84,1.75Zm-4.78,3.74,4-3.52c-3-2.87-4.2-1.81-4.61-1.46l-.11.1C1614.5,26.57,1614.35,27.57,1616.15,30.63Zm-7.05,15.92,0,.05c2.07,3.39,2.31,5.11.89,6.36l-.11.1c-.86.75-2.76,1.49-6-2a.34.34,0,0,1-.09-.25.37.37,0,0,1,.12-.25l4.61-4a.32.32,0,0,1,.28-.08A.33.33,0,0,1,1609.1,46.55Zm-4.36,4.31c2,2,3.62,2.63,4.71,1.67l.12-.1c.92-.81,1.08-1.92-.82-5.1Z"/><rect class="cls-4" x="-78.61" y="779.12" width="301.9" height="145.48" transform="translate(524.43 1577.48) rotate(152.93)"/><path class="cls-1" d="M99.67,905.34a43.48,43.48,0,0,0,11-8l-24,12.24A43.32,43.32,0,0,0,99.67,905.34Z"/><path class="cls-1" d="M24.05,876.55C13.56,856,13.68,833.32,22.54,816.26l-75.67,38.67a22.63,22.63,0,0,1-8,25.83l31.85,62.32a22.63,22.63,0,0,1,25.6,8.67L72,913.08C53,910.27,34.53,897.06,24.05,876.55Z"/><path class="cls-1" d="M120.63,827.18c10.48,20.51,10.36,43.23,1.51,60.28l75.66-38.67a22.62,22.62,0,0,1,8-25.83l-31.85-62.32A22.64,22.64,0,0,1,148.32,752L72.66,790.65C91.66,793.46,110.15,806.67,120.63,827.18Z"/><path class="cls-1" d="M45,798.39a43.06,43.06,0,0,0-11,8L58,794.19A43.26,43.26,0,0,0,45,798.39Z"/><path class="cls-3" d="M148.32,752a22.64,22.64,0,0,0,25.61,8.66L205.78,823a22.62,22.62,0,0,0-8,25.83l-75.66,38.67a50.57,50.57,0,0,1-3.49,5.75l83.74-42.79-.28-.54a19.06,19.06,0,0,1,8.29-25.63l-34.81-68.11A19,19,0,0,1,150,747.85l-.28-.54L66,790.11a52.17,52.17,0,0,1,6.71.54Z"/><path class="cls-3" d="M-65.73,879.47l34.82,68.12a19,19,0,0,1,25.62,8.29l.27.54,83.74-42.8a52.16,52.16,0,0,1-6.7-.54L-3.65,951.75a22.63,22.63,0,0,0-25.6-8.67L-61.1,880.76a22.63,22.63,0,0,0,8-25.83l75.67-38.67A52.38,52.38,0,0,1,26,810.51l-83.74,42.8.27.54A19,19,0,0,1-65.73,879.47Z"/><path class="cls-3" d="M117.49,828.79c10.92,21.38,9.72,45.3-1.25,61.69l5.9-3c8.85-17.05,9-39.77-1.51-60.28s-29-33.72-48-36.53l-5.91,3C86.47,794.38,106.56,807.41,117.49,828.79Z"/><path class="cls-3" d="M27.19,874.94c-10.93-21.38-9.72-45.3,1.25-61.69l-5.9,3c-8.86,17.06-9,39.77,1.51,60.29s29,33.72,48,36.53l5.9-3C58.21,909.35,38.12,896.32,27.19,874.94Z"/><path class="cls-3" d="M45,798.39a43.26,43.26,0,0,1,13-4.2l8-4.08A47,47,0,0,0,26,810.51l8-4.08A43.06,43.06,0,0,1,45,798.39Z"/><path class="cls-3" d="M99.67,905.34a43.32,43.32,0,0,1-13,4.2l-8,4.08a47,47,0,0,0,39.93-20.41l-8,4.09A43.48,43.48,0,0,1,99.67,905.34Z"/><path class="cls-3" d="M66.75,793.66l5.91-3a52.17,52.17,0,0,0-6.71-.54l-8,4.08A46.1,46.1,0,0,1,66.75,793.66Z"/><path class="cls-3" d="M28.44,813.25A44.64,44.64,0,0,1,34,806.43l-8,4.08a52.38,52.38,0,0,0-3.49,5.75Z"/><path class="cls-3" d="M116.24,890.48a45.75,45.75,0,0,1-5.58,6.82l8-4.09a50.57,50.57,0,0,0,3.49-5.75Z"/><path class="cls-3" d="M77.92,910.06l-5.9,3a52.16,52.16,0,0,0,6.7.54l8-4.08A45.29,45.29,0,0,1,77.92,910.06Z"/><circle class="cls-3" cx="214.34" cy="840.29" r="3.79"/><circle class="cls-3" cx="165" cy="743.74" r="3.79"/><path class="cls-3" d="M63,828.67a48.18,48.18,0,0,1,24-3.53l-1.67,13.68a39.38,39.38,0,0,0-16.88,1.57L71.37,846c13.07-3.7,21.26-3.3,25.77,5.53l.07.13c4.27,8.36,1.4,17.55-10.35,24.32l2,3.84-7,3.58-2.07-4A38.56,38.56,0,0,1,61.13,882l1.24-13.55a29.12,29.12,0,0,0,11.87-.88L71.41,862c-12.38,3.53-20.58,3.3-25.26-5.86l-.07-.14c-4.54-8.89-.26-17.63,9.91-23.84l-3.37-6.6,7-3.58Zm17.85,36.25c3.27-1.76,3.93-3.46,3.24-4.8l-.07-.14c-.72-1.41-2.15-1.71-6-.52Zm-21.94-17,.07.14c.72,1.41,2,1.7,5.72.56l-2.79-5.46C58.94,844.94,58.21,846.51,58.94,847.92Z"/><path class="cls-3" d="M52.45,825.26l7-3.58a.36.36,0,0,1,.48.16l3.26,6.38a48.42,48.42,0,0,1,23.9-3.43.36.36,0,0,1,.31.39l-1.67,13.69a.36.36,0,0,1-.39.3A39.06,39.06,0,0,0,69,840.6l2.54,5c12.06-3.39,21.08-3.66,25.9,5.78l.07.13c4.6,9,.79,18.18-10.19,24.62l1.81,3.54a.36.36,0,0,1-.15.48l-7,3.58a.34.34,0,0,1-.47-.16l-1.92-3.75a39,39,0,0,1-18.49,2.54.35.35,0,0,1-.32-.39L62,868.4a.31.31,0,0,1,.13-.25.37.37,0,0,1,.27-.07,28.41,28.41,0,0,0,11.3-.76l-2.49-4.88c-11.69,3.3-20.49,3.48-25.39-6.12l-.07-.14c-4.39-8.59-.74-17.59,9.76-24.13l-3.23-6.31A.36.36,0,0,1,52.45,825.26Zm7-2.79-6.38,3.26L56.3,832a.34.34,0,0,1-.13.46c-10.52,6.43-14.08,14.95-9.77,23.38l.07.13c4.74,9.28,13,9.06,24.85,5.69a.36.36,0,0,1,.41.18l2.82,5.53a.35.35,0,0,1,0,.3.35.35,0,0,1-.23.2,29.7,29.7,0,0,1-11.64.94l-1.17,12.83A38.11,38.11,0,0,0,79.62,879a.37.37,0,0,1,.45.17l1.9,3.73,6.38-3.26-1.8-3.53a.34.34,0,0,1,.14-.46c10.83-6.24,14.65-15.16,10.2-23.86l-.07-.13c-4-7.88-11.13-9.38-25.35-5.35a.34.34,0,0,1-.41-.17l-2.86-5.6a.33.33,0,0,1,0-.29.3.3,0,0,1,.21-.2,39.2,39.2,0,0,1,16.68-1.62l1.58-13A48.1,48.1,0,0,0,63.16,829a.34.34,0,0,1-.44-.16Zm2.31,20.37a.33.33,0,0,1,.26,0,.34.34,0,0,1,.21.18L65,848.45a.32.32,0,0,1,0,.3.34.34,0,0,1-.22.2c-3.72,1.15-5.27,1-6.14-.73l-.07-.14c-.87-1.71.18-3.46,3.14-5.23Zm2.44,5.56-2.42-4.74c-3.52,2.2-2.79,3.62-2.55,4.1l.07.13C59.89,849,60.82,849.39,64.22,848.4Zm13.71,10.75,0,0c3.79-1.17,5.52-1,6.38.7l.07.14c.52,1,.77,3-3.38,5.27a.34.34,0,0,1-.28,0,.35.35,0,0,1-.21-.17l-2.79-5.46a.39.39,0,0,1,0-.3A.4.4,0,0,1,77.93,859.15Zm3.1,5.28c2.45-1.39,3.44-2.86,2.77-4.15l-.07-.14c-.55-1.09-1.59-1.52-5.13-.46Z"/><rect class="cls-4" x="947.11" y="449.61" width="301.9" height="145.48" transform="translate(993.35 1733.8) rotate(-110.5)"/><path class="cls-1" d="M1041.8,543.38a43.46,43.46,0,0,0,6.74,11.84L1039.12,530A43.15,43.15,0,0,0,1041.8,543.38Z"/><path class="cls-1" d="M1079.06,471.55c21.58-8.07,44.14-5.35,60.06,5.4l-29.76-79.59a22.62,22.62,0,0,1-24.74-10.88L1019.06,411a22.61,22.61,0,0,1-11.54,24.44l29.76,79.6C1042.25,496.47,1057.49,479.62,1079.06,471.55Z"/><path class="cls-1" d="M1117.05,573.15c-21.58,8.07-44.13,5.35-60.06-5.4l29.76,79.59a22.64,22.64,0,0,1,24.75,10.88l65.55-24.51a22.63,22.63,0,0,1,11.55-24.44l-29.76-79.6C1153.86,548.23,1138.63,565.08,1117.05,573.15Z"/><path class="cls-1" d="M1154.31,501.32a43.17,43.17,0,0,0-6.73-11.84l9.42,25.19A43.16,43.16,0,0,0,1154.31,501.32Z"/><path class="cls-3" d="M1188.6,609.27a22.63,22.63,0,0,0-11.55,24.44l-65.55,24.51a22.64,22.64,0,0,0-24.75-10.88L1057,567.75a53.37,53.37,0,0,1-5.31-4.12l32.93,88.08.57-.21a19.05,19.05,0,0,1,24.51,11.17l71.65-26.79a19.05,19.05,0,0,1,11.17-24.51l.56-.21-32.93-88.09a53.45,53.45,0,0,1-1.3,6.6Z"/><path class="cls-3" d="M1086.43,382l-71.65,26.79a19.05,19.05,0,0,1-11.17,24.51l-.57.21L1036,521.63a51.66,51.66,0,0,1,1.3-6.6l-29.76-79.6A22.61,22.61,0,0,0,1019.06,411l65.56-24.51a22.62,22.62,0,0,0,24.74,10.88L1139.12,477a53.5,53.5,0,0,1,5.32,4.12L1111.5,393l-.56.21A19,19,0,0,1,1086.43,382Z"/><path class="cls-3" d="M1115.81,569.84c-22.48,8.41-46.11,4.47-61.14-8.3l2.32,6.21c15.93,10.75,38.48,13.47,60.06,5.4s36.81-24.92,41.79-43.48l-2.33-6.21C1153.55,543,1138.3,561.43,1115.81,569.84Z"/><path class="cls-3" d="M1080.3,474.86c22.49-8.41,46.11-4.48,61.14,8.3l-2.32-6.21c-15.92-10.75-38.48-13.47-60.06-5.4s-36.81,24.92-41.78,43.48l2.32,6.21C1042.56,501.74,1057.81,483.27,1080.3,474.86Z"/><path class="cls-3" d="M1154.31,501.32a43.16,43.16,0,0,1,2.69,13.35l3.14,8.4a47,47,0,0,0-15.7-42l3.14,8.41A43.17,43.17,0,0,1,1154.31,501.32Z"/><path class="cls-3" d="M1041.8,543.38a43.15,43.15,0,0,1-2.68-13.35l-3.14-8.4a47,47,0,0,0,15.7,42l-3.14-8.41A43.46,43.46,0,0,1,1041.8,543.38Z"/><path class="cls-3" d="M1156.51,523.46l2.33,6.21a53.45,53.45,0,0,0,1.3-6.6l-3.14-8.4A45.46,45.46,0,0,1,1156.51,523.46Z"/><path class="cls-3" d="M1141.44,483.16a45.27,45.27,0,0,1,6.14,6.32l-3.14-8.41a53.5,53.5,0,0,0-5.32-4.12Z"/><path class="cls-3" d="M1054.67,561.54a45.2,45.2,0,0,1-6.13-6.32l3.14,8.41a53.37,53.37,0,0,0,5.31,4.12Z"/><path class="cls-3" d="M1039.6,521.24l-2.32-6.21a51.66,51.66,0,0,0-1.3,6.6l3.14,8.4A45.45,45.45,0,0,1,1039.6,521.24Z"/><circle class="cls-3" cx="1093.31" cy="664.75" r="3.79"/><circle class="cls-3" cx="1194.87" cy="626.78" r="3.79"/><circle class="cls-3" cx="1001.05" cy="418" r="3.79"/><circle class="cls-3" cx="1102.61" cy="380.03" r="3.79"/><path class="cls-3" d="M1122.17,515.76a48.21,48.21,0,0,1,.75,24.27l-13.4-3.23a39.1,39.1,0,0,0,.37-16.94l-5.88,2.2c2.18,13.4.85,21.5-8.44,25l-.14.05c-8.79,3.29-17.59-.61-23-13.06l-4,1.51-2.75-7.37,4.25-1.59a38.5,38.5,0,0,1-.48-18.8l13.31,2.78a29,29,0,0,0-.48,11.89l5.81-2.17c-2.09-12.71-.92-20.82,8.72-24.43l.14,0c9.36-3.5,17.54,1.76,22.55,12.57l7-2.6,2.75,7.37Zm-38.06,13.58c1.37,3.45,3,4.3,4.4,3.77l.14-.06c1.49-.55,1.94-1.93,1.2-5.86Zm19.4-19.85-.14.05c-1.49.56-1.93,1.77-1.21,5.62l5.74-2.14C1106.47,509.84,1105,508.93,1103.51,509.49Z"/><path class="cls-3" d="M1126.76,505.64l2.76,7.37a.37.37,0,0,1-.21.46l-6.71,2.5a48.55,48.55,0,0,1,.67,24.15.36.36,0,0,1-.43.25l-13.4-3.22a.35.35,0,0,1-.26-.42,39.13,39.13,0,0,0,.45-16.39l-5.23,1.95c2,12.37,1.23,21.36-8.7,25.07l-.15,0c-9.45,3.54-18.14-1.3-23.29-12.94l-3.72,1.39a.36.36,0,0,1-.46-.2l-2.75-7.37a.35.35,0,0,1,.21-.46l4-1.48a38.78,38.78,0,0,1-.41-18.65.35.35,0,0,1,.42-.27l13.31,2.77a.35.35,0,0,1,.27.44,28.66,28.66,0,0,0-.54,11.32l5.14-1.92c-1.94-12-1.11-20.75,9-24.53l.14-.05c9-3.38,17.56,1.28,22.85,12.46l6.65-2.49A.36.36,0,0,1,1126.76,505.64Zm2,7.29-2.51-6.71-6.61,2.47a.35.35,0,0,1-.45-.18c-5.18-11.19-13.24-15.7-22.1-12.39l-.15.06c-9.76,3.65-10.48,11.9-8.49,24a.35.35,0,0,1-.23.39l-5.81,2.17a.35.35,0,0,1-.3,0,.39.39,0,0,1-.17-.25,29.68,29.68,0,0,1,.39-11.68l-12.6-2.63a38.22,38.22,0,0,0,.55,18.29.34.34,0,0,1-.22.42l-3.92,1.47,2.51,6.71,3.71-1.39a.36.36,0,0,1,.45.19c5,11.48,13.38,16.29,22.53,12.87l.14,0c8.29-3.1,10.59-10,8.21-24.58a.36.36,0,0,1,.22-.39l5.89-2.2a.37.37,0,0,1,.29,0,.4.4,0,0,1,.18.24,39.33,39.33,0,0,1-.3,16.75l12.72,3.07a48,48,0,0,0-.83-23.76.34.34,0,0,1,.21-.42Zm-20.5,0a.33.33,0,0,1,0,.26.39.39,0,0,1-.2.2l-5.74,2.14a.35.35,0,0,1-.47-.26c-.71-3.84-.35-5.35,1.43-6l.14,0c1.8-.67,3.43.57,4.84,3.71Zm-5.8,1.79,5-1.86c-1.79-3.75-3.29-3.19-3.79-3l-.14.05C1102.32,510.31,1101.83,511.19,1102.43,514.68Zm-12.25,12.39a.14.14,0,0,1,0,.06c.74,3.9.35,5.59-1.42,6.26l-.15.05c-1.06.4-3.11.41-4.85-4a.32.32,0,0,1,0-.27.34.34,0,0,1,.2-.19l5.74-2.15a.39.39,0,0,1,.3,0A.3.3,0,0,1,1090.18,527.07Zm-5.6,2.47c1.1,2.6,2.44,3.75,3.81,3.24l.14-.06c1.15-.42,1.69-1.4,1-5.05Z"/><rect class="cls-4" x="1725.25" y="616.24" width="301.9" height="145.48" transform="translate(1887.93 2687.66) rotate(-110.5)"/><path class="cls-1" d="M1820,710a43.32,43.32,0,0,0,6.73,11.84l-9.42-25.19A43.51,43.51,0,0,0,1820,710Z"/><path class="cls-1" d="M1857.21,638.19c21.58-8.07,44.13-5.35,60.06,5.39L1887.51,564a22.64,22.64,0,0,1-24.75-10.88l-65.55,24.51a22.65,22.65,0,0,1-11.55,24.45l29.76,79.59C1820.4,663.1,1835.63,646.25,1857.21,638.19Z"/><path class="cls-1" d="M1895.2,739.78c-21.58,8.07-44.14,5.35-60.06-5.39L1864.9,814a22.62,22.62,0,0,1,24.74,10.88l65.56-24.52a22.62,22.62,0,0,1,11.54-24.44L1937,696.31C1932,714.87,1916.77,731.72,1895.2,739.78Z"/><path class="cls-3" d="M1966.74,775.9a22.62,22.62,0,0,0-11.54,24.44l-65.56,24.52A22.62,22.62,0,0,0,1864.9,814l-29.76-79.59a52.33,52.33,0,0,1-5.31-4.13l32.93,88.09.56-.22a19,19,0,0,1,24.51,11.17l71.66-26.79a19,19,0,0,1,11.16-24.5l.57-.22-32.94-88.08a52,52,0,0,1-1.3,6.6Z"/><path class="cls-3" d="M1864.57,548.67l-71.65,26.79a19,19,0,0,1-11.17,24.5l-.56.22,32.93,88.08a53.82,53.82,0,0,1,1.3-6.6l-29.76-79.59a22.65,22.65,0,0,0,11.55-24.45l65.55-24.51A22.64,22.64,0,0,0,1887.51,564l29.76,79.59a53.47,53.47,0,0,1,5.31,4.13l-32.93-88.09-.57.21A19,19,0,0,1,1864.57,548.67Z"/><path class="cls-3" d="M1894,736.48c-22.49,8.4-46.11,4.47-61.14-8.3l2.32,6.21c15.92,10.74,38.48,13.46,60.06,5.39S1932,714.87,1937,696.31l-2.32-6.21C1931.7,709.6,1916.45,728.07,1894,736.48Z"/><path class="cls-3" d="M1858.45,641.49c22.48-8.4,46.11-4.47,61.14,8.3l-2.32-6.21c-15.93-10.74-38.48-13.46-60.06-5.39s-36.81,24.91-41.79,43.47l2.33,6.21C1820.71,668.37,1836,649.9,1858.45,641.49Z"/><path class="cls-3" d="M1820,710a43.51,43.51,0,0,1-2.69-13.35l-3.14-8.41a47,47,0,0,0,15.71,42l-3.15-8.4A43.32,43.32,0,0,1,1820,710Z"/><path class="cls-3" d="M1919.59,649.79a46.32,46.32,0,0,1,6.13,6.32l-3.14-8.4a53.47,53.47,0,0,0-5.31-4.13Z"/><path class="cls-3" d="M1832.82,728.18a46.4,46.4,0,0,1-6.14-6.32l3.15,8.4a52.33,52.33,0,0,0,5.31,4.13Z"/><path class="cls-3" d="M1817.75,687.87l-2.33-6.21a53.82,53.82,0,0,0-1.3,6.6l3.14,8.41A45.52,45.52,0,0,1,1817.75,687.87Z"/><circle class="cls-3" cx="1871.45" cy="831.38" r="3.79"/><circle class="cls-3" cx="1779.19" cy="584.63" r="3.79"/><circle class="cls-3" cx="1880.75" cy="546.66" r="3.79"/><path class="cls-3" d="M1900.31,682.39a48.15,48.15,0,0,1,.76,24.28l-13.4-3.23a39.26,39.26,0,0,0,.37-16.94l-5.89,2.2c2.19,13.4.85,21.49-8.43,25l-.14.06c-8.79,3.28-17.6-.61-23-13.06l-4,1.51-2.76-7.37,4.26-1.59a38.51,38.51,0,0,1-.49-18.8l13.32,2.77a29.07,29.07,0,0,0-.48,11.9l5.81-2.18c-2.09-12.71-.92-20.82,8.72-24.42l.14-.05c9.35-3.5,17.54,1.76,22.55,12.57l6.94-2.6,2.76,7.37Zm-38,13.59c1.37,3.44,3,4.29,4.39,3.76l.15,0c1.48-.56,1.94-1.94,1.2-5.86Zm19.39-19.86-.14.06c-1.49.55-1.92,1.77-1.21,5.62l5.74-2.15C1884.61,676.47,1883.14,675.57,1881.65,676.12Z"/><path class="cls-3" d="M1904.9,672.28l2.76,7.37a.34.34,0,0,1-.21.45l-6.71,2.51a48.51,48.51,0,0,1,.67,24.14.35.35,0,0,1-.42.26l-13.41-3.23a.36.36,0,0,1-.26-.42,39.3,39.3,0,0,0,.46-16.39l-5.23,2c2,12.36,1.22,21.35-8.71,25.06l-.14.06c-9.46,3.53-18.15-1.3-23.29-12.94l-3.73,1.39a.35.35,0,0,1-.45-.21l-2.76-7.37a.35.35,0,0,1,.21-.45l4-1.48a38.82,38.82,0,0,1-.4-18.66.34.34,0,0,1,.41-.27l13.32,2.78a.38.38,0,0,1,.23.16.38.38,0,0,1,0,.28,28.43,28.43,0,0,0-.54,11.31l5.13-1.92c-1.93-12-1.11-20.74,9-24.52l.14,0c9-3.38,17.57,1.27,22.86,12.45l6.64-2.48A.34.34,0,0,1,1904.9,672.28Zm2,7.28-2.5-6.71-6.62,2.48a.36.36,0,0,1-.44-.18c-5.19-11.19-13.24-15.71-22.11-12.39l-.14,0c-9.76,3.65-10.49,11.9-8.5,24a.34.34,0,0,1-.22.38l-5.81,2.18a.39.39,0,0,1-.3,0,.34.34,0,0,1-.17-.25,29.68,29.68,0,0,1,.39-11.68l-12.61-2.62a38.23,38.23,0,0,0,.56,18.29.36.36,0,0,1-.22.42l-3.92,1.47,2.51,6.7,3.71-1.38a.33.33,0,0,1,.44.19c5,11.47,13.39,16.28,22.53,12.86l.14,0c8.29-3.1,10.59-10,8.21-24.58a.36.36,0,0,1,.23-.38l5.88-2.2a.33.33,0,0,1,.29,0,.32.32,0,0,1,.18.23,39.38,39.38,0,0,1-.3,16.76l12.73,3.06a48,48,0,0,0-.84-23.75.36.36,0,0,1,.22-.43Zm-20.5,0a.39.39,0,0,1,0,.26.34.34,0,0,1-.2.19l-5.75,2.15a.33.33,0,0,1-.29,0,.37.37,0,0,1-.18-.25c-.71-3.83-.34-5.35,1.44-6l.14-.05c1.8-.67,3.42.58,4.83,3.72Zm-5.8,1.79,5-1.87c-1.79-3.74-3.28-3.18-3.78-3l-.14.06C1880.47,676.94,1880,677.82,1880.57,681.32Zm-12.24,12.39s0,0,0,0c.73,3.9.35,5.6-1.43,6.26l-.14.05c-1.07.4-3.11.42-4.85-4a.39.39,0,0,1,0-.28.35.35,0,0,1,.2-.18l5.74-2.15a.35.35,0,0,1,.3,0A.38.38,0,0,1,1868.33,693.71Zm-5.61,2.47c1.1,2.6,2.45,3.74,3.81,3.23l.14,0c1.15-.43,1.69-1.41,1.06-5.05Z"/><rect class="cls-4" x="620.59" y="67.73" width="247.19" height="247.19" transform="translate(-19.73 274.11) rotate(-20.6)"/><rect class="cls-3" x="723.54" y="67.73" width="41.3" height="247.19" transform="translate(-19.73 274.11) rotate(-20.6)"/><rect class="cls-3" x="723.54" y="67.73" width="41.3" height="247.19" transform="translate(661.4 -572.59) rotate(69.4)"/><path class="cls-4" d="M700.69,75.63,645.26,96.47s-44.36,16-56.57-17S651.56,24,700.69,75.63Z"/><path class="cls-4" d="M700.69,75.63l55.43-20.84s43.94-17.16,31.36-50.07S703.67,4.44,700.69,75.63Z"/><path class="cls-4" d="M700.69,75.63s-101.55-68-35.41-94.21C726.16-42.73,700.69,75.63,700.69,75.63Z"/><rect class="cls-4" x="390.97" y="665.26" width="247.19" height="247.19" transform="translate(754.33 -121.96) rotate(47.86)"/><rect class="cls-3" x="493.91" y="665.26" width="41.3" height="247.19" transform="translate(754.33 -121.96) rotate(47.86)"/><rect class="cls-3" x="493.91" y="665.26" width="41.3" height="247.19" transform="translate(1425.38 1028.62) rotate(137.86)"/><path class="cls-4" d="M606.22,705.94,566.49,662s-31.2-35.38-4.94-58.87S636.19,641.29,606.22,705.94Z"/><path class="cls-4" d="M606.22,705.94,646,749.85S678,784.42,704,760.64,673.54,682.57,606.22,705.94Z"/><path class="cls-4" d="M606.22,705.94s25.95-119.42,74.64-67.53C725.67,686.19,606.22,705.94,606.22,705.94Z"/><rect class="cls-4" x="1385.54" y="493.37" width="247.19" height="247.19" transform="translate(287.68 -462.93) rotate(19.24)"/><rect class="cls-3" x="1488.49" y="493.37" width="41.3" height="247.19" transform="translate(287.68 -462.93) rotate(19.24)"/><rect class="cls-3" x="1488.49" y="493.37" width="41.3" height="247.19" transform="translate(2589.04 -604.49) rotate(109.24)"/><path class="cls-4" d="M1549.88,500.28,1494,480.76s-44.34-16.12-32.54-49.31S1545.21,429.18,1549.88,500.28Z"/><path class="cls-4" d="M1549.88,500.28l55.9,19.52s44.74,15,56.16-18.35S1597.78,447.53,1549.88,500.28Z"/><path class="cls-4" d="M1549.88,500.28s-34.42-117.26,33.17-95C1645.27,425.72,1549.88,500.28,1549.88,500.28Z"/><rect class="cls-4" x="1232.65" y="977.46" width="247.19" height="247.19" transform="translate(-388.27 1009.49) rotate(-36.07)"/><rect class="cls-3" x="1335.6" y="977.46" width="41.3" height="247.19" transform="translate(-388.27 1009.49) rotate(-36.07)"/><rect class="cls-3" x="1335.6" y="977.46" width="41.3" height="247.19" transform="translate(1447.81 -643.47) rotate(53.93)"/><path class="cls-4" d="M1283.49,1001.15,1235.62,1036s-38.49,27.28-59.06-1.31S1222.37,964.51,1283.49,1001.15Z"/><path class="cls-4" d="M1283.49,1001.15l47.86-34.87s37.78-28.26,16.87-56.61S1267.37,931.74,1283.49,1001.15Z"/><path class="cls-4" d="M1283.49,1001.15s-116-38.44-59.26-81.36C1276.47,880.27,1283.49,1001.15,1283.49,1001.15Z"/><rect class="cls-4" x="14.58" y="-51.48" width="247.19" height="247.19" transform="translate(-16.52 53.08) rotate(-20.55)"/><rect class="cls-3" x="117.53" y="-51.48" width="41.3" height="247.19" transform="translate(-16.52 53.08) rotate(-20.55)"/><rect class="cls-3" x="117.53" y="-51.48" width="41.3" height="247.19" transform="translate(157.21 -82.58) rotate(69.45)"/><rect class="cls-4" x="211.45" y="341.9" width="301.9" height="145.48" transform="translate(424.4 961.83) rotate(-145.31)"/><path class="cls-1" d="M328.22,464a43.23,43.23,0,0,0,12.28,5.88l-22.11-15.3A43.18,43.18,0,0,0,328.22,464Z"/><path class="cls-1" d="M317.8,383.78c13.11-18.94,33.19-29.59,52.4-29.86l-69.87-48.36a22.62,22.62,0,0,1-26.53,5.2L234,368.31A22.65,22.65,0,0,1,238.45,395l69.87,48.36C301.8,425.25,304.69,402.72,317.8,383.78Z"/><path class="cls-1" d="M407,445.51c-13.11,18.94-33.18,29.58-52.39,29.85l69.87,48.36A22.63,22.63,0,0,1,451,518.53L490.83,461a22.63,22.63,0,0,1-4.48-26.66L416.48,386C423,404,420.1,426.57,407,445.51Z"/><path class="cls-1" d="M396.58,365.26a43,43,0,0,0-12.29-5.87l22.11,15.3A43.18,43.18,0,0,0,396.58,365.26Z"/><path class="cls-3" d="M486.35,434.32A22.63,22.63,0,0,0,490.83,461L451,518.53a22.63,22.63,0,0,0-26.53,5.19L354.6,475.36a51.8,51.8,0,0,1-6.72-.35l77.33,53.52.34-.5a19.05,19.05,0,0,1,26.5-4.82l43.53-62.9a19.06,19.06,0,0,1-4.82-26.5l.35-.49L413.78,379.8a51.28,51.28,0,0,1,2.7,6.16Z"/><path class="cls-3" d="M272.75,306.07,229.21,369a19,19,0,0,1,4.82,26.5l-.34.5L311,449.49a51.93,51.93,0,0,1-2.69-6.16L238.45,395A22.65,22.65,0,0,0,234,368.31l39.83-57.55a22.62,22.62,0,0,0,26.53-5.2l69.87,48.36a51.74,51.74,0,0,1,6.71.36l-77.32-53.52-.35.49A19,19,0,0,1,272.75,306.07Z"/><path class="cls-3" d="M404.09,443.5c-13.67,19.74-35.31,30-54.94,28.09l5.45,3.77c19.21-.27,39.28-10.91,52.39-29.85S423,404,416.48,386L411,382.19C419.73,399.89,417.75,423.76,404.09,443.5Z"/><path class="cls-3" d="M320.71,385.79c13.66-19.74,35.3-30,54.94-28.09l-5.45-3.78c-19.21.27-39.29,10.92-52.4,29.86s-16,41.47-9.48,59.55l5.45,3.77C305.07,429.4,307,405.53,320.71,385.79Z"/><path class="cls-3" d="M396.58,365.26a43.18,43.18,0,0,1,9.82,9.43l7.38,5.11a47,47,0,0,0-36.87-25.52l7.38,5.11A43,43,0,0,1,396.58,365.26Z"/><path class="cls-3" d="M328.22,464a43.18,43.18,0,0,1-9.83-9.42L311,449.49A47,47,0,0,0,347.88,475l-7.38-5.11A43.23,43.23,0,0,1,328.22,464Z"/><path class="cls-3" d="M411,382.19l5.45,3.77a51.28,51.28,0,0,0-2.7-6.16l-7.38-5.11A45.44,45.44,0,0,1,411,382.19Z"/><path class="cls-3" d="M375.65,357.7a45.07,45.07,0,0,1,8.64,1.69l-7.38-5.11a51.74,51.74,0,0,0-6.71-.36Z"/><path class="cls-3" d="M349.15,471.59a46.11,46.11,0,0,1-8.65-1.69l7.38,5.11a51.8,51.8,0,0,0,6.72.35Z"/><path class="cls-3" d="M313.77,447.1l-5.45-3.77a51.93,51.93,0,0,0,2.69,6.16l7.38,5.11A45.38,45.38,0,0,1,313.77,447.1Z"/><circle class="cls-3" cx="439.79" cy="534.27" r="3.79"/><circle class="cls-3" cx="501.5" cy="445.12" r="3.79"/><circle class="cls-3" cx="223.18" cy="384.34" r="3.79"/><circle class="cls-3" cx="284.89" cy="295.19" r="3.79"/><path class="cls-3" d="M378.43,395.47A48.23,48.23,0,0,1,392.91,415l-12.85,5a39,39,0,0,0-9.37-14.12L367.12,411c9.44,9.76,13,17.16,7.32,25.31l-.08.13c-5.34,7.71-14.8,9.54-26.32,2.39l-2.46,3.55-6.46-4.48,2.58-3.73A38.53,38.53,0,0,1,330.57,419l12.51-5.32a29.29,29.29,0,0,0,6.4,10l3.53-5.11c-9-9.24-12.64-16.57-6.78-25l.08-.12c5.69-8.21,15.41-8.57,25.69-2.55l4.22-6.1,6.47,4.48Zm-23.49,32.87c3.09,2.05,4.9,1.83,5.76.59l.09-.13c.9-1.3.49-2.7-2.36-5.5ZM359.53,401l-.09.13c-.9,1.3-.56,2.55,2.22,5.3l3.49-5C362.16,399.57,360.43,399.67,359.53,401Z"/><path class="cls-3" d="M376.42,384.54l6.47,4.48a.35.35,0,0,1,.09.49l-4.07,5.89a48.65,48.65,0,0,1,14.33,19.44.35.35,0,0,1-.2.45l-12.85,5a.36.36,0,0,1-.46-.2,39.15,39.15,0,0,0-9-13.72L367.57,411c8.69,9,13.2,16.84,7.16,25.55l-.08.13c-5.75,8.3-15.64,9.29-26.51,2.67l-2.27,3.27a.35.35,0,0,1-.49.09l-6.47-4.48a.35.35,0,0,1-.09-.49l2.41-3.47a38.81,38.81,0,0,1-11-15.09.34.34,0,0,1,.19-.45L343,413.37a.45.45,0,0,1,.28,0,.43.43,0,0,1,.19.21,28.48,28.48,0,0,0,6,9.6l3.11-4.51c-8.43-8.74-12.75-16.4-6.61-25.27l.08-.12c5.49-7.94,15.15-9,25.88-2.82l4-5.83A.35.35,0,0,1,376.42,384.54Zm5.78,4.86-5.89-4.08-4,5.81a.35.35,0,0,1-.46.1C361.18,385,352,385.9,346.6,393.68l-.08.13c-5.93,8.56-1.82,15.75,6.74,24.58a.35.35,0,0,1,0,.45l-3.53,5.1a.36.36,0,0,1-.55,0,29.83,29.83,0,0,1-6.34-9.81l-11.85,5a38.27,38.27,0,0,0,10.9,14.7.35.35,0,0,1,.06.47l-2.38,3.44,5.89,4.08,2.25-3.26a.35.35,0,0,1,.47-.1c10.63,6.59,20.29,5.74,25.85-2.29l.08-.13c5-7.27,3-14.24-7.28-24.86a.35.35,0,0,1,0-.45l3.57-5.17a.36.36,0,0,1,.26-.14.3.3,0,0,1,.27.09,39.18,39.18,0,0,1,9.32,13.92l12.2-4.75a48.08,48.08,0,0,0-14.24-19,.35.35,0,0,1-.07-.47Zm-16.85,11.67a.37.37,0,0,1,.09.49l-3.49,5a.31.31,0,0,1-.26.15.34.34,0,0,1-.28-.1c-2.77-2.74-3.34-4.19-2.26-5.76l.09-.12c1.09-1.58,3.14-1.48,6.09.29Zm-3.74,4.78,3-4.37c-3.61-2.06-4.52-.75-4.82-.31l-.09.13C359,402.32,359.12,403.33,361.61,405.85Zm-3,17.16,0,0c2.83,2.78,3.49,4.4,2.41,5.95l-.09.13c-.65.93-2.32,2.11-6.25-.49a.36.36,0,0,1-.15-.23.33.33,0,0,1,.06-.27l3.49-5a.37.37,0,0,1,.25-.15A.39.39,0,0,1,358.63,423Zm-3.19,5.24c2.38,1.5,4.14,1.67,5,.48l.09-.13c.69-1,.58-2.12-2-4.75Z"/><rect class="cls-4" x="744.88" y="881.19" width="301.9" height="145.48" transform="translate(2174.36 1233.01) rotate(145.51)"/><path class="cls-1" d="M929.84,1003.43A43,43,0,0,0,939.7,994l-22.17,15.23A43.28,43.28,0,0,0,929.84,1003.43Z"/><path class="cls-1" d="M851.13,984.64c-13-19-15.85-41.53-9.27-59.59l-70.05,48.12a22.62,22.62,0,0,1-4.57,26.64l39.63,57.69a22.62,22.62,0,0,1,26.51,5.29l70-48.11C884.21,1014.34,864.18,1003.62,851.13,984.64Z"/><path class="cls-1" d="M940.54,923.22c13,19,15.85,41.53,9.28,59.59l70-48.12a22.62,22.62,0,0,1,4.57-26.64l-39.62-57.69a22.62,22.62,0,0,1-26.51-5.29l-70,48.11C907.46,893.52,927.5,904.24,940.54,923.22Z"/><path class="cls-1" d="M861.83,904.43a43.19,43.19,0,0,0-9.86,9.39l22.17-15.22A43.11,43.11,0,0,0,861.83,904.43Z"/><path class="cls-3" d="M958.3,845.07a22.62,22.62,0,0,0,26.51,5.29l39.62,57.69a22.62,22.62,0,0,0-4.57,26.64l-70,48.12A52.89,52.89,0,0,1,947.1,989l77.51-53.25-.34-.49a19,19,0,0,1,4.92-26.48l-43.32-63.06a19,19,0,0,1-26.48-4.91l-.34-.5-77.51,53.24a51.73,51.73,0,0,1,6.71-.33Z"/><path class="cls-3" d="M762.49,999.12l43.31,63.06a19,19,0,0,1,26.48,4.91l.34.5,77.52-53.24a51.89,51.89,0,0,1-6.72.33l-70,48.11a22.62,22.62,0,0,0-26.51-5.29l-39.63-57.69a22.62,22.62,0,0,0,4.57-26.64l70.05-48.12a52,52,0,0,1,2.72-6.15l-77.52,53.25.34.49A19,19,0,0,1,762.49,999.12Z"/><path class="cls-3" d="M937.63,925.22c13.59,19.79,15.48,43.67,6.72,61.34l5.47-3.75c6.57-18.06,3.76-40.6-9.28-59.59s-33.08-29.7-52.29-30l-5.46,3.76C902.43,895.1,924,905.43,937.63,925.22Z"/><path class="cls-3" d="M854,982.64c-13.59-19.79-15.48-43.67-6.72-61.34l-5.46,3.75c-6.58,18.06-3.77,40.6,9.27,59.59s33.08,29.7,52.29,30l5.46-3.76C889.24,1012.76,867.64,1002.43,854,982.64Z"/><path class="cls-3" d="M861.83,904.43a43.11,43.11,0,0,1,12.31-5.83l7.4-5.09a47,47,0,0,0-37,25.39l7.39-5.08A43.19,43.19,0,0,1,861.83,904.43Z"/><path class="cls-3" d="M929.84,1003.43a43.28,43.28,0,0,1-12.31,5.84l-7.39,5.08a47.05,47.05,0,0,0,37-25.39L939.7,994A43,43,0,0,1,929.84,1003.43Z"/><path class="cls-3" d="M882.79,896.94l5.46-3.76a51.73,51.73,0,0,0-6.71.33l-7.4,5.09A45.27,45.27,0,0,1,882.79,896.94Z"/><path class="cls-3" d="M847.32,921.3a46,46,0,0,1,4.65-7.48l-7.39,5.08a52,52,0,0,0-2.72,6.15Z"/><path class="cls-3" d="M944.35,986.56A45,45,0,0,1,939.7,994l7.4-5.08a52.89,52.89,0,0,0,2.72-6.15Z"/><path class="cls-3" d="M908.88,1010.92l-5.46,3.76a51.89,51.89,0,0,0,6.72-.33l7.39-5.08A45.1,45.1,0,0,1,908.88,1010.92Z"/><circle class="cls-3" cx="1035.16" cy="924.13" r="3.79"/><circle class="cls-3" cx="973.77" cy="834.75" r="3.79"/><circle class="cls-3" cx="818.02" cy="1073.28" r="3.79"/><circle class="cls-3" cx="756.63" cy="983.91" r="3.79"/><path class="cls-3" d="M883.61,932.13a48.12,48.12,0,0,1,23.37-6.6l.11,13.78a39.2,39.2,0,0,0-16.53,3.74l3.56,5.17c12.48-5.35,20.65-6,26.26,2.16l.09.12c5.31,7.74,3.66,17.22-7.12,25.45l2.44,3.56L909.31,984l-2.57-3.74a38.57,38.57,0,0,1-18.13,5l-.52-13.59a29.16,29.16,0,0,0,11.65-2.41l-3.51-5.12c-11.83,5.1-20,5.93-25.81-2.55l-.08-.13c-5.66-8.23-2.53-17.45,6.74-24.92l-4.19-6.11,6.48-4.46ZM906,965.77c3-2.16,3.45-3.93,2.59-5.17l-.08-.13c-.9-1.31-2.35-1.42-6,.25Zm-24-14,.08.12c.9,1.31,2.19,1.44,5.75-.18l-3.47-5.05C881.66,948.8,881.14,950.44,882,951.75Z"/><path class="cls-3" d="M872.69,930.12l6.48-4.46a.35.35,0,0,1,.49.09l4.06,5.91A48.62,48.62,0,0,1,907,925.17a.36.36,0,0,1,.36.36l.11,13.78a.37.37,0,0,1-.35.36,39,39,0,0,0-16,3.52l3.16,4.6c11.52-4.91,20.42-6.35,26.42,2.39l.09.12c5.72,8.32,3.12,17.92-6.93,25.73l2.25,3.28a.35.35,0,0,1-.09.49l-6.48,4.45a.34.34,0,0,1-.49-.09l-2.39-3.47a38.89,38.89,0,0,1-18,4.9.36.36,0,0,1-.36-.34l-.53-13.59a.36.36,0,0,1,.11-.26.34.34,0,0,1,.25-.11,28.42,28.42,0,0,0,11.11-2.21l-3.1-4.52c-11.17,4.78-19.86,6.09-26-2.8l-.08-.12c-5.47-7.95-3-17.35,6.56-25.19l-4-5.84A.34.34,0,0,1,872.69,930.12Zm6.59-3.68-5.9,4.06,4,5.82a.37.37,0,0,1-.07.48c-9.61,7.73-12,16.64-6.68,24.44l.08.12c5.9,8.59,14.09,7.3,25.38,2.44a.35.35,0,0,1,.43.12L900,969a.35.35,0,0,1,.05.3.34.34,0,0,1-.2.22A29.62,29.62,0,0,1,888.45,972l.5,12.87a38.23,38.23,0,0,0,17.62-5,.36.36,0,0,1,.46.11l2.37,3.45,5.9-4.05-2.24-3.27a.35.35,0,0,1,.08-.48c9.93-7.58,12.57-16.92,7-25l-.09-.12c-5-7.29-12.25-7.86-25.83-2a.35.35,0,0,1-.43-.12l-3.56-5.18a.37.37,0,0,1,0-.29.39.39,0,0,1,.19-.23A39.43,39.43,0,0,1,906.74,939l-.11-13.09a48.21,48.21,0,0,0-22.84,6.55.35.35,0,0,1-.47-.1Zm4.92,19.91a.39.39,0,0,1,.25-.06.33.33,0,0,1,.24.15l3.47,5a.35.35,0,0,1,.05.3.35.35,0,0,1-.19.22c-3.55,1.62-5.11,1.63-6.19.06l-.08-.12c-1.09-1.58-.27-3.46,2.43-5.59Zm3.14,5.19-3-4.39c-3.21,2.64-2.3,4-2,4.4l.08.12C883.12,952.7,884.09,953,887.34,951.54Zm15,8.89,0,0c3.61-1.66,5.35-1.69,6.42-.13l.08.13c.65.93,1.16,2.91-2.67,5.66a.33.33,0,0,1-.27.06.36.36,0,0,1-.23-.15l-3.47-5.05a.33.33,0,0,1-.05-.29A.35.35,0,0,1,902.32,960.43Zm3.76,4.84c2.25-1.69,3-3.28,2.21-4.47l-.08-.13c-.7-1-1.78-1.3-5.16.2Z"/><circle class="cls-4" cx="304.97" cy="1039.38" r="72.11"/><ellipse class="cls-3" cx="279.65" cy="1022.91" rx="2.93" ry="8.21" transform="translate(-296.09 132.36) rotate(-17.59)"/><ellipse class="cls-3" cx="317.25" cy="1010.99" rx="2.93" ry="8.21" transform="translate(-290.72 143.17) rotate(-17.59)"/><path class="cls-3" d="M315.21,1071.71c-15.2,4.82-27.63,0-35.07-3.91a43.92,43.92,0,0,1-12.66-9.83l1.82-1.49-.91.75.91-.75a42.49,42.49,0,0,0,12,9.28c10.23,5.38,21.28,6.25,32.83,2.59s20.11-10.75,25.44-21.06a43,43,0,0,0,4.57-14.55l2.34.18a44.26,44.26,0,0,1-4.78,15.36C337.86,1055.79,330.42,1066.89,315.21,1071.71Z"/><path class="cls-3" d="M339.57,1034.53a1.4,1.4,0,0,1,.34-2.23,8.8,8.8,0,0,1,5.3-.63,9.09,9.09,0,0,1,5.26,2.28,1.4,1.4,0,0,1-.12,2.12h0a1.4,1.4,0,0,1-2-.28,5.63,5.63,0,0,0-3.29-2.41,4.24,4.24,0,0,0-3.34,1.41,1.4,1.4,0,0,1-1.95,0Z"/><path class="cls-3" d="M273.89,1055.35a1.39,1.39,0,0,0-1.56-1.62,8.84,8.84,0,0,0-4.7,2.54,9.12,9.12,0,0,0-3,4.89,1.4,1.4,0,0,0,1.33,1.66h0a1.4,1.4,0,0,0,1.44-1.36,5.61,5.61,0,0,1,1.3-3.86,4.27,4.27,0,0,1,3.55-.78,1.4,1.4,0,0,0,1.57-1.14Z"/><circle class="cls-4" cx="31.05" cy="540.76" r="72.11"/><ellipse class="cls-3" cx="5.74" cy="524.28" rx="2.93" ry="8.21" transform="translate(-158.19 26.25) rotate(-17.59)"/><ellipse class="cls-3" cx="43.33" cy="512.36" rx="2.93" ry="8.21" transform="translate(-152.83 37.06) rotate(-17.59)"/><path class="cls-3" d="M41.3,573.08c-15.21,4.82-27.63,0-35.07-3.91a43.75,43.75,0,0,1-12.66-9.83l1.82-1.48-.91.74.91-.74a42.33,42.33,0,0,0,12,9.28c10.23,5.37,21.27,6.24,32.82,2.58S60.35,559,65.67,548.66a42.73,42.73,0,0,0,4.57-14.55l2.35.19a44.56,44.56,0,0,1-4.78,15.35C63.94,557.17,56.51,568.26,41.3,573.08Z"/><path class="cls-3" d="M65.65,535.9a1.39,1.39,0,0,1,.34-2.22,8.76,8.76,0,0,1,5.31-.63,9.16,9.16,0,0,1,5.26,2.27,1.4,1.4,0,0,1-.13,2.12h0a1.39,1.39,0,0,1-2-.28,5.69,5.69,0,0,0-3.3-2.41,4.27,4.27,0,0,0-3.34,1.41,1.38,1.38,0,0,1-1.94,0Z"/><circle class="cls-4" cx="1798.19" cy="298.77" r="72.11"/><ellipse class="cls-3" cx="1772.88" cy="282.29" rx="2.93" ry="8.21" transform="translate(-2.41 549.04) rotate(-17.59)"/><ellipse class="cls-3" cx="1810.47" cy="270.37" rx="2.93" ry="8.21" transform="translate(2.96 559.84) rotate(-17.59)"/><path class="cls-3" d="M1808.44,331.09c-15.21,4.82-27.63,0-35.08-3.91a43.61,43.61,0,0,1-12.65-9.83l1.82-1.48-.91.74.91-.74a42.33,42.33,0,0,0,12,9.28c10.22,5.37,21.27,6.24,32.82,2.58s20.12-10.75,25.44-21.06a42.73,42.73,0,0,0,4.57-14.55l2.34.19a44.3,44.3,0,0,1-4.78,15.35C1831.08,315.18,1823.64,326.27,1808.44,331.09Z"/><path class="cls-3" d="M1832.79,293.91a1.39,1.39,0,0,1,.34-2.22,8.76,8.76,0,0,1,5.31-.63,9.09,9.09,0,0,1,5.25,2.27,1.4,1.4,0,0,1-.12,2.12h0a1.39,1.39,0,0,1-2-.28,5.69,5.69,0,0,0-3.3-2.41,4.27,4.27,0,0,0-3.34,1.41,1.39,1.39,0,0,1-2,0Z"/><path class="cls-3" d="M1767.11,314.73a1.4,1.4,0,0,0-1.56-1.62,8.8,8.8,0,0,0-4.7,2.55,9.17,9.17,0,0,0-3,4.88,1.4,1.4,0,0,0,1.33,1.66h0a1.39,1.39,0,0,0,1.44-1.36,5.66,5.66,0,0,1,1.31-3.86,4.28,4.28,0,0,1,3.54-.78,1.39,1.39,0,0,0,1.57-1.14Z"/><circle class="cls-4" cx="1062.97" cy="43.79" r="72.11"/><ellipse class="cls-3" cx="1052.67" cy="15.4" rx="8.21" ry="2.93" transform="translate(688.34 1003.13) rotate(-70.59)"/><ellipse class="cls-3" cx="1089.87" cy="28.5" rx="8.21" ry="2.93" transform="translate(700.81 1046.97) rotate(-70.59)"/><path class="cls-3" d="M1051.7,75.77c-15-5.3-22.08-16.61-25.66-24.23a43.83,43.83,0,0,1-4.19-15.47l2.35-.09L1023,36l1.18-.05a42.49,42.49,0,0,0,4,14.65c4.93,10.45,13.23,17.79,24.66,21.82s22.54,3.52,33-1.51a43,43,0,0,0,12.41-8.87l1.76,1.56A44.21,44.21,0,0,1,1087,73C1079.36,76.69,1066.75,81.07,1051.7,75.77Z"/><path class="cls-3" d="M1093.53,60.73a1.39,1.39,0,0,1,1.6-1.57,8.84,8.84,0,0,1,4.62,2.69,9.09,9.09,0,0,1,2.83,5,1.39,1.39,0,0,1-1.37,1.62h0a1.4,1.4,0,0,1-1.4-1.4,5.67,5.67,0,0,0-1.18-3.91,4.29,4.29,0,0,0-3.52-.89,1.39,1.39,0,0,1-1.54-1.19Z"/><path class="cls-3" d="M1028.54,37.84a1.38,1.38,0,0,0-.27-2.23,8.75,8.75,0,0,0-5.28-.8,9.18,9.18,0,0,0-5.33,2.1,1.41,1.41,0,0,0,.06,2.13h0a1.41,1.41,0,0,0,2-.22,5.61,5.61,0,0,1,3.37-2.3,4.26,4.26,0,0,1,3.3,1.51,1.38,1.38,0,0,0,1.94,0Z"/><rect class="cls-5" x="656.45" y="455.48" width="614.29" height="408.26"/><polygon class="cls-6" points="656.45 455.49 963.59 170.89 1270.74 455.49 656.45 455.49"/><polygon class="cls-7" points="1270.74 455.49 963.59 681.75 656.45 455.49 1270.74 455.49"/><path class="cls-8" d="M1426.7,673.42c-13-35.34-32.53-83-57.48-126.41-14-24.44-33.65-8.76-33.65-8.76-25.52-17-48.79,3.5-48.79,3.5-53.64-3.84-50,38.11-50,38.11s-76.9-33-117.47,28.72-42.51,81.61-25.88,89.39,59.65-151.54,173.3-54.15c0,0,27,23.88-7.44,38.19s-128.55-16.31-160.39,21.26,116.87-4.32,153.86,33c1.34,1.35,2.82,2.73,4.36,4.13C1297.32,743.47,1374.71,739.31,1426.7,673.42Z"/><rect class="cls-9" x="779.73" y="312.07" width="464.15" height="284.56" rx="6" transform="matrix(0.55, -0.83, 0.83, 0.55, 75.52, 1048.94)"/><rect class="cls-5" x="962.93" y="396.89" width="148.11" height="148.11" transform="translate(72.97 1077.42) rotate(-56.6)"/><rect class="cls-10" x="1024.61" y="396.89" width="24.75" height="148.11" transform="translate(72.97 1077.42) rotate(-56.6)"/><rect class="cls-10" x="1024.61" y="396.89" width="24.75" height="148.11" transform="translate(430.51 -493.06) rotate(33.4)"/><path class="cls-10" d="M975.16,430.18,955.63,459.8s-15.86,23.4-33.42,11.68S933.17,422.47,975.16,430.18Z"/><path class="cls-10" d="M975.16,430.18l19.53-29.62s15.26-23.8-2.43-35.31S951.53,394.62,975.16,430.18Z"/><path class="cls-10" d="M975.16,430.18S902,433,924.81,397C945.82,363.83,975.16,430.18,975.16,430.18Z"/><polygon class="cls-11" points="656.45 455.49 963.59 681.75 1270.74 455.49 1270.74 863.75 656.45 863.75 656.45 455.49"/><path class="cls-8" d="M1378.18,816.48s-84.85-45.34-124.65-79.65c-31.65-27.27-174.24-4.85-142.4-42.42s123.08-3.22,157.52-17.53"/><path class="cls-12" d="M1257.13,740.4c41.13,37.34,151.73,91.57,151.73,91.57l35.67-105.19s-6.26-21.75-17.83-53.36C1374.71,739.31,1297.32,743.47,1257.13,740.4Z"/><path class="cls-9" d="M1873.13,941.18,1446.74,672.85l-95,151C1421.27,859.81,1696.13,992.45,1873.13,941.18Z"/><path class="cls-13" d="M1873.13,941.18c-177,51.27-451.86-81.37-521.42-117.33l-7.25,11.53,820.15,516.12L2266.89,1189Z"/></g></svg>