<svg id="Layer_1" data-name="Layer 1" xmlns="http://www.w3.org/2000/svg" xmlns:xlink="http://www.w3.org/1999/xlink" viewBox="0 0 1920 1080"><defs><style>.cls-1,.cls-8{fill:none;}.cls-2{clip-path:url(#clip-path);}.cls-3{fill:#2fe2d8;}.cls-4{fill:#06c7af;}.cls-5{fill:#19ddd3;}.cls-6{fill:#332ba8;}.cls-7{fill:#141491;}.cls-8{stroke:#141491;stroke-miterlimit:10;stroke-width:10.05px;}.cls-9{fill:#803aa4;}</style><clipPath id="clip-path"><rect class="cls-1" width="1920" height="1080"/></clipPath></defs><g class="cls-2"><rect class="cls-3" x="-14.35" y="-13.35" width="1948.69" height="1106.7"/><rect class="cls-4" x="1098.22" y="467.41" width="379.98" height="183.1" transform="translate(2410.07 -285.63) rotate(119.57)"/><path class="cls-1" d="M1354,596.26a54.45,54.45,0,0,0,6-16.06l-16.71,29.44A54.1,54.1,0,0,0,1354,596.26Z"/><path class="cls-1" d="M1254.52,618.33c-25.22-14.31-40.81-38.28-43.31-62.33l-52.78,93a28.49,28.49,0,0,1,9.5,32.67l76.61,43.47a28.48,28.48,0,0,1,32.92-8.6l52.78-93C1308.31,633.73,1279.74,632.64,1254.52,618.33Z"/><path class="cls-1" d="M1321.89,499.59c25.22,14.31,40.81,38.27,43.31,62.33l52.78-93a28.5,28.5,0,0,1-9.5-32.68l-76.61-43.47a28.47,28.47,0,0,1-32.92,8.61l-52.78,93C1268.1,484.19,1296.67,485.28,1321.89,499.59Z"/><path class="cls-1" d="M1222.46,521.66a54.32,54.32,0,0,0-6,16.06l16.7-29.44A54.32,54.32,0,0,0,1222.46,521.66Z"/><path class="cls-5" d="M1299,401.36a28.47,28.47,0,0,0,32.92-8.61l76.61,43.47a28.5,28.5,0,0,0,9.5,32.68l-52.78,93a66.47,66.47,0,0,1,.31,8.46l58.41-102.95-.66-.37a24,24,0,0,1-9-32.68l-83.74-47.51a24,24,0,0,1-32.68,9l-.66-.37-58.41,103a65.88,65.88,0,0,1,7.42-4.08Z"/><path class="cls-5" d="M1162.17,683.54l83.74,47.51a24,24,0,0,1,32.68-9l.66.38,58.41-102.95a64.26,64.26,0,0,1-7.42,4.07l-52.78,93a28.48,28.48,0,0,0-32.92,8.6l-76.61-43.47a28.49,28.49,0,0,0-9.5-32.67l52.78-93a66.54,66.54,0,0,1-.31-8.46l-58.41,103,.66.37A24,24,0,0,1,1162.17,683.54Z"/><path class="cls-5" d="M1319.7,503.46c26.28,14.91,41.57,40.89,41.38,65.71l4.12-7.25c-2.5-24.06-18.09-48-43.31-62.33s-53.79-15.4-75.72-5.21l-4.11,7.26C1263.27,488.75,1293.42,488.54,1319.7,503.46Z"/><path class="cls-5" d="M1256.71,614.46c-26.28-14.91-41.57-40.89-41.38-65.72l-4.12,7.26c2.5,24,18.09,48,43.31,62.33s53.79,15.4,75.72,5.2l4.12-7.25C1313.14,629.17,1283,629.37,1256.71,614.46Z"/><path class="cls-5" d="M1222.46,521.66a54.32,54.32,0,0,1,10.72-13.38l5.57-9.82a59.17,59.17,0,0,0-27.85,49.08l5.58-9.82A54.32,54.32,0,0,1,1222.46,521.66Z"/><path class="cls-5" d="M1354,596.26a54.1,54.1,0,0,1-10.72,13.38l-5.57,9.82a59.14,59.14,0,0,0,27.85-49.08l-5.57,9.82A54.45,54.45,0,0,1,1354,596.26Z"/><path class="cls-5" d="M1242.06,501.64l4.11-7.26a65.88,65.88,0,0,0-7.42,4.08l-5.57,9.82A57.21,57.21,0,0,1,1242.06,501.64Z"/><path class="cls-5" d="M1215.33,548.74a57.33,57.33,0,0,1,1.15-11l-5.58,9.82a66.54,66.54,0,0,0,.31,8.46Z"/><path class="cls-5" d="M1361.08,569.17a58.14,58.14,0,0,1-1.14,11l5.57-9.82a66.47,66.47,0,0,0-.31-8.46Z"/><path class="cls-5" d="M1334.36,616.28l-4.12,7.25a64.26,64.26,0,0,0,7.42-4.07l5.57-9.82A57.61,57.61,0,0,1,1334.36,616.28Z"/><circle class="cls-5" cx="1429.48" cy="448.51" r="4.77"/><circle class="cls-5" cx="1310.79" cy="381.16" r="4.77"/><circle class="cls-5" cx="1265.86" cy="736.89" r="4.77"/><circle class="cls-5" cx="1147.17" cy="669.54" r="4.77"/><path class="cls-5" d="M1262.37,541a60.69,60.69,0,0,1,22.81-20.34l7.72,15.55c-7.46,3.87-12.9,8.45-16.65,13.33l6.87,3.9c11.17-12.94,20.06-18.18,30.91-12l.17.1c10.27,5.82,13.62,17.47,6,32.72l4.72,2.68-4.89,8.61-5-2.82a48.64,48.64,0,0,1-17.75,15.66l-8.08-15.09a36.52,36.52,0,0,0,11.86-9.15l-6.79-3.85c-10.58,12.28-19.35,17.7-30.61,11.31l-.17-.09c-10.93-6.2-12.47-18.35-6.08-31.92l-8.12-4.61,4.89-8.61Zm43.85,25.76c2.22-4.11,1.74-6.35.08-7.29l-.16-.09c-1.74-1-3.44-.31-6.63,3.57Zm-34.83-2.68.16.09c1.74,1,3.27.43,6.41-3.37l-6.71-3.81C1269.34,561,1269.65,563.1,1271.39,564.09Z"/><path class="cls-5" d="M1248.89,544.76l4.89-8.62a.45.45,0,0,1,.61-.17l7.84,4.46A61,61,0,0,1,1285,520.28a.44.44,0,0,1,.59.2L1293.3,536a.45.45,0,0,1-.2.59,49.43,49.43,0,0,0-16.19,12.8l6.11,3.47c10.34-11.9,19.62-18.43,31.23-11.85l.17.1c11,6.27,13.4,18.56,6.32,32.93l4.36,2.47a.45.45,0,0,1,.16.61l-4.88,8.61a.45.45,0,0,1-.61.17l-4.62-2.62a48.85,48.85,0,0,1-17.68,15.46.43.43,0,0,1-.59-.18l-8.08-15.09a.45.45,0,0,1,0-.36.44.44,0,0,1,.24-.26,36,36,0,0,0,11.35-8.62l-6-3.4c-10,11.55-19.13,17.83-30.93,11.13l-.17-.09c-10.56-6-13-18-6.44-32.13l-7.76-4.4A.44.44,0,0,1,1248.89,544.76Zm5.44-7.79-4.44,7.84,7.73,4.38a.45.45,0,0,1,.18.58c-6.61,14-4.46,25.46,5.9,31.34l.17.1c11.4,6.47,20,.5,30.06-11.22a.45.45,0,0,1,.55-.1l6.79,3.86a.42.42,0,0,1,.22.31.4.4,0,0,1-.1.36,37.32,37.32,0,0,1-11.59,9.06l7.65,14.29a48.17,48.17,0,0,0,17.21-15.31.43.43,0,0,1,.58-.13l4.58,2.6,4.45-7.84-4.33-2.46a.44.44,0,0,1-.18-.59c7.07-14.06,4.91-26.07-5.78-32.14l-.17-.09c-9.68-5.5-18.19-2.15-30.35,11.93a.44.44,0,0,1-.56.09l-6.87-3.9a.46.46,0,0,1-.22-.3.44.44,0,0,1,.08-.35A49.46,49.46,0,0,1,1292.31,536L1285,521.27a60.51,60.51,0,0,0-22.25,20,.44.44,0,0,1-.58.14Zm16.53,19.81a.47.47,0,0,1,.26-.2.43.43,0,0,1,.35,0l6.71,3.8a.5.5,0,0,1,.22.31.47.47,0,0,1-.1.36c-3.13,3.78-4.88,4.66-7,3.48l-.17-.09c-2.1-1.2-2.21-3.77-.32-7.67Zm6.42,4.15-5.83-3.3c-2.18,4.75-.43,5.74.16,6.07l.16.1C1273.14,564.57,1274.39,564.34,1277.28,560.93Zm21.84,1.81.05-.06c3.16-3.86,5.11-4.86,7.19-3.68l.16.1c1.25.7,2.91,2.66.09,7.88a.42.42,0,0,1-.27.22.45.45,0,0,1-.34,0l-6.71-3.81a.48.48,0,0,1-.22-.31A.46.46,0,0,1,1299.12,562.74Zm6.92,3.42c1.62-3.16,1.64-5.39,0-6.29l-.16-.1c-1.34-.76-2.73-.49-5.73,3.07Z"/><rect class="cls-4" x="451.69" y="1034.9" width="379.98" height="183.1" transform="translate(1938.08 1124.24) rotate(119.57)"/><path class="cls-1" d="M675.37,1067.09c25.21,14.3,40.81,38.27,43.3,62.32l52.78-93a28.48,28.48,0,0,1-9.49-32.67l-76.62-43.47a28.48,28.48,0,0,1-32.91,8.61l-52.78,93C621.58,1051.69,650.15,1052.78,675.37,1067.09Z"/><path class="cls-1" d="M575.94,1089.15a54.51,54.51,0,0,0-6,16.07l16.7-29.44A54.42,54.42,0,0,0,575.94,1089.15Z"/><path class="cls-5" d="M652.43,968.86a28.48,28.48,0,0,0,32.91-8.61L762,1003.72a28.48,28.48,0,0,0,9.49,32.67l-52.78,93a63.1,63.1,0,0,1,.31,8.46l58.41-102.94-.66-.38a24,24,0,0,1-9-32.67L684,954.36a24,24,0,0,1-32.67,9l-.66-.37L592.23,1066a65.65,65.65,0,0,1,7.42-4.07Z"/><path class="cls-5" d="M673.17,1071c26.28,14.91,41.57,40.9,41.39,65.72l4.11-7.26c-2.49-24.05-18.09-48-43.3-62.32s-53.79-15.4-75.72-5.21l-4.12,7.26C616.75,1056.24,646.89,1056,673.17,1071Z"/><path class="cls-5" d="M575.94,1089.15a54.42,54.42,0,0,1,10.71-13.37l5.58-9.83A59.14,59.14,0,0,0,564.38,1115l5.57-9.82A54.51,54.51,0,0,1,575.94,1089.15Z"/><path class="cls-5" d="M595.53,1069.14l4.12-7.26a65.65,65.65,0,0,0-7.42,4.07l-5.58,9.83A58.18,58.18,0,0,1,595.53,1069.14Z"/><circle class="cls-5" cx="782.95" cy="1016.01" r="4.77"/><circle class="cls-5" cx="664.26" cy="948.66" r="4.77"/><rect class="cls-4" x="1396.76" y="854.38" width="379.98" height="183.1" transform="translate(2200.61 2688.29) rotate(-140.21)"/><path class="cls-1" d="M1538.38,1004a54.36,54.36,0,0,0,14.74,8.74l-26-21.66A54.56,54.56,0,0,0,1538.38,1004Z"/><path class="cls-1" d="M1534.31,902.25c18.55-22.28,44.91-33.37,69-31.56l-82.18-68.45a28.48,28.48,0,0,1-33.84,3.55l-56.37,67.68a28.51,28.51,0,0,1,2.63,33.93l82.18,68.44C1509.61,952.45,1515.75,924.53,1534.31,902.25Z"/><path class="cls-1" d="M1639.21,989.62c-18.56,22.28-44.91,33.37-69,31.56l82.18,68.45a28.5,28.5,0,0,1,33.84-3.55l56.38-67.68a28.48,28.48,0,0,1-2.64-33.92L1657.77,916C1663.91,939.42,1657.76,967.34,1639.21,989.62Z"/><path class="cls-1" d="M1635.13,887.86a54.39,54.39,0,0,0-14.74-8.75l26,21.67A54.41,54.41,0,0,0,1635.13,887.86Z"/><path class="cls-5" d="M1739.94,984.48a28.48,28.48,0,0,0,2.64,33.92l-56.38,67.68a28.5,28.5,0,0,0-33.84,3.55l-82.18-68.45a65.27,65.27,0,0,1-8.38-1.19l91,75.75.49-.59a24,24,0,0,1,33.75-3.07l61.62-74a24,24,0,0,1-3.07-33.76l.48-.59-91-75.75a67,67,0,0,1,2.7,8Z"/><path class="cls-5" d="M1486.52,799.8l-61.62,74a24,24,0,0,1,3.08,33.75l-.49.59,91,75.75a65.23,65.23,0,0,1-2.69-8l-82.18-68.44a28.51,28.51,0,0,0-2.63-33.93l56.37-67.68a28.48,28.48,0,0,0,33.84-3.55l82.18,68.45a63.33,63.33,0,0,1,8.38,1.2l-91-75.75-.48.58A24,24,0,0,1,1486.52,799.8Z"/><path class="cls-5" d="M1635.79,986.78c-19.34,23.21-47.62,33.65-72,29.06l6.41,5.34c24.12,1.81,50.47-9.28,69-31.56s24.7-50.2,18.56-73.59l-6.42-5.34C1660.28,933.86,1655.13,963.56,1635.79,986.78Z"/><path class="cls-5" d="M1537.72,905.1c19.34-23.22,47.62-33.66,72-29.07l-6.41-5.34c-24.11-1.81-50.47,9.28-69,31.56s-24.7,50.2-18.56,73.59l6.41,5.34C1513.23,958,1518.38,928.31,1537.72,905.1Z"/><path class="cls-5" d="M1635.13,887.86a54.41,54.41,0,0,1,11.27,12.92l8.67,7.22a59.11,59.11,0,0,0-43.36-36.11l8.68,7.22A54.39,54.39,0,0,1,1635.13,887.86Z"/><path class="cls-5" d="M1538.38,1004a54.56,54.56,0,0,1-11.26-12.92l-8.68-7.23A59.2,59.2,0,0,0,1561.8,1020l-8.68-7.23A54.36,54.36,0,0,1,1538.38,1004Z"/><path class="cls-5" d="M1651.35,910.69l6.42,5.34a67,67,0,0,0-2.7-8l-8.67-7.22A57.3,57.3,0,0,1,1651.35,910.69Z"/><path class="cls-5" d="M1609.74,876a58.5,58.5,0,0,1,10.65,3.08l-8.68-7.22a63.33,63.33,0,0,0-8.38-1.2Z"/><path class="cls-5" d="M1563.77,1015.84a56.94,56.94,0,0,1-10.65-3.08l8.68,7.23a65.27,65.27,0,0,0,8.38,1.19Z"/><path class="cls-5" d="M1522.16,981.18l-6.41-5.34a65.23,65.23,0,0,0,2.69,8l8.68,7.23A56.73,56.73,0,0,1,1522.16,981.18Z"/><circle class="cls-5" cx="1757.72" cy="999.71" r="4.77"/><circle class="cls-5" cx="1415.62" cy="892.37" r="4.77"/><circle class="cls-5" cx="1502.96" cy="787.51" r="4.77"/><path class="cls-5" d="M1609,923.69a60.67,60.67,0,0,1,16,26.06l-16.67,4.84c-2.49-8-6-14.19-10.16-18.75l-5.06,6.07c10.75,13.29,14.34,23,6.35,32.55l-.12.15c-7.56,9.07-19.62,10.31-33.26.06l-3.48,4.17L1555,972.5l3.66-4.39a48.54,48.54,0,0,1-12.26-20.25l16.29-5.27a36.75,36.75,0,0,0,6.89,13.3l5-6c-10.21-12.59-14-22.19-5.7-32.14l.12-.14c8-9.66,20.27-9,32.49-.33l6-7.17,7.6,6.34Zm-33.13,38.59c3.65,2.91,5.94,2.84,7.16,1.37l.12-.14c1.28-1.54.92-3.33-2.34-7.16Zm8.82-33.8-.12.14c-1.28,1.54-1,3.14,2.18,6.9l4.94-5.92C1588.14,927,1586,926.94,1584.69,928.48Z"/><path class="cls-5" d="M1607.71,909.77l7.61,6.34a.44.44,0,0,1,.06.62l-5.77,6.93a61.16,61.16,0,0,1,15.79,26,.45.45,0,0,1-.31.55L1608.43,955a.44.44,0,0,1-.55-.29,49.19,49.19,0,0,0-9.73-18.2l-4.49,5.4c9.88,12.28,14.65,22.57,6.11,32.83l-.12.14c-8.13,9.77-20.64,9.9-33.53.38l-3.2,3.85a.45.45,0,0,1-.63.06l-7.61-6.34a.44.44,0,0,1-.06-.62l3.4-4.09A48.89,48.89,0,0,1,1545.94,948a.44.44,0,0,1,.29-.55l16.28-5.27a.45.45,0,0,1,.36,0,.46.46,0,0,1,.21.28,35.79,35.79,0,0,0,6.47,12.7l4.42-5.29c-9.6-11.91-14.16-22-5.47-32.42l.12-.15c7.77-9.33,20-9.56,32.75-.64l5.71-6.86A.45.45,0,0,1,1607.71,909.77Zm6.7,6.73-6.93-5.76-5.69,6.82a.43.43,0,0,1-.59.08c-12.65-9-24.27-8.9-31.9.25l-.12.15c-8.39,10.07-4,19.55,5.71,31.57a.44.44,0,0,1,0,.56l-5,6a.45.45,0,0,1-.69,0,37.3,37.3,0,0,1-6.86-13l-15.42,5a48.1,48.1,0,0,0,12,19.65.43.43,0,0,1,0,.59l-3.37,4.05,6.93,5.77,3.19-3.83a.44.44,0,0,1,.6-.07c12.59,9.45,24.79,9.46,32.66,0l.12-.15c7.13-8.56,5.35-17.52-6.35-32a.44.44,0,0,1,0-.56l5.06-6.08a.42.42,0,0,1,.33-.16.47.47,0,0,1,.34.15A49.47,49.47,0,0,1,1608.6,954l15.82-4.59A60.42,60.42,0,0,0,1608.69,924a.45.45,0,0,1,0-.6ZM1592,929.25a.45.45,0,0,1,.16.29.42.42,0,0,1-.1.34l-4.94,5.93a.43.43,0,0,1-.34.16.46.46,0,0,1-.34-.16c-3.16-3.75-3.71-5.63-2.18-7.47l.12-.15c1.54-1.85,4.1-1.5,7.6,1Zm-5.22,5.58,4.29-5.15c-4.29-3-5.58-1.44-6-.92l-.12.15C1583.91,930.11,1583.92,931.38,1586.75,934.83ZM1581.09,956l.06,0c3.23,3.8,3.87,5.9,2.34,7.73l-.12.15c-.91,1.1-3.14,2.39-7.78-1.32a.39.39,0,0,1-.16-.3.45.45,0,0,1,.1-.33l4.94-5.92a.41.41,0,0,1,.34-.16A.37.37,0,0,1,1581.09,956Zm-4.58,6.2c2.82,2.15,5,2.57,6.18,1.16l.12-.15c1-1.18,1-2.59-2-6.18Z"/><rect class="cls-4" x="1480.39" y="-106.44" width="379.98" height="183.1" transform="translate(3202.09 651.66) rotate(-155.97)"/><path class="cls-1" d="M1639.61,54.16a54.57,54.57,0,0,0,16.56,4.4l-30.91-13.78A54.39,54.39,0,0,0,1639.61,54.16Z"/><path class="cls-1" d="M1608-42.68c11.81-26.48,34.15-44.31,57.85-49.12l-97.68-43.55a28.48,28.48,0,0,1-31.6,12.61l-35.87,80.45a28.49,28.49,0,0,1,11.75,31.93l97.68,43.55C1597.91,12.35,1596.24-16.2,1608-42.68Z"/><path class="cls-1" d="M1732.73,12.91c-11.81,26.48-34.15,44.32-57.85,49.13l97.68,43.54a28.46,28.46,0,0,1,31.6-12.6L1840,12.52a28.49,28.49,0,0,1-11.75-31.93L1730.6-63C1742.86-42.12,1744.53-13.57,1732.73,12.91Z"/><path class="cls-5" d="M1828.28-19.41A28.49,28.49,0,0,0,1840,12.52L1804.16,93a28.46,28.46,0,0,0-31.6,12.6L1674.88,62a66.5,66.5,0,0,1-8.39,1.12l108.1,48.2.31-.7a24,24,0,0,1,31.65-12.13l39.21-87.94a24,24,0,0,1-12.13-31.65l.3-.69-108.1-48.2a65.73,65.73,0,0,1,4.77,7Z"/><path class="cls-5" d="M1534.22-128.3,1495-40.36A24,24,0,0,1,1507.14-8.7l-.3.69,108.1,48.19a64.73,64.73,0,0,1-4.77-7l-97.68-43.55a28.49,28.49,0,0,0-11.75-31.93l35.87-80.45a28.48,28.48,0,0,0,31.6-12.61l97.68,43.55a64.75,64.75,0,0,1,8.39-1.13l-108.1-48.19-.31.69A24,24,0,0,1,1534.22-128.3Z"/><path class="cls-5" d="M1728.67,11.1c-12.3,27.6-36.69,45.33-61.41,47.54l7.62,3.4c23.7-4.81,46-22.65,57.85-49.13s10.13-55-2.13-75.87L1723-66.35C1737.86-46.48,1741-16.5,1728.67,11.1Z"/><path class="cls-5" d="M1612.1-40.87c12.3-27.59,36.69-45.32,61.41-47.53l-7.62-3.4c-23.7,4.81-46,22.64-57.85,49.12s-10.13,55,2.13,75.87l7.62,3.4C1602.91,16.72,1599.8-13.27,1612.1-40.87Z"/><path class="cls-5" d="M1639.61,54.16a54.39,54.39,0,0,1-14.35-9.38l-10.32-4.6a59.61,59.61,0,0,0,22.86,18,59.72,59.72,0,0,0,28.69,4.94l-10.32-4.6A54.57,54.57,0,0,1,1639.61,54.16Z"/><path class="cls-5" d="M1667.26,58.64a57.07,57.07,0,0,1-11.09-.08l10.32,4.6a66.5,66.5,0,0,0,8.39-1.12Z"/><path class="cls-5" d="M1617.79,36.59l-7.62-3.4a64.73,64.73,0,0,0,4.77,7l10.32,4.6A57.47,57.47,0,0,1,1617.79,36.59Z"/><circle class="cls-5" cx="1793.96" cy="115.06" r="4.77"/><path class="cls-5" d="M1685.75-42.34a60.74,60.74,0,0,1,22.45,20.75l-14.73,9.18c-4.57-7-9.65-12-14.87-15.29l-3.22,7.22c13.95,9.87,20,18.21,14.95,29.61l-.07.17c-4.81,10.79-16.08,15.25-32,9.09l-2.21,5-9-4,2.32-5.22A48.61,48.61,0,0,1,1632-2.06l14.25-9.49A36.68,36.68,0,0,0,1656.52-.63l3.18-7.13c-13.24-9.34-19.49-17.55-14.22-29.38l.08-.17c5.12-11.48,17.06-14.19,31.18-9.14l3.8-8.53,9,4ZM1664.35,3.8c4.3,1.81,6.49,1.12,7.26-.62l.08-.18c.81-1.82,0-3.45-4.2-6.25Zm-.7-34.93-.07.18c-.82,1.83-.11,3.29,4,6.05l3.14-7C1666.58-33.47,1664.47-32.95,1663.65-31.13Z"/><path class="cls-5" d="M1680.73-55.38l9,4a.44.44,0,0,1,.22.58l-3.67,8.24a61.09,61.09,0,0,1,22.26,20.71.45.45,0,0,1-.15.61L1693.71-12a.45.45,0,0,1-.61-.14A49.33,49.33,0,0,0,1678.8-27l-2.87,6.41c12.85,9.14,20.24,17.75,14.81,29.94l-.08.17c-5.17,11.61-17.18,15.14-32.17,9.48l-2,4.57a.45.45,0,0,1-.59.23l-9-4a.44.44,0,0,1-.22-.58l2.16-4.85a49,49,0,0,1-17.1-16.11.45.45,0,0,1,.13-.61L1646-11.92a.44.44,0,0,1,.35-.07.46.46,0,0,1,.28.21,36,36,0,0,0,9.68,10.47l2.81-6.3c-12.47-8.85-19.6-17.32-14.07-29.71l.08-.17c4.94-11.1,16.64-14.64,31.35-9.52l3.63-8.15A.45.45,0,0,1,1680.73-55.38Zm8.27,4.66-8.23-3.67-3.62,8.12a.44.44,0,0,1-.56.23c-14.61-5.22-25.77-2-30.62,8.91l-.08.17C1640.55-25,1647.31-17,1660-8.12a.45.45,0,0,1,.15.54l-3.18,7.13a.48.48,0,0,1-.29.25.44.44,0,0,1-.37-.07,37.49,37.49,0,0,1-10.14-10.65l-13.48,9a48,48,0,0,0,16.9,15.64.45.45,0,0,1,.19.57l-2.15,4.81,8.24,3.67,2-4.55a.45.45,0,0,1,.57-.23c14.68,5.68,26.43,2.37,31.43-8.86l.08-.17c4.53-10.17.38-18.32-14.81-29.06a.46.46,0,0,1-.15-.55l3.22-7.22a.51.51,0,0,1,.28-.24.42.42,0,0,1,.36.05A49.43,49.43,0,0,1,1693.61-13l14-8.71a60.54,60.54,0,0,0-22-20.22.44.44,0,0,1-.2-.57Zm-18.13,18.37a.37.37,0,0,1,.23.23.43.43,0,0,1,0,.35L1668-24.72a.42.42,0,0,1-.28.24.46.46,0,0,1-.38-.05c-4.06-2.75-5.1-4.42-4.13-6.6l.08-.18c1-2.2,3.54-2.56,7.6-1.06Zm-3.51,6.78,2.73-6.12c-4.94-1.71-5.76.13-6,.74l-.08.18C1663.34-29.34,1663.7-28.12,1667.36-25.57Zm.31,21.92.07,0c4.15,2.78,5.33,4.62,4.36,6.8l-.08.17c-.58,1.31-2.38,3.15-7.84.85a.38.38,0,0,1-.24-.25.4.4,0,0,1,0-.34l3.14-7a.44.44,0,0,1,.29-.24A.44.44,0,0,1,1667.67-3.65Zm-2.73,7.21c3.3,1.31,5.52,1.11,6.27-.56l.07-.18c.63-1.4.23-2.76-3.6-5.4Z"/><rect class="cls-4" x="533.58" y="172.28" width="379.98" height="183.1" transform="translate(1296.9 778.09) rotate(-158.14)"/><path class="cls-1" d="M695.43,334a54.62,54.62,0,0,0,16.72,3.78l-31.41-12.61A54.1,54.1,0,0,0,695.43,334Z"/><path class="cls-1" d="M660.22,238.42c10.8-26.91,32.45-45.58,55.95-51.28l-99.26-39.82a28.47,28.47,0,0,1-31.1,13.79L553,242.87a28.47,28.47,0,0,1,13,31.46l99.26,39.82C652.18,293.79,649.43,265.33,660.22,238.42Z"/><path class="cls-1" d="M786.93,289.25c-10.8,26.91-32.46,45.58-55.95,51.28l99.26,39.82a28.49,28.49,0,0,1,31.1-13.8l32.79-81.75a28.49,28.49,0,0,1-12.94-31.47l-99.26-39.81C795,233.88,797.72,262.34,786.93,289.25Z"/><path class="cls-1" d="M751.72,193.68A54.62,54.62,0,0,0,735,189.9l31.41,12.6A54.47,54.47,0,0,0,751.72,193.68Z"/><path class="cls-5" d="M881.19,253.33a28.49,28.49,0,0,0,12.94,31.47l-32.79,81.75a28.49,28.49,0,0,0-31.1,13.8L731,340.53a64.5,64.5,0,0,1-8.35,1.44L832.49,386l.28-.71A24,24,0,0,1,863.94,372l35.85-89.36a24,24,0,0,1-13.33-31.17l.29-.7L776.89,206.71a66.56,66.56,0,0,1,5,6.81Z"/><path class="cls-5" d="M583.21,155.66,547.36,245a24,24,0,0,1,13.32,31.17l-.28.7L670.25,321a65,65,0,0,1-5-6.81L566,274.33a28.47,28.47,0,0,0-13-31.46l32.8-81.76a28.47,28.47,0,0,0,31.1-13.79l99.26,39.82a64.65,64.65,0,0,1,8.34-1.44L614.66,141.63l-.28.7A24,24,0,0,1,583.21,155.66Z"/><path class="cls-5" d="M782.8,287.59c-11.25,28.05-34.94,46.68-59.57,49.83l7.75,3.11c23.49-5.7,45.15-24.37,55.95-51.28s8-55.37-5-75.73l-7.75-3.11C789.81,229.7,794.05,259.55,782.8,287.59Z"/><path class="cls-5" d="M664.35,240.08c11.25-28.05,34.94-46.69,59.57-49.83l-7.75-3.11c-23.5,5.7-45.15,24.37-55.95,51.28s-8,55.37,5,75.73l7.75,3.11C657.34,298,653.1,268.12,664.35,240.08Z"/><path class="cls-5" d="M751.72,193.68a54.47,54.47,0,0,1,14.69,8.82l10.48,4.21a59.11,59.11,0,0,0-52.38-21L735,189.9A54.62,54.62,0,0,1,751.72,193.68Z"/><path class="cls-5" d="M695.43,334a54.1,54.1,0,0,1-14.69-8.83L670.25,321a59.2,59.2,0,0,0,52.38,21l-10.48-4.2A54.62,54.62,0,0,1,695.43,334Z"/><path class="cls-5" d="M774.18,210.41l7.75,3.11a66.56,66.56,0,0,0-5-6.81l-10.48-4.21A57.52,57.52,0,0,1,774.18,210.41Z"/><path class="cls-5" d="M723.92,190.25A57.83,57.83,0,0,1,735,189.9l-10.49-4.2a64.65,64.65,0,0,0-8.34,1.44Z"/><path class="cls-5" d="M723.23,337.42a57.86,57.86,0,0,1-11.08.35l10.48,4.2a64.5,64.5,0,0,0,8.35-1.44Z"/><path class="cls-5" d="M673,317.26l-7.75-3.11a65,65,0,0,0,5,6.81l10.49,4.2A56.34,56.34,0,0,1,673,317.26Z"/><circle class="cls-5" cx="851.98" cy="389.01" r="4.77"/><circle class="cls-5" cx="902.79" cy="262.35" r="4.77"/><circle class="cls-5" cx="544.26" cy="265.57" r="4.77"/><circle class="cls-5" cx="595.07" cy="138.91" r="4.77"/><path class="cls-5" d="M737.89,235.82a60.72,60.72,0,0,1,23.22,19.88l-14.37,9.73a49.35,49.35,0,0,0-15.44-14.71l-2.95,7.34c14.32,9.33,20.71,17.43,16.07,29l-.07.18c-4.4,11-15.49,15.85-31.63,10.29l-2,5-9.19-3.68,2.12-5.31a48.43,48.43,0,0,1-17.89-15.49l13.87-10a36.69,36.69,0,0,0,10.65,10.53l2.91-7.24c-13.59-8.84-20.14-16.81-15.32-28.82l.07-.18c4.68-11.67,16.51-14.82,30.81-10.32l3.48-8.66,9.19,3.69Zm-19.64,46.91c4.37,1.65,6.52.87,7.23-.89l.07-.18c.75-1.86-.15-3.45-4.43-6.09Zm-2-34.87-.07.17c-.74,1.86,0,3.29,4.2,5.9l2.88-7.16C719.07,245.4,717,246,716.23,247.86Z"/><path class="cls-5" d="M732.37,223l9.19,3.69a.45.45,0,0,1,.25.58l-3.36,8.37a61.15,61.15,0,0,1,23,19.84.45.45,0,0,1-.13.62L747,265.8a.47.47,0,0,1-.62-.11,49.31,49.31,0,0,0-14.85-14.33l-2.62,6.52c13.18,8.65,20.9,17,15.93,29.36l-.07.17c-4.73,11.8-16.6,15.78-31.79,10.69l-1.86,4.65a.45.45,0,0,1-.58.25l-9.19-3.69a.45.45,0,0,1-.25-.58l2-4.93a48.94,48.94,0,0,1-17.7-15.44.45.45,0,0,1,.11-.62l13.87-10a.41.41,0,0,1,.34-.07.42.42,0,0,1,.29.19,35.94,35.94,0,0,0,10.07,10.1l2.57-6.4c-12.79-8.37-20.24-16.57-15.18-29.16l.07-.18c4.52-11.27,16.08-15.25,31-10.69l3.33-8.28A.44.44,0,0,1,732.37,223Zm8.45,4.35L732.45,224l-3.3,8.25a.45.45,0,0,1-.55.26c-14.8-4.67-25.83-1-30.27,10.05l-.07.18c-4.88,12.17,2.18,19.85,15.15,28.28a.44.44,0,0,1,.17.54l-2.91,7.25a.45.45,0,0,1-.28.26A.41.41,0,0,1,710,279a37.4,37.4,0,0,1-10.53-10.26l-13.14,9.49a48.12,48.12,0,0,0,17.49,15,.45.45,0,0,1,.21.56l-2,4.89,8.37,3.35,1.85-4.62a.46.46,0,0,1,.56-.26c14.88,5.12,26.5,1.37,31.07-10l.08-.17c4.14-10.34-.32-18.32-15.9-28.48a.44.44,0,0,1-.17-.54l2.94-7.34a.44.44,0,0,1,.27-.25.48.48,0,0,1,.37,0,49.71,49.71,0,0,1,15.33,14.49l13.64-9.24a60.48,60.48,0,0,0-22.8-19.36.44.44,0,0,1-.21-.57Zm-17.42,19a.43.43,0,0,1,.24.22.47.47,0,0,1,0,.35l-2.87,7.16a.43.43,0,0,1-.28.26.48.48,0,0,1-.37,0c-4.17-2.6-5.27-4.22-4.38-6.44l.07-.18c.9-2.24,3.44-2.69,7.55-1.34Zm-3.25,6.91,2.5-6.22c-5-1.52-5.75.35-6,1l-.08.18C716,249.65,716.39,250.86,720.15,253.27Zm1.14,21.89.06,0c4.25,2.63,5.5,4.42,4.62,6.63l-.07.18c-.54,1.33-2.26,3.24-7.81,1.15a.42.42,0,0,1-.25-.24.4.4,0,0,1,0-.34l2.87-7.16a.46.46,0,0,1,.27-.26A.47.47,0,0,1,721.29,275.16Zm-2.46,7.31c3.35,1.18,5.56.9,6.24-.8l.07-.18c.58-1.43.13-2.76-3.8-5.26Z"/><rect class="cls-4" x="-17" y="-91.55" width="379.98" height="183.1" transform="translate(292.54 -125.03) rotate(133.72)"/><path class="cls-1" d="M227.63,52.24a54.65,54.65,0,0,0,9.73-14.11L214,62.59A54.5,54.5,0,0,0,227.63,52.24Z"/><path class="cls-1" d="M125.82,49.34c-21-20-30.22-47.09-26.76-71L25.14,55.62a28.48,28.48,0,0,1,1.23,34L90,150.49a28.5,28.5,0,0,1,34-.3L198,72.89C174.21,77.42,146.77,69.37,125.82,49.34Z"/><path class="cls-1" d="M220.16-49.34c21,20,30.23,47.09,26.77,71l73.91-77.3a28.48,28.48,0,0,1-1.22-34L256-150.49a28.49,28.49,0,0,1-34,.3L148-72.89C171.77-77.42,199.21-69.37,220.16-49.34Z"/><path class="cls-5" d="M221.93-150.19a28.49,28.49,0,0,0,34-.3l63.67,60.87a28.48,28.48,0,0,0,1.22,34l-73.91,77.3A65.49,65.49,0,0,1,245.16,30L327-55.59l-.55-.52A24,24,0,0,1,325.65-90l-69.59-66.54a24,24,0,0,1-33.89.76l-.55-.52L139.83-70.75A64.8,64.8,0,0,1,148-72.89Z"/><path class="cls-5" d="M20.33,90l69.59,66.54a24,24,0,0,1,33.89-.76l.55.52,81.8-85.55A64.8,64.8,0,0,1,198,72.89l-73.91,77.3a28.5,28.5,0,0,0-34,.3L26.37,89.62a28.48,28.48,0,0,0-1.23-34l73.92-77.3A63.76,63.76,0,0,1,100.82-30L19,55.59l.55.52A24,24,0,0,1,20.33,90Z"/><path class="cls-5" d="M217.09-46.12c21.84,20.88,30.32,49.81,24.07,73.84l5.77-6c3.46-23.93-5.81-51-26.77-71S171.77-77.42,148-72.89l-5.77,6C166-74.18,195.25-67,217.09-46.12Z"/><path class="cls-5" d="M128.89,46.12C107.05,25.24,98.57-3.69,104.82-27.72l-5.76,6c-3.46,23.93,5.8,51,26.76,71S174.21,77.42,198,72.89l5.76-6C180,74.18,150.73,67,128.89,46.12Z"/><path class="cls-5" d="M227.63,52.24A54.5,54.5,0,0,1,214,62.59l-7.8,8.16a59.12,59.12,0,0,0,39-40.79l-7.8,8.17A54.65,54.65,0,0,1,227.63,52.24Z"/><path class="cls-5" d="M241.16,27.72a57.38,57.38,0,0,1-3.8,10.41l7.8-8.17a65.49,65.49,0,0,0,1.77-8.28Z"/><path class="cls-5" d="M203.73,66.86l-5.76,6a64.8,64.8,0,0,0,8.19-2.14l7.8-8.16A57.39,57.39,0,0,1,203.73,66.86Z"/><circle class="cls-5" cx="107.84" cy="167.07" r="4.77"/><circle class="cls-5" cx="9.2" cy="72.76" r="4.77"/><path class="cls-5" d="M152.32-23.72a60.74,60.74,0,0,1,27.1-14.14l3.68,17c-8.18,1.93-14.57,5-19.4,8.85l5.71,5.46c14-9.81,23.89-12.72,32.91-4.1l.14.13C211-2.4,211.4,9.71,200.24,22.63l3.92,3.75-6.84,7.16-4.13-3.95a48.51,48.51,0,0,1-21,10.84L168,23.82a36.47,36.47,0,0,0,13.74-6l-5.64-5.39C162.84,21.78,153,24.9,143.65,16l-.14-.13c-9.09-8.69-7.61-20.85,1.9-32.44l-6.75-6.45,6.85-7.16ZM188.55,12c3.16-3.44,3.24-5.73,1.86-7l-.14-.13C188.83,3.42,187,3.66,183,6.65ZM155.43.86l.14.14c1.44,1.38,3.06,1.21,7-1.71L157-6C154.21-2.68,154-.52,155.43.86Z"/><path class="cls-5" d="M138.34-23.38l6.85-7.16a.43.43,0,0,1,.62,0l6.52,6.23a61.13,61.13,0,0,1,27-14,.45.45,0,0,1,.53.34l3.68,17a.45.45,0,0,1-.33.53A49.31,49.31,0,0,0,164.37-12l5.08,4.86c12.93-9,23.53-13.08,33.18-3.85l.14.13c9.18,8.78,8.46,21.27-1.92,33.48l3.62,3.46a.44.44,0,0,1,0,.63l-6.84,7.15a.44.44,0,0,1-.63,0l-3.84-3.67a48.93,48.93,0,0,1-20.92,10.67.43.43,0,0,1-.53-.32l-4.15-16.61a.43.43,0,0,1,.06-.35.5.5,0,0,1,.29-.2A35.89,35.89,0,0,0,181,17.8l-5-4.77c-12.54,8.76-22.91,12.62-32.72,3.24l-.14-.13c-8.78-8.4-8.17-20.61,1.61-32.73l-6.45-6.16A.44.44,0,0,1,138.34-23.38Zm7.18-6.22-6.23,6.51,6.43,6.14a.46.46,0,0,1,0,.61c-9.84,12-10.54,23.6-1.93,31.83l.13.14c9.48,9.06,19.23,5.36,31.89-3.54a.45.45,0,0,1,.57.05l5.64,5.39a.43.43,0,0,1,.14.36.49.49,0,0,1-.19.33,37.47,37.47,0,0,1-13.45,6l3.92,15.73A48.2,48.2,0,0,0,192.9,29.25a.45.45,0,0,1,.6,0l3.8,3.64,6.23-6.52L199.93,23a.45.45,0,0,1,0-.61C210.19,10.43,211-1.75,202.15-10.24l-.14-.13c-8-7.7-17.11-6.53-32.35,4.15a.44.44,0,0,1-.56,0l-5.71-5.46a.48.48,0,0,1-.14-.34.47.47,0,0,1,.17-.33,49.38,49.38,0,0,1,19.15-8.83l-3.49-16.1a60.27,60.27,0,0,0-26.46,14,.46.46,0,0,1-.61,0ZM156.71-6.35a.39.39,0,0,1,.29-.13.42.42,0,0,1,.34.12L162.91-1a.43.43,0,0,1,.14.35.48.48,0,0,1-.18.33c-4,2.9-5.88,3.32-7.61,1.67l-.14-.13c-1.74-1.67-1.21-4.2,1.57-7.52Zm5.2,5.59-4.84-4.63C153.8-1.31,155.25.08,155.74.54l.14.13C157,1.76,158.28,1.84,161.91-.76Zm20.74,7.1.06,0c4-3,6.15-3.46,7.87-1.81l.14.13c1,1,2.17,3.3-1.84,7.67a.4.4,0,0,1-.32.14.43.43,0,0,1-.32-.12L182.67,7a.43.43,0,0,1-.14-.35A.45.45,0,0,1,182.65,6.34Zm5.88,5c2.34-2.67,2.9-4.82,1.58-6.09L190,5.12c-1.12-1.07-2.52-1.15-6.3,1.57Z"/><rect class="cls-4" x="1671.35" y="524.72" width="379.98" height="183.1" transform="translate(3794.53 288.95) rotate(152.07)"/><path class="cls-1" d="M1896.74,683.05a54,54,0,0,0,13.68-10.33l-29.91,15.86A54.27,54.27,0,0,0,1896.74,683.05Z"/><path class="cls-1" d="M1801,648.24c-13.58-25.62-13.86-54.21-3-75.83L1703.5,622.5a28.48,28.48,0,0,1-9.55,32.65L1735.21,733a28.47,28.47,0,0,1,32.38,10.43l94.5-50.09C1838.12,690.13,1814.61,673.86,1801,648.24Z"/><path class="cls-1" d="M1921.65,584.3c13.58,25.61,13.85,54.21,3,75.83l94.5-50.09a28.48,28.48,0,0,1,9.54-32.66l-41.25-77.82a28.5,28.5,0,0,1-32.39-10.43l-94.49,50.09C1884.56,542.41,1908.07,558.68,1921.65,584.3Z"/><path class="cls-1" d="M1825.93,549.48a54.85,54.85,0,0,0-13.68,10.33L1842.16,544A54.53,54.53,0,0,0,1825.93,549.48Z"/><path class="cls-5" d="M1955.08,489.13a28.5,28.5,0,0,0,32.39,10.43l41.25,77.82a28.48,28.48,0,0,0-9.54,32.66l-94.5,50.09a65.46,65.46,0,0,1-4.28,7.3L2025,612l-.36-.67a24,24,0,0,1,10-32.41l-45.1-85.07a24,24,0,0,1-32.4-10l-.36-.67-104.57,55.44a66.72,66.72,0,0,1,8.45.55Z"/><path class="cls-5" d="M1688.1,653.62l45.1,85.06a24,24,0,0,1,32.4,10l.36.67,104.58-55.44a66.48,66.48,0,0,1-8.45-.55l-94.5,50.09A28.47,28.47,0,0,0,1735.21,733L1694,655.15a28.48,28.48,0,0,0,9.55-32.65L1798,572.41a66.52,66.52,0,0,1,4.28-7.31L1697.7,620.54l.35.67A24,24,0,0,1,1688.1,653.62Z"/><path class="cls-5" d="M1917.72,586.38c14.15,26.7,13.09,56.82-.41,77.66l7.37-3.91c10.82-21.62,10.55-50.22-3-75.83s-37.09-41.89-61.06-45.08l-7.38,3.91C1878,543.66,1903.57,559.68,1917.72,586.38Z"/><path class="cls-5" d="M1805,646.16c-14.15-26.7-13.08-56.83.41-77.66l-7.37,3.91c-10.82,21.62-10.54,50.21,3,75.83s37.09,41.89,61.06,45.08l7.37-3.91C1844.64,688.88,1819.11,672.86,1805,646.16Z"/><path class="cls-5" d="M1825.93,549.48a54.53,54.53,0,0,1,16.23-5.52l10-5.29a59.2,59.2,0,0,0-49.87,26.43l10-5.29A54.85,54.85,0,0,1,1825.93,549.48Z"/><path class="cls-5" d="M1896.74,683.05a54.27,54.27,0,0,1-16.23,5.53l-10,5.29a59.17,59.17,0,0,0,49.86-26.44l-10,5.29A54,54,0,0,1,1896.74,683.05Z"/><path class="cls-5" d="M1853.21,543.13l7.38-3.91a66.72,66.72,0,0,0-8.45-.55l-10,5.29A57.52,57.52,0,0,1,1853.21,543.13Z"/><path class="cls-5" d="M1805.36,568.5a58,58,0,0,1,6.89-8.69l-10,5.29a66.52,66.52,0,0,0-4.28,7.31Z"/><path class="cls-5" d="M1917.31,664a56.76,56.76,0,0,1-6.89,8.68l10-5.29a65.46,65.46,0,0,0,4.28-7.3Z"/><path class="cls-5" d="M1869.46,689.41l-7.37,3.91a66.48,66.48,0,0,0,8.45.55l10-5.29A57.46,57.46,0,0,1,1869.46,689.41Z"/><circle class="cls-5" cx="1746.89" cy="754.32" r="4.77"/><circle class="cls-5" cx="1682.97" cy="633.75" r="4.77"/><path class="cls-5" d="M1849.19,587.25a60.7,60.7,0,0,1,30.17-4.89l-1.85,17.25c-8.37-.74-15.42.2-21.2,2.29l3.7,7c16.37-4.91,26.69-4.56,32.53,6.47l.09.16c5.53,10.44,2.1,22.06-12.56,30.8l2.54,4.8-8.75,4.64-2.67-5a48.64,48.64,0,0,1-23.39,3.67l1.3-17.07A36.69,36.69,0,0,0,1864,636l-3.66-6.9c-15.52,4.67-25.83,4.54-31.9-6.91l-.09-.16c-5.88-11.11-.65-22.18,12-30.2l-4.37-8.24,8.75-4.64Zm23.14,45.29c4.08-2.27,4.88-4.42,4-6.1l-.09-.18c-.94-1.76-2.74-2.1-7.51-.54Zm-27.93-21,.09.17c.93,1.77,2.52,2.11,7.21.59l-3.61-6.81C1844.35,607.81,1843.46,609.79,1844.4,611.56Z"/><path class="cls-5" d="M1835.81,583.17l8.75-4.64a.44.44,0,0,1,.6.18l4.23,8a61.16,61.16,0,0,1,30-4.77.45.45,0,0,1,.39.49L1878,599.66a.44.44,0,0,1-.48.39,49.41,49.41,0,0,0-20.53,2.1l3.29,6.21c15.11-4.49,26.45-5,32.7,6.79l.09.16c6,11.23,1.33,22.86-12.36,31.18l2.35,4.42a.44.44,0,0,1-.19.6l-8.75,4.64a.45.45,0,0,1-.6-.18l-2.49-4.7a48.76,48.76,0,0,1-23.22,3.55.45.45,0,0,1-.4-.48l1.3-17.07a.47.47,0,0,1,.16-.31.42.42,0,0,1,.34-.09,36,36,0,0,0,14.21-1.18l-3.23-6.09c-14.65,4.37-25.71,4.76-32.07-7.23l-.09-.17c-5.69-10.73-1.26-22.13,11.83-30.55l-4.18-7.88A.44.44,0,0,1,1835.81,583.17Zm8.78-3.65-8,4.22,4.16,7.86a.43.43,0,0,1-.15.58c-13.12,8.29-17.44,19.08-11.86,29.61l.09.16c6.14,11.59,16.56,11.16,31.38,6.7a.44.44,0,0,1,.52.21l3.65,6.9a.43.43,0,0,1,0,.38.45.45,0,0,1-.28.26,37.52,37.52,0,0,1-14.64,1.41L1848.28,654A48.23,48.23,0,0,0,1871,650.3a.44.44,0,0,1,.56.2l2.47,4.66,8-4.22-2.33-4.41a.45.45,0,0,1,.16-.59c13.52-8.06,18.15-19.35,12.4-30.21l-.09-.17c-5.22-9.83-14.19-11.59-32-6.25a.44.44,0,0,1-.52-.21l-3.7-7a.44.44,0,0,1,0-.37.44.44,0,0,1,.27-.25,49.42,49.42,0,0,1,21-2.36l1.75-16.38a60.41,60.41,0,0,0-29.51,4.91.45.45,0,0,1-.57-.2Zm3.29,25.6a.4.4,0,0,1,.32,0,.44.44,0,0,1,.28.22l3.61,6.82a.44.44,0,0,1,0,.37.49.49,0,0,1-.27.26c-4.67,1.51-6.63,1.3-7.75-.81l-.09-.17c-1.13-2.13.17-4.37,3.85-6.64Zm3.18,6.94-3.14-5.92c-4.39,2.84-3.45,4.62-3.13,5.21l.09.17C1845.61,612.91,1846.79,613.38,1851.06,612.06Zm17.45,13.27.07,0c4.75-1.56,6.92-1.35,8,.76l.09.17c.67,1.26,1,3.81-4.16,6.69a.38.38,0,0,1-.34,0,.4.4,0,0,1-.27-.22l-3.61-6.81a.42.42,0,0,1,0-.38A.47.47,0,0,1,1868.51,625.33Zm4,6.59c3.06-1.79,4.27-3.66,3.42-5.28l-.09-.17c-.73-1.36-2-1.88-6.48-.49Z"/><rect class="cls-4" x="-53.05" y="480.85" width="379.98" height="183.1" transform="translate(-261.84 1005.27) rotate(-123.89)"/><path class="cls-1" d="M74.2,614.56a54.78,54.78,0,0,0,11.69,12.53L67,599A54.51,54.51,0,0,0,74.2,614.56Z"/><path class="cls-1" d="M98.88,515.74c24.07-16.16,52.48-19.41,75.11-10.9l-59.64-88.77A28.49,28.49,0,0,1,80.88,410L7.76,459.08a28.48,28.48,0,0,1-7,33.3l59.64,88.78C61.07,557,74.82,531.91,98.88,515.74Z"/><path class="cls-1" d="M175,629.07c-24.07,16.16-52.48,19.41-75.11,10.9l59.64,88.77A28.49,28.49,0,0,1,193,734.85l73.12-49.12a28.48,28.48,0,0,1,7-33.3L213.5,563.65C212.82,587.83,199.07,612.9,175,629.07Z"/><path class="cls-1" d="M199.69,530.25A54.78,54.78,0,0,0,188,517.72l18.87,28.1A54.51,54.51,0,0,0,199.69,530.25Z"/><path class="cls-5" d="M273.14,652.43a28.48,28.48,0,0,0-7,33.3L193,734.85a28.49,28.49,0,0,0-33.47-6.11L99.9,640a63.87,63.87,0,0,1-7.71-3.51l66,98.25.63-.42a24,24,0,0,1,33.27,6.53L272,687.13a24,24,0,0,1,6.53-33.26l.63-.42-66-98.26a66.27,66.27,0,0,1,.33,8.46Z"/><path class="cls-5" d="M81.8,404,1.88,457.68a24,24,0,0,1-6.53,33.26l-.63.42,66,98.26a66.2,66.2,0,0,1-.33-8.46L.75,492.38a28.48,28.48,0,0,0,7-33.3L80.88,410a28.49,28.49,0,0,0,33.47,6.11L174,504.84a65.46,65.46,0,0,1,7.71,3.51l-66-98.25-.63.42A24,24,0,0,1,81.8,404Z"/><path class="cls-5" d="M172.53,625.38c-25.08,16.85-55.16,18.92-77.28,7.66L99.9,640c22.63,8.51,51,5.26,75.11-10.9s37.81-41.24,38.49-65.42l-4.66-6.92C210.9,581.47,197.61,608.53,172.53,625.38Z"/><path class="cls-5" d="M101.36,519.43c25.08-16.85,55.16-18.92,77.28-7.66L174,504.84c-22.63-8.51-51-5.26-75.11,10.9S61.07,557,60.39,581.16l4.66,6.92C63,563.34,76.28,536.28,101.36,519.43Z"/><path class="cls-5" d="M199.69,530.25a54.51,54.51,0,0,1,7.18,15.57l6.3,9.37a59.17,59.17,0,0,0-31.47-46.84l6.3,9.37A54.78,54.78,0,0,1,199.69,530.25Z"/><path class="cls-5" d="M74.2,614.56A54.51,54.51,0,0,1,67,599l-6.3-9.37a59.17,59.17,0,0,0,31.47,46.84l-6.3-9.37A54.78,54.78,0,0,1,74.2,614.56Z"/><path class="cls-5" d="M208.84,556.73l4.66,6.92a66.27,66.27,0,0,0-.33-8.46l-6.3-9.37A56.62,56.62,0,0,1,208.84,556.73Z"/><path class="cls-5" d="M178.64,511.77a57.68,57.68,0,0,1,9.36,6l-6.3-9.37a65.46,65.46,0,0,0-7.71-3.51Z"/><path class="cls-5" d="M95.25,633a57.68,57.68,0,0,1-9.36-5.95l6.3,9.37A63.87,63.87,0,0,0,99.9,640Z"/><path class="cls-5" d="M65.05,588.08l-4.66-6.92a66.2,66.2,0,0,0,.33,8.46L67,599A56.62,56.62,0,0,1,65.05,588.08Z"/><circle class="cls-5" cx="172.64" cy="748.14" r="4.77"/><circle class="cls-5" cx="285.92" cy="672.04" r="4.77"/><circle class="cls-5" cx="101.03" cy="396.82" r="4.77"/><path class="cls-5" d="M164.54,557.31a60.62,60.62,0,0,1,8,29.5l-17.36,0c-.13-8.4-1.79-15.31-4.48-20.85l-6.56,4.41c6.58,15.77,7.3,26.07-3.05,33l-.16.1c-9.8,6.59-21.72,4.38-31.94-9.29l-4.51,3L99,589l4.74-3.19a48.56,48.56,0,0,1-6.07-22.88l17.11-.48a36.58,36.58,0,0,0,2.88,14.7l6.48-4.35c-6.26-15-7.19-25.23,3.56-32.45l.16-.1c10.43-7,22-3,31.27,8.81l7.75-5.2,5.52,8.22ZM121.91,585c2.68,3.82,4.9,4.39,6.48,3.33l.16-.11c1.66-1.11,1.81-2.93-.24-7.52Zm18-30-.16.1c-1.66,1.12-1.84,2.73.16,7.24l6.4-4.3C143.59,554.63,141.53,554,139.87,555.07Z"/><path class="cls-5" d="M167.22,543.58l5.52,8.22a.45.45,0,0,1-.12.62l-7.49,5A61.09,61.09,0,0,1,173,586.81a.45.45,0,0,1-.45.44l-17.35,0a.44.44,0,0,1-.44-.44,49.19,49.19,0,0,0-4.22-20.2l-5.83,3.91c6,14.57,7.72,25.79-3.36,33.23l-.15.11c-10.55,7.09-22.6,3.7-32.29-9.06l-4.16,2.8a.46.46,0,0,1-.62-.12l-5.52-8.23a.44.44,0,0,1,.12-.61l4.41-3a49.1,49.1,0,0,1-5.94-22.73.45.45,0,0,1,.44-.45l17.11-.48a.42.42,0,0,1,.33.13.44.44,0,0,1,.12.33,36,36,0,0,0,2.65,14l5.72-3.85c-5.86-14.12-7.4-25.08,3.86-32.65l.16-.1c10.08-6.78,21.88-3.56,31.61,8.58l7.41-5A.45.45,0,0,1,167.22,543.58Zm4.53,8.35-5-7.49-7.38,5a.45.45,0,0,1-.6-.09c-9.61-12.19-20.79-15.37-30.68-8.73l-.15.11c-10.89,7.31-9.38,17.63-3.4,31.91a.46.46,0,0,1-.16.54l-6.48,4.35a.5.5,0,0,1-.38.06.45.45,0,0,1-.28-.26,37.41,37.41,0,0,1-2.93-14.41l-16.2.46a48.25,48.25,0,0,0,6,22.23.44.44,0,0,1-.14.58l-4.37,2.94,5,7.48,4.14-2.78a.44.44,0,0,1,.6.1c9.42,12.61,21.14,16.05,31.34,9.19l.16-.1c9.24-6.21,10.05-15.32,2.89-32.49a.44.44,0,0,1,.16-.54l6.56-4.41a.48.48,0,0,1,.37-.06.44.44,0,0,1,.28.24,49.64,49.64,0,0,1,4.52,20.6l16.47,0a60.52,60.52,0,0,0-7.94-28.84.42.42,0,0,1,.14-.58Zm-25.11,5.93a.45.45,0,0,1,.07.32.46.46,0,0,1-.19.3l-6.4,4.3a.5.5,0,0,1-.38.06.49.49,0,0,1-.28-.25c-2-4.49-2-6.45,0-7.79l.16-.1c2-1.35,4.36-.29,7,3.14Zm-6.58,3.88,5.57-3.73c-3.28-4.07-4.95-3-5.51-2.57l-.16.1C138.66,556.42,138.31,557.64,140.06,561.74Zm-11.38,18.74a.43.43,0,0,1,0,.07c2,4.56,2.06,6.74.08,8.07l-.16.11c-1.19.8-3.69,1.41-7.1-3.44a.46.46,0,0,1-.07-.34.44.44,0,0,1,.19-.29l6.4-4.3a.49.49,0,0,1,.37-.06A.42.42,0,0,1,128.68,580.48Zm-6.14,4.66c2.1,2.86,4.08,3.87,5.6,2.85l.16-.1c1.28-.86,1.66-2.22-.18-6.5Z"/><rect class="cls-4" x="898.45" y="860.3" width="274.07" height="132.07" transform="translate(1651.64 2171.59) rotate(-158.14)"/><path class="cls-1" d="M1015.18,976.93a39.12,39.12,0,0,0,12.06,2.73l-22.65-9.09A38.91,38.91,0,0,0,1015.18,976.93Z"/><path class="cls-1" d="M989.79,908c7.78-19.4,23.4-32.87,40.35-37L958.55,842.3a20.55,20.55,0,0,1-22.43,10l-23.66,59a20.55,20.55,0,0,1,9.34,22.7l71.59,28.72C984,947.94,982,927.41,989.79,908Z"/><path class="cls-1" d="M1081.17,944.66c-7.78,19.41-23.4,32.88-40.35,37l71.59,28.72a20.56,20.56,0,0,1,22.44-10l23.65-59a20.56,20.56,0,0,1-9.34-22.7L1077.57,890C1087,904.73,1089,925.26,1081.17,944.66Z"/><path class="cls-1" d="M1055.78,875.74a39.06,39.06,0,0,0-12.06-2.73l22.66,9.09A39.12,39.12,0,0,0,1055.78,875.74Z"/><path class="cls-5" d="M1149.16,918.76a20.56,20.56,0,0,0,9.34,22.7l-23.65,59a20.56,20.56,0,0,0-22.44,10l-71.59-28.72a47.66,47.66,0,0,1-6,1l79.24,31.79.2-.51a17.28,17.28,0,0,1,22.48-9.61l25.86-64.45a17.29,17.29,0,0,1-9.61-22.49l.2-.5-79.23-31.79a49,49,0,0,1,3.63,4.91Z"/><path class="cls-5" d="M934.24,848.31l-25.85,64.45A17.29,17.29,0,0,1,918,935.24l-.21.51L997,967.54a50.18,50.18,0,0,1-3.63-4.91L921.8,933.91a20.55,20.55,0,0,0-9.34-22.7l23.66-59a20.55,20.55,0,0,0,22.43-10L1030.14,871a47.66,47.66,0,0,1,6-1l-79.23-31.79-.21.51A17.28,17.28,0,0,1,934.24,848.31Z"/><path class="cls-5" d="M1078.2,943.47c-8.11,20.23-25.2,33.67-43,35.94l5.59,2.24c17-4.11,32.57-17.58,40.35-37s5.81-39.93-3.6-54.62L1072,887.8C1083.25,901.72,1086.31,923.24,1078.2,943.47Z"/><path class="cls-5" d="M992.76,909.2c8.12-20.23,25.21-33.67,43-35.94l-5.59-2.24c-17,4.11-32.57,17.58-40.35,37s-5.8,39.94,3.6,54.63l5.59,2.24C987.71,951,984.65,929.43,992.76,909.2Z"/><path class="cls-5" d="M1055.78,875.74a39.12,39.12,0,0,1,10.6,6.36l7.56,3A42.68,42.68,0,0,0,1036.16,870l7.56,3A39.06,39.06,0,0,1,1055.78,875.74Z"/><path class="cls-5" d="M1015.18,976.93a38.91,38.91,0,0,1-10.59-6.36l-7.57-3a42.68,42.68,0,0,0,37.78,15.15l-7.56-3A39.12,39.12,0,0,1,1015.18,976.93Z"/><path class="cls-5" d="M1072,887.8l5.59,2.24a49,49,0,0,0-3.63-4.91l-7.56-3A41.34,41.34,0,0,1,1072,887.8Z"/><path class="cls-5" d="M1035.73,873.26a41.08,41.08,0,0,1,8-.25l-7.56-3a47.66,47.66,0,0,0-6,1Z"/><path class="cls-5" d="M1035.23,979.41a41.86,41.86,0,0,1-8,.25l7.56,3a47.66,47.66,0,0,0,6-1Z"/><path class="cls-5" d="M999,964.87l-5.59-2.24a50.18,50.18,0,0,0,3.63,4.91l7.57,3A41.41,41.41,0,0,1,999,964.87Z"/><circle class="cls-5" cx="1128.1" cy="1016.62" r="3.44"/><circle class="cls-5" cx="1164.74" cy="925.26" r="3.44"/><circle class="cls-5" cx="906.15" cy="927.58" r="3.44"/><circle class="cls-5" cx="942.79" cy="836.23" r="3.44"/><path class="cls-5" d="M1045.81,906.13a43.74,43.74,0,0,1,16.74,14.34l-10.36,7a35.43,35.43,0,0,0-11.14-10.61l-2.12,5.29c10.32,6.73,14.94,12.58,11.59,20.93l-.06.12c-3.17,7.91-11.17,11.43-22.81,7.43l-1.46,3.63-6.63-2.66,1.54-3.82a35,35,0,0,1-12.91-11.17l10-7.24a26.34,26.34,0,0,0,7.68,7.6l2.1-5.23c-9.8-6.37-14.53-12.12-11.05-20.79l.05-.12c3.37-8.42,11.91-10.69,22.22-7.44l2.51-6.25,6.63,2.66ZM1031.64,940c3.15,1.18,4.71.62,5.22-.65l.05-.13c.54-1.34-.11-2.49-3.2-4.39Zm-1.45-25.16,0,.13c-.54,1.34,0,2.37,3,4.25l2.07-5.16C1032.23,913,1030.72,913.47,1030.19,914.81Z"/><path class="cls-5" d="M1041.83,896.86l6.63,2.66a.33.33,0,0,1,.18.42l-2.43,6a44,44,0,0,1,16.61,14.32.31.31,0,0,1-.09.44l-10.36,7a.32.32,0,0,1-.44-.08,35.63,35.63,0,0,0-10.72-10.33l-1.89,4.7c9.51,6.24,15.08,12.24,11.49,21.18l0,.12c-3.41,8.51-12,11.38-22.92,7.71l-1.35,3.35a.31.31,0,0,1-.42.18l-6.62-2.66a.32.32,0,0,1-.18-.42l1.42-3.55a35.21,35.21,0,0,1-12.76-11.14.32.32,0,0,1,.07-.44l10-7.24a.31.31,0,0,1,.25,0,.33.33,0,0,1,.21.14,25.9,25.9,0,0,0,7.26,7.28l1.85-4.62c-9.23-6-14.59-11.94-10.95-21l0-.12c3.26-8.13,11.6-11,22.34-7.72l2.39-6A.33.33,0,0,1,1041.83,896.86Zm6.09,3.14-6-2.42-2.39,5.95a.32.32,0,0,1-.39.18c-10.68-3.36-18.64-.72-21.83,7.25l-.06.13c-3.52,8.78,1.57,14.32,10.93,20.4a.32.32,0,0,1,.12.39l-2.09,5.23a.32.32,0,0,1-.2.18.31.31,0,0,1-.28,0,26.83,26.83,0,0,1-7.59-7.4l-9.47,6.85a34.62,34.62,0,0,0,12.61,10.81.34.34,0,0,1,.15.41l-1.42,3.53,6,2.42,1.33-3.34a.32.32,0,0,1,.41-.18c10.73,3.69,19.11,1,22.41-7.25l0-.12c3-7.46-.23-13.22-11.47-20.54a.33.33,0,0,1-.12-.39l2.12-5.29a.34.34,0,0,1,.2-.19.3.3,0,0,1,.26,0A35.7,35.7,0,0,1,1052.27,927l9.84-6.66a43.56,43.56,0,0,0-16.45-14,.33.33,0,0,1-.15-.41Zm-12.56,13.73a.37.37,0,0,1,.17.16.33.33,0,0,1,0,.26l-2.08,5.16a.27.27,0,0,1-.19.18.32.32,0,0,1-.27,0c-3-1.87-3.8-3-3.16-4.64l.05-.13c.65-1.61,2.48-1.94,5.45-1Zm-2.35,5,1.8-4.48c-3.6-1.1-4.14.25-4.33.7l0,.13C1030,916.11,1030.3,917,1033,918.71Zm.82,15.79.05,0c3.07,1.89,4,3.18,3.33,4.78l0,.13c-.39,1-1.63,2.34-5.63.83a.29.29,0,0,1-.18-.18.29.29,0,0,1,0-.24l2.08-5.17a.29.29,0,0,1,.19-.18A.33.33,0,0,1,1033.83,934.5Zm-1.77,5.28c2.42.85,4,.65,4.5-.58l0-.13c.42-1,.09-2-2.74-3.79Z"/><rect class="cls-4" x="1509.64" y="308.34" width="274.07" height="132.07" transform="translate(2268.11 -1195.83) rotate(98.78)"/><path class="cls-1" d="M1700.56,382.69a39.39,39.39,0,0,0-.08-12.36l-3.73,24.13A39.34,39.34,0,0,0,1700.56,382.69Z"/><path class="cls-1" d="M1639.16,423c-20.67-3.19-37.32-15.36-45.16-30.94l-11.78,76.24a20.55,20.55,0,0,1,14.77,19.6l62.79,9.7a20.53,20.53,0,0,1,20-14.23l11.78-76.23C1679.37,419.64,1659.82,426.22,1639.16,423Z"/><path class="cls-1" d="M1654.19,325.71c20.67,3.2,37.32,15.37,45.16,31l11.78-76.24a20.53,20.53,0,0,1-14.76-19.6l-62.79-9.7a20.55,20.55,0,0,1-20,14.23l-11.78,76.23C1614,329.1,1633.53,322.52,1654.19,325.71Z"/><path class="cls-1" d="M1592.8,366a39.16,39.16,0,0,0,.07,12.37l3.73-24.13A39.07,39.07,0,0,0,1592.8,366Z"/><path class="cls-5" d="M1613.58,265.35a20.55,20.55,0,0,0,20-14.23l62.79,9.7a20.53,20.53,0,0,0,14.76,19.6l-11.78,76.24a47.55,47.55,0,0,1,2.38,5.62l13-84.37-.54-.08a17.28,17.28,0,0,1-14.44-19.73l-68.63-10.6a17.28,17.28,0,0,1-19.73,14.44l-.54-.08-13,84.37a48.41,48.41,0,0,1,4-4.65Z"/><path class="cls-5" d="M1593.58,490.63l68.63,10.61a17.29,17.29,0,0,1,19.72-14.45l.54.09,13-84.37a48.41,48.41,0,0,1-4,4.65l-11.78,76.23a20.53,20.53,0,0,0-20,14.23l-62.79-9.7a20.55,20.55,0,0,0-14.77-19.6L1594,392.08a47.48,47.48,0,0,1-2.37-5.62l-13,84.37.54.08A17.29,17.29,0,0,1,1593.58,490.63Z"/><path class="cls-5" d="M1653.7,328.88c21.54,3.33,38.5,16.94,44.73,33.72l.92-5.94c-7.84-15.58-24.49-27.75-45.16-31s-40.21,3.39-52.39,15.87l-.91,5.95C1611.89,333.41,1632.17,325.55,1653.7,328.88Z"/><path class="cls-5" d="M1639.65,419.86c-21.54-3.33-38.5-16.94-44.73-33.72l-.92,5.94c7.84,15.58,24.49,27.75,45.16,30.94s40.21-3.38,52.39-15.86l.92-6C1681.46,415.33,1661.19,423.18,1639.65,419.86Z"/><path class="cls-5" d="M1592.8,366a39.07,39.07,0,0,1,3.8-11.76l1.24-8a42.67,42.67,0,0,0-6.21,40.23l1.24-8A39.16,39.16,0,0,1,1592.8,366Z"/><path class="cls-5" d="M1700.56,382.69a39.34,39.34,0,0,1-3.81,11.77l-1.24,8.05a42.72,42.72,0,0,0,6.22-40.23l-1.25,8.05A39.39,39.39,0,0,1,1700.56,382.69Z"/><path class="cls-5" d="M1600.89,347.53l.91-5.95a48.41,48.41,0,0,0-4,4.65l-1.24,8A41.16,41.16,0,0,1,1600.89,347.53Z"/><path class="cls-5" d="M1594.92,386.14a41.77,41.77,0,0,1-2.05-7.73l-1.24,8a47.48,47.48,0,0,0,2.37,5.62Z"/><path class="cls-5" d="M1698.43,362.6a41.77,41.77,0,0,1,2,7.73l1.25-8.05a47.55,47.55,0,0,0-2.38-5.62Z"/><path class="cls-5" d="M1692.47,401.21l-.92,6a48.41,48.41,0,0,0,4-4.65l1.24-8.05A41.78,41.78,0,0,1,1692.47,401.21Z"/><circle class="cls-5" cx="1713.67" cy="263.73" r="3.44"/><circle class="cls-5" cx="1616.39" cy="248.7" r="3.44"/><circle class="cls-5" cx="1677.15" cy="500.07" r="3.44"/><circle class="cls-5" cx="1579.87" cy="485.04" r="3.44"/><path class="cls-5" d="M1624.66,368.88a43.68,43.68,0,0,1,10.18-19.55l9.18,8.5a35.57,35.57,0,0,0-7.82,13.25l5.64.87c4.22-11.58,8.87-17.39,17.76-16l.14,0c8.41,1.3,13.66,8.3,12.39,20.55l3.87.59-1.09,7.06-4.07-.63a34.9,34.9,0,0,1-8,15.1l-9.31-8.11a26.26,26.26,0,0,0,5.66-9.2l-5.56-.86c-4,11-8.52,16.89-17.75,15.47l-.14,0c-9-1.39-13.1-9.19-12.27-20l-6.65-1,1.09-7.06Zm36.16,6.15c.45-3.34-.45-4.73-1.81-4.94l-.13,0c-1.43-.22-2.4.67-3.56,4.11Zm-24.17,7.1.13,0c1.43.22,2.31-.54,3.46-3.91l-5.5-.85C1634.46,380.54,1635.22,381.91,1636.65,382.13Z"/><path class="cls-5" d="M1616.53,374.85l1.09-7.05a.32.32,0,0,1,.37-.27l6.43,1a44,44,0,0,1,10.18-19.41.33.33,0,0,1,.46,0l9.18,8.51a.34.34,0,0,1,0,.45,35.42,35.42,0,0,0-7.64,12.77l5,.78c3.92-10.67,8.51-17.45,18-16l.14,0c9,1.4,13.79,9.08,12.69,20.59l3.57.55a.32.32,0,0,1,.27.36l-1.09,7.06a.32.32,0,0,1-.37.27l-3.79-.59a35.18,35.18,0,0,1-8,15,.33.33,0,0,1-.45,0l-9.31-8.11a.38.38,0,0,1-.11-.23.31.31,0,0,1,.1-.24,25.92,25.92,0,0,0,5.44-8.72l-4.91-.76c-3.79,10.35-8.34,16.92-18,15.42l-.13,0c-8.66-1.33-13.35-8.81-12.57-20l-6.36-1A.32.32,0,0,1,1616.53,374.85Zm1.68-6.64-1,6.43,6.34,1a.34.34,0,0,1,.27.35c-.86,11.16,3.51,18.31,12,19.62l.14,0c9.35,1.45,13.59-4.77,17.4-15.26a.31.31,0,0,1,.35-.2l5.56.86a.31.31,0,0,1,.23.15.29.29,0,0,1,0,.27,26.81,26.81,0,0,1-5.49,9.07l8.82,7.68a34.72,34.72,0,0,0,7.68-14.73.31.31,0,0,1,.36-.23l3.75.58,1-6.43-3.55-.55a.31.31,0,0,1-.27-.35c1.17-11.29-3.36-18.84-12.12-20.19l-.14,0c-7.93-1.23-12.82,3.21-17.41,15.81a.32.32,0,0,1-.35.21l-5.64-.87a.31.31,0,0,1-.22-.15.33.33,0,0,1,0-.26,35.8,35.8,0,0,1,7.68-13.13l-8.71-8.08A43.61,43.61,0,0,0,1625,369a.32.32,0,0,1-.36.24Zm16.21,9.13a.37.37,0,0,1,.12-.2.32.32,0,0,1,.25-.07l5.5.85a.32.32,0,0,1,.22.15.32.32,0,0,1,0,.27c-1.14,3.35-2.1,4.39-3.8,4.13l-.14,0c-1.72-.27-2.45-2-2.18-5.09Zm5.39,1.16-4.78-.74c-.25,3.76,1.19,4,1.67,4.06l.13,0C1638,382,1638.73,381.53,1639.81,378.5Zm15.2-4.37a.13.13,0,0,1,0-.06c1.15-3.41,2.21-4.58,3.9-4.32l.14,0c1,.16,2.65,1.06,2.08,5.3a.33.33,0,0,1-.37.27l-5.5-.85a.31.31,0,0,1-.22-.15A.26.26,0,0,1,1655,374.13Zm5.53.53c.29-2.55-.27-4.05-1.58-4.25l-.13,0c-1.1-.17-2,.36-3.08,3.53Z"/><rect class="cls-4" x="746.47" y="-136.79" width="274.07" height="132.07" transform="translate(948.49 -954.7) rotate(98.78)"/><path class="cls-1" d="M876-22.1C855.31-25.29,838.66-37.46,830.82-53L819,23.19a20.54,20.54,0,0,1,14.77,19.6L896.6,52.5a20.53,20.53,0,0,1,20-14.23L928.37-38C916.19-25.48,896.65-18.91,876-22.1Z"/><path class="cls-5" d="M830.4,45.51,899,56.12a17.29,17.29,0,0,1,19.72-14.45l.55.08,13-84.36a45.79,45.79,0,0,1-4,4.64L916.59,38.27a20.53,20.53,0,0,0-20,14.23l-62.79-9.71A20.54,20.54,0,0,0,819,23.19L830.82-53a46.93,46.93,0,0,1-2.37-5.63l-13,84.37.54.09A17.28,17.28,0,0,1,830.4,45.51Z"/><circle class="cls-5" cx="913.97" cy="54.94" r="3.44"/><circle class="cls-5" cx="816.7" cy="39.91" r="3.44"/><rect class="cls-4" x="209.03" y="262.39" width="274.07" height="132.07" transform="translate(613.53 -66.65) rotate(80.6)"/><path class="cls-1" d="M399.85,319.52a39.2,39.2,0,0,0-3.93-11.73l4,24.09A39.13,39.13,0,0,0,399.85,319.52Z"/><path class="cls-1" d="M354.11,377c-20.63,3.42-40.25-2.94-52.56-15.3l12.6,76.11a20.54,20.54,0,0,1,20.15,14L397,441.43a20.54,20.54,0,0,1,14.55-19.76l-12.6-76.1C391.26,361.23,374.74,373.58,354.11,377Z"/><path class="cls-1" d="M338,279.85c20.63-3.41,40.25,2.95,52.56,15.3L378,219.05a20.54,20.54,0,0,1-20.15-14l-62.68,10.38a20.55,20.55,0,0,1-14.55,19.76l12.6,76.1C300.87,295.62,317.39,283.27,338,279.85Z"/><path class="cls-1" d="M292.28,337.33a39.14,39.14,0,0,0,3.93,11.72l-4-24.08A39.14,39.14,0,0,0,292.28,337.33Z"/><path class="cls-5" d="M280.6,235.18a20.55,20.55,0,0,0,14.55-19.76L357.83,205a20.54,20.54,0,0,0,20.15,14l12.6,76.1a46,46,0,0,1,4,4.61l-13.95-84.23-.54.09a17.29,17.29,0,0,1-19.88-14.23l-68.51,11.35a17.29,17.29,0,0,1-14.23,19.88l-.54.09,13.95,84.22a47.51,47.51,0,0,1,2.31-5.65Z"/><path class="cls-5" d="M331.91,455.45l68.51-11.34a17.29,17.29,0,0,1,14.23-19.88l.54-.09-13.95-84.22a47.51,47.51,0,0,1-2.31,5.65l12.6,76.1A20.54,20.54,0,0,0,397,441.43L334.3,451.81a20.54,20.54,0,0,0-20.15-14l-12.6-76.11a47.17,47.17,0,0,1-4-4.6l13.95,84.22.54-.09A17.29,17.29,0,0,1,331.91,455.45Z"/><path class="cls-5" d="M338.54,283c21.51-3.56,41.87,4.08,53,18.08l-1-5.94c-12.31-12.35-31.93-18.71-52.56-15.3s-37.15,15.77-44.82,31.43l1,5.94C300.23,300.36,317,286.58,338.54,283Z"/><path class="cls-5" d="M353.59,373.83c-21.51,3.56-41.87-4.07-53-18.07l1,5.93c12.31,12.36,31.93,18.72,52.56,15.3s37.15-15.76,44.82-31.42l-1-5.94C391.9,356.48,375.09,370.27,353.59,373.83Z"/><path class="cls-5" d="M292.28,337.33a39.14,39.14,0,0,1-.06-12.36l-1.33-8a42.69,42.69,0,0,0,6.65,40.16l-1.33-8A39.14,39.14,0,0,1,292.28,337.33Z"/><path class="cls-5" d="M399.85,319.52a39.13,39.13,0,0,1,.06,12.36l1.33,8a42.68,42.68,0,0,0-6.65-40.16l1.33,8A39.2,39.2,0,0,1,399.85,319.52Z"/><path class="cls-5" d="M294.19,317.22l-1-5.94a47.51,47.51,0,0,0-2.31,5.65l1.33,8A40.79,40.79,0,0,1,294.19,317.22Z"/><path class="cls-5" d="M300.57,355.76a41.46,41.46,0,0,1-4.36-6.71l1.33,8a47.17,47.17,0,0,0,4,4.6Z"/><path class="cls-5" d="M391.56,301.09a41.81,41.81,0,0,1,4.36,6.7l-1.33-8a46,46,0,0,0-4-4.61Z"/><path class="cls-5" d="M398,339.63l1,5.94a47.51,47.51,0,0,0,2.31-5.65l-1.33-8A41.72,41.72,0,0,1,398,339.63Z"/><circle class="cls-5" cx="375.18" cy="202.4" r="3.44"/><circle class="cls-5" cx="278.07" cy="218.48" r="3.44"/><circle class="cls-5" cx="414.25" cy="438.33" r="3.44"/><circle class="cls-5" cx="317.14" cy="454.41" r="3.44"/><path class="cls-5" d="M323.44,330.08A43.77,43.77,0,0,1,327,308.33l11.38,5.21a35.55,35.55,0,0,0-3.29,15l5.62-.93c.4-12.32,3-19.3,11.88-20.77l.14,0c8.4-1.39,15.56,3.62,18.18,15.65l3.87-.64,1.16,7.05-4.06.67A35,35,0,0,1,369,346.41l-11.37-4.8a26.24,26.24,0,0,0,2.5-10.51l-5.55.92c-.36,11.69-2.82,18.71-12,20.24l-.13,0c-8.95,1.48-15.32-4.63-17.9-15.14l-6.64,1.1-1.16-7.05Zm36.27-5.45c-.62-3.31-1.9-4.35-3.26-4.12l-.14,0c-1.42.24-2.06,1.39-2.09,5ZM339,338.93l.14,0c1.42-.24,2-1.24,2.06-4.8l-5.49.91C336.39,338.1,337.54,339.16,339,338.93Z"/><path class="cls-5" d="M317.58,338.29l-1.17-7a.32.32,0,0,1,.26-.37l6.42-1.06a44.08,44.08,0,0,1,3.62-21.63.32.32,0,0,1,.43-.15l11.37,5.21a.32.32,0,0,1,.16.42,35.7,35.7,0,0,0-3.27,14.52l5-.82c.4-11.36,2.64-19.24,12.14-20.81l.13,0c9.05-1.5,15.94,4.32,18.49,15.59l3.56-.59a.32.32,0,0,1,.37.27l1.17,7a.32.32,0,0,1-.27.37l-3.77.63a35.31,35.31,0,0,1-2.9,16.69.33.33,0,0,1-.42.17l-11.38-4.8a.32.32,0,0,1-.17-.19.31.31,0,0,1,0-.25,26.05,26.05,0,0,0,2.46-10l-4.91.82c-.37,11-2.64,18.67-12.29,20.27l-.14,0c-8.64,1.44-15.42-4.2-18.18-15.08L318,338.56A.32.32,0,0,1,317.58,338.29Zm-.48-6.83,1.06,6.41,6.32-1.05a.33.33,0,0,1,.37.24c2.66,10.88,9,16.31,17.53,14.9l.13,0c9.33-1.55,11.42-8.77,11.77-19.93a.3.3,0,0,1,.27-.3l5.55-.92a.33.33,0,0,1,.27.07.31.31,0,0,1,.1.25,26.71,26.71,0,0,1-2.39,10.34L368.86,346a34.83,34.83,0,0,0,2.7-16.39.33.33,0,0,1,.26-.34l3.75-.62-1.06-6.41-3.54.58a.32.32,0,0,1-.37-.24c-2.41-11.09-9.08-16.85-17.82-15.4l-.14,0c-7.92,1.31-11.17,7.05-11.61,20.46a.32.32,0,0,1-.26.31l-5.63.93a.36.36,0,0,1-.26-.07.32.32,0,0,1-.11-.24A35.82,35.82,0,0,1,338,313.7l-10.8-4.95a43.78,43.78,0,0,0-3.41,21.31.32.32,0,0,1-.26.34Zm18.25,3.61a.37.37,0,0,1,0-.23.37.37,0,0,1,.22-.14l5.49-.91a.31.31,0,0,1,.26.08.32.32,0,0,1,.11.24c0,3.54-.63,4.83-2.33,5.11l-.13,0c-1.72.28-2.95-1.12-3.66-4.16Zm5.48-.58-4.77.79c.94,3.65,2.37,3.41,2.85,3.33l.14,0C340.16,338.41,340.76,337.71,340.83,334.49Zm13.07-8.9v0c0-3.6.67-5.05,2.36-5.33l.14,0c1-.17,2.84.18,3.63,4.38a.32.32,0,0,1-.06.25.33.33,0,0,1-.21.13l-5.49.91a.35.35,0,0,1-.26-.07A.36.36,0,0,1,353.9,325.59Zm5.43-1.22c-.53-2.51-1.52-3.76-2.83-3.55l-.13,0c-1.1.18-1.76,1-1.82,4.31Z"/><rect class="cls-4" x="1059.43" y="107.1" width="274.07" height="132.07" transform="translate(2336.08 -230.29) rotate(152.27)"/><path class="cls-1" d="M1221.82,221.39a39.16,39.16,0,0,0,9.9-7.41l-21.61,11.35A38.93,38.93,0,0,0,1221.82,221.39Z"/><path class="cls-1" d="M1152.88,196c-9.73-18.51-9.86-39.13-2-54.7l-68.28,35.89a20.55,20.55,0,0,1-7,23.53L1105.19,257a20.54,20.54,0,0,1,23.33,7.61l68.29-35.89C1179.52,226.35,1162.61,214.55,1152.88,196Z"/><path class="cls-1" d="M1240,150.23c9.73,18.51,9.85,39.13,2,54.7L1310.32,169a20.54,20.54,0,0,1,7-23.53l-29.56-56.24a20.54,20.54,0,0,1-23.34-7.6l-68.28,35.89C1213.39,119.92,1230.31,131.72,1240,150.23Z"/><path class="cls-1" d="M1171.09,124.87a39.38,39.38,0,0,0-9.89,7.42l21.61-11.36A39.56,39.56,0,0,0,1171.09,124.87Z"/><path class="cls-5" d="M1264.39,81.67a20.54,20.54,0,0,0,23.34,7.6l29.56,56.24a20.54,20.54,0,0,0-7,23.53L1242,204.93a48.46,48.46,0,0,1-3.11,5.26l75.56-39.72-.25-.49a17.28,17.28,0,0,1,7.26-23.34l-32.31-61.48a17.28,17.28,0,0,1-23.35-7.25l-.25-.49L1190,117.14a46.17,46.17,0,0,1,6.09.42Z"/><path class="cls-5" d="M1071.42,199.63l32.31,61.47a17.28,17.28,0,0,1,23.34,7.26l.26.49,75.57-39.72a49.71,49.71,0,0,1-6.09-.42l-68.29,35.89a20.54,20.54,0,0,0-23.33-7.61l-29.56-56.23a20.55,20.55,0,0,0,7-23.53l68.28-35.89a46.89,46.89,0,0,1,3.11-5.26l-75.57,39.72.26.49A17.28,17.28,0,0,1,1071.42,199.63Z"/><path class="cls-5" d="M1237.2,151.72c10.14,19.29,9.3,41-.49,56l5.33-2.8c7.85-15.57,7.73-36.19-2-54.7s-26.65-30.31-43.93-32.67l-5.33,2.8C1208.69,120.8,1227.06,132.43,1237.2,151.72Z"/><path class="cls-5" d="M1155.72,194.55c-10.14-19.29-9.3-41,.49-56l-5.33,2.8c-7.86,15.57-7.73,36.19,2,54.7s26.64,30.31,43.93,32.67l5.32-2.8C1184.23,225.46,1165.86,213.84,1155.72,194.55Z"/><path class="cls-5" d="M1171.09,124.87a39.56,39.56,0,0,1,11.72-3.94l7.21-3.79a42.69,42.69,0,0,0-36,18.94l7.21-3.79A39.38,39.38,0,0,1,1171.09,124.87Z"/><path class="cls-5" d="M1221.82,221.39a38.93,38.93,0,0,1-11.71,3.94l-7.21,3.8a42.69,42.69,0,0,0,36-18.94l-7.21,3.79A39.16,39.16,0,0,1,1221.82,221.39Z"/><path class="cls-5" d="M1190.78,120.36l5.33-2.8a46.17,46.17,0,0,0-6.09-.42l-7.21,3.79A40.9,40.9,0,0,1,1190.78,120.36Z"/><path class="cls-5" d="M1156.21,138.54a40.73,40.73,0,0,1,5-6.25l-7.21,3.79a46.89,46.89,0,0,0-3.11,5.26Z"/><path class="cls-5" d="M1236.71,207.73a41.85,41.85,0,0,1-5,6.25l7.21-3.79a48.46,48.46,0,0,0,3.11-5.26Z"/><path class="cls-5" d="M1202.13,225.91l-5.32,2.8a49.71,49.71,0,0,0,6.09.42l7.21-3.8A41.75,41.75,0,0,1,1202.13,225.91Z"/><circle class="cls-5" cx="1325.24" cy="161.15" r="3.44"/><circle class="cls-5" cx="1279.45" cy="74.02" r="3.44"/><circle class="cls-5" cx="1113.56" cy="272.41" r="3.44"/><circle class="cls-5" cx="1067.76" cy="185.29" r="3.44"/><path class="cls-5" d="M1187.77,152.17a43.74,43.74,0,0,1,21.77-3.45l-1.37,12.44a35.54,35.54,0,0,0-15.3,1.6l2.65,5.05c11.82-3.5,19.26-3.22,23.45,4.74l.06.12c4,7.54,1.46,15.92-9.14,22.19l1.83,3.46-6.33,3.33-1.91-3.65a35,35,0,0,1-16.88,2.58l1-12.3a26.52,26.52,0,0,0,10.76-.93l-2.62-5c-11.2,3.34-18.64,3.21-23-5.06l-.06-.12c-4.22-8-.42-16,8.74-21.75l-3.13-6,6.32-3.33Zm16.58,32.72c2.94-1.62,3.53-3.17,2.89-4.39l-.07-.12c-.67-1.28-2-1.53-5.41-.41Zm-20.1-15.2.07.13c.67,1.27,1.81,1.52,5.2.44l-2.59-4.92C1184.23,167,1183.58,168.42,1184.25,169.69Z"/><path class="cls-5" d="M1178.13,149.19l6.33-3.32a.32.32,0,0,1,.43.13l3,5.76a44.11,44.11,0,0,1,21.67-3.36.32.32,0,0,1,.28.35l-1.37,12.44a.33.33,0,0,1-.35.29,35.5,35.5,0,0,0-14.82,1.46l2.36,4.48c10.91-3.19,19.09-3.54,23.57,5l.06.13c4.27,8.11.91,16.48-9,22.45l1.68,3.19a.34.34,0,0,1-.13.44l-6.33,3.32a.32.32,0,0,1-.43-.13l-1.78-3.4a35.24,35.24,0,0,1-16.76,2.5.32.32,0,0,1-.29-.34l1-12.31a.3.3,0,0,1,.12-.22.31.31,0,0,1,.24-.07,26.06,26.06,0,0,0,10.26-.81l-2.32-4.4c-10.58,3.11-18.56,3.36-23.11-5.3l-.06-.12c-4.08-7.76-.86-16,8.6-22l-3-5.69A.34.34,0,0,1,1178.13,149.19Zm6.34-2.6-5.76,3,3,5.68a.31.31,0,0,1-.12.42c-9.48,5.94-12.62,13.72-8.63,21.32l.07.12c4.4,8.38,11.91,8.09,22.61,4.91a.31.31,0,0,1,.38.16l2.62,5a.32.32,0,0,1,0,.27.36.36,0,0,1-.21.19,27.11,27.11,0,0,1-10.56,1l-.92,11.65a34.62,34.62,0,0,0,16.4-2.59.32.32,0,0,1,.41.15l1.77,3.36,5.75-3-1.67-3.18a.32.32,0,0,1,.12-.43c9.77-5.78,13.14-13.91,9-21.76l-.07-.12c-3.73-7.11-10.2-8.39-23.07-4.59a.31.31,0,0,1-.37-.15l-2.66-5.05a.36.36,0,0,1,0-.27.31.31,0,0,1,.19-.18,35.64,35.64,0,0,1,15.12-1.65l1.31-11.81a43.66,43.66,0,0,0-21.3,3.47.33.33,0,0,1-.41-.15Zm2.31,18.46a.37.37,0,0,1,.23,0,.29.29,0,0,1,.2.16l2.59,4.92a.33.33,0,0,1-.18.46c-3.38,1.07-4.78.92-5.59-.61l-.06-.12c-.81-1.54.13-3.15,2.79-4.78Zm2.28,5-2.25-4.28c-3.18,2-2.5,3.32-2.27,3.75l.06.13C1185.13,170.67,1186,171,1189.06,170.07Zm12.55,9.61.05,0c3.43-1.1,5-.95,5.8.57l.06.12c.48.92.73,2.76-3,4.82a.26.26,0,0,1-.24,0,.29.29,0,0,1-.2-.16l-2.59-4.92a.36.36,0,0,1,0-.27A.35.35,0,0,1,1201.61,179.68Zm2.87,4.77c2.21-1.29,3.09-2.63,2.47-3.8l-.06-.12c-.52-1-1.46-1.36-4.67-.37Z"/><rect class="cls-4" x="110.27" y="908.82" width="274.07" height="132.07" transform="translate(919.78 1722.7) rotate(152.27)"/><path class="cls-1" d="M272.67,1023.11a39.14,39.14,0,0,0,9.89-7.42L261,1027.05A38.9,38.9,0,0,0,272.67,1023.11Z"/><path class="cls-1" d="M203.73,997.76c-9.73-18.51-9.86-39.13-2-54.71l-68.28,35.89a20.54,20.54,0,0,1-7,23.53L156,1058.71a20.55,20.55,0,0,1,23.33,7.6l68.28-35.89C230.37,1028.07,213.46,1016.27,203.73,997.76Z"/><path class="cls-1" d="M290.88,952c9.73,18.51,9.86,39.13,2,54.7l68.28-35.89a20.55,20.55,0,0,1,7-23.53L338.57,891a20.53,20.53,0,0,1-23.33-7.6L247,919.28C264.24,921.64,281.16,933.44,290.88,952Z"/><path class="cls-1" d="M221.94,926.59a39.38,39.38,0,0,0-9.89,7.42l21.61-11.36A39.46,39.46,0,0,0,221.94,926.59Z"/><path class="cls-5" d="M315.24,883.39a20.53,20.53,0,0,0,23.33,7.6l29.56,56.24a20.55,20.55,0,0,0-7,23.53l-68.28,35.89a45.81,45.81,0,0,1-3.1,5.25l75.56-39.72-.25-.48a17.28,17.28,0,0,1,7.26-23.35L340,886.88a17.28,17.28,0,0,1-23.35-7.26l-.26-.48-75.56,39.72a46.17,46.17,0,0,1,6.09.42Z"/><path class="cls-5" d="M122.27,1001.35l32.31,61.47a17.28,17.28,0,0,1,23.34,7.26l.26.48,75.56-39.72a46.28,46.28,0,0,1-6.09-.42l-68.28,35.89a20.55,20.55,0,0,0-23.33-7.6l-29.56-56.24a20.54,20.54,0,0,0,7-23.53l68.28-35.89a47.67,47.67,0,0,1,3.11-5.25l-75.57,39.72.25.48A17.28,17.28,0,0,1,122.27,1001.35Z"/><path class="cls-5" d="M288.05,953.44c10.14,19.29,9.29,41-.49,56l5.32-2.8c7.86-15.57,7.73-36.19-2-54.7S264.24,921.64,247,919.28l-5.33,2.8C259.53,922.52,277.91,934.15,288.05,953.44Z"/><path class="cls-5" d="M206.56,996.27c-10.14-19.29-9.29-41,.5-56l-5.33,2.8c-7.86,15.58-7.73,36.2,2,54.71s26.64,30.31,43.92,32.66l5.33-2.8C235.08,1027.18,216.7,1015.56,206.56,996.27Z"/><path class="cls-5" d="M221.94,926.59a39.46,39.46,0,0,1,11.72-3.94l7.21-3.79a42.69,42.69,0,0,0-36,18.94l7.21-3.79A39.38,39.38,0,0,1,221.94,926.59Z"/><path class="cls-5" d="M272.67,1023.11a38.9,38.9,0,0,1-11.72,3.94l-7.21,3.79a42.66,42.66,0,0,0,36-18.94l-7.22,3.79A39.14,39.14,0,0,1,272.67,1023.11Z"/><path class="cls-5" d="M241.63,922.08l5.33-2.8a46.17,46.17,0,0,0-6.09-.42l-7.21,3.79A40.85,40.85,0,0,1,241.63,922.08Z"/><path class="cls-5" d="M207.06,940.25a41.14,41.14,0,0,1,5-6.24l-7.21,3.79a47.67,47.67,0,0,0-3.11,5.25Z"/><path class="cls-5" d="M287.56,1009.45a41.83,41.83,0,0,1-5,6.24l7.22-3.79a45.81,45.81,0,0,0,3.1-5.25Z"/><path class="cls-5" d="M253,1027.62l-5.33,2.8a46.28,46.28,0,0,0,6.09.42l7.21-3.79A40.79,40.79,0,0,1,253,1027.62Z"/><circle class="cls-5" cx="376.09" cy="962.87" r="3.44"/><circle class="cls-5" cx="330.29" cy="875.74" r="3.44"/><circle class="cls-5" cx="164.41" cy="1074.13" r="3.44"/><circle class="cls-5" cx="118.61" cy="987.01" r="3.44"/><path class="cls-5" d="M238.62,953.89a43.74,43.74,0,0,1,21.77-3.45L259,962.88a35.4,35.4,0,0,0-15.3,1.6l2.66,5c11.82-3.49,19.26-3.21,23.44,4.75l.07.12c4,7.54,1.46,15.92-9.14,22.19l1.82,3.46-6.32,3.33-1.92-3.65a35,35,0,0,1-16.87,2.58l1-12.31a26.36,26.36,0,0,0,10.76-.92l-2.62-5c-11.21,3.33-18.64,3.21-23-5.06l-.06-.12c-4.22-8-.42-16,8.74-21.75l-3.13-5.95,6.32-3.33Zm16.57,32.72c2.95-1.62,3.53-3.17,2.9-4.39l-.07-.12c-.67-1.28-2-1.53-5.41-.41Zm-20.09-15.2.06.12c.67,1.28,1.82,1.53,5.21.45l-2.59-4.92C235.08,968.71,234.43,970.14,235.1,971.41Z"/><path class="cls-5" d="M229,950.91l6.32-3.32a.34.34,0,0,1,.44.13l3,5.76a44.11,44.11,0,0,1,21.67-3.36.32.32,0,0,1,.28.35l-1.38,12.44a.32.32,0,0,1-.35.29,35.47,35.47,0,0,0-14.81,1.46l2.36,4.48c10.91-3.19,19.09-3.54,23.57,5l.06.12c4.27,8.12.9,16.49-9,22.46l1.68,3.19a.33.33,0,0,1-.14.44l-6.32,3.32a.32.32,0,0,1-.43-.14l-1.79-3.39a35.18,35.18,0,0,1-16.75,2.5.31.31,0,0,1-.29-.34l1-12.31a.31.31,0,0,1,.12-.23.29.29,0,0,1,.24-.06,26,26,0,0,0,10.25-.81l-2.31-4.4c-10.58,3.11-18.56,3.36-23.11-5.3l-.07-.12c-4.07-7.76-.85-16,8.61-22l-3-5.7A.31.31,0,0,1,229,950.91Zm6.34-2.6-5.76,3,3,5.67a.33.33,0,0,1-.11.43c-9.48,5.94-12.63,13.71-8.63,21.32l.06.12c4.41,8.37,11.92,8.09,22.62,4.91a.31.31,0,0,1,.37.15l2.62,5a.32.32,0,0,1,0,.27.36.36,0,0,1-.21.19,27.12,27.12,0,0,1-10.56,1l-.93,11.65a34.66,34.66,0,0,0,16.41-2.59.32.32,0,0,1,.41.15l1.77,3.36,5.75-3-1.67-3.18a.32.32,0,0,1,.12-.43c9.77-5.78,13.14-13.91,9-21.76l-.06-.12c-3.74-7.11-10.2-8.39-23.07-4.59a.31.31,0,0,1-.38-.16l-2.65-5a.32.32,0,0,1,0-.27.29.29,0,0,1,.19-.18,35.64,35.64,0,0,1,15.12-1.65L260,950.72a43.64,43.64,0,0,0-21.3,3.47.33.33,0,0,1-.41-.15Zm2.31,18.46a.36.36,0,0,1,.23,0,.29.29,0,0,1,.2.16l2.59,4.92a.32.32,0,0,1,0,.27.31.31,0,0,1-.2.19c-3.37,1.07-4.78.92-5.58-.61l-.06-.12c-.81-1.54.13-3.15,2.79-4.78Zm2.27,5-2.25-4.28c-3.17,2-2.49,3.32-2.27,3.75l.07.12C236,972.39,236.82,972.73,239.9,971.79Zm12.56,9.61,0,0c3.42-1.11,5-1,5.79.57l.07.12c.48.92.72,2.76-3,4.82a.32.32,0,0,1-.25,0,.33.33,0,0,1-.19-.16l-2.59-4.92a.32.32,0,0,1,0-.27A.35.35,0,0,1,252.46,981.4Zm2.86,4.77c2.22-1.29,3.1-2.63,2.48-3.8l-.06-.12c-.52-1-1.46-1.36-4.67-.37Z"/><rect class="cls-4" x="485.29" y="626.37" width="379.98" height="183.1" transform="translate(1505.06 1249.79) rotate(165.91)"/><path class="cls-1" d="M693.69,791.23a54.22,54.22,0,0,0,15.75-6.76l-32.83,8.25A54.43,54.43,0,0,0,693.69,791.23Z"/><path class="cls-1" d="M609.08,734.54c-7.06-28.12-.49-55.95,15.18-74.36l-103.73,26a28.48,28.48,0,0,1-17.08,29.43l21.45,85.43a28.5,28.5,0,0,1,29,17.87l103.73-26C635.07,784.09,616.14,762.66,609.08,734.54Z"/><path class="cls-1" d="M741.49,701.3c7.06,28.12.49,56-15.19,74.36l103.73-26a28.48,28.48,0,0,1,17.08-29.43l-21.45-85.44a28.47,28.47,0,0,1-28.95-17.86L693,642.93C715.49,651.75,734.43,673.18,741.49,701.3Z"/><path class="cls-1" d="M656.88,644.61a54.25,54.25,0,0,0-15.76,6.75L674,643.12A54.37,54.37,0,0,0,656.88,644.61Z"/><path class="cls-5" d="M796.71,616.89a28.47,28.47,0,0,0,28.95,17.86l21.45,85.44A28.48,28.48,0,0,0,830,749.62l-103.73,26a65,65,0,0,1-5.9,6.06L835.19,752.9l-.18-.73a24,24,0,0,1,17.41-29.09L829,629.7a24,24,0,0,1-29.09-17.41l-.18-.74-114.8,28.82a65.11,65.11,0,0,1,8.07,2.56Z"/><path class="cls-5" d="M498.14,712.76l23.45,93.38a24,24,0,0,1,29.08,17.41l.19.74,114.8-28.82a64.58,64.58,0,0,1-8.07-2.56L553.86,819a28.5,28.5,0,0,0-29-17.87l-21.45-85.43a28.48,28.48,0,0,0,17.08-29.43l103.73-26a67.81,67.81,0,0,1,5.91-6.07l-114.8,28.83.19.73A24,24,0,0,1,498.14,712.76Z"/><path class="cls-5" d="M737.18,702.38c7.35,29.31-.88,58.31-19,75.31l8.09-2c15.68-18.41,22.25-46.24,15.19-74.36s-26-49.55-48.51-58.37l-8.09,2C708.86,651.4,729.82,673.07,737.18,702.38Z"/><path class="cls-5" d="M613.39,733.46c-7.36-29.31.88-58.31,19-75.31l-8.1,2c-15.67,18.41-22.24,46.24-15.18,74.36s26,49.55,48.51,58.37l8.09-2C641.71,784.43,620.75,762.77,613.39,733.46Z"/><path class="cls-5" d="M656.88,644.61A54.37,54.37,0,0,1,674,643.12l11-2.75a59.21,59.21,0,0,0-54.74,13.74l11-2.75A54.25,54.25,0,0,1,656.88,644.61Z"/><path class="cls-5" d="M693.69,791.23a54.43,54.43,0,0,1-17.08,1.49l-11,2.75a59.2,59.2,0,0,0,54.74-13.75l-11,2.75A54.22,54.22,0,0,1,693.69,791.23Z"/><path class="cls-5" d="M684.89,645l8.09-2a65.11,65.11,0,0,0-8.07-2.56l-11,2.75A58.17,58.17,0,0,1,684.89,645Z"/><path class="cls-5" d="M632.36,658.15a56.86,56.86,0,0,1,8.76-6.79l-11,2.75a67.81,67.81,0,0,0-5.91,6.07Z"/><path class="cls-5" d="M718.21,777.69a56.74,56.74,0,0,1-8.77,6.78l11-2.75a65,65,0,0,0,5.9-6.06Z"/><path class="cls-5" d="M665.68,790.88l-8.09,2a64.58,64.58,0,0,0,8.07,2.56l11-2.75A58.06,58.06,0,0,1,665.68,790.88Z"/><circle class="cls-5" cx="852.72" cy="743.86" r="4.77"/><circle class="cls-5" cx="819.49" cy="611.5" r="4.77"/><circle class="cls-5" cx="531.14" cy="824.6" r="4.77"/><circle class="cls-5" cx="497.91" cy="692.24" r="4.77"/><path class="cls-5" d="M670.42,686.84a60.56,60.56,0,0,1,30.47,2.46L695,705.61c-8-2.72-15-3.49-21.13-2.84l1.92,7.67c17.07-.85,27,1.95,30,14l.05.19c2.87,11.45-3.24,21.92-19.56,26.9l1.32,5.27L678,759.26l-1.39-5.54a48.48,48.48,0,0,1-23.58-2l5.34-16.26a36.76,36.76,0,0,0,14.81,2.27l-1.9-7.57c-16.19.82-26.17-1.78-29.33-14.34l0-.18c-3.06-12.19,4.66-21.7,18.89-26.44l-2.28-9.06,9.61-2.41Zm11.65,49.5c4.5-1.23,5.79-3.12,5.33-5l0-.18c-.49-1.94-2.15-2.7-7.16-2.33ZM660,709.3l0,.18c.48,1.94,1.94,2.65,6.86,2.3L665,704.3C660.81,705.65,659.47,707.36,660,709.3Z"/><path class="cls-5" d="M658.42,679.67l9.6-2.41a.45.45,0,0,1,.54.32l2.2,8.75A61.1,61.1,0,0,1,701,688.88a.45.45,0,0,1,.27.57l-5.92,16.31a.44.44,0,0,1-.56.27,49.35,49.35,0,0,0-20.44-2.87L676.1,710c15.75-.74,26.88,1.47,30.13,14.42l0,.18c3.09,12.32-4.18,22.51-19.46,27.31l1.22,4.86a.45.45,0,0,1-.32.54l-9.61,2.41a.45.45,0,0,1-.54-.32l-1.29-5.16a48.84,48.84,0,0,1-23.4-2.11.44.44,0,0,1-.27-.55L658,735.28a.42.42,0,0,1,.23-.26.45.45,0,0,1,.36,0,36,36,0,0,0,14.07,2.26l-1.68-6.69c-15.27.73-26.1-1.53-29.41-14.69l0-.19c-3-11.77,4.06-21.79,18.79-26.83l-2.18-8.66A.45.45,0,0,1,658.42,679.67Zm9.39-1.44-8.75,2.2,2.17,8.62a.46.46,0,0,1-.29.53c-14.72,4.91-21.5,14.36-18.6,25.91l0,.18c3.2,12.72,13.42,14.79,28.87,14a.44.44,0,0,1,.46.34l1.9,7.57a.47.47,0,0,1-.08.38.43.43,0,0,1-.33.17A37.25,37.25,0,0,1,658.65,736l-5.06,15.4a48.1,48.1,0,0,0,23,1.88.43.43,0,0,1,.49.33l1.29,5.11,8.74-2.2-1.21-4.83a.44.44,0,0,1,.3-.53c15.05-4.6,22.25-14.45,19.26-26.37l0-.19c-2.71-10.8-11-14.65-29.59-13.72a.44.44,0,0,1-.45-.34l-1.93-7.66a.48.48,0,0,1,.07-.37.44.44,0,0,1,.32-.18,49.47,49.47,0,0,1,20.91,2.72l5.62-15.48a60.39,60.39,0,0,0-29.82-2.3.45.45,0,0,1-.51-.33Zm-2.93,25.64a.47.47,0,0,1,.33,0,.46.46,0,0,1,.21.28l1.88,7.49a.42.42,0,0,1-.07.36.45.45,0,0,1-.33.19c-4.89.35-6.74-.32-7.32-2.64l-.05-.19c-.59-2.34,1.2-4.2,5.32-5.52Zm1.43,7.51-1.63-6.5c-4.94,1.7-4.45,3.65-4.29,4.31l.05.18C660.82,710.89,661.85,711.63,666.31,711.38Zm13.77,17h.08c5-.38,7,.35,7.62,2.66l.05.18c.35,1.39.08,4-5.64,5.51a.43.43,0,0,1-.35,0,.45.45,0,0,1-.2-.28L679.76,729a.44.44,0,0,1,.07-.37A.49.49,0,0,1,680.08,728.43Zm2.31,7.36c3.4-1,5-2.53,4.58-4.31l-.05-.19c-.37-1.49-1.52-2.31-6.17-2Z"/><path class="cls-6" d="M707,475H1212V750.47a8,8,0,0,1-11.18,7.34c-30.43-13.24-120.44-42.79-239.27,4.58a5,5,0,0,1-4-.13c-16.6-8-135.54-62-239.16-13.6A8,8,0,0,1,707,741.43Z"/><path class="cls-7" d="M706.55,569S959.28,808.73,1212,569V442.4H706.55Z"/><path class="cls-6" d="M954.15,318.09,569.66,470.59c-10.9,4.32-10.9,18.59,0,22.91L954.15,646a14.56,14.56,0,0,0,10.67,0l384.49-152.5c10.9-4.32,10.9-18.59,0-22.91L964.82,318.09A14.56,14.56,0,0,0,954.15,318.09Z"/><circle class="cls-7" cx="959.49" cy="459.53" r="16.29"/><path class="cls-8" d="M959.49,459.53,657.6,524.74a7.54,7.54,0,0,0-6,7.36v84.53"/><path class="cls-9" d="M664.56,695.42l-10-64.92a13,13,0,1,0-6.9-.16l-12,64.73a14.57,14.57,0,0,0,14.42,16.7h0A14.57,14.57,0,0,0,664.56,695.42Z"/></g></svg>