<svg id="Layer_1" data-name="Layer 1" xmlns="http://www.w3.org/2000/svg" xmlns:xlink="http://www.w3.org/1999/xlink" viewBox="0 0 1920 1080"><defs><style>.cls-1{fill:none;}.cls-2{fill:#f9bb0b;}.cls-3{clip-path:url(#clip-path);}.cls-4{fill:#332baa;}.cls-5{fill:#141491;}.cls-6{fill:#fff;}.cls-7{fill:#2fe4da;}.cls-8{fill:#983ac9;}.cls-9{clip-path:url(#clip-path-2);}.cls-10{fill:#f2ad00;}.cls-11{clip-path:url(#clip-path-3);}.cls-12{clip-path:url(#clip-path-4);}.cls-13{fill:#fcce2f;}.cls-14{clip-path:url(#clip-path-5);}</style><clipPath id="clip-path"><rect class="cls-1" width="1920" height="1080"/></clipPath><clipPath id="clip-path-2"><polygon class="cls-1" points="1275.57 922.04 1233.11 872.77 1170.73 894.5 1253.48 567.6 1358.32 595.14 1275.57 922.04"/></clipPath><clipPath id="clip-path-3"><polygon class="cls-2" points="1334.74 922.04 1377.19 872.77 1439.58 894.5 1356.82 567.6 1251.99 595.14 1334.74 922.04"/></clipPath><clipPath id="clip-path-4"><polygon class="cls-1" points="1444.63 828.98 1393.15 813.74 1360.24 856.16 1256.86 535.18 1341.24 508 1444.63 828.98"/></clipPath><clipPath id="clip-path-5"><polygon class="cls-1" points="1165.68 828.98 1217.16 813.74 1250.06 856.16 1353.44 535.18 1269.06 508 1165.68 828.98"/></clipPath></defs><g class="cls-3"><rect class="cls-4" x="-14.35" y="-13.35" width="1948.69" height="1106.7"/><path class="cls-5" d="M1880.79,717.57a123,123,0,0,0-2.4-13.56c-4-13.14-37.5-36.08-44.6-46.1-6.49-9.17-30.23-28.72-38.55-36.28s9.07-10.58,20.41-8.32,18.14,17.39,39.3,27.21c28.73-2.26-31-133.78-15.11-138.31s33.25,82.38,44.59,80.87-14.36-92.21,0-96.75,21.92,94.48,28,95.24,3.78-81.63,15.87-81.63,8.32,57.44,5.29,72.56,0,21.92,5.29,24.19,25-57.45,34-54.42-14.37,54.42-16.63,65-4.54,56.68-12.85,86.16a66.69,66.69,0,0,0-1.86,23.09"/><polygon class="cls-5" points="1955.16 708.71 1861.3 706.28 1861.3 1100.35 1955.16 1100.35 1955.16 708.71"/><path class="cls-5" d="M1538.73,796.69a95.79,95.79,0,0,0-1.91-10.76c-3.15-10.42-29.74-28.62-35.37-36.57-5.15-7.28-24-22.79-30.58-28.78s7.19-8.4,16.18-6.6,14.4,13.79,31.18,21.59c22.79-1.8-24.58-106.13-12-109.73s26.38,65.36,35.38,64.16-11.39-73.16,0-76.75,17.39,75,22.18,75.55,3-64.76,12.6-64.76,6.59,45.57,4.19,57.56,0,17.39,4.2,19.19,19.79-45.57,27-43.17-11.39,43.17-13.19,51.56-3.6,45-10.19,68.36a52.76,52.76,0,0,0-1.47,18.31"/><polygon class="cls-5" points="1597.73 789.66 1523.27 787.73 1523.27 1100.35 1597.73 1100.35 1597.73 789.66"/><path class="cls-5" d="M1739.19,574.18c1.21-8.58,2.37-15.56,3.3-18.63,5.46-18.07,51.55-49.6,61.3-63.38,8.93-12.61,41.56-39.48,53-49.87s-12.47-14.55-28-11.43-24.94,23.89-54,37.4c-39.48-3.12,42.6-183.9,20.78-190.13s-45.71,113.25-61.3,111.17,19.74-126.76,0-133-30.13,129.87-38.44,130.91S1690.55,275,1673.92,275s-11.43,79-7.27,99.74,0,30.13-7.27,33.25-34.29-79-46.76-74.8,19.74,74.8,22.86,89.35,6.23,77.92,17.66,118.44c2.86,10.14,3.38,21.06,2.55,31.73"/><polygon class="cls-5" points="1636.95 562 1765.98 558.66 1765.98 1100.35 1636.95 1100.35 1636.95 562"/><path class="cls-4" d="M1908.1,632.25a39.5,39.5,0,0,1,4.7-4.34,11.65,11.65,0,0,1,18.08,7.34,17.67,17.67,0,0,1-4.94,16.44c-3.48,3.47-7.24,6.67-10.89,10-2.26,2.06-4.54,4.09-6.83,6.15-5.59-5-11.23-10-16.77-15.08a17.92,17.92,0,0,1-6-10.93c-.56-4.07-.5-8,2.23-11.44a12,12,0,0,1,17.14-1.54A42.18,42.18,0,0,1,1908.1,632.25Z"/><path class="cls-4" d="M1560.41,730.64a29,29,0,0,1,3.4-3.14,8.43,8.43,0,0,1,13.08,5.32,12.78,12.78,0,0,1-3.57,11.89c-2.52,2.51-5.24,4.82-7.88,7.22-1.64,1.49-3.29,3-4.94,4.45-4-3.63-8.13-7.23-12.14-10.91a13,13,0,0,1-4.31-7.91c-.4-2.95-.35-5.81,1.61-8.28a8.65,8.65,0,0,1,12.41-1.11A31.17,31.17,0,0,1,1560.41,730.64Z"/><path class="cls-4" d="M1701.28,453.25c2.19-2.05,4.21-4.52,6.74-6.23,10-6.76,23.72-1.31,25.92,10.53,1.64,8.86-.56,17.06-7.08,23.56-5,5-10.38,9.56-15.61,14.31-3.24,2.95-6.51,5.87-9.79,8.82-8-7.19-16.1-14.32-24-21.62a25.69,25.69,0,0,1-8.53-15.67c-.8-5.84-.71-11.51,3.19-16.4a17.16,17.16,0,0,1,24.58-2.21A62.69,62.69,0,0,1,1701.28,453.25Z"/><path class="cls-5" d="M1375,717.57a120.56,120.56,0,0,0-2.4-13.56c-4-13.14-37.5-36.08-44.59-46.1-6.5-9.17-30.24-28.72-38.55-36.28s9.07-10.58,20.41-8.32,18.14,17.39,39.3,27.21c28.72-2.26-31-133.78-15.12-138.31s33.26,82.38,44.6,80.87-14.36-92.21,0-96.75,21.92,94.48,28,95.24,3.78-81.63,15.88-81.63,8.31,57.44,5.29,72.56,0,21.92,5.29,24.19,24.94-57.45,34-54.42-14.36,54.42-16.63,65-4.53,56.68-12.85,86.16a66.68,66.68,0,0,0-1.85,23.09"/><polygon class="cls-5" points="1449.36 708.71 1355.49 706.28 1355.49 1100.35 1449.36 1100.35 1449.36 708.71"/><path class="cls-5" d="M1032.92,796.69a96.45,96.45,0,0,0-1.9-10.76c-3.15-10.42-29.75-28.62-35.38-36.57-5.15-7.28-24-22.79-30.58-28.78s7.2-8.4,16.19-6.6,14.39,13.79,31.18,21.59c22.78-1.8-24.58-106.13-12-109.73s26.38,65.36,35.37,64.16-11.39-73.16,0-76.75,17.39,75,22.19,75.55,3-64.76,12.59-64.76,6.6,45.57,4.2,57.56,0,17.39,4.2,19.19,19.78-45.57,27-43.17-11.39,43.17-13.19,51.56-3.6,45-10.2,68.36a53,53,0,0,0-1.47,18.31"/><polygon class="cls-5" points="1091.93 789.66 1017.46 787.73 1017.46 1100.35 1091.93 1100.35 1091.93 789.66"/><path class="cls-5" d="M1233.39,574.18c1.21-8.58,2.37-15.56,3.3-18.63,5.46-18.07,51.54-49.6,61.3-63.38,8.92-12.61,41.56-39.48,53-49.87s-12.47-14.55-28.06-11.43-24.93,23.89-54,37.4c-39.48-3.12,42.6-183.9,20.78-190.13s-45.72,113.25-61.3,111.17,19.74-126.76,0-133-30.13,129.87-38.44,130.91S1184.74,275,1168.12,275s-11.43,79-7.28,99.74,0,30.13-7.27,33.25-34.28-79-46.75-74.8,19.74,74.8,22.86,89.35,6.23,77.92,17.66,118.44c2.86,10.14,3.37,21.06,2.54,31.73"/><polygon class="cls-5" points="1131.15 562 1260.18 558.66 1260.18 1100.35 1131.15 1100.35 1131.15 562"/><path class="cls-4" d="M1402.29,632.25a41.11,41.11,0,0,1,4.7-4.34,11.65,11.65,0,0,1,18.08,7.34,17.67,17.67,0,0,1-4.93,16.44c-3.49,3.47-7.25,6.67-10.89,10-2.27,2.06-4.54,4.09-6.83,6.15-5.59-5-11.23-10-16.77-15.08a17.87,17.87,0,0,1-6-10.93c-.56-4.07-.5-8,2.22-11.44a12,12,0,0,1,17.15-1.54A42,42,0,0,1,1402.29,632.25Z"/><path class="cls-4" d="M1054.6,730.64a30.63,30.63,0,0,1,3.4-3.14,8.44,8.44,0,0,1,13.09,5.32,12.81,12.81,0,0,1-3.58,11.89c-2.52,2.51-5.24,4.82-7.88,7.22-1.64,1.49-3.28,3-4.94,4.45-4-3.63-8.13-7.23-12.13-10.91a13,13,0,0,1-4.31-7.91c-.41-2.95-.36-5.81,1.61-8.28a8.65,8.65,0,0,1,12.41-1.11A31,31,0,0,1,1054.6,730.64Z"/><path class="cls-4" d="M1195.48,453.25c2.19-2.05,4.21-4.52,6.74-6.23,10-6.76,23.72-1.31,25.91,10.53,1.65,8.86-.56,17.06-7.07,23.56-5,5-10.39,9.56-15.62,14.31-3.24,2.95-6.5,5.87-9.78,8.82-8-7.19-16.1-14.32-24-21.62a25.64,25.64,0,0,1-8.53-15.67c-.81-5.84-.71-11.51,3.19-16.4a17.16,17.16,0,0,1,24.58-2.21A64.64,64.64,0,0,1,1195.48,453.25Z"/><path class="cls-5" d="M869,717.57A123,123,0,0,0,866.6,704c-4-13.14-37.5-36.08-44.6-46.1-6.49-9.17-30.23-28.72-38.54-36.28s9.06-10.58,20.4-8.32S822,630.7,843.17,640.52c28.72-2.26-31-133.78-15.12-138.31s33.26,82.38,44.59,80.87-14.36-92.21,0-96.75,21.92,94.48,28,95.24,3.78-81.63,15.87-81.63,8.32,57.44,5.29,72.56,0,21.92,5.29,24.19,25-57.45,34-54.42-14.36,54.42-16.63,65S939.91,664,931.6,693.43a66.44,66.44,0,0,0-1.85,23.09"/><polygon class="cls-5" points="943.38 708.71 849.51 706.28 849.51 1100.35 943.38 1100.35 943.38 708.71"/><path class="cls-5" d="M526.94,796.69A95.79,95.79,0,0,0,525,785.93c-3.15-10.42-29.74-28.62-35.37-36.57-5.15-7.28-24-22.79-30.58-28.78s7.19-8.4,16.19-6.6,14.39,13.79,31.18,21.59c22.78-1.8-24.59-106.13-12-109.73S520.84,691.2,529.83,690s-11.39-73.16,0-76.75,17.39,75,22.19,75.55S555,624,564.61,624s6.59,45.57,4.2,57.56,0,17.39,4.19,19.19,19.79-45.57,27-43.17-11.4,43.17-13.2,51.56-3.59,45-10.19,68.36a52.76,52.76,0,0,0-1.47,18.31"/><polygon class="cls-5" points="585.94 789.66 511.48 787.73 511.48 1100.35 585.94 1100.35 585.94 789.66"/><path class="cls-5" d="M727.4,574.18c1.21-8.58,2.38-15.56,3.31-18.63,5.45-18.07,51.54-49.6,61.3-63.38,8.92-12.61,41.55-39.48,53-49.87s-12.46-14.55-28-11.43-24.93,23.89-54,37.4c-39.48-3.12,42.6-183.9,20.78-190.13S738,391.39,722.39,389.31s19.74-126.76,0-133S692.26,386.19,684,387.23,678.76,275,662.13,275s-11.43,79-7.27,99.74,0,30.13-7.27,33.25-34.29-79-46.76-74.8,19.74,74.8,22.86,89.35,6.24,77.92,17.66,118.44c2.86,10.14,3.38,21.06,2.55,31.73"/><polygon class="cls-5" points="625.17 562 754.19 558.66 754.19 1100.35 625.17 1100.35 625.17 562"/><path class="cls-4" d="M896.31,632.25a41.11,41.11,0,0,1,4.7-4.34,11.65,11.65,0,0,1,18.08,7.34,17.67,17.67,0,0,1-4.94,16.44c-3.48,3.47-7.24,6.67-10.89,10-2.26,2.06-4.54,4.09-6.83,6.15-5.59-5-11.23-10-16.77-15.08a17.92,17.92,0,0,1-5.95-10.93c-.56-4.07-.49-8,2.23-11.44a12,12,0,0,1,17.15-1.54A43.81,43.81,0,0,1,896.31,632.25Z"/><path class="cls-4" d="M548.62,730.64a29,29,0,0,1,3.4-3.14,8.43,8.43,0,0,1,13.08,5.32,12.78,12.78,0,0,1-3.57,11.89c-2.52,2.51-5.24,4.82-7.88,7.22-1.64,1.49-3.29,3-4.94,4.45-4.05-3.63-8.13-7.23-12.14-10.91a13,13,0,0,1-4.3-7.91c-.41-2.95-.36-5.81,1.61-8.28a8.64,8.64,0,0,1,12.4-1.11A31.17,31.17,0,0,1,548.62,730.64Z"/><path class="cls-4" d="M689.49,453.25c2.19-2.05,4.21-4.52,6.74-6.23,10-6.76,23.72-1.31,25.92,10.53,1.64,8.86-.56,17.06-7.08,23.56-5,5-10.38,9.56-15.61,14.31-3.24,2.95-6.51,5.87-9.79,8.82-8-7.19-16.1-14.32-24-21.62A25.69,25.69,0,0,1,657.1,467c-.8-5.84-.71-11.51,3.19-16.4a17.16,17.16,0,0,1,24.58-2.21A62.69,62.69,0,0,1,689.49,453.25Z"/><path class="cls-5" d="M356.71,717.57a123,123,0,0,0-2.4-13.56c-4-13.14-37.5-36.08-44.6-46.1-6.49-9.17-30.23-28.72-38.55-36.28s9.07-10.58,20.41-8.32,18.14,17.39,39.3,27.21c28.73-2.26-31-133.78-15.11-138.31s33.25,82.38,44.59,80.87-14.36-92.21,0-96.75,21.92,94.48,28,95.24,3.78-81.63,15.87-81.63,8.31,57.44,5.29,72.56,0,21.92,5.29,24.19,24.94-57.45,34-54.42-14.36,54.42-16.62,65-4.54,56.68-12.85,86.16a66.69,66.69,0,0,0-1.86,23.09"/><polygon class="cls-5" points="431.08 708.71 337.22 706.28 337.22 1100.35 431.08 1100.35 431.08 708.71"/><path class="cls-5" d="M14.65,796.69a95.79,95.79,0,0,0-1.91-10.76C9.59,775.51-17,757.31-22.64,749.36c-5.15-7.28-24-22.79-30.58-28.78S-46,712.18-37,714s14.39,13.79,31.18,21.59c22.79-1.8-24.58-106.13-12-109.73S8.54,691.2,17.54,690s-11.39-73.16,0-76.75,17.39,75,22.18,75.55,3-64.76,12.6-64.76,6.59,45.57,4.19,57.56,0,17.39,4.2,19.19,19.79-45.57,27-43.17S76.3,700.79,74.5,709.18s-3.6,45-10.19,68.36a52.76,52.76,0,0,0-1.47,18.31"/><polygon class="cls-5" points="73.65 789.66 -0.81 787.73 -0.81 1100.35 73.65 1100.35 73.65 789.66"/><path class="cls-5" d="M215.11,574.18c1.21-8.58,2.37-15.56,3.3-18.63,5.46-18.07,51.55-49.6,61.3-63.38,8.93-12.61,41.56-39.48,53-49.87s-12.47-14.55-28.05-11.43-24.94,23.89-54,37.4c-39.48-3.12,42.6-183.9,20.78-190.13s-45.71,113.25-61.3,111.17,19.74-126.76,0-133S180,386.19,171.66,387.23,166.46,275,149.84,275s-11.43,79-7.27,99.74,0,30.13-7.27,33.25-34.29-79-46.76-74.8,19.74,74.8,22.86,89.35,6.23,77.92,17.66,118.44c2.86,10.14,3.38,21.06,2.55,31.73"/><polygon class="cls-5" points="112.87 562 241.9 558.66 241.9 1100.35 112.87 1100.35 112.87 562"/><path class="cls-4" d="M384,632.25a39.5,39.5,0,0,1,4.7-4.34,11.65,11.65,0,0,1,18.08,7.34,17.7,17.7,0,0,1-4.94,16.44c-3.48,3.47-7.24,6.67-10.89,10-2.26,2.06-4.54,4.09-6.83,6.15-5.59-5-11.23-10-16.77-15.08a17.92,17.92,0,0,1-5.95-10.93c-.56-4.07-.5-8,2.23-11.44a12,12,0,0,1,17.14-1.54A42.18,42.18,0,0,1,384,632.25Z"/><path class="cls-4" d="M36.32,730.64a29.86,29.86,0,0,1,3.41-3.14,8.43,8.43,0,0,1,13.08,5.32,12.78,12.78,0,0,1-3.57,11.89c-2.52,2.51-5.25,4.82-7.88,7.22-1.64,1.49-3.29,3-4.94,4.45-4.05-3.63-8.13-7.23-12.14-10.91A13,13,0,0,1,20,737.56c-.4-2.95-.36-5.81,1.61-8.28A8.65,8.65,0,0,1,34,728.17,29.26,29.26,0,0,1,36.32,730.64Z"/><path class="cls-4" d="M177.2,453.25c2.19-2.05,4.21-4.52,6.74-6.23,10-6.76,23.72-1.31,25.92,10.53,1.64,8.86-.56,17.06-7.08,23.56-5,5-10.39,9.56-15.61,14.31-3.25,2.95-6.51,5.87-9.79,8.82-8-7.19-16.1-14.32-24-21.62A25.64,25.64,0,0,1,144.81,467c-.8-5.84-.71-11.51,3.19-16.4a17.16,17.16,0,0,1,24.58-2.21A62.69,62.69,0,0,1,177.2,453.25Z"/><rect class="cls-6" x="613.5" y="278.15" width="693" height="523.71"/><path class="cls-7" d="M1297,287.65v504.7H623V287.65h674m19-19H604v542.7h712V268.65Z"/><rect class="cls-4" x="684.25" y="535.24" width="551.5" height="23.23" rx="11.62"/><rect class="cls-4" x="684.25" y="580.7" width="551.5" height="23.23" rx="11.62"/><rect class="cls-4" x="684.78" y="677.05" width="153.38" height="10.51" rx="5.26"/><rect class="cls-4" x="684.78" y="707.51" width="153.38" height="10.51" rx="5.26"/><rect class="cls-4" x="1081.84" y="677.05" width="153.38" height="10.51" rx="5.26"/><rect class="cls-4" x="1081.84" y="707.51" width="153.38" height="10.51" rx="5.26"/><path class="cls-4" d="M711.23,412.58a83.11,83.11,0,0,1-4.75,9.06c-2-.31-6.06-1-10-1.92l7.38,36.4c.71-.08,2.16-.38,2.92-.53a18.58,18.58,0,0,0,10.77-5.94l.66.66c-2.27,5-6.06,10-15.61,11.92-12.89,2.61-23.22-3.25-26-16.9-2-9.67,3.59-19.61,8.37-23.28l.94.4c-3.19,4.4-3.81,11.43-2.73,16.74,1.17,5.75,3.2,9.94,6.14,12.77,1.83-2,1.95-4,1.36-6.92l-3.8-18.77c4.59-5.27,7.5-9.09,10.56-13.13,5.81,1.06,8.39,1.45,11,.93.57-.12,1.12-.62,1.7-2Zm-16,6.8-.76-.18-1.59,1.91,4.86,23.95s-4.09,3.85-7.67,7.6c3.26,2.76,7.51,3.94,12.64,3.62Z"/><path class="cls-4" d="M726,437.47l1.69,9.72c4.31,1.81,6,2.17,7.15,2a2,2,0,0,0,1.21-.93l.47-.67,1.13.85c-1.21,1.65-3.74,5.23-5,7.28-3-1.24-8.55-3.23-12.07-4.25l0-.26c.66-.7.88-1.33.54-3.3l-4-22.87a44.15,44.15,0,0,0,10.54-7.13c2,2.92,6.41,8.64,8.69,11.19C734.32,431.18,729.26,434.87,726,437.47Zm-2.2-14.6-.31.12,2.23,12.83a59.81,59.81,0,0,0,5.25-4.05C728.91,429.44,725.27,425.09,723.78,422.87Z"/><path class="cls-4" d="M753,426.28l-.25,0a31.69,31.69,0,0,1-5.81-6.27l-1.12,1.61,3.61,23.19c3.36,1.43,4,1.6,4.93,1.45.44-.07.76-.51,1.08-1l.47-.72,1.23.78c-3.17,4.35-5.2,7.21-5.2,7.21a74.28,74.28,0,0,0-9.7-3.58l0-.26c.6-.74.9-1.38.59-3.35l-3.55-22.81a5.91,5.91,0,0,0-3.42-1l-.15-.17a67.16,67.16,0,0,0,4.1-5.47c2,1.19,4.2,2.61,6,3.64,1.93-2.26,2.51-3.13,4.08-5.21a53,53,0,0,0,6.45,6.24A50.37,50.37,0,0,0,753,426.28Z"/><path class="cls-4" d="M777.13,442.51l-5.32,7.12c-2.71-1.25-6.72-2.9-9.24-3.72l0-.25c.76-.63.87-1.69.66-3.22l-3.09-22-2.68.37,0-.38c3.13-2.72,5.81-9.21,6.93-14.19l.45-.06,1.35,9.64,6.58-.92-1.14,3.94-4.92.69L769.76,442c3.35,1.55,3.58,1.38,4.61,1.24a1.91,1.91,0,0,0,1.25-.83l.43-.64Z"/><path class="cls-4" d="M790.9,442.32l-4.38,5.37c-1.55-.91-4.69-2.59-6.63-3.51l0-.26c.77-.62.93-1.35.7-3.14l-3-23.8-.9-.41a3.83,3.83,0,0,0-2.6-.51l-.1-.25,4.38-5.43c1.55.91,4.55,2.54,6.63,3.57l0,.26c-.71.54-1,1.22-.73,3l3.06,24c2.14,1,2.86,1.07,3.44,1Zm-12.68-35.18-2.33-2a99.48,99.48,0,0,0,6.15-8.91,31.42,31.42,0,0,1,3,4.56A92.64,92.64,0,0,1,778.22,407.14Z"/><path class="cls-4" d="M805.81,395.87,802,401h-.06a21.31,21.31,0,0,1-5.23-2l-.12.08L798,411.75l7.75-.88-1.37,3.92-6,.68,2.7,23.51c2,.62,2.56.81,3.2.74.45-.05.85-.49,1.36-1.19l.39-.57,1.14.91-5.62,7a81.11,81.11,0,0,0-7.84-3.26l0-.32c.78-.54,1-1.34.75-3.14l-2.64-22.93-4,.45,1.43-3.92,2.12-.25-1.15-10a79.08,79.08,0,0,0,10.2-8.44c3.58,1.86,4.43,1.89,5.12,1.62Z"/><path class="cls-4" d="M822.72,438.83l-4.52,5.26c-1.52-.95-4.61-2.7-6.53-3.67l0-.26c.79-.6,1-1.33.79-3.13L810,413.17l-.89-.43a3.84,3.84,0,0,0-2.59-.58l-.09-.25,4.51-5.32c1.53,1,4.49,2.65,6.54,3.74l0,.26c-.72.52-1,1.2-.8,2.93l2.46,24.06c2.12,1.08,2.84,1.13,3.41,1.07Zm-11.79-35.48-2.29-2a96.36,96.36,0,0,0,6.37-8.75,32.17,32.17,0,0,1,2.87,4.63C816.47,398.63,812.85,401.86,810.93,403.35Z"/><path class="cls-4" d="M841.48,408.33c-1.06,1.2-3.32,4.18-4.25,5.3h-.07a26.22,26.22,0,0,1-6.93-4.49l-.25.15,2.15,24.21c4.15,2.22,6.31,2.55,7.6,2.44a1.86,1.86,0,0,0,1.23-.63l.53-.7,1.11.88c-1.59,1.82-3.81,4.54-5.67,6.84-2.45-1.27-9.17-4-12.25-5.19l0-.26c.54-.43,1-1,.86-2.73l-1.92-21.64A88.12,88.12,0,0,0,834,404.4c5.35,4.12,6.7,4,7.33,3.75Z"/><path class="cls-4" d="M866.49,435.28c-1.38,1.52-3.35,3.74-4.54,5.12-2.18-1.46-5-3.14-6.3-3.94l-4.77,4.74c-1.9-1.35-5-3.26-7.31-4.58l0-.26c.68-.5,1-1.11.86-3.29l-.53-7.27a54.28,54.28,0,0,0,5.5-3.5,7.23,7.23,0,0,1-5.32-6.53c-.32-4.51,1.71-6.72,3.54-9.25a39.15,39.15,0,0,0,2.14-3.38c3.19,1.12,8.77,3.24,12.4,4.27l0,.26c-.73.63-1,1.49-.87,3.1L863,433.86c.62.53,2.7,1.55,3.39,1.24Zm-11.81-23.77c-2.89-1.48-4.16-2.16-5.45-2.07s-4,1.13-3.62,6.21c.24,3.41,3.47,6,7.65,5.66a7.55,7.55,0,0,0,2.09-.61ZM856.31,434l-.86-11.77a6.4,6.4,0,0,1-2.15.61,10.72,10.72,0,0,1-2.93-.3,6,6,0,0,0-.26,2.73l.66,9.07c1.15.63,2,1.27,3.31,1.89Z"/><path class="cls-4" d="M883.56,432.78l-5.88,6.67c-2.61-1.47-6.46-3.44-8.91-4.47l0-.25c.81-.57,1-1.61.92-3.16l-1.27-22.21-2.7.16,0-.39c3.34-2.45,6.54-8.71,8.07-13.57l.45,0,.56,9.72,6.63-.38-1.46,3.83-5,.29,1.29,22.66c3.21,1.82,3.46,1.67,4.49,1.62a1.94,1.94,0,0,0,1.31-.73l.49-.6Z"/><path class="cls-4" d="M892.6,419.6l.42,9.86c4,2.34,5.67,2.92,6.83,2.87a2,2,0,0,0,1.33-.77l.55-.6,1,1c-1.42,1.48-4.38,4.7-5.91,6.58-2.85-1.63-8.06-4.31-11.42-5.78v-.25c.75-.62,1.05-1.21,1-3.21l-1-23.19a43.91,43.91,0,0,0,11.37-5.72c1.62,3.16,5.25,9.4,7.17,12.22C901.67,414.44,896.18,417.45,892.6,419.6Zm-.31-14.76-.32.07.55,13a58.43,58.43,0,0,0,5.73-3.35C896.53,412,893.49,407.24,892.29,404.84Z"/><path class="cls-4" d="M934.79,405c-.57.46-1.07,1-1,2.92l.44,22.44a119.92,119.92,0,0,0-10.94,7.38c-2.88-1.88-6.21-3.88-9-5.37v-.26c.76-.34,1.07-1.18,1-2.54l-.45-22.63a126,126,0,0,0,11-7.38c2.74,1.69,6.14,3.75,8.94,5.18Zm-7.18,28-.51-25.54c-1.5-1-3.72-2.31-5.42-3.24l-.19.06L922,429.8c1.44,1,4,2.5,5.49,3.31Z"/><path class="cls-4" d="M956.94,388.17l-4.37,4.66h-.07a21.51,21.51,0,0,1-5-2.56l-.13.06.05,12.77,7.8,0-1.79,3.75-6,0,.09,23.67c1.87.83,2.46,1.09,3.1,1.09.45,0,.9-.39,1.48-1l.45-.52,1,1-6.36,6.34a79.72,79.72,0,0,0-7.44-4.09V433c.84-.45,1.09-1.23,1.09-3l-.1-23.09-4,0,1.86-3.75h2.13l0-10.06a78.23,78.23,0,0,0,11.06-7.27c3.36,2.24,4.2,2.37,4.91,2.17Z"/><path class="cls-4" d="M1005.57,419.42c-.14,5.81-6.2,10.75-7.46,11.95-1.51,1.44-3.5,3.52-6.82,7.05-4.51-2.43-14.75-5.78-20.13-7.47l-.12-.51c2.11-1.63,3.46-3.92,3.56-8l.19-7.93-.83,0c-3.1-.08-5.18.65-6.27,2.75l-.57-.27c.81-6.63,3.91-9.39,7.65-9.3H975l.2-7.74c-5.45-3.94-6.28-4.6-7.5-4.63-1,0-1.49.41-3,1.66l-.82-.86c1.65-1.24,7.57-6.06,8.69-6.94,3.55,2.67,5.38,4.26,10.19,7.86l-.49,19.73c-.1,4.19-.72,5.85-5,9.42v.13a78,78,0,0,1,7.56,2.19l.86-34.62a15.64,15.64,0,0,0-.48-4.14v-.13l1.35.23a18.5,18.5,0,0,1,.3,3.62l-.09,3.48,9.08-7.06c8,3.23,10.31,8.06,10.13,15.47Zm-7.32-6.63-12.06,5.06-.27,11a48.65,48.65,0,0,1,9.19,3.84c1.65-1.44,2.75-4.06,2.85-8.12Zm0-1.29.12-4.7-12.06,5.05-.12,4.77Zm.15-6v-.26c.14-5.67-2.25-8.05-7.36-10.18,0,0-3.29,2.5-4.41,3.37l-.3,12.19Z"/><path class="cls-4" d="M1032.07,407.19c-.6.42-1.15,1-1.24,2.84l-1.13,22.42a120,120,0,0,0-11.44,6.59c-2.74-2.08-5.92-4.3-8.55-6l0-.25c.79-.29,1.15-1.11,1.22-2.46l1.14-22.61a127,127,0,0,0,11.44-6.59c2.62,1.88,5.86,4.17,8.55,5.79Zm-9.13,27.44,1.28-25.51c-1.43-1.11-3.55-2.57-5.17-3.62l-.2.06-1.29,25.5c1.37,1.1,3.8,2.78,5.24,3.69Z"/><path class="cls-4" d="M1045.58,435.79c-1.36,1.14-3.62,3.13-5.26,4.51-1.78-1.53-4.3-3.51-5.9-4.71v-.25c.8-.28,1.17-1.09,1.3-3l2.45-38.17a5.58,5.58,0,0,0-.43-3.32l.27-.11a4.69,4.69,0,0,1,2.53,2.81h.13A8.25,8.25,0,0,1,1046,389l.19.14a7.82,7.82,0,0,0-1.31,4.25L1042.28,434a6.75,6.75,0,0,0,3.18,1.69Z"/><path class="cls-4" d="M1071.53,437.86c-2,1.59-3.52,2.83-5.27,4.43-1.93-1.77-3.75-3.33-5.51-4.76h-.06l-5.42,3.91c-2-1.65-4.74-3.87-6.94-5.47v-.25a2.83,2.83,0,0,0,1.3-2.49l1.88-23.85a6.67,6.67,0,0,0-3.16-1.74l-.12-.14c1.38-1.12,3.73-2.94,5.4-4.42,1.81,1.63,4.17,3.63,5.76,4.85l0,.26c-.8.32-1.19,1.07-1.34,3l-1.82,23.14a30.17,30.17,0,0,0,2.83,2.68s2.26-1.69,2.68-2l2-25c-.72-.71-1.28-1.07-2.06-1.78v-.07c1.31-1,3.65-2.81,5.11-4.06,1.2,1.2,3.37,3.24,4.82,4.46l0,.26c-.8.38-1.18,1.07-1.35,3.19l-1.89,24a6.38,6.38,0,0,0,3.1,1.73Z"/><path class="cls-4" d="M1097.39,440.39c-1.4,1.1-3.73,3-5.41,4.33-1.49-1.37-4.48-3.94-5.73-5l0-.25c.68-.32,1.21-1.05,1.39-3l2.27-23.1c-1.06-1-2.09-1.76-3-2.57,0,0-2,1.3-2.42,1.58L1082,437.59c.7.71,1.25,1.09,2,1.82v.06c-1.68,1.2-3.64,2.69-5.12,3.9-1.78-1.66-3.67-3.47-4.81-4.49l0-.25c.62-.39,1.2-1.05,1.41-3.17l2.35-23.94a6.36,6.36,0,0,0-3.06-1.79l-.12-.14c2-1.55,3.58-2.76,5.35-4.33,1.9,1.8,4,3.7,5.42,4.87h.06l5.5-3.81c2,1.69,4.66,4,6.83,5.6l0,.26a2.79,2.79,0,0,0-1.34,2.46l-2.34,23.81a6.58,6.58,0,0,0,3.13,1.79Z"/><path class="cls-4" d="M1114.63,440.84l-6.93,5.57c-2.32-1.89-5.79-4.49-8-5.92l0-.25c.89-.42,1.27-1.42,1.44-2.95l2.52-22.11-2.69-.31,0-.38c3.71-1.85,7.92-7.47,10.26-12l.45.05-1.11,9.67,6.6.75-2.09,3.53-4.93-.56-2.57,22.55c2.84,2.34,3.12,2.24,4.14,2.36a2,2,0,0,0,1.42-.49l.58-.52Z"/><path class="cls-4" d="M1125.77,429.38l-1.25,9.79c3.58,3,5.1,3.83,6.25,4a2,2,0,0,0,1.43-.53l.65-.5.83,1.15c-1.65,1.21-5.12,3.89-6.94,5.48-2.53-2.08-7.22-5.61-10.27-7.63l0-.25c.84-.48,1.23-1,1.49-3l3-23a44.13,44.13,0,0,0,12.18-3.71c1.06,3.39,3.57,10.15,5,13.26C1135.59,425.83,1129.67,427.86,1125.77,429.38Zm2.2-14.61-.33,0L1126,427.72a60,60,0,0,0,6.21-2.33C1130.94,422.57,1128.75,417.34,1128,414.77Z"/><path class="cls-4" d="M1146.29,432.15l-1.4,9.77c3.54,3.05,5,3.92,6.19,4.08a1.94,1.94,0,0,0,1.44-.51l.66-.49.81,1.16c-1.67,1.19-5.18,3.82-7,5.38-2.5-2.12-7.13-5.72-10.15-7.78l0-.26c.85-.46,1.25-1,1.54-3l3.3-23a44.3,44.3,0,0,0,12.23-3.52c1,3.4,3.43,10.2,4.8,13.33C1156.16,428.75,1150.22,430.7,1146.29,432.15Zm2.42-14.57-.33,0-1.85,12.89a57.1,57.1,0,0,0,6.25-2.23C1151.56,425.42,1149.45,420.16,1148.71,417.58Z"/><path class="cls-4" d="M1175.38,429.82l-.25,0a31.92,31.92,0,0,1-3.6-7.76l-1.56,1.19-3.69,23.18c2.75,2.4,3.28,2.74,4.24,2.9a1.85,1.85,0,0,0,1.34-.64l.68-.54.92,1.12c-4.35,3.16-7.17,5.26-7.17,5.26a73.37,73.37,0,0,0-8.12-6.39l0-.25c.8-.53,1.27-1,1.59-3l3.63-22.8a5.84,5.84,0,0,0-3-2l-.09-.21c1.67-1.1,3.86-2.52,5.59-3.94,1.55,1.75,3.18,3.77,4.57,5.3,2.54-1.55,3.36-2.21,5.49-3.7a53.88,53.88,0,0,0,4.22,7.93A49.26,49.26,0,0,0,1175.38,429.82Z"/><path class="cls-4" d="M1189.91,453.62l-5.77,3.85c-1.21-1.32-3.72-3.85-5.3-5.3l0-.25c.91-.37,1.29-1,1.6-2.8l4.08-23.64-.74-.66a3.86,3.86,0,0,0-2.34-1.25l0-.27,5.78-3.91c1.22,1.33,3.61,3.77,5.29,5.37l0,.25c-.84.32-1.27.9-1.56,2.61l-4.12,23.83c1.75,1.61,2.43,1.86,3,2Zm-1.8-37.35-1.65-2.57A100,100,0,0,0,1195,407a31.9,31.9,0,0,1,1.52,5.24C1194.72,413.23,1190.36,415.35,1188.11,416.27Z"/><path class="cls-4" d="M1215.5,458.38c-1.49,1-4,2.67-5.77,3.84-1.36-1.5-4.11-4.32-5.27-5.45l0-.26c.71-.26,1.3-.94,1.65-2.84l4.29-22.82c-1-1.1-1.93-1.93-2.82-2.82,0,0-2.11,1.11-2.55,1.36l-4.67,24.84c.65.78,1.16,1.2,1.86,2v.07c-1.77,1-3.86,2.36-5.44,3.44-1.62-1.82-3.36-3.78-4.39-4.9l0-.25c.66-.34,1.3-.94,1.69-3l4.44-23.64a6.36,6.36,0,0,0-2.9-2.06l-.1-.15c2.16-1.36,3.8-2.43,5.71-3.85,1.73,2,3.7,4,5,5.33l.07,0,5.8-3.31c1.82,1.85,4.3,4.35,6.32,6.17l0,.26a2.8,2.8,0,0,0-1.55,2.33l-4.42,23.52a6.63,6.63,0,0,0,3,2.06Z"/><path class="cls-4" d="M1235,472s-4.83,3.94-6.64,5.67a21.52,21.52,0,0,0-11.36-4.92,5.91,5.91,0,0,0-1.17,1.53h-.07c-.07-.28-.39-1.27-.49-1.75a116.64,116.64,0,0,1,9.32-7.49l-6.9-7.09.06-.25c.62-.14,1.28-.79,1.61-2.37l4.55-22a83.08,83.08,0,0,0,12.31-4.76c2.56,2.58,5.56,5.3,7.57,7l0,.25a2.92,2.92,0,0,0-1.63,2.43l-4.6,22.23c-.69,3.35,1.67,5.61,1.24,7.7C1238.47,469.59,1236.44,470.82,1235,472Zm-2.06.75c.65-4.73-3-5.35-2.45-10.78l-8.1,6.36c5.93,1.29,8.13,2.74,10.47,4.47Zm-2.13-12.62,4.88-23.56c-1.31-1.32-3-2.91-4.57-4.37l-.21.09-5.21,25.14,3.54,3.89Z"/><path class="cls-8" d="M1305.15,472a1.59,1.59,0,0,0,0-3.17,1.59,1.59,0,0,0,0,3.17Z"/><g class="cls-9"><polygon class="cls-10" points="1275.57 922.04 1233.11 872.77 1170.73 894.5 1253.48 567.6 1358.32 595.14 1275.57 922.04"/><rect class="cls-7" x="1062.42" y="758.35" width="303.65" height="4.28" transform="translate(186.2 1758.41) rotate(-76.21)"/><polygon class="cls-8" points="1248.37 612.53 1175.97 907.42 1180.13 908.45 1252.53 613.55 1248.37 612.53 1248.37 612.53"/><rect class="cls-7" x="1150" y="779.85" width="303.65" height="4.28" transform="translate(232.01 1859.84) rotate(-76.21)"/><polygon class="cls-8" points="1335.95 634.03 1263.55 928.92 1267.71 929.95 1340.11 635.05 1335.95 634.03 1335.95 634.03"/></g><polygon class="cls-2" points="1334.74 922.04 1377.19 872.77 1439.58 894.5 1356.82 567.6 1251.99 595.14 1334.74 922.04"/><g class="cls-11"><polygon class="cls-10" points="1334.74 922.04 1377.19 872.77 1439.58 894.5 1356.82 567.6 1251.99 595.14 1334.74 922.04"/><rect class="cls-7" x="1393.92" y="608.66" width="4.28" height="303.65" transform="translate(-141.05 354.77) rotate(-13.79)"/><polygon class="cls-8" points="1361.94 612.53 1357.78 613.55 1430.17 908.45 1434.34 907.42 1361.94 612.53 1361.94 612.53"/><rect class="cls-7" x="1306.34" y="630.16" width="4.28" height="303.65" transform="translate(-148.71 334.51) rotate(-13.79)"/><polygon class="cls-8" points="1274.36 634.03 1270.2 635.05 1342.6 929.95 1346.76 928.92 1274.36 634.03 1274.36 634.03"/></g><g class="cls-12"><polygon class="cls-13" points="1444.63 828.98 1393.15 813.74 1360.24 856.16 1256.86 535.18 1341.24 508 1444.63 828.98"/><rect class="cls-8" x="1390.31" y="540.56" width="4.28" height="303.65" transform="translate(-145.89 464.76) rotate(-18.02)"/><rect class="cls-8" x="1320.94" y="563.13" width="4.28" height="303.65" transform="translate(-156.28 444.4) rotate(-18.02)"/></g><g class="cls-14"><polygon class="cls-13" points="1165.68 828.98 1217.16 813.74 1250.06 856.16 1353.44 535.18 1269.06 508 1165.68 828.98"/><rect class="cls-8" x="1066.03" y="690.25" width="303.65" height="4.28" transform="matrix(0.31, -0.95, 0.95, 0.31, 182.66, 1636.29)"/><rect class="cls-8" x="1135.4" y="712.82" width="303.65" height="4.28" transform="matrix(0.31, -0.95, 0.95, 0.31, 209.11, 1717.85)"/></g><path class="cls-10" d="M1479.44,509.19c0,8-17.56,14.68-18.66,22.39-1.12,7.9,13.84,19.22,11.65,26.72s-21,9.08-24.23,16.21,7.85,22.31,3.59,28.92-22.66,2.75-27.82,8.71,1.29,23.6-4.68,28.77-22.49-3.73-29.14.55-5.37,23-12.57,26.3-20.49-9.93-28.12-7.69-11.61,20.53-19.51,21.66c-7.7,1.09-16.79-15.33-24.8-15.33s-17.09,16.42-24.8,15.33c-7.89-1.13-12-19.46-19.5-21.66s-21,10.95-28.12,7.69-6-22-12.57-26.3-23.19,4.61-29.15-.55.5-22.81-4.67-28.77-23.54-2.06-27.82-8.71,6.89-21.72,3.59-28.93-22-8.57-24.23-16.2,12.77-18.82,11.64-26.72c-1.09-7.71-18.66-14.38-18.66-22.39s17.57-14.69,18.66-22.39c1.13-7.9-13.84-19.23-11.64-26.73s21-9.07,24.23-16.2-7.85-22.32-3.59-28.93,22.66-2.75,27.82-8.7-1.29-23.6,4.68-28.77,22.49,3.72,29.14-.56,5.36-23,12.57-26.3,20.49,9.93,28.12,7.7,11.61-20.53,19.5-21.66c7.71-1.1,16.79,15.33,24.8,15.33s17.1-16.43,24.8-15.33c7.9,1.13,12,19.46,19.51,21.66s21-11,28.12-7.7,6,22.05,12.57,26.3,23.19-4.6,29.14.56-.49,22.81,4.68,28.77,23.54,2.06,27.82,8.71-6.89,21.71-3.59,28.92,22,8.58,24.23,16.21-12.77,18.82-11.65,26.72C1461.88,494.5,1479.44,501.18,1479.44,509.19Z"/><circle class="cls-13" cx="1305.15" cy="509.19" r="140.32" transform="translate(22.22 1072.02) rotate(-45)"/><path class="cls-8" d="M1305.15,371.87a137.32,137.32,0,1,1-97.09,40.22,136.39,136.39,0,0,1,97.09-40.22m0-6a143.32,143.32,0,1,0,143.32,143.32,143.32,143.32,0,0,0-143.32-143.32Z"/><path class="cls-6" d="M1303.54,506.48a46.44,46.44,0,0,0-6.1-19.78,38.46,38.46,0,0,0-12.77-13.5,37,37,0,0,0-15.63-5.67,109.15,109.15,0,0,0-20.85.24l-40.75,3.57,1.28,14.53,13-1.14,5,56.95-13,1.14,1.27,14.53,43.41-3.8a110.86,110.86,0,0,0,16.09-2.28,45.06,45.06,0,0,0,11.14-4.82,33.48,33.48,0,0,0,10-8.85,40.73,40.73,0,0,0,6.38-13.77A48.9,48.9,0,0,0,1303.54,506.48Zm-25.43,19.13a19.55,19.55,0,0,1-8.4,9.74q-5.51,3.06-15.26,3.9l-5.39.47-5-57,5.38-.47q9.21-.81,15.41,1.27c4.12,1.38,7.56,4.26,10.28,8.63s4.39,9.84,5,16.39Q1281,518.91,1278.11,525.61Z"/><path class="cls-6" d="M1402.53,499.77c-1.4-11.93-6.86-22.25-16.25-29.62-9.11-7.17-21.24-10.42-36.25-8.66s-26.09,7.77-33.29,16.89a43.24,43.24,0,0,0-8.88,32.49,43.69,43.69,0,0,0,15.84,29.28c9,7.37,21.19,10.75,36.61,8.94,15-1.76,26-7.73,33.21-16.75A43,43,0,0,0,1402.53,499.77Zm-28.29,24.52a22.17,22.17,0,0,1-15.76,9.28,21.73,21.73,0,0,1-17.62-5.56c-4.95-4.46-8.1-11-9.08-19.41-1.13-9.62.56-17,4.35-22.28a22.08,22.08,0,0,1,15.72-9.28,21.65,21.65,0,0,1,17.93,5.8c4.8,4.5,7.91,11.05,8.9,19.47C1379.78,511.68,1378.08,519,1374.24,524.29Z"/></g></svg>