<svg id="Layer_1" data-name="Layer 1" xmlns="http://www.w3.org/2000/svg" xmlns:xlink="http://www.w3.org/1999/xlink" viewBox="0 0 685 242"><defs><style>.cls-1{fill:none;}.cls-2{clip-path:url(#clip-path);}.cls-3{fill:#983ac9;}.cls-4{fill:#731daa;}.cls-5{fill:#fcce2f;}.cls-6{fill:#2fe4da;}.cls-7{fill:#efefef;}.cls-8{fill:#e2e2e2;}.cls-9{fill:#332baa;}.cls-10{fill:#06c9b1;}.cls-11{fill:#fff;}</style><clipPath id="clip-path"><rect class="cls-1" width="685" height="242"/></clipPath></defs><title>CR-Money-Inlinehero-dont-feel-bad-gift-card-1218</title><g class="cls-2"><g id="Mask"><rect class="cls-3" width="685" height="242"/></g><g id="refer-a-friend-01"><polygon class="cls-4" points="184 5.7 102.1 47.5 81.9 8.1 163.8 -33.7 184 5.7"/><path id="Path" class="cls-1" d="M141.5,23a13.3,13.3,0,0,0,3.5-2l-7.7,3.1A25.77,25.77,0,0,0,141.5,23Z"/><path class="cls-1" d="M118.3,14.8a20.83,20.83,0,0,1-.5-18.5L95.1,8.2a7,7,0,0,1-2.4,7.9l9.6,19.1a6.78,6.78,0,0,1,7.7,2.6L132.7,26C127,25.2,121.4,21.1,118.3,14.8Z"/><path class="cls-1" d="M147.1-.6a20.83,20.83,0,0,1,.5,18.5L170.4,6.1a7,7,0,0,1,2.4-7.9l-9.6-19.1a6.69,6.69,0,0,1-7.7-2.7L132.7-11.7C138.4-10.9,144-6.8,147.1-.6Z"/><path class="cls-3" d="M156.6-23.7a7,7,0,0,0,7.9,2.6l9.8,19a6.74,6.74,0,0,0-2.4,7.9L148.5,17.6a17.39,17.39,0,0,1-1.1,1.8L173.3,6.3l-.1-.2a6.14,6.14,0,0,1-.4-4.4,5.75,5.75,0,0,1,2.9-3.4L165.1-22.4a5.91,5.91,0,0,1-7.9-2.5l-.1-.2L131.2-12a14.92,14.92,0,0,1,2.1.2Z"/><path class="cls-3" d="M91.2,15.9,102,36.7a5.91,5.91,0,0,1,7.9,2.5l.1.2,25.9-13a14.92,14.92,0,0,1-2.1-.2L110.4,38a7,7,0,0,0-7.9-2.6L92.7,16.3a6.74,6.74,0,0,0,2.4-7.9L118.5-3.4a17.39,17.39,0,0,1,1.1-1.8L93.6,7.9l.1.2A5.82,5.82,0,0,1,91.2,15.9Z"/><path class="cls-3" d="M146.3.4c3.3,6.6,2.9,13.9-.4,19l1.8-.9a21,21,0,0,0-.5-18.6c-3.1-6.3-8.7-10.4-14.3-11.2l-1.8.9C137.1-10.1,143.1-6.1,146.3.4Z"/><path class="cls-3" d="M119.1,13.8c-3.3-6.6-2.9-13.9.4-19l-1.8.9c-2.6,5.3-2.6,12.3.5,18.6s8.7,10.4,14.3,11.2l1.8-.9C128.4,24.4,122.4,20.4,119.1,13.8Z"/><path class="cls-3" d="M140.7,23.1a18.71,18.71,0,0,1-4,1.3l-2.4,1.2a14.76,14.76,0,0,0,12.3-6.1l-2.4,1.2A16.72,16.72,0,0,1,140.7,23.1Z"/><path class="cls-3" d="M146.5,18.8a8,8,0,0,1-1.5,2.1l2.1-1.3a15.11,15.11,0,0,0,.9-1.8Z"/><path class="cls-3" d="M134.6,24.2l-1.9,1.1a14.92,14.92,0,0,0,2.1.2l2.5-1.5A8.22,8.22,0,0,1,134.6,24.2Z"/><circle id="Oval" class="cls-3" cx="175.8" cy="4.1" r="1.5"/><circle class="cls-3" cx="105" cy="39.4" r="1.5"/><circle class="cls-3" cx="89.6" cy="10.2" r="1.5"/><path id="Shape" class="cls-3" d="M130.8-.1a15.57,15.57,0,0,1,7.4-1.1l-.5,4.1a11.44,11.44,0,0,0-5.2.5l.9,1.7c4-1.1,6.6-1,8,1.7h0c1.3,2.5.4,5.3-3.2,7.3l.6,1.2-2.2,1.1-.6-1.2a12.61,12.61,0,0,1-5.8.8l.4-4.1a7.79,7.79,0,0,0,3.7-.3l-.9-1.7c-3.8,1.1-6.4,1-7.8-1.8h0c-1.4-2.7-.1-5.3,3.1-7.2l-1-2,2.2-1.1Zm5.5,10.9c1-.5,1.2-1,1-1.4h0c-.2-.4-.7-.5-1.8-.2Zm-6.8-5.1h0c.2.4.6.5,1.8.2l-.8-1.7C129.6,4.8,129.3,5.2,129.5,5.7Z"/><path class="cls-3" d="M127.6-1l2.1-1.1h.1a.1.1,0,0,1,.1.1l1,1.9a15.11,15.11,0,0,1,7.3-1h.1V-1l-.5,4a.1.1,0,0,1-.1.1,12,12,0,0,0-5,.4l.8,1.5c3.7-1,6.4-1.1,7.9,1.7h0c1.4,2.7.2,5.4-3.1,7.3l.6,1v.1l-2.1,1.1h-.1l-.6-1.1a12,12,0,0,1-5.6.8.1.1,0,0,1-.1-.1l.4-4v-.1h.1a8.3,8.3,0,0,0,3.5-.2l-.8-1.4c-3.6,1-6.3,1-7.8-1.8h0c-1.3-2.6-.2-5.2,3-7.2l-1-1.9a.1.1,0,0,1-.1-.1S127.5-1,127.6-1Zm2.1-.8-2,1,1,1.9v.1c-3.2,1.9-4.3,4.4-3,6.9h0c1.4,2.7,4,2.7,7.6,1.7a.1.1,0,0,1,.1.1l.9,1.6v.1a.1.1,0,0,1-.1.1,11,11,0,0,1-3.6.3l-.4,3.8a11.37,11.37,0,0,0,5.5-.8c.1,0,.1,0,.1.1l.6,1.1,2-1-.6-1v-.1l.1-.1c3.3-1.8,4.5-4.5,3.1-7h0c-1.2-2.3-3.4-2.8-7.7-1.6-.1,0-.1,0-.1-.1l-.9-1.7V3.5l.1-.1a12.52,12.52,0,0,1,5.1-.5L138-1A14.94,14.94,0,0,0,130.8.1h-.1Zm.7,6.1h0c.1,0,.1,0,.1.1l.9,1.6v.1l-.1.1c-1.1.3-1.6.3-1.9-.2h0c-.2-.7.1-1.2,1-1.7Zm.8,1.6-.7-1.4c-1.1.6-.9,1.1-.8,1.2h0c.1.4.4.5,1.5.2Zm4.2,3.2h0c1.2-.3,1.7-.3,1.9.2h0c.2.3.2.9-1,1.6h-.1l-.1-.1-.8-1.6a.1.1,0,0,1,.1-.1Zm.9,1.6c.7-.4,1-.9.8-1.2h0c-.2-.3-.5-.5-1.6-.1Z"/><polygon class="cls-4" points="501.4 113.9 419.6 155.7 399.4 116.3 481.3 74.5 501.4 113.9"/><path id="Path-2" data-name="Path" class="cls-1" d="M459,131.2a13.3,13.3,0,0,0,3.5-2l-7.7,3.1A18.49,18.49,0,0,0,459,131.2Z"/><path class="cls-1" d="M435.7,123a20.83,20.83,0,0,1-.5-18.5l-22.7,11.8a7,7,0,0,1-2.4,7.9l9.6,19.1a6.78,6.78,0,0,1,7.7,2.6l22.7-11.8C444.5,133.4,438.9,129.3,435.7,123Z"/><path class="cls-1" d="M464.6,107.6a20.83,20.83,0,0,1,.5,18.5l22.8-11.8a7,7,0,0,1,2.4-7.9l-9.6-19.1a6.69,6.69,0,0,1-7.7-2.7L450.3,96.4C455.9,97.3,461.5,101.4,464.6,107.6Z"/><path class="cls-1" d="M441.4,99.5a13.3,13.3,0,0,0-3.5,2l7.7-3.1a18.49,18.49,0,0,0-4.2,1.1Z"/><path class="cls-3" d="M474.1,84.5a7,7,0,0,0,7.9,2.6l9.8,19a6.74,6.74,0,0,0-2.4,7.9L466,125.8a17.39,17.39,0,0,1-1.1,1.8l25.9-13.1-.1-.2a6.14,6.14,0,0,1-.4-4.4,5.75,5.75,0,0,1,2.9-3.4L482.5,85.8a5.91,5.91,0,0,1-7.9-2.5l-.1-.2L448.6,96.2a14.92,14.92,0,0,1,2.1.2Z"/><path class="cls-3" d="M408.6,124.1l10.8,20.8a5.91,5.91,0,0,1,7.9,2.5l.1.2,25.9-13a14.92,14.92,0,0,1-2.1-.2l-23.4,11.8a7,7,0,0,0-7.9-2.6l-9.8-19.1a6.74,6.74,0,0,0,2.4-7.9l23.4-11.8A17.39,17.39,0,0,1,437,103l-25.9,13.1.1.2A5.86,5.86,0,0,1,408.6,124.1Z"/><path class="cls-3" d="M463.8,108.7c3.3,6.6,2.9,13.9-.4,19l1.8-.9a21,21,0,0,0-.5-18.6c-3.1-6.3-8.7-10.4-14.3-11.2l-1.8.9C454.5,98.1,460.5,102.1,463.8,108.7Z"/><path class="cls-3" d="M436.6,122c-3.3-6.6-2.9-13.9.4-19l-1.8.9a21,21,0,0,0,.5,18.6c3.1,6.3,8.7,10.4,14.3,11.2l1.8-.9C445.8,132.6,439.8,128.6,436.6,122Z"/><path class="cls-3" d="M442.2,99.4a18.71,18.71,0,0,1,4-1.3l2.4-1.2a14.76,14.76,0,0,0-12.3,6.1l2.4-1.2A16.72,16.72,0,0,1,442.2,99.4Z"/><path class="cls-3" d="M458.2,131.3a18.71,18.71,0,0,1-4,1.3l-2.4,1.2a14.76,14.76,0,0,0,12.3-6.1l-2.4,1.2A19.8,19.8,0,0,1,458.2,131.3Z"/><path class="cls-3" d="M448.3,98.3l1.9-1.1a14.92,14.92,0,0,0-2.1-.2l-2.5,1.5a8.22,8.22,0,0,1,2.7-.2Z"/><path class="cls-3" d="M436.4,103.7a8,8,0,0,1,1.5-2.1l-2.1,1.3a15.11,15.11,0,0,0-.9,1.8Z"/><path class="cls-3" d="M464,127a8,8,0,0,1-1.5,2.1l2.1-1.3a15.11,15.11,0,0,0,.9-1.8Z"/><path class="cls-3" d="M452,132.4l-1.9,1.1a14.92,14.92,0,0,0,2.1.2l2.5-1.5A7.82,7.82,0,0,1,452,132.4Z"/><circle id="Oval-2" data-name="Oval" class="cls-3" cx="493.3" cy="112.3" r="1.5"/><circle class="cls-3" cx="477.9" cy="81.6" r="1.5"/><circle class="cls-3" cx="422.5" cy="147.6" r="1.5"/><circle class="cls-3" cx="407.1" cy="118.4" r="1.5"/><path id="Shape-2" data-name="Shape" class="cls-3" d="M448.3,108.1a15.57,15.57,0,0,1,7.4-1.1l-.5,4.1a11.44,11.44,0,0,0-5.2.5l.9,1.7c4-1.1,6.6-1,8,1.7h0c1.3,2.5.4,5.3-3.2,7.3l.6,1.2-2.2,1.1-.6-1.2a12.61,12.61,0,0,1-5.8.8l.4-4.1a7.79,7.79,0,0,0,3.7-.3l-.9-1.7c-3.8,1.1-6.4,1-7.8-1.8h0c-1.4-2.7-.1-5.3,3.1-7.2l-1-2,2.2-1.1Zm5.5,10.9c1-.5,1.2-1,1-1.4h0c-.2-.4-.7-.5-1.8-.2Zm-6.8-5.1h0c.2.4.6.5,1.8.2l-.9-1.6C447,113,446.8,113.4,447,113.9Z"/><path class="cls-3" d="M445,107.2l2.1-1.1h.1a.1.1,0,0,1,.1.1l1,1.9a15.11,15.11,0,0,1,7.3-1h.1v.1l-.5,4.1a.1.1,0,0,1-.1.1,12,12,0,0,0-5,.4l.8,1.5c3.7-1,6.4-1.1,7.9,1.7h0c1.4,2.7.2,5.4-3.1,7.3l.6,1v.1l-2.1,1.1h-.1l-.6-1.1a12,12,0,0,1-5.6.8.1.1,0,0,1-.1-.1l.4-4V120h.1a8.3,8.3,0,0,0,3.5-.2l-.8-1.4c-3.6,1-6.3,1-7.8-1.8h0c-1.3-2.6-.2-5.2,3-7.2l-1-1.9a.1.1,0,0,1-.1-.1Zm2.2-.8-2,1,1,1.9v.1c-3.2,1.9-4.3,4.4-3,6.9h0c1.4,2.7,4,2.7,7.6,1.7a.1.1,0,0,1,.1.1l.9,1.6v.1a.1.1,0,0,1-.1.1,11,11,0,0,1-3.6.3l-.4,3.8a11.37,11.37,0,0,0,5.5-.8c.1,0,.1,0,.1.1l.6,1.1,2-1-.6-1v-.1l.1-.1c3.3-1.8,4.5-4.5,3.1-7h0c-1.2-2.3-3.4-2.8-7.7-1.6-.1,0-.1,0-.1-.1l-.9-1.7v-.1l.1-.1a12.52,12.52,0,0,1,5.1-.5l.5-3.9a14.94,14.94,0,0,0-7.2,1.1h-.1Zm.7,6.1h0c.1,0,.1,0,.1.1l.9,1.6v.1l-.1.1c-1.1.3-1.6.3-1.9-.2h0c-.2-.7.1-1.2,1-1.7Zm.7,1.6-.7-1.4c-1.1.6-.9,1.1-.8,1.2h0c.2.4.5.5,1.5.2Zm4.2,3.2h0c1.2-.3,1.7-.3,1.9.2h0c.2.3.2.9-1,1.6h-.1l-.1-.1-.8-1.6a.1.1,0,0,1,.1-.1Zm1,1.6c.7-.4,1-.9.8-1.2h0c-.2-.3-.5-.5-1.6-.1Z"/><polygon class="cls-4" points="632 73.7 561.4 14.9 589.7 -19.2 660.3 39.7 632 73.7"/><path id="Path-3" data-name="Path" class="cls-1" d="M599.4,41.5a18.5,18.5,0,0,0,3.2,2.5l-5.8-5.9A17,17,0,0,0,599.4,41.5Z"/><path class="cls-1" d="M597.7,16.9a20.5,20.5,0,0,1,16.8-7.7L594.7-7a7,7,0,0,1-8.2.9L572.7,10.2a6.78,6.78,0,0,1,.6,8.1l19.8,16.3C591.7,29,593.2,22.3,597.7,16.9Z"/><path class="cls-1" d="M623.2,37.4a20.5,20.5,0,0,1-16.8,7.7l19.8,16.3a7,7,0,0,1,8.2-.9l13.8-16.3a6.78,6.78,0,0,1-.6-8.1L627.8,19.8C629.3,25.3,627.8,32,623.2,37.4Z"/><path class="cls-1" d="M621.6,12.9a14.09,14.09,0,0,0-3.2-2.4l5.8,5.9a13.3,13.3,0,0,0-2.6-3.5Z"/><path class="cls-3" d="M648.2,37a7.08,7.08,0,0,0,.7,8.3L635.3,61.8a6.79,6.79,0,0,0-8.2.9l-20-16.9-2-.3,22.2,18.6.1-.1a6.06,6.06,0,0,1,3.9-2.1,6.2,6.2,0,0,1,4.3,1.4l14.9-18.1a6,6,0,0,1-.8-8.3l.1-.1L627.5,18.2a11.76,11.76,0,0,1,.7,2Z"/><path class="cls-3" d="M586.1-7.6,571.2,10.5a6,6,0,0,1,.8,8.3l-.1.1L594,37.6a11.76,11.76,0,0,1-.7-2l-20-16.8a7.08,7.08,0,0,0-.7-8.3L586.3-6a6.79,6.79,0,0,0,8.2-.9l20,16.8,2,.3L594.3-8.4l-.1.1A5.72,5.72,0,0,1,586.1-7.6Z"/><path class="cls-3" d="M622,37c-4.8,5.6-11.7,8.2-17.6,7.1l1.5,1.3c5.9.4,12.3-2.4,16.9-7.7s6.1-12,4.7-17.6L626,18.8C628.1,24.4,626.8,31.5,622,37Z"/><path class="cls-3" d="M599,17.3c4.8-5.6,11.7-8.2,17.6-7.1l-1.5-1.3c-5.9-.4-12.3,2.4-16.9,7.7s-6.1,12-4.7,17.6l1.5,1.3C592.9,30,594.2,22.9,599,17.3Z"/><path class="cls-3" d="M622,13.6a11.8,11.8,0,0,1,2.7,3.2l2.1,1.8a14.53,14.53,0,0,0-10.5-8.9l2.1,1.8A11,11,0,0,1,622,13.6Z"/><path class="cls-3" d="M599,40.8a11.8,11.8,0,0,1-2.7-3.2l-2.1-1.8a14.53,14.53,0,0,0,10.5,8.9l-2.1-1.8A11.75,11.75,0,0,1,599,40.8Z"/><path class="cls-3" d="M625.5,18.7l1.8,1.3a11.76,11.76,0,0,0-.7-2l-2.4-1.7a14.14,14.14,0,0,1,1.3,2.4Z"/><path class="cls-3" d="M615.8,9.9a23.81,23.81,0,0,1,2.6.5l-2-1.5c-.7-.1-1.3-.1-2-.2Z"/><path class="cls-3" d="M605.2,44.5a23.81,23.81,0,0,1-2.6-.5l2,1.5c.7.1,1.3.1,2,.2Z"/><path class="cls-3" d="M595.5,35.6l-1.8-1.3a11.76,11.76,0,0,0,.7,2l2.4,1.7A9.21,9.21,0,0,1,595.5,35.6Z"/><circle id="Oval-3" data-name="Oval" class="cls-3" cx="630.3" cy="65.58" r="1.5"/><circle class="cls-3" cx="652.51" cy="39.38" r="1.5"/><circle class="cls-3" cx="570" cy="14.38" r="1.5"/><path id="Shape-3" data-name="Shape" class="cls-3" d="M616.5,22.6a16.27,16.27,0,0,1,3.9,6.4l-4,1.1a11.49,11.49,0,0,0-2.5-4.6L612.7,27c2.6,3.3,3.5,5.7,1.6,8h0c-1.8,2.2-4.7,2.5-8-.1l-.8,1-1.8-1.6.9-1.1a12.19,12.19,0,0,1-3-5l3.9-1.3a8.67,8.67,0,0,0,1.7,3.3l1.2-1.5c-2.5-3.1-3.4-5.5-1.4-7.9h0c1.9-2.3,4.9-2.2,7.8,0l1.4-1.7,1.8,1.6Zm-7.9,9.3c.9.7,1.4.7,1.7.4h0c.3-.4.2-.8-.6-1.8Zm2-8.2h0c-.3.4-.2.8.5,1.7l1.2-1.4C611.4,23.3,610.9,23.3,610.6,23.7Z"/><path class="cls-3" d="M616,19.2l1.8,1.5v.2l-1.3,1.7a14.65,14.65,0,0,1,3.8,6.3V29l-.1.1-3.9,1.1c-.1,0-.1,0-.1-.1a12.62,12.62,0,0,0-2.4-4.4l-1,1.3c2.4,3,3.5,5.5,1.5,8h0c-1.9,2.3-4.9,2.3-7.9,0l-.7.9h-.1l-1.8-1.6v-.2l.8-1a11.64,11.64,0,0,1-2.9-4.9c0-.1,0-.1.1-.1l3.8-1.2h.1V27a7.67,7.67,0,0,0,1.6,3.1l1-1.3c-2.3-2.9-3.4-5.4-1.4-7.9h0c1.8-2.2,4.7-2.3,7.8-.1l1.3-1.6c0-.1,0-.1.1-.2S615.9,19.2,616,19.2Zm1.5,1.7-1.7-1.4-1.3,1.6h-.1c-3-2.2-5.8-2.2-7.6,0h0c-2,2.4-.9,4.7,1.4,7.6v.1L607,30.2h-.2a8.76,8.76,0,0,1-1.6-3.2l-3.6,1.2a13.16,13.16,0,0,0,2.9,4.8v.1l-.8,1,1.7,1.4.7-.9h.2c3,2.3,5.9,2.3,7.7.1h0c1.7-2.1,1.2-4.2-1.6-7.7v-.1l1.2-1.5h.2a10.91,10.91,0,0,1,2.4,4.5l3.7-1.1a15.33,15.33,0,0,0-3.8-6.2v-.1Zm-5.3,3h0v.2L611,25.5h-.2c-.8-.9-.9-1.4-.5-1.8h0c.5-.5,1.1-.4,1.9.2ZM611,25.3l1-1.2c-1-.7-1.3-.4-1.4-.3h0c-.2.3-.2.6.4,1.5Zm-1.3,5.1h0c.8.9.9,1.4.6,1.9h0c-.2.3-.7.6-1.8-.3v-.2l1.2-1.4c-.1-.1,0-.1,0,0,0-.1.1-.1,0,0Zm-1,1.5q1,.75,1.5.3h0c.2-.3.2-.6-.5-1.5Z"/><polygon class="cls-4" points="403.2 232.3 379.1 321 336.4 309.4 360.5 220.7 403.2 232.3"/><path class="cls-1" d="M373.8,255.4c6.8,1.9,11.9,6.6,14,12.1l6.5-24.8a7.22,7.22,0,0,1-4.3-7.1l-20.5-5.7a6.65,6.65,0,0,1-7.1,3.9l-6.5,24.8C360.3,254.9,367.1,253.5,373.8,255.4Z"/><path class="cls-3" d="M363.1,232.8a7.13,7.13,0,0,0,7.3-4.1l20.7,5.5a6.92,6.92,0,0,0,4.2,7.1l-7,25.2c.2.6.4,1.3.6,2l7.7-27.9h-.2a5.65,5.65,0,0,1-3.5-2.7,5.22,5.22,0,0,1-.5-4.4l-22.6-6a6,6,0,0,1-7.2,4.2h-.2l-7.7,27.9a19.2,19.2,0,0,1,1.5-1.4Z"/><circle id="Oval-4" data-name="Oval" class="cls-3" cx="396.48" cy="237.26" r="1.5"/><circle class="cls-3" cx="363.43" cy="228.05" r="1.5"/><polygon class="cls-4" points="163.9 277.5 122.4 195.4 161.9 175.4 203.4 257.5 163.9 277.5"/><path id="Path-4" data-name="Path" class="cls-1" d="M146.8,234.9a13.3,13.3,0,0,0,2,3.5l-3-7.7A11.76,11.76,0,0,0,146.8,234.9Z"/><path class="cls-1" d="M155,211.8c6.3-3.1,13.2-3.1,18.5-.4l-11.7-22.8a7,7,0,0,1-7.9-2.4l-19.1,9.5a6.83,6.83,0,0,1-2.7,7.7l11.7,22.8C144.6,220.4,148.7,214.9,155,211.8Z"/><path class="cls-1" d="M170.3,240.7c-6.3,3.1-13.2,3.1-18.5.4l11.7,22.8a7,7,0,0,1,7.9,2.4l19.1-9.5a6.83,6.83,0,0,1,2.7-7.7l-11.7-22.8C180.6,232,176.5,237.5,170.3,240.7Z"/><path class="cls-1" d="M178.5,217.5a13.3,13.3,0,0,0-2-3.5l3,7.7a14.35,14.35,0,0,0-1-4.2Z"/><path class="cls-3" d="M193.3,250.2a7.12,7.12,0,0,0-2.7,7.9l-19.1,9.8a6.93,6.93,0,0,0-7.9-2.5L152,242a17.39,17.39,0,0,1-1.8-1.1l13,25.9.2-.1a5.64,5.64,0,0,1,4.4-.3,5.75,5.75,0,0,1,3.4,2.9L192,258.6a6,6,0,0,1,2.6-7.9l.2-.1-13-25.9a14.92,14.92,0,0,1-.2,2.1Z"/><path class="cls-3" d="M154,184.6l-20.8,10.7a6,6,0,0,1-2.6,7.9l-.2.1,12.9,25.9a14.92,14.92,0,0,1,.2-2.1l-11.7-23.4a7.12,7.12,0,0,0,2.7-7.9l19.1-9.8a6.93,6.93,0,0,0,7.9,2.5l11.7,23.4A17.39,17.39,0,0,1,175,213l-13-25.9-.2.1A5.77,5.77,0,0,1,154,184.6Z"/><path class="cls-3" d="M169.3,239.8c-6.6,3.2-14,2.9-19-.4l.9,1.8c5.2,2.7,12.2,2.7,18.6-.4s10.4-8.6,11.3-14.3l-.9-1.8C179.9,230.6,175.8,236.6,169.3,239.8Z"/><path class="cls-3" d="M156,212.6c6.6-3.2,14-2.9,19,.4l-.9-1.8c-5.2-2.7-12.2-2.7-18.6.4s-10.4,8.6-11.3,14.3l.9,1.8C145.3,221.8,149.4,215.8,156,212.6Z"/><path class="cls-3" d="M178.6,218.3a14.19,14.19,0,0,1,1.2,4l1.2,2.4a14.76,14.76,0,0,0-6.1-12.3l1.2,2.4A14,14,0,0,1,178.6,218.3Z"/><path class="cls-3" d="M146.6,234.1a14.19,14.19,0,0,1-1.2-4l-1.2-2.4a14.76,14.76,0,0,0,6.1,12.3l-1.2-2.4A14.81,14.81,0,0,1,146.6,234.1Z"/><path class="cls-3" d="M179.7,224.4l1.1,1.9a14.92,14.92,0,0,0,.2-2.1l-1.5-2.5a8.22,8.22,0,0,1,.2,2.7Z"/><path class="cls-3" d="M174.4,212.4a11.26,11.26,0,0,1,2.1,1.5l-1.3-2.1c-.6-.3-1.2-.7-1.8-1Z"/><path class="cls-3" d="M150.9,240a11.26,11.26,0,0,1-2.1-1.5l1.3,2.1c.6.3,1.2.7,1.8,1Z"/><path class="cls-3" d="M145.5,228l-1.1-1.9a14.92,14.92,0,0,0-.2,2.1l1.5,2.5A11.84,11.84,0,0,1,145.5,228Z"/><circle class="cls-3" cx="130.46" cy="198.37" r="1.5"/><circle class="cls-3" cx="159.68" cy="183.13" r="1.5"/><path id="Shape-4" data-name="Shape" class="cls-3" d="M169.9,224.3a14.52,14.52,0,0,1,1,7.4l-4.1-.5a13,13,0,0,0-.4-5.2l-1.7.9c1.1,4,1,6.6-1.7,8h0c-2.5,1.3-5.3.4-7.3-3.2l-1.2.6-1.1-2.2,1.2-.6a12.61,12.61,0,0,1-.8-5.8l4.1.4a9.26,9.26,0,0,0,.2,3.7l1.7-.9c-1.1-3.8-1-6.4,1.8-7.8h0c2.7-1.4,5.3-.1,7.1,3.1l2-1,1.1,2.2ZM159,229.8c.5,1,1,1.2,1.4,1h0c.4-.2.5-.7.2-1.8Zm5.1-6.7h0c-.4.2-.5.6-.2,1.8l1.6-.9C165,223.1,164.5,222.8,164.1,223.1Z"/><path class="cls-3" d="M170.8,221.1l1,2.1v.1a.1.1,0,0,1-.1.1l-1.9,1a15.11,15.11,0,0,1,1,7.3v.1h-.1l-4.1-.5a.1.1,0,0,1-.1-.1,12,12,0,0,0-.4-5l-1.5.8c1,3.7,1.1,6.5-1.7,7.9h0c-2.7,1.4-5.4.2-7.3-3.1l-1.1.6h-.1l-1.1-2.1v-.1l1.1-.6a12,12,0,0,1-.8-5.6.1.1,0,0,1,.1-.1l4,.4h.1v.1a8.3,8.3,0,0,0,.2,3.5l1.5-.8c-1-3.6-1-6.3,1.8-7.8h0c2.6-1.3,5.2-.2,7.2,3l1.9-1a.1.1,0,0,1,.1-.1S170.8,221,170.8,221.1Zm.8,2.2-1-2-1.9,1h-.1c-1.9-3.2-4.4-4.3-6.9-3h0c-2.8,1.4-2.7,4-1.7,7.6a.1.1,0,0,1-.1.1l-1.6.9h-.1a.1.1,0,0,1-.1-.1,11,11,0,0,1-.3-3.6l-3.8-.4a11.37,11.37,0,0,0,.8,5.5c0,.1,0,.1-.1.1l-1.1.6,1,2,1.1-.6h.1l.1.1c1.8,3.3,4.5,4.5,7,3.1h0c2.4-1.2,2.8-3.4,1.6-7.7,0-.1,0-.1.1-.1l1.7-.9h.1l.1.1a12.52,12.52,0,0,1,.5,5.1l3.9.5a16.17,16.17,0,0,0-1-7.2v-.1Zm-6.1.6h0c0,.1,0,.1-.1.1l-1.6.8h-.1l-.1-.1c-.3-1.1-.3-1.6.2-1.9h0c.7-.1,1.2.2,1.7,1.1Zm-1.6.8,1.4-.7c-.6-1.1-1.1-.9-1.2-.8h0c-.4.2-.5.4-.2,1.5Zm-3.3,4.2h0c.3,1.2.3,1.7-.2,1.9h0c-.3.2-.9.2-1.6-1v-.1l.1-.1,1.6-.8c.1,0,.1,0,.1.1Zm-1.5.9q.6,1.2,1.2.9h0c.3-.2.5-.5.1-1.6Z"/><polygon class="cls-4" points="194.3 90.8 264.7 64.3 291.2 134.7 220.7 161.2 194.3 90.8"/><polygon class="cls-3" points="223.6 79.7 235.4 75.3 261.9 145.7 250.1 150.2 223.6 79.7"/><polygon class="cls-3" points="275.8 93.6 280.2 105.4 209.7 131.8 205.3 120.1 275.8 93.6"/><path class="cls-4" d="M229.2,77.2l-16.6,6.4s-13.3,4.9-16.9-5.2S214.5,61.5,229.2,77.2Z"/><path class="cls-4" d="M229.2,77.1l17.2-6.5s13.7-5.3,9.8-15.6S230.1,54.9,229.2,77.1Z"/><path class="cls-4" d="M229.2,77.1s-29.7-20.3-10.4-28.2C236.7,41.7,229.2,77.1,229.2,77.1Z"/><polygon class="cls-4" points="17.3 106.2 84.9 139.3 51.9 206.9 -15.7 173.9 17.3 106.2"/><polygon class="cls-3" points="45.4 120 56.7 125.5 23.8 193.1 12.5 187.6 45.4 120"/><polygon class="cls-3" points="71.2 167.4 65.7 178.7 -2 145.7 3.5 134.4 71.2 167.4"/><path class="cls-4" d="M51.1,122.3l-16-7.7s-12.7-6.3-7.8-15.9S52.5,100.8,51.1,122.3Z"/><path class="cls-4" d="M51.2,122.3l16.6,8.1s13.3,6.3,18-3.6S68,107.7,51.2,122.3Z"/><path class="cls-4" d="M51.2,122.2S45.6,86.6,64.6,95.3C82.1,103.3,51.2,122.2,51.2,122.2Z"/><polygon class="cls-4" points="534.5 160.4 602.6 192.6 570.3 260.6 502.3 228.3 534.5 160.4"/><polygon class="cls-3" points="562.9 173.8 574.2 179.2 542 247.1 530.6 241.8 562.9 173.8"/><polygon class="cls-3" points="589.1 220.9 583.7 232.3 515.7 200 521.1 188.7 589.1 220.9"/><path class="cls-4" d="M568.8,176.3l-16.7-7.9s-13.2-6.4-8.4-16.3S569.8,154.2,568.8,176.3Z"/><path class="cls-4" d="M568.8,176.1l16,7.6s12.8,5.9,17.3-3.7S584.8,161.9,568.8,176.1Z"/><path class="cls-4" d="M568.4,176.3s-6.6-36.7,13.2-27.8C599.9,156.7,568.4,176.3,568.4,176.3Z"/><polygon class="cls-4" points="657.4 152 695.4 87 760.3 125 722.3 190 657.4 152"/><polygon class="cls-3" points="673.2 124.9 679.6 114 744.5 152 738.1 162.9 673.2 124.9"/><polygon class="cls-3" points="722.4 102.8 733.3 109.2 695.3 174.2 684.5 167.8 722.4 102.8"/><path class="cls-4" d="M676.2,119.2l-9.3,15.9s-7.6,12.6-16.9,7S654.3,116.4,676.2,119.2Z"/><path class="cls-4" d="M676,119.1l9-15.3s7-12.2-2.2-17.5S663.3,102.1,676,119.1Z"/><path class="cls-4" d="M676.1,119.6s-37.2,3.5-26.5-15.6C659.4,86.5,676.1,119.6,676.1,119.6Z"/><polygon class="cls-4" points="419 42.6 372.7 -16.7 432 -63 478.4 -3.7 419 42.6"/><polygon class="cls-3" points="397.3 17.3 389.5 7.3 449 -39.3 456.8 -29.4 397.3 17.3"/><polygon class="cls-3" points="397.4 -36 407.3 -43.7 453.6 15.6 443.7 23.3 397.4 -36"/><path class="cls-4" d="M395.4,12.8l10.8,14.3s8.5,11.5.2,18.1S385.1,31.9,395.4,12.8Z"/><path class="cls-4" d="M396.2,13.3,385.1-.6s-9-11-17.4-4.5S375.2,18.8,396.2,13.3Z"/><path class="cls-4" d="M396.2,12.8S385.9,48,372.6,31.4C360.3,16.1,396.2,12.8,396.2,12.8Z"/><path class="cls-5" d="M445.7,186.7s-27.5-13.5-36.1-22.1-42.9,1.1-35.6-7.6,29.1-1.6,37.1-4.9,1.7-8.8,1.7-8.8c-26.3-22.4-36.2,14.3-40.1,12.5s-3.4-6.4,6-20.6,27.2-6.6,27.2-6.6-.8-9.7,11.6-8.8c0,0,5.4-4.7,11.3-.8,0,0,4.5-3.6,7.8,2,10.9,19,17.4,41.4,17.4,41.4"/><rect class="cls-6" x="271.7" y="99.9" width="142.2" height="95"/><polygon class="cls-7" points="271.7 100.8 342.9 35.1 414 100.8 271.7 100.8"/><polygon class="cls-8" points="414 99.9 342.9 152.6 271.7 99.9 414 99.9"/><path class="cls-9" d="M299.2,122.3l54.2-82.1a4.63,4.63,0,0,1,6.4-1.3l47.4,31.3a4.53,4.53,0,0,1,1.3,6.3h0l-54.2,82.1a4.63,4.63,0,0,1-6.4,1.3l-47.4-31.2a4.65,4.65,0,0,1-1.3-6.4Z"/><polygon class="cls-6" points="335.9 108.1 354.8 79.5 383.5 98.4 364.6 127 335.9 108.1"/><polygon class="cls-10" points="343.8 96.2 346.9 91.4 375.6 110.3 372.5 115.1 343.8 96.2"/><polygon class="cls-10" points="366.8 87.3 371.5 90.5 352.6 119.1 347.8 116 366.8 87.3"/><path class="cls-10" d="M344.6,94.2l-4.3,6.9s-3.5,5.4-7.4,2.7S335.3,92.4,344.6,94.2Z"/><path class="cls-10" d="M345.8,94l4.5-6.8s3.5-5.4-.6-8S340.3,85.9,345.8,94Z"/><path class="cls-10" d="M345.8,94s-17.3.6-11.9-7.3C338.9,79.3,345.8,94,345.8,94Z"/><polygon class="cls-11" points="271.7 99.9 342.9 152.5 414 99.9 414 194.9 271.7 194.9 271.7 99.9"/><path class="cls-5" d="M438.7,183.2s-19.8-10.6-29.1-18.7c-7.4-6.4-40.7-1.1-33.3-9.9s28.8-.8,36.8-4.1"/><polygon class="cls-9" points="431 187.7 454.7 150 645 269.6 621.3 307.2 431 187.7"/></g></g></svg>