<svg version="1.1" id="Layer_1" xmlns="http://www.w3.org/2000/svg" xmlns:xlink="http://www.w3.org/1999/xlink" x="0" y="0" viewBox="0 0 685 242" xml:space="preserve">
  <style>
    .st1{fill:#983ac9}.st2{fill:#731daa}.st3{fill:none}.st4{fill:#fcce2f}.st5{fill:#2fe4da}.st8{enable-background:new}
  </style>
  <defs>
    <path id="SVGID_1_" d="M0 0h685v242H0z"/>
  </defs>
  <clipPath id="SVGID_2_">
    <use xlink:href="#SVGID_1_" overflow="visible"/>
  </clipPath>
  <g clip-path="url(#SVGID_2_)">
    <path class="st1" d="M0 0h685v242H0z" id="Mask"/>
    <path class="st2" d="M184 5.7l-81.9 41.8L81.9 8.1l81.9-41.8z"/>
    <path id="Path" class="st3" d="M141.5 23c1.3-.5 2.4-1.2 3.5-2l-7.7 3.1c1.4-.2 2.8-.6 4.2-1.1z"/>
    <path class="st3" d="M118.3 14.8c-3-5.8-3.2-12.6-.5-18.5L95.1 8.2c1 2.9 0 6.1-2.4 7.9l9.6 19.1c2.9-.9 6 .1 7.7 2.6L132.7 26c-5.7-.8-11.3-4.9-14.4-11.2zM147.1-.6c3 5.8 3.2 12.6.5 18.5l22.8-11.8c-1-2.9 0-6.1 2.4-7.9l-9.6-19.1c-2.9 1-6-.2-7.7-2.7l-22.8 11.9c5.7.8 11.3 4.9 14.4 11.1z"/>
    <path class="st1" d="M156.6-23.7c1.8 2.5 5 3.6 7.9 2.6l9.8 19c-2.5 1.8-3.5 5-2.4 7.9l-23.4 11.8c-.3.6-.7 1.2-1.1 1.8l25.9-13.1-.1-.2c-.7-1.4-.8-2.9-.4-4.4.5-1.5 1.5-2.7 2.9-3.4l-10.6-20.7c-2.9 1.5-6.4.3-7.9-2.5l-.1-.2L131.2-12c.7 0 1.4.1 2.1.2l23.3-11.9zM91.2 15.9L102 36.7c2.9-1.5 6.4-.3 7.9 2.5l.1.2 25.9-13c-.7 0-1.4-.1-2.1-.2L110.4 38c-1.8-2.5-5-3.6-7.9-2.6l-9.8-19.1c2.5-1.8 3.5-5 2.4-7.9l23.4-11.8c.3-.6.7-1.2 1.1-1.8l-26 13.1.1.2c1.4 2.8.3 6.3-2.5 7.8z"/>
    <path class="st1" d="M146.3.4c3.3 6.6 2.9 13.9-.4 19l1.8-.9c2.7-5.9 2.6-12.8-.5-18.6-3.1-6.3-8.7-10.4-14.3-11.2l-1.8.9c6 .3 12 4.3 15.2 10.8zM119.1 13.8c-3.3-6.6-2.9-13.9.4-19l-1.8.9c-2.6 5.3-2.6 12.3.5 18.6s8.7 10.4 14.3 11.2l1.8-.9c-5.9-.2-11.9-4.2-15.2-10.8zM140.7 23.1c-1.3.6-2.6 1-4 1.3l-2.4 1.2c4.9.1 9.5-2.2 12.3-6.1l-2.4 1.2c-1.1.9-2.2 1.8-3.5 2.4z"/>
    <path class="st1" d="M146.5 18.8c-.4.8-.9 1.5-1.5 2.1l2.1-1.3.9-1.8-1.5 1zM134.6 24.2l-1.9 1.1c.7.1 1.4.2 2.1.2l2.5-1.5c-.9.2-1.8.3-2.7.2z"/>
    <circle id="Oval" class="st1" cx="175.8" cy="4.1" r="1.5"/>
    <circle class="st1" cx="105" cy="39.4" r="1.5"/>
    <circle class="st1" cx="89.6" cy="10.2" r="1.5"/>
    <path id="Shape" class="st1" d="M130.8-.1c2.3-1 4.9-1.3 7.4-1.1l-.5 4.1c-1.7-.2-3.5-.1-5.2.5l.9 1.7c4-1.1 6.6-1 8 1.7 1.3 2.5.4 5.3-3.2 7.3l.6 1.2-2.2 1.1-.6-1.2c-1.8.7-3.8 1-5.8.8l.4-4.1c1.2.2 2.5.1 3.7-.3l-.9-1.7c-3.8 1.1-6.4 1-7.8-1.8-1.4-2.7-.1-5.3 3.1-7.2l-1-2 2.2-1.1.9 2.1zm5.5 10.9c1-.5 1.2-1 1-1.4-.2-.4-.7-.5-1.8-.2l.8 1.6zm-6.8-5.1c.2.4.6.5 1.8.2l-.8-1.7c-.9.6-1.2 1-1 1.5z"/>
    <path class="st1" d="M127.6-1l2.1-1.1h.1c.1 0 .1 0 .1.1l1 1.9c2.3-.9 4.8-1.3 7.3-1h.1v.1l-.5 4c0 .1 0 .1-.1.1-1.7-.2-3.4-.1-5 .4l.8 1.5c3.7-1 6.4-1.1 7.9 1.7 1.4 2.7.2 5.4-3.1 7.3l.6 1v.1l-2.1 1.1h-.1l-.6-1.1c-1.8.7-3.7 1-5.6.8-.1 0-.1 0-.1-.1l.4-4v-.1h.1c1.2.2 2.4.1 3.5-.2l-.8-1.4c-3.6 1-6.3 1-7.8-1.8-1.3-2.6-.2-5.2 3-7.2l-1-1.9c-.1 0-.1 0-.1-.1 0 0-.2-.1-.1-.1zm2.1-.8l-2 1 1 1.9v.1c-3.2 1.9-4.3 4.4-3 6.9 1.4 2.7 4 2.7 7.6 1.7.1 0 .1 0 .1.1l.9 1.6v.1c0 .1 0 .1-.1.1-1.2.3-2.4.4-3.6.3l-.4 3.8c1.9.2 3.8-.1 5.5-.8.1 0 .1 0 .1.1l.6 1.1 2-1-.6-1v-.1l.1-.1c3.3-1.8 4.5-4.5 3.1-7-1.2-2.3-3.4-2.8-7.7-1.6-.1 0-.1 0-.1-.1l-.9-1.7v-.1l.1-.1c1.6-.5 3.4-.7 5.1-.5L138-1c-2.5-.2-4.9.1-7.2 1.1h-.1l-1-1.9zm.7 6.1c.1 0 .1 0 .1.1l.9 1.6v.1l-.1.1c-1.1.3-1.6.3-1.9-.2-.2-.7.1-1.2 1-1.7zm.8 1.6l-.7-1.4c-1.1.6-.9 1.1-.8 1.2.1.4.4.5 1.5.2zm4.2 3.2c1.2-.3 1.7-.3 1.9.2.2.3.2.9-1 1.6h-.1l-.1-.1-.8-1.6c0-.1 0-.1.1-.1zm.9 1.6c.7-.4 1-.9.8-1.2-.2-.3-.5-.5-1.6-.1l.8 1.3z"/>
    <path class="st2" d="M501.4 113.9l-81.8 41.8-20.2-39.4 81.9-41.8z"/>
    <path id="Path-2" class="st3" d="M459 131.2c1.3-.5 2.4-1.2 3.5-2l-7.7 3.1c1.4-.2 2.8-.6 4.2-1.1z"/>
    <path class="st3" d="M435.7 123c-3-5.8-3.2-12.6-.5-18.5l-22.7 11.8c1 2.9 0 6.1-2.4 7.9l9.6 19.1c2.9-.9 6 .1 7.7 2.6l22.7-11.8c-5.6-.7-11.2-4.8-14.4-11.1zM464.6 107.6c3 5.8 3.2 12.6.5 18.5l22.8-11.8c-1-2.9 0-6.1 2.4-7.9l-9.6-19.1c-2.9 1-6-.2-7.7-2.7l-22.7 11.8c5.6.9 11.2 5 14.3 11.2zM441.4 99.5c-1.3.5-2.4 1.2-3.5 2l7.7-3.1c-1.4.2-2.8.6-4.2 1.1z"/>
    <path class="st1" d="M474.1 84.5c1.8 2.5 5 3.6 7.9 2.6l9.8 19c-2.5 1.8-3.5 5-2.4 7.9L466 125.8c-.3.6-.7 1.2-1.1 1.8l25.9-13.1-.1-.2c-.7-1.4-.8-2.9-.4-4.4.5-1.5 1.5-2.7 2.9-3.4l-10.7-20.7c-2.9 1.5-6.4.3-7.9-2.5l-.1-.2-25.9 13.1c.7 0 1.4.1 2.1.2l23.4-11.9zM408.6 124.1l10.8 20.8c2.9-1.5 6.4-.3 7.9 2.5l.1.2 25.9-13c-.7 0-1.4-.1-2.1-.2l-23.4 11.8c-1.8-2.5-5-3.6-7.9-2.6l-9.8-19.1c2.5-1.8 3.5-5 2.4-7.9l23.4-11.8c.3-.6.7-1.2 1.1-1.8l-25.9 13.1.1.2c1.4 2.9.3 6.3-2.6 7.8z"/>
    <path class="st1" d="M463.8 108.7c3.3 6.6 2.9 13.9-.4 19l1.8-.9c2.7-5.9 2.6-12.8-.5-18.6-3.1-6.3-8.7-10.4-14.3-11.2l-1.8.9c5.9.2 11.9 4.2 15.2 10.8zM436.6 122c-3.3-6.6-2.9-13.9.4-19l-1.8.9c-2.7 5.9-2.6 12.8.5 18.6 3.1 6.3 8.7 10.4 14.3 11.2l1.8-.9c-6-.2-12-4.2-15.2-10.8zM442.2 99.4c1.3-.6 2.6-1 4-1.3l2.4-1.2c-4.9-.1-9.5 2.2-12.3 6.1l2.4-1.2c1.1-.9 2.2-1.8 3.5-2.4zM458.2 131.3c-1.3.6-2.6 1-4 1.3l-2.4 1.2c4.9.1 9.5-2.2 12.3-6.1l-2.4 1.2c-1.1.9-2.3 1.7-3.5 2.4z"/>
    <path class="st1" d="M448.3 98.3l1.9-1.1c-.7-.1-1.4-.2-2.1-.2l-2.5 1.5c.9-.2 1.8-.3 2.7-.2zM436.4 103.7c.4-.8.9-1.5 1.5-2.1l-2.1 1.3-.9 1.8 1.5-1zM464 127c-.4.8-.9 1.5-1.5 2.1l2.1-1.3.9-1.8-1.5 1zM452 132.4l-1.9 1.1c.7.1 1.4.2 2.1.2l2.5-1.5c-.9.2-1.8.3-2.7.2z"/>
    <circle id="Oval-2" class="st1" cx="493.3" cy="112.3" r="1.5"/>
    <circle class="st1" cx="477.9" cy="81.6" r="1.5"/>
    <circle class="st1" cx="422.5" cy="147.6" r="1.5"/>
    <circle class="st1" cx="407.1" cy="118.4" r="1.5"/>
    <path id="Shape-2" class="st1" d="M448.3 108.1c2.3-1 4.9-1.3 7.4-1.1l-.5 4.1c-1.7-.2-3.5-.1-5.2.5l.9 1.7c4-1.1 6.6-1 8 1.7 1.3 2.5.4 5.3-3.2 7.3l.6 1.2-2.2 1.1-.6-1.2c-1.8.7-3.8 1-5.8.8l.4-4.1c1.2.2 2.5.1 3.7-.3l-.9-1.7c-3.8 1.1-6.4 1-7.8-1.8-1.4-2.7-.1-5.3 3.1-7.2l-1-2 2.2-1.1.9 2.1zm5.5 10.9c1-.5 1.2-1 1-1.4-.2-.4-.7-.5-1.8-.2l.8 1.6zm-6.8-5.1c.2.4.6.5 1.8.2l-.9-1.6c-.9.5-1.1.9-.9 1.4z"/>
    <path class="st1" d="M445 107.2l2.1-1.1h.1c.1 0 .1 0 .1.1l1 1.9c2.3-.9 4.8-1.3 7.3-1h.1v.1l-.5 4.1c0 .1 0 .1-.1.1-1.7-.2-3.4-.1-5 .4l.8 1.5c3.7-1 6.4-1.1 7.9 1.7 1.4 2.7.2 5.4-3.1 7.3l.6 1v.1l-2.1 1.1h-.1l-.6-1.1c-1.8.7-3.7 1-5.6.8-.1 0-.1 0-.1-.1l.4-4v-.1h.1c1.2.2 2.4.1 3.5-.2l-.8-1.4c-3.6 1-6.3 1-7.8-1.8-1.3-2.6-.2-5.2 3-7.2l-1-1.9c-.1 0-.1 0-.1-.1l-.1-.2zm2.2-.8l-2 1 1 1.9v.1c-3.2 1.9-4.3 4.4-3 6.9 1.4 2.7 4 2.7 7.6 1.7.1 0 .1 0 .1.1l.9 1.6v.1c0 .1 0 .1-.1.1-1.2.3-2.4.4-3.6.3l-.4 3.8c1.9.2 3.8-.1 5.5-.8.1 0 .1 0 .1.1l.6 1.1 2-1-.6-1v-.1l.1-.1c3.3-1.8 4.5-4.5 3.1-7-1.2-2.3-3.4-2.8-7.7-1.6-.1 0-.1 0-.1-.1l-.9-1.7v-.1l.1-.1c1.6-.5 3.4-.7 5.1-.5l.5-3.9c-2.5-.2-4.9.1-7.2 1.1h-.1l-1-1.9zm.7 6.1c.1 0 .1 0 .1.1l.9 1.6v.1l-.1.1c-1.1.3-1.6.3-1.9-.2-.2-.7.1-1.2 1-1.7zm.7 1.6l-.7-1.4c-1.1.6-.9 1.1-.8 1.2.2.4.5.5 1.5.2zm4.2 3.2c1.2-.3 1.7-.3 1.9.2.2.3.2.9-1 1.6h-.1l-.1-.1-.8-1.6c0-.1 0-.1.1-.1zm1 1.6c.7-.4 1-.9.8-1.2-.2-.3-.5-.5-1.6-.1l.8 1.3z"/>
    <path class="st2" d="M632 73.7l-70.6-58.8 28.3-34.1 70.6 58.9z"/>
    <path id="Path-3" class="st3" d="M599.4 41.5c1 .9 2 1.8 3.2 2.5l-5.8-5.9c.7 1.2 1.6 2.4 2.6 3.4z"/>
    <path class="st3" d="M597.7 16.9c4.1-5.1 10.3-7.9 16.8-7.7L594.7-7c-2.2 2-5.6 2.4-8.2.9l-13.8 16.3c2 2.3 2.2 5.6.6 8.1l19.8 16.3c-1.4-5.6.1-12.3 4.6-17.7zM623.2 37.4c-4.1 5.1-10.3 7.9-16.8 7.7l19.8 16.3c2.2-2 5.6-2.4 8.2-.9l13.8-16.3c-2-2.3-2.2-5.6-.6-8.1l-19.8-16.3c1.5 5.5 0 12.2-4.6 17.6zM621.6 12.9c-.9-.9-2-1.8-3.2-2.4l5.8 5.9c-.7-1.3-1.5-2.5-2.6-3.5z"/>
    <path class="st1" d="M648.2 37c-1.6 2.6-1.3 6 .7 8.3l-13.6 16.5c-2.6-1.6-6-1.2-8.2.9l-20-16.9-2-.3 22.2 18.6.1-.1c1-1.2 2.4-1.9 3.9-2.1 1.6-.1 3.1.4 4.3 1.4l14.9-18.1c-2.5-2.1-2.8-5.8-.8-8.3l.1-.1-22.3-18.6c.3.6.5 1.3.7 2l20 16.8zM586.1-7.6l-14.9 18.1c2.5 2.1 2.8 5.8.8 8.3l-.1.1L594 37.6c-.3-.6-.5-1.3-.7-2l-20-16.8c1.6-2.6 1.3-6-.7-8.3L586.3-6c2.6 1.6 6 1.2 8.2-.9l20 16.8 2 .3-22.2-18.6-.1.1c-2 2.4-5.6 2.8-8.1.7z"/>
    <path class="st1" d="M622 37c-4.8 5.6-11.7 8.2-17.6 7.1l1.5 1.3c5.9.4 12.3-2.4 16.9-7.7s6.1-12 4.7-17.6l-1.5-1.3c2.1 5.6.8 12.7-4 18.2zM599 17.3c4.8-5.6 11.7-8.2 17.6-7.1l-1.5-1.3c-5.9-.4-12.3 2.4-16.9 7.7s-6.1 12-4.7 17.6l1.5 1.3c-2.1-5.5-.8-12.6 4-18.2zM622 13.6c1.1.9 2 2 2.7 3.2l2.1 1.8c-1.8-4.5-5.7-7.9-10.5-8.9l2.1 1.8c1.3.5 2.5 1.2 3.6 2.1zM599 40.8c-1.1-.9-2-2-2.7-3.2l-2.1-1.8c1.8 4.5 5.7 7.9 10.5 8.9l-2.1-1.8c-1.3-.5-2.5-1.2-3.6-2.1z"/>
    <path class="st1" d="M625.5 18.7l1.8 1.3c-.2-.7-.4-1.4-.7-2l-2.4-1.7c.5.8.9 1.6 1.3 2.4zM615.8 9.9c.9.1 1.7.3 2.6.5l-2-1.5c-.7-.1-1.3-.1-2-.2l1.4 1.2zM605.2 44.5c-.9-.1-1.7-.3-2.6-.5l2 1.5c.7.1 1.3.1 2 .2l-1.4-1.2zM595.5 35.6l-1.8-1.3c.2.7.4 1.4.7 2l2.4 1.7c-.6-.7-1-1.5-1.3-2.4z"/>
    <circle id="Oval-3" class="st1" cx="630.3" cy="65.6" r="1.5"/>
    <circle class="st1" cx="652.5" cy="39.4" r="1.5"/>
    <circle class="st1" cx="570" cy="14.4" r="1.5"/>
    <path id="Shape-3" class="st1" d="M616.5 22.6c1.8 1.8 3.1 4 3.9 6.4l-4 1.1c-.5-1.7-1.3-3.3-2.5-4.6l-1.2 1.5c2.6 3.3 3.5 5.7 1.6 8-1.8 2.2-4.7 2.5-8-.1l-.8 1-1.8-1.6.9-1.1c-1.4-1.4-2.4-3.1-3-5l3.9-1.3c.3 1.2.9 2.3 1.7 3.3l1.2-1.5c-2.5-3.1-3.4-5.5-1.4-7.9 1.9-2.3 4.9-2.2 7.8 0l1.4-1.7 1.8 1.6-1.5 1.9zm-7.9 9.3c.9.7 1.4.7 1.7.4.3-.4.2-.8-.6-1.8l-1.1 1.4zm2-8.2c-.3.4-.2.8.5 1.7l1.2-1.4c-.9-.7-1.4-.7-1.7-.3z"/>
    <path class="st1" d="M616 19.2l1.8 1.5v.2l-1.3 1.7c1.8 1.7 3.1 3.9 3.8 6.3v.1l-.1.1-3.9 1.1c-.1 0-.1 0-.1-.1-.5-1.6-1.3-3.1-2.4-4.4l-1 1.3c2.4 3 3.5 5.5 1.5 8-1.9 2.3-4.9 2.3-7.9 0l-.7.9h-.1l-1.8-1.6v-.2l.8-1c-1.4-1.4-2.4-3.1-2.9-4.9 0-.1 0-.1.1-.1l3.8-1.2h.1v.1c.3 1.1.8 2.2 1.6 3.1l1-1.3c-2.3-2.9-3.4-5.4-1.4-7.9 1.8-2.2 4.7-2.3 7.8-.1l1.3-1.6c0-.1 0-.1.1-.2s-.2.2-.1.2zm1.5 1.7l-1.7-1.4-1.3 1.6h-.1c-3-2.2-5.8-2.2-7.6 0-2 2.4-.9 4.7 1.4 7.6v.1l-1.2 1.4h-.2c-.7-.9-1.3-2-1.6-3.2l-3.6 1.2c.6 1.8 1.6 3.4 2.9 4.8v.1l-.8 1 1.7 1.4.7-.9h.2c3 2.3 5.9 2.3 7.7.1 1.7-2.1 1.2-4.2-1.6-7.7v-.1l1.2-1.5h.2c1.1 1.3 2 2.8 2.4 4.5l3.7-1.1c-.8-2.3-2.1-4.5-3.8-6.2v-.1l1.4-1.6zm-5.3 3v.2l-1.2 1.4h-.2c-.8-.9-.9-1.4-.5-1.8.5-.5 1.1-.4 1.9.2zm-1.2 1.4l1-1.2c-1-.7-1.3-.4-1.4-.3-.2.3-.2.6.4 1.5zm-1.3 5.1c.8.9.9 1.4.6 1.9-.2.3-.7.6-1.8-.3v-.2l1.2-1.4c-.1-.1 0-.1 0 0 0-.1.1-.1 0 0zm-1 1.5c.7.5 1.2.6 1.5.3.2-.3.2-.6-.5-1.5l-1 1.2z"/>
    <path class="st2" d="M403.2 232.3L379.1 321l-42.7-11.6 24.1-88.7z"/>
    <path class="st3" d="M373.8 255.4c6.8 1.9 11.9 6.6 14 12.1l6.5-24.8c-2.8-1.2-4.5-4.1-4.3-7.1l-20.5-5.7c-1.2 2.8-4.1 4.4-7.1 3.9l-6.5 24.8c4.4-3.7 11.2-5.1 17.9-3.2z"/>
    <path class="st1" d="M363.1 232.8c3.1.4 6-1.3 7.3-4.1l20.7 5.5c-.3 3 1.4 5.9 4.2 7.1l-7 25.2c.2.6.4 1.3.6 2l7.7-27.9h-.2c-1.5-.4-2.7-1.4-3.5-2.7s-1-2.9-.5-4.4l-22.6-6c-.9 3.1-4.1 5-7.2 4.2h-.2l-7.7 27.9c.5-.5 1-1 1.5-1.4l6.9-25.4z"/>
    <circle id="Oval-4" class="st1" cx="396.5" cy="237.3" r="1.5"/>
    <circle class="st1" cx="363.4" cy="228.1" r="1.5"/>
    <path class="st2" d="M163.9 277.5l-41.5-82.1 39.5-20 41.5 82.1z"/>
    <path id="Path-4" class="st3" d="M146.8 234.9c.5 1.3 1.2 2.4 2 3.5l-3-7.7c.1 1.4.4 2.9 1 4.2z"/>
    <path class="st3" d="M155 211.8c6.3-3.1 13.2-3.1 18.5-.4l-11.7-22.8c-2.9 1-6.1 0-7.9-2.4l-19.1 9.5c.9 2.9-.2 6-2.7 7.7l11.7 22.8c.8-5.8 4.9-11.3 11.2-14.4zM170.3 240.7c-6.3 3.1-13.2 3.1-18.5.4l11.7 22.8c2.9-1 6.1 0 7.9 2.4l19.1-9.5c-.9-2.9.2-6 2.7-7.7l-11.7-22.8c-.9 5.7-5 11.2-11.2 14.4zM178.5 217.5c-.5-1.3-1.2-2.4-2-3.5l3 7.7c-.1-1.4-.5-2.9-1-4.2z"/>
    <path class="st1" d="M193.3 250.2c-2.5 1.8-3.6 5-2.7 7.9l-19.1 9.8c-1.8-2.5-5-3.5-7.9-2.5L152 242c-.6-.3-1.2-.7-1.8-1.1l13 25.9.2-.1c1.4-.7 3-.8 4.4-.3 1.5.5 2.7 1.5 3.4 2.9l20.8-10.7c-1.4-2.9-.2-6.4 2.6-7.9l.2-.1-13-25.9c0 .7-.1 1.4-.2 2.1l11.7 23.4zM154 184.6l-20.8 10.7c1.4 2.9.2 6.4-2.6 7.9l-.2.1 12.9 25.9c0-.7.1-1.4.2-2.1l-11.7-23.4c2.5-1.8 3.6-5 2.7-7.9l19.1-9.8c1.8 2.5 5 3.5 7.9 2.5l11.7 23.4c.6.3 1.2.7 1.8 1.1l-13-25.9-.2.1c-2.8 1.4-6.3.3-7.8-2.6 0 .1 0 0 0 0z"/>
    <path class="st1" d="M169.3 239.8c-6.6 3.2-14 2.9-19-.4l.9 1.8c5.2 2.7 12.2 2.7 18.6-.4s10.4-8.6 11.3-14.3l-.9-1.8c-.3 5.9-4.4 11.9-10.9 15.1zM156 212.6c6.6-3.2 14-2.9 19 .4l-.9-1.8c-5.2-2.7-12.2-2.7-18.6.4s-10.4 8.6-11.3 14.3l.9 1.8c.2-5.9 4.3-11.9 10.9-15.1zM178.6 218.3c.6 1.3 1 2.6 1.2 4l1.2 2.4c.1-4.9-2.2-9.5-6.1-12.3l1.2 2.4c1 1 1.9 2.2 2.5 3.5zM146.6 234.1c-.6-1.3-1-2.6-1.2-4l-1.2-2.4c-.1 4.9 2.2 9.5 6.1 12.3l-1.2-2.4c-1-1-1.8-2.2-2.5-3.5z"/>
    <path class="st1" d="M179.7 224.4l1.1 1.9c.1-.7.2-1.4.2-2.1l-1.5-2.5c.2.9.3 1.8.2 2.7zM174.4 212.4c.8.4 1.5.9 2.1 1.5l-1.3-2.1c-.6-.3-1.2-.7-1.8-1l1 1.6zM150.9 240c-.8-.4-1.5-.9-2.1-1.5l1.3 2.1c.6.3 1.2.7 1.8 1l-1-1.6zM145.5 228l-1.1-1.9c-.1.7-.2 1.4-.2 2.1l1.5 2.5c-.2-.9-.2-1.8-.2-2.7z"/>
    <circle class="st1" cx="130.5" cy="198.4" r="1.5"/>
    <circle class="st1" cx="159.7" cy="183.1" r="1.5"/>
    <path id="Shape-4" class="st1" d="M169.9 224.3c1 2.3 1.3 4.9 1 7.4l-4.1-.5c.2-1.7.1-3.5-.4-5.2l-1.7.9c1.1 4 1 6.6-1.7 8-2.5 1.3-5.3.4-7.3-3.2l-1.2.6-1.1-2.2 1.2-.6c-.7-1.8-1-3.8-.8-5.8l4.1.4c-.2 1.2-.1 2.5.2 3.7l1.7-.9c-1.1-3.8-1-6.4 1.8-7.8 2.7-1.4 5.3-.1 7.1 3.1l2-1 1.1 2.2-1.9.9zm-10.9 5.5c.5 1 1 1.2 1.4 1 .4-.2.5-.7.2-1.8l-1.6.8zm5.1-6.7c-.4.2-.5.6-.2 1.8l1.6-.9c-.5-.9-1-1.2-1.4-.9z"/>
    <path class="st1" d="M170.8 221.1l1 2.1v.1c0 .1 0 .1-.1.1l-1.9 1c.9 2.3 1.3 4.8 1 7.3v.1h-.1l-4.1-.5c-.1 0-.1 0-.1-.1.2-1.7.1-3.4-.4-5l-1.5.8c1 3.7 1.1 6.5-1.7 7.9-2.7 1.4-5.4.2-7.3-3.1l-1.1.6h-.1l-1.1-2.1v-.1l1.1-.6c-.7-1.8-1-3.7-.8-5.6 0-.1 0-.1.1-.1l4 .4h.1v.1c-.2 1.2-.1 2.4.2 3.5l1.5-.8c-1-3.6-1-6.3 1.8-7.8 2.6-1.3 5.2-.2 7.2 3l1.9-1c0-.1 0-.1.1-.1 0 0 .3-.2.3-.1zm.8 2.2l-1-2-1.9 1h-.1c-1.9-3.2-4.4-4.3-6.9-3-2.8 1.4-2.7 4-1.7 7.6 0 .1 0 .1-.1.1l-1.6.9h-.1c-.1 0-.1 0-.1-.1-.3-1.2-.4-2.4-.3-3.6l-3.8-.4c-.2 1.9.1 3.8.8 5.5 0 .1 0 .1-.1.1l-1.1.6 1 2 1.1-.6h.1l.1.1c1.8 3.3 4.5 4.5 7 3.1 2.4-1.2 2.8-3.4 1.6-7.7 0-.1 0-.1.1-.1l1.7-.9h.1l.1.1c.5 1.6.7 3.4.5 5.1l3.9.5c.2-2.4-.1-4.9-1-7.2v-.1l1.7-1zm-6.1.6c0 .1 0 .1-.1.1l-1.6.8h-.1l-.1-.1c-.3-1.1-.3-1.6.2-1.9.7-.1 1.2.2 1.7 1.1zm-1.6.8l1.4-.7c-.6-1.1-1.1-.9-1.2-.8-.4.2-.5.4-.2 1.5zm-3.3 4.2c.3 1.2.3 1.7-.2 1.9-.3.2-.9.2-1.6-1v-.1l.1-.1 1.6-.8c.1 0 .1 0 .1.1zm-1.5.9c.4.8.8 1.1 1.2.9.3-.2.5-.5.1-1.6l-1.3.7z"/>
    <path class="st2" d="M194.3 90.8l70.4-26.5 26.5 70.4-70.5 26.5z"/>
    <path class="st1" d="M223.6 79.7l11.8-4.4 26.5 70.4-11.8 4.5z"/>
    <path class="st1" d="M275.8 93.6l4.4 11.8-70.5 26.4-4.4-11.7z"/>
    <path class="st2" d="M229.2 77.2l-16.6 6.4s-13.3 4.9-16.9-5.2 18.8-16.9 33.5-1.2zM229.2 77.1l17.2-6.5s13.7-5.3 9.8-15.6-26.1-.1-27 22.1z"/>
    <path class="st2" d="M229.2 77.1s-29.7-20.3-10.4-28.2c17.9-7.2 10.4 28.2 10.4 28.2zM17.3 106.2l67.6 33.1-33 67.6-67.6-33z"/>
    <path class="st1" d="M45.4 120l11.3 5.5-32.9 67.6-11.3-5.5z"/>
    <path class="st1" d="M71.2 167.4l-5.5 11.3-67.7-33 5.5-11.3z"/>
    <path class="st2" d="M51.1 122.3l-16-7.7s-12.7-6.3-7.8-15.9 25.2 2.1 23.8 23.6zM51.2 122.3l16.6 8.1s13.3 6.3 18-3.6-17.8-19.1-34.6-4.5z"/>
    <path class="st2" d="M51.2 122.2s-5.6-35.6 13.4-26.9c17.5 8-13.4 26.9-13.4 26.9zM534.5 160.4l68.1 32.2-32.3 68-68-32.3z"/>
    <path class="st1" d="M562.9 173.8l11.3 5.4-32.2 67.9-11.4-5.3z"/>
    <path class="st1" d="M589.1 220.9l-5.4 11.4-68-32.3 5.4-11.3z"/>
    <path class="st2" d="M568.8 176.3l-16.7-7.9s-13.2-6.4-8.4-16.3 26.1 2.1 25.1 24.2z"/>
    <path class="st2" d="M568.8 176.1l16 7.6s12.8 5.9 17.3-3.7-17.3-18.1-33.3-3.9z"/>
    <path class="st2" d="M568.4 176.3s-6.6-36.7 13.2-27.8c18.3 8.2-13.2 27.8-13.2 27.8zM657.4 152l38-65 64.9 38-38 65z"/>
    <path class="st1" d="M673.2 124.9l6.4-10.9 64.9 38-6.4 10.9z"/>
    <path class="st1" d="M722.4 102.8l10.9 6.4-38 65-10.8-6.4z"/>
    <path class="st2" d="M676.2 119.2l-9.3 15.9s-7.6 12.6-16.9 7 4.3-25.7 26.2-22.9zM676 119.1l9-15.3s7-12.2-2.2-17.5-19.5 15.8-6.8 32.8z"/>
    <path class="st2" d="M676.1 119.6s-37.2 3.5-26.5-15.6c9.8-17.5 26.5 15.6 26.5 15.6zM419 42.6l-46.3-59.3L432-63l46.4 59.3z"/>
    <path class="st1" d="M397.3 17.3l-7.8-10L449-39.3l7.8 9.9z"/>
    <path class="st1" d="M397.4-36l9.9-7.7 46.3 59.3-9.9 7.7z"/>
    <path class="st2" d="M395.4 12.8l10.8 14.3s8.5 11.5.2 18.1-21.3-13.3-11-32.4z"/>
    <path class="st2" d="M396.2 13.3L385.1-.6s-9-11-17.4-4.5 7.5 23.9 28.5 18.4z"/>
    <path class="st2" d="M396.2 12.8S385.9 48 372.6 31.4c-12.3-15.3 23.6-18.6 23.6-18.6z"/>
    <path class="st4" d="M445.7 186.7s-27.5-13.5-36.1-22.1-42.9 1.1-35.6-7.6 29.1-1.6 37.1-4.9 1.7-8.8 1.7-8.8c-26.3-22.4-36.2 14.3-40.1 12.5s-3.4-6.4 6-20.6 27.2-6.6 27.2-6.6-.8-9.7 11.6-8.8c0 0 5.4-4.7 11.3-.8 0 0 4.5-3.6 7.8 2 10.9 19 17.4 41.4 17.4 41.4"/>
    <path class="st5" d="M271.7 99.9h142.2v95H271.7z"/>
    <path fill="#efefef" d="M271.7 100.8l71.2-65.7 71.1 65.7z"/>
    <path fill="#e2e2e2" d="M414 99.9l-71.1 52.7-71.2-52.7z"/>
    <g class="st8">
      <path class="st5" d="M318.8 125.9l2.3 8.6-10.9 2.9-2.2-8.2c-7.8 1.6-15.9 1.5-21.3-.1l2.3-14.9c5.9 1.6 13.2 1.8 19.2.2 5.2-1.4 6.7-3 6.2-4.8-1.8-6.8-30.2 6.7-35.6-13.5-2.3-8.7 2-17.8 14.2-22.9l-2.3-8.4 10.9-2.9 2.2 8.3c5.9-1 11.8-1 16.9.3l-1.9 14.7c-6.1-1.3-11.4-1.2-16.1 0-5.3 1.4-6.6 3.4-6.1 5.3 1.7 6.5 30.2-6.9 35.5 13 2.2 8.2-1.8 17.1-13.3 22.4z"/>
    </g>
    <g class="st8">
      <path class="st5" d="M377.8 129.3l-2.3 8.6-10.9-2.9 2.2-8.2c-7.6-2.5-14.5-6.6-18.4-10.7l9.4-11.7c4.3 4.4 10.6 8.1 16.5 9.7 5.2 1.4 7.3.8 7.8-1.1 1.8-6.8-29.5-9.3-24.1-29.5 2.3-8.7 10.6-14.4 23.8-12.7l2.3-8.4 10.9 2.9-2.2 8.3c5.6 2.1 10.7 5 14.5 8.7l-9 11.7c-4.6-4.1-9.3-6.8-14-8-5.3-1.4-7.4-.3-7.9 1.5-1.7 6.5 29.6 9.1 24.3 29-2.4 8.3-10.4 13.9-22.9 12.8z"/>
    </g>
    <path d="M350.3 130v11.9h-15.2v-11.4c-10.8-.6-21.2-3.6-27.7-7.5l8.2-18.5c7.1 4.2 16.6 6.9 24.9 6.9 7.2 0 9.8-1.5 9.8-4.1 0-9.5-41.7-1.8-41.7-29.9 0-12.2 8.8-22.4 26.5-24.9V40.7h15.2v11.5c8 .8 15.7 2.8 21.9 6.2l-7.6 18.4c-7.4-3.8-14.4-5.6-21-5.6-7.4 0-9.8 2.2-9.8 4.7 0 9 41.7 1.5 41.7 29.3-.1 11.7-8.5 21.8-25.2 24.8z" fill="#00c4ab"/>
    <path fill="#fff" d="M271.7 99.9l71.2 52.6L414 99.9v95H271.7z"/>
    <path class="st4" d="M438.7 183.2s-19.8-10.6-29.1-18.7c-7.4-6.4-40.7-1.1-33.3-9.9s28.8-.8 36.8-4.1"/>
    <path fill="#332baa" d="M431 187.7l23.7-37.7L645 269.6l-23.7 37.6z"/>
  </g>
</svg>
