<svg xmlns="http://www.w3.org/2000/svg" xmlns:xlink="http://www.w3.org/1999/xlink" viewBox="0 0 237 237"><defs/><defs><path id="a" d="M0 0h237v237H0z"/></defs><g fill="none" fill-rule="evenodd"><mask id="b" fill="#fff"><use xlink:href="#a"/></mask><g mask="url(#b)"><g transform="translate(-250 -65)"><path fill="#983AC9" fill-rule="nonzero" d="M16 63h685v242H16z"/><path fill="#731DAA" fill-rule="nonzero" d="M517.4 176.9l-81.8 41.8-20.2-39.4 81.9-41.8z"/><path d="M475 194.2c1.3-.5 2.4-1.2 3.5-2l-7.7 3.1c1.4-.2 2.8-.6 4.2-1.1zM451.7 186c-3-5.8-3.2-12.6-.5-18.5l-22.7 11.8c1 2.9 0 6.1-2.4 7.9l9.6 19.1c2.9-.9 6 .1 7.7 2.6l22.7-11.8c-5.6-.7-11.2-4.8-14.4-11.1zM480.6 170.6c3 5.8 3.2 12.6.5 18.5l22.8-11.8c-1-2.9 0-6.1 2.4-7.9l-9.6-19.1c-2.9 1-6-.2-7.7-2.7l-22.7 11.8c5.6.9 11.2 5 14.3 11.2zM457.4 162.5c-1.3.5-2.4 1.2-3.5 2l7.7-3.1c-1.4.2-2.8.6-4.2 1.1z"/><path d="M490.1 147.5c1.8 2.5 5 3.6 7.9 2.6l9.8 19c-2.5 1.8-3.5 5-2.4 7.9L482 188.8c-.3.6-.7 1.2-1.1 1.8l25.9-13.1-.1-.2c-.7-1.4-.8-2.9-.4-4.4.5-1.5 1.5-2.7 2.9-3.4l-10.7-20.7c-2.9 1.5-6.4.3-7.9-2.5l-.1-.2-25.9 13.1c.7 0 1.4.1 2.1.2l23.4-11.9zM424.6 187.1l10.8 20.8c2.9-1.5 6.4-.3 7.9 2.5l.1.2 25.9-13c-.7 0-1.4-.1-2.1-.2l-23.4 11.8c-1.8-2.5-5-3.6-7.9-2.6l-9.8-19.1c2.5-1.8 3.5-5 2.4-7.9l23.4-11.8c.3-.6.7-1.2 1.1-1.8l-25.9 13.1.1.2c1.4 2.9.3 6.3-2.6 7.8z" fill="#983AC9" fill-rule="nonzero"/><path d="M479.8 171.7c3.3 6.6 2.9 13.9-.4 19l1.8-.9c2.7-5.9 2.6-12.8-.5-18.6-3.1-6.3-8.7-10.4-14.3-11.2l-1.8.9c5.9.2 11.9 4.2 15.2 10.8zM452.6 185c-3.3-6.6-2.9-13.9.4-19l-1.8.9c-2.7 5.9-2.6 12.8.5 18.6 3.1 6.3 8.7 10.4 14.3 11.2l1.8-.9c-6-.2-12-4.2-15.2-10.8zM458.2 162.4c1.3-.6 2.6-1 4-1.3l2.4-1.2c-4.9-.1-9.5 2.2-12.3 6.1l2.4-1.2c1.1-.9 2.2-1.8 3.5-2.4zM474.2 194.3c-1.3.6-2.6 1-4 1.3l-2.4 1.2c4.9.1 9.5-2.2 12.3-6.1l-2.4 1.2c-1.1.9-2.3 1.7-3.5 2.4z" fill="#983AC9" fill-rule="nonzero"/><path d="M464.3 161.3l1.9-1.1c-.7-.1-1.4-.2-2.1-.2l-2.5 1.5c.9-.2 1.8-.3 2.7-.2zM452.4 166.7c.4-.8.9-1.5 1.5-2.1l-2.1 1.3-.9 1.8 1.5-1zM480 190c-.4.8-.9 1.5-1.5 2.1l2.1-1.3.9-1.8-1.5 1zM468 195.4l-1.9 1.1c.7.1 1.4.2 2.1.2l2.5-1.5c-.9.2-1.8.3-2.7.2z" fill="#983AC9" fill-rule="nonzero"/><circle fill="#983AC9" fill-rule="nonzero" cx="438.5" cy="210.6" r="1.5"/><circle fill="#983AC9" fill-rule="nonzero" cx="423.1" cy="181.4" r="1.5"/><path d="M464.3 171.1c2.3-1 4.9-1.3 7.4-1.1l-.5 4.1c-1.7-.2-3.5-.1-5.2.5l.9 1.7c4-1.1 6.6-1 8 1.7 1.3 2.5.4 5.3-3.2 7.3l.6 1.2-2.2 1.1-.6-1.2c-1.8.7-3.8 1-5.8.8l.4-4.1c1.2.2 2.5.1 3.7-.3l-.9-1.7c-3.8 1.1-6.4 1-7.8-1.8-1.4-2.7-.1-5.3 3.1-7.2l-1-2 2.2-1.1.9 2.1zm5.5 10.9c1-.5 1.2-1 1-1.4-.2-.4-.7-.5-1.8-.2l.8 1.6zm-6.8-5.1c.2.4.6.5 1.8.2l-.9-1.6c-.9.5-1.1.9-.9 1.4z" fill="#983AC9" fill-rule="nonzero"/><path d="M461 170.2l2.1-1.1h.1c.1 0 .1 0 .1.1l1 1.9c2.3-.9 4.8-1.3 7.3-1h.1v.1l-.5 4.1c0 .1 0 .1-.1.1-1.7-.2-3.4-.1-5 .4l.8 1.5c3.7-1 6.4-1.1 7.9 1.7 1.4 2.7.2 5.4-3.1 7.3l.6 1v.1l-2.1 1.1h-.1l-.6-1.1c-1.8.7-3.7 1-5.6.8-.1 0-.1 0-.1-.1l.4-4v-.1h.1c1.2.2 2.4.1 3.5-.2l-.8-1.4c-3.6 1-6.3 1-7.8-1.8-1.3-2.6-.2-5.2 3-7.2l-1-1.9c-.1 0-.1 0-.1-.1l-.1-.2zm2.2-.8l-2 1 1 1.9v.1c-3.2 1.9-4.3 4.4-3 6.9 1.4 2.7 4 2.7 7.6 1.7.1 0 .1 0 .1.1l.9 1.6v.1c0 .1 0 .1-.1.1-1.2.3-2.4.4-3.6.3l-.4 3.8c1.9.2 3.8-.1 5.5-.8.1 0 .1 0 .1.1l.6 1.1 2-1-.6-1v-.1l.1-.1c3.3-1.8 4.5-4.5 3.1-7-1.2-2.3-3.4-2.8-7.7-1.6-.1 0-.1 0-.1-.1l-.9-1.7v-.1l.1-.1c1.6-.5 3.4-.7 5.1-.5l.5-3.9c-2.5-.2-4.9.1-7.2 1.1h-.1l-1-1.9zm.7 6.1c.1 0 .1 0 .1.1l.9 1.6v.1l-.1.1c-1.1.3-1.6.3-1.9-.2-.2-.7.1-1.2 1-1.7zm.7 1.6l-.7-1.4c-1.1.6-.9 1.1-.8 1.2.2.4.5.5 1.5.2zm4.2 3.2c1.2-.3 1.7-.3 1.9.2.2.3.2.9-1 1.6h-.1l-.1-.1-.8-1.6c0-.1 0-.1.1-.1zm1 1.6c.7-.4 1-.9.8-1.2-.2-.3-.5-.5-1.6-.1l.8 1.3z" fill="#983AC9" fill-rule="nonzero"/><path fill="#731DAA" fill-rule="nonzero" d="M419.2 295.3L395.1 384l-42.7-11.6 24.1-88.7z"/><path d="M389.8 318.4c6.8 1.9 11.9 6.6 14 12.1l6.5-24.8c-2.8-1.2-4.5-4.1-4.3-7.1l-20.5-5.7c-1.2 2.8-4.1 4.4-7.1 3.9l-6.5 24.8c4.4-3.7 11.2-5.1 17.9-3.2z"/><path d="M379.1 295.8c3.1.4 6-1.3 7.3-4.1l20.7 5.5a7 7 0 004.2 7.1l-7 25.2c.2.6.4 1.3.6 2l7.7-27.9h-.2c-1.5-.4-2.7-1.4-3.5-2.7-.8-1.3-1-2.9-.5-4.4l-22.6-6c-.9 3.1-4.1 5-7.2 4.2h-.2l-7.7 27.9c.5-.5 1-1 1.5-1.4l6.9-25.4z" fill="#983AC9" fill-rule="nonzero"/><circle fill="#983AC9" fill-rule="nonzero" cx="412.5" cy="300.3" r="1.5"/><circle fill="#983AC9" fill-rule="nonzero" cx="379.4" cy="291.1" r="1.5"/><path fill="#731DAA" fill-rule="nonzero" d="M210.3 153.8l70.4-26.5 26.5 70.4-70.5 26.5z"/><path fill="#983AC9" fill-rule="nonzero" d="M239.6 142.7l11.8-4.4 26.5 70.4-11.8 4.5z"/><path fill="#983AC9" fill-rule="nonzero" d="M291.8 156.6l4.4 11.8-70.5 26.4-4.4-11.7z"/><path d="M245.2 140.1l17.2-6.5s13.7-5.3 9.8-15.6c-3.9-10.3-26.1-.1-27 22.1zM435 105.6l-46.3-59.3L448 0l46.4 59.3z" fill="#731DAA" fill-rule="nonzero"/><path fill="#983AC9" fill-rule="nonzero" d="M413.3 80.3l-7.8-10L465 23.7l7.8 9.9z"/><path fill="#983AC9" fill-rule="nonzero" d="M413.4 27l9.9-7.7 46.3 59.3-9.9 7.7z"/><path d="M411.4 75.8l10.8 14.3s8.5 11.5.2 18.1c-8.3 6.6-21.3-13.3-11-32.4z" fill="#731DAA" fill-rule="nonzero"/><path d="M412.2 76.3l-11.1-13.9s-9-11-17.4-4.5c-8.4 6.5 7.5 23.9 28.5 18.4z" fill="#731DAA" fill-rule="nonzero"/><path d="M412.2 75.8s-10.3 35.2-23.6 18.6c-12.3-15.3 23.6-18.6 23.6-18.6z" fill="#731DAA" fill-rule="nonzero"/><path d="M461.7 249.7s-27.5-13.5-36.1-22.1c-8.6-8.6-42.9 1.1-35.6-7.6 7.3-8.7 29.1-1.6 37.1-4.9 8-3.3 1.7-8.8 1.7-8.8-26.3-22.4-36.2 14.3-40.1 12.5-3.9-1.8-3.4-6.4 6-20.6 9.4-14.2 27.2-6.6 27.2-6.6s-.8-9.7 11.6-8.8c0 0 5.4-4.7 11.3-.8 0 0 4.5-3.6 7.8 2 10.9 19 17.4 41.4 17.4 41.4" fill="#FCCE2F" fill-rule="nonzero"/><path fill="#2FE4DA" fill-rule="nonzero" d="M287.7 162.9h142.2v95H287.7z"/><path fill="#EFEFEF" fill-rule="nonzero" d="M287.7 163.8l71.2-65.7 71.1 65.7z"/><path fill="#E2E2E2" fill-rule="nonzero" d="M430 162.9l-71.1 52.7-71.2-52.7z"/><g fill-rule="nonzero"><path d="M334.8 188.9l2.3 8.6-10.9 2.9-2.2-8.2c-7.8 1.6-15.9 1.5-21.3-.1l2.3-14.9c5.9 1.6 13.2 1.8 19.2.2 5.2-1.4 6.7-3 6.2-4.8-1.8-6.8-30.2 6.7-35.6-13.5-2.3-8.7 2-17.8 14.2-22.9l-2.3-8.4 10.9-2.9 2.2 8.3c5.9-1 11.8-1 16.9.3l-1.9 14.7c-6.1-1.3-11.4-1.2-16.1 0-5.3 1.4-6.6 3.4-6.1 5.3 1.7 6.5 30.2-6.9 35.5 13 2.2 8.2-1.8 17.1-13.3 22.4zM393.8 192.3l-2.3 8.6-10.9-2.9 2.2-8.2c-7.6-2.5-14.5-6.6-18.4-10.7l9.4-11.7c4.3 4.4 10.6 8.1 16.5 9.7 5.2 1.4 7.3.8 7.8-1.1 1.8-6.8-29.5-9.3-24.1-29.5 2.3-8.7 10.6-14.4 23.8-12.7l2.3-8.4 10.9 2.9-2.2 8.3c5.6 2.1 10.7 5 14.5 8.7l-9 11.7c-4.6-4.1-9.3-6.8-14-8-5.3-1.4-7.4-.3-7.9 1.5-1.7 6.5 29.6 9.1 24.3 29-2.4 8.3-10.4 13.9-22.9 12.8z" fill="#2FE4DA"/><path d="M366.3 193v11.9h-15.2v-11.4c-10.8-.6-21.2-3.6-27.7-7.5l8.2-18.5c7.1 4.2 16.6 6.9 24.9 6.9 7.2 0 9.8-1.5 9.8-4.1 0-9.5-41.7-1.8-41.7-29.9 0-12.2 8.8-22.4 26.5-24.9v-11.8h15.2v11.5c8 .8 15.7 2.8 21.9 6.2l-7.6 18.4c-7.4-3.8-14.4-5.6-21-5.6-7.4 0-9.8 2.2-9.8 4.7 0 9 41.7 1.5 41.7 29.3-.1 11.7-8.5 21.8-25.2 24.8z" fill="#00C4AB"/></g><path fill="#FFF" fill-rule="nonzero" d="M287.7 162.9l71.2 52.6 71.1-52.6v95H287.7z"/><path d="M454.7 246.2s-19.8-10.6-29.1-18.7c-7.4-6.4-40.7-1.1-33.3-9.9 7.4-8.8 28.8-.8 36.8-4.1" fill="#FCCE2F" fill-rule="nonzero"/><path fill="#332BAA" fill-rule="nonzero" d="M447 250.7l23.7-37.7L661 332.6l-23.7 37.6z"/></g></g></g></svg>