<svg xmlns="http://www.w3.org/2000/svg" viewBox="0 0 1080 1080">
  <defs>
    <clipPath id="clip-path">
      <circle class="cls-1" cx="1895.44" cy="540" r="540"/>
    </clipPath>
    <clipPath id="clip-path-2">
      <circle class="cls-1" cx="540" cy="540" r="540"/>
    </clipPath>
    <style>
      .cls-1{fill:none}.cls-4{fill:#332baa}.cls-5{fill:#06c9b1}.cls-6{fill:#2fe4da}.cls-7{fill:#fff}.cls-8{fill:#983ac9}
    </style>
  </defs>
  <g id="Layer_1" data-name="Layer 1">
    <g clip-path="url(#clip-path)">
      <path d="M724.37 208.08c-20.87 247.86 47.3 452.68 197.14 592.33l.35.33c190.1 177 430.7 239.1 695.82 179.69 170.25-38.16 212.17-74 223.66-84.6a5 5 0 00.73-6.48l-29.16-42.77a295.39 295.39 0 00-46 16.67l-58.4-97.25-.92.33s13.14-11.92 32-27.25l-14.31-21a5 5 0 00-7.11-1.19c-6.44 4.84-21.7 14.51-53.83 26-46.9 32.14-115 69.85-182 75.13-103.47 8.16-195.63-26.61-256-73.27q-83.89-35.48-156.6-103l-.25-.24C823.91 412.7 997-28.57 998.75-33L898.13-73.61l-100.61-40.84c-2.37 5.83-58.21 144.98-73.15 322.53z" fill="#ff4c22"/>
    </g>
    <circle class="cls-4" cx="540" cy="540.58" r="540"/>
    <circle class="cls-4" cx="540" cy="540" r="540"/>
    <path class="cls-1" d="M524.5 705.45c0 1.12 0 2.2.12 3.23a73.55 73.55 0 012.29-10.41 73.55 73.55 0 00-2.29 10.41c2.16 33.79 33.09 18.37 33.09 18.37 53.88-27.92 65.07-60.8 59.89-91.07a47.65 47.65 0 00-6.29-11.45A47.65 47.65 0 01617.6 636a108.23 108.23 0 00-7.94-25.38 53 53 0 00-4.45 4.12 53 53 0 014.45-4.12 176.67 176.67 0 00-8.91-17.28l-37 9.95c-13.04 37.52-39.48 77.86-39.25 102.16z"/>
    <path class="cls-5" d="M858 785.89c.41-2.74 0-5.11.18-5.77.61-2.46-5.42-61.34-185.78-58.59 127.47 9.56 172.16 48.03 185.6 64.36zM557.71 727.05s-30.93 15.42-33.09-18.37c-2.26 15.38-1 41 37.27 27.1 47.25-17.13 68.5-66.55 55.71-99.8 5.18 30.27-6.01 63.15-59.89 91.07z"/>
    <path class="cls-6" d="M609.66 610.6a108.23 108.23 0 017.94 25.4c12.79 33.25-8.46 82.67-55.71 99.8-38.23 13.85-39.53-11.72-37.27-27.1-.07-1-.11-2.11-.12-3.23-.23-24.3 26.21-64.64 39.2-102.18l-.73.2c-12.94 37.62-39.53 78.11-39.29 102.47l-103.46 36.43a457.24 457.24 0 0063.67 98.11c39.34-7.16 87.65-7.16 126.12 20.27 72.88 52 108.31 80.12 126.51 70.57-5-10.7-19.78-35.46-59.62-68.35-24.15-17.09-45.77-30.65-45.77-30.65s51-16.06 117.93 22.36c59.41 34.11 69.58 34.94 75 26.83-11.64-14.86-52.94-60.29-143.22-91.61-10.82-2.06-22.29-3.76-34.44-5 0 0 74.78-32.6 147.14-2 54.51 23.09 63.16 11.27 64.39 2.9-13.41-16.33-58.1-54.8-185.6-64.36-13.31.2-27.55.74-42.83 1.66 0 0 60.56-60 17.73-121.89l-1.92-2.76c-8.91-.07-23.09 1.73-35.65 12.13z"/>
    <path class="cls-5" d="M609.66 610.6c12.56-10.4 26.74-12.2 35.69-12.06q-5.42-7.77-10.32-14.42l-34.28 9.2a176.67 176.67 0 018.91 17.28zM736.52 931.34a16.14 16.14 0 004-3c9.87-9.88-29.42-41.17-63.63-65.37 39.85 32.91 54.62 57.67 59.63 68.37zM826 878.08c5.09-10.21-37.71-67.67-145.15-88.16 90.28 31.32 131.58 76.75 143.22 91.61a30.72 30.72 0 001.93-3.45z"/>
    <path class="cls-6" d="M479.75 676.56a32.4 32.4 0 01-4 2 213.5 213.5 0 00-27.23 14.25 209.85 209.85 0 0126.41-13.75 34 34 0 004.82-2.5z"/>
    <path class="cls-5" d="M420.22 742.39L393 752l64.5 94.59c8.12-2.25 17-4.37 26.42-6.08a457.24 457.24 0 01-63.7-98.12z"/>
    <path class="cls-6" d="M565.64 545.89c-4-7.72-7.92-9.37-11.8-6.72 3.61-1.89 7.21 0 11 7.21 8.36 15.92 5.39 36.06-1.85 57.09l.73-.2c7.28-21.14 10.33-41.39 1.92-57.38z"/>
    <path class="cls-7" d="M572.74 542.74c-5.5 5.12 12.87 24.58 28 50.58l34.28-9.2c-34.17-46.37-49.97-52.82-62.28-41.38z"/>
    <path class="cls-6" d="M409.88 719.24v-.09c-9.18 6.84-17.9 13.69-25.65 20l.08.11c7.69-6.26 16.38-13.16 25.57-20.02z"/>
    <path class="cls-6" d="M448.53 692.82c-12.89 7.77-26.22 17-38.69 26.33v.09c12.47-9.3 25.78-18.59 38.69-26.42zM520.06 615l-.7.19c-10.55 26.08-23.22 51.21-39.61 61.38 16.72-9.8 29.61-35.17 40.31-61.57z"/>
    <path class="cls-5" d="M420.22 742.39c-3.56-7.4-7-15.12-10.34-23.15-9.19 6.86-17.89 13.73-25.61 20L393 752z"/>
    <path class="cls-6" d="M409.88 719.24c3.31 8 6.78 15.75 10.34 23.15l103.46-36.45c-.24-24.36 26.32-64.85 39.32-102.47L520.06 615c-10.7 26.41-23.59 51.78-40.31 61.57a34 34 0 01-4.81 2.51 209.85 209.85 0 00-26.41 13.75c-12.91 7.82-26.22 17.11-38.65 26.41zM553.84 539.17c-10.25 5.36-20.51 41.51-34.48 76l.7-.19c13.66-33.66 23.77-68.98 33.78-75.81z"/>
    <path class="cls-6" d="M564.82 546.38c-3.77-7.17-7.37-9.1-11-7.21-10 6.82-20.12 42.15-33.78 75.82L563 603.47c7.21-21.03 10.18-41.17 1.82-57.09z"/>
    <path class="cls-8" d="M353.08 766l58.44 97.21a295.39 295.39 0 0146-16.67L393 752zM353.08 766l-.11-.17s12.8-11.61 31.3-26.64l-.08-.11c-18.9 15.33-32 27.25-32 27.25z"/>
    <path d="M566.66 548c7.11 15.65 4 35.06-3 55.29l10.17-2.73c4.34-16.34 8.71-43.74-7.17-52.56z" fill="#e2e2e2"/>
    <path class="cls-7" d="M387.37 650.63l132-35.45c14-34.5 24.23-70.65 34.48-76 3.88-2.65 7.75-1 11.8 6.72.37.68.7 1.38 1 2.09 15.88 8.84 11.51 36.24 7.21 52.56l26.88-7.22c-15.14-26-33.51-45.46-28-50.58 12.31-11.44 28.11-5 62.29 41.38l84.55-22.71a5 5 0 003.6-5.86l-86-407.34-335.49 90.88a5 5 0 00-3.59 5.83l83.08 401.88a5 5 0 006.19 3.82z"/>
    <path class="cls-8" d="M384.27 739.23c-18.5 15-31.3 26.64-31.3 26.64l.11.17L393 752z"/>
    <circle cx="507.65" cy="395.05" r="121.04" fill="#fcce2f"/>
    <ellipse cx="465.17" cy="367.39" rx="4.92" ry="13.78" transform="rotate(-17.59 465.2153954 367.44071214)"/>
    <ellipse cx="528.28" cy="347.38" rx="4.92" ry="13.78" transform="matrix(.95 -.3 .3 .95 -80.29 175.91)"/>
    <path d="M524.86 449.31c-25.53 8.09-46.38 0-58.88-6.56a73.34 73.34 0 01-21.24-16.5l3.05-2.49-1.53 1.24 1.53-1.25A71 71 0 00468 439.33c17.17 9 35.71 10.49 55.1 4.34s33.76-18.05 42.7-35.35a71.71 71.71 0 007.67-24.42l3.94.31a74.56 74.56 0 01-8 25.77c-6.54 12.61-19.02 31.24-44.55 39.33z"/>
    <path d="M565.74 386.89a2.32 2.32 0 01.57-3.72c1.76-.9 4.6-1.67 8.91-1.07 4.66.66 7.34 2.39 8.82 3.82a2.34 2.34 0 01-.21 3.56 2.34 2.34 0 01-3.29-.47c-1.22-1.63-3.21-3.72-5.53-4s-4.3 1.11-5.61 2.36a2.35 2.35 0 01-3.27 0zM455.48 421.85a2.34 2.34 0 00-2.61-2.72c-1.95.28-4.72 1.3-7.89 4.27-3.43 3.22-4.63 6.18-5 8.21a2.34 2.34 0 002.22 2.78 2.35 2.35 0 002.42-2.28c.06-2 .48-4.89 2.19-6.49s4.15-1.57 5.95-1.3a2.35 2.35 0 002.64-1.92z"/>
    <g clip-path="url(#clip-path-2)">
      <path class="cls-8" d="M-631.07 208.08c-20.87 247.86 47.3 452.68 197.14 592.33l.35.33c190.1 177 430.71 239.1 695.82 179.69 170.25-38.16 212.17-74 223.66-84.6a5 5 0 00.73-6.48l-29.16-42.77a295.39 295.39 0 00-46 16.67L353.08 766l-.93.33s13.14-11.92 32-27.25l-14.3-21a5 5 0 00-7.12-1.19c-6.44 4.84-21.7 14.51-53.82 26C262 775.11 194 812.82 127 818.1c-103.47 8.16-195.64-26.61-256-73.27q-83.88-35.48-156.59-103l-.26-.24C-531.53 412.7-358.46-28.57-356.69-33l-100.62-40.61-100.61-40.84c-2.36 5.83-58.2 144.98-73.15 322.53z"/>
      <path d="M127 818.1c67-5.28 135.09-43 182-75.13-23.45 8.4-55.87 17.78-100.42 27-123.85 25.61-236.7 17.53-337.6-25.13 60.33 46.65 152.5 81.42 256.02 73.26z" fill="#731daa"/>
    </g>
    <path class="cls-8" d="M540 299.17a1.59 1.59 0 000-3.17 1.59 1.59 0 000 3.17z"/>
  </g>
  <path d="M540 57a483.15 483.15 0 01188 928.07A483.14 483.14 0 01352 94.93 479.94 479.94 0 01540 57m0-57C241.77 0 0 241.77 0 540s241.77 540 540 540 540-241.77 540-540S838.23 0 540 0z" fill="#141493" id="Layer_2" data-name="Layer 2"/>
</svg>
