<svg width="1080" height="1081" xmlns="http://www.w3.org/2000/svg" xmlns:xlink="http://www.w3.org/1999/xlink">
  <defs>
    <circle id="a" cx="540.750724" cy="540.45" r="540"/>
  </defs>
  <g fill="none" fill-rule="evenodd">
    <g transform="translate(-635 -115)">
      <circle fill="#DEDEDE" fill-rule="nonzero" cx="1175" cy="655.58" r="540"/>
      <circle fill="#332BAA" fill-rule="nonzero" cx="1175" cy="655" r="540"/>
      <g transform="translate(634.249276 114.55)">
        <mask id="b" fill="#fff">
          <use xlink:href="#a"/>
        </mask>
        <use fill="#E7E7E7" fill-rule="nonzero" xlink:href="#a"/>
        <path d="M-630.319276 208.53c-20.87 247.86 47.3 452.68 197.14 592.33l.35.33c190.1 177 430.71000044 239.1 695.82 179.69 170.25-38.16 212.17-74 223.66-84.6 1.812164-1.682343 2.122448-4.436644.73-6.48l-29.16-42.77c-15.767935 4.27504-31.154035 9.850829-46 16.67l-58.39-97.25-.93.33s13.14-11.92 32-27.25l-14.3-21c-.767955-1.125696-1.962096-1.889182-3.306152-2.113821-1.344055-.224638-2.72157.109034-3.813848.923821-6.44 4.84-21.7 14.51-53.82 26-46.91 32.22-114.91 69.93-181.91 75.21-103.4699996 8.16-195.6399996-26.61-256-73.27-55.92-23.653333-108.116666-57.986667-156.59-103l-.26-.24c-245.68-228.89-72.61-670.16-70.84-674.59l-100.62-40.61-100.61-40.84c-2.36 5.83-58.2 144.98-73.15 322.53z" fill="#FFF" fill-rule="nonzero" mask="url(#b)"/>
        <path d="M127.750724 818.55c67-5.28 135.09-43 182-75.13-23.45 8.4-55.87 17.78-100.42 27-123.8499996 25.61-236.6999996 17.53-337.6-25.13 60.3300004 46.65 152.5000004 81.42 256.02 73.26z" fill="#FFF" fill-rule="nonzero" mask="url(#b)"/>
      </g>
      <path d="M1159.5 820.45c0 1.12 0 2.2.12 3.23.51056-3.520817 1.2759-6.999951 2.29-10.41-1.0141 3.410049-1.77944 6.889183-2.29 10.41 2.16 33.79 33.09 18.37 33.09 18.37 53.88-27.92 65.07-60.8 59.89-91.07-1.56104-4.087345-3.6776-7.940213-6.29-11.45 2.61401 3.515982 4.73061 7.375678 6.29 11.47-1.59331-8.754225-4.2601-17.278555-7.94-25.38-1.56075 1.287275-3.04652 2.662859-4.45 4.12 1.40348-1.457141 2.88925-2.832725 4.45-4.12-2.65058-5.919176-5.62508-11.687909-8.91-17.28l-37 9.95c-13.04 37.52-39.48 77.86-39.25 102.16z"/>
      <path d="M1493 900.89c.41-2.74 0-5.11.18-5.77.61-2.46-5.42-61.34-185.78-58.59 127.47 9.56 172.16 48.03 185.6 64.36zM1192.71 842.05s-30.93 15.42-33.09-18.37c-2.26 15.38-1 41 37.27 27.1 47.25-17.13 68.5-66.55 55.71-99.8 5.18 30.27-6.01 63.15-59.89 91.07z" fill="#FFF" fill-rule="nonzero"/>
      <path d="M1244.66 725.6c3.68146 8.107803 6.34829 16.638944 7.94 25.4 12.79 33.25-8.46 82.67-55.71 99.8-38.23 13.85-39.53-11.72-37.27-27.1-.07-1-.11-2.11-.12-3.23-.23-24.3 26.21-64.64 39.2-102.18l-.73.2c-12.94 37.62-39.53 78.11-39.29 102.47l-103.46 36.43c16.93593 35.294081 38.33427 68.267099 63.67 98.11 39.34-7.16 87.65-7.16 126.12 20.27 72.88 52 108.31 80.12 126.51 70.57-5-10.7-19.78-35.46-59.62-68.35-24.15-17.09-45.77-30.65-45.77-30.65s51-16.06 117.93 22.36c59.41 34.11 69.58 34.94 75 26.83-11.64-14.86-52.94-60.29-143.22-91.61-10.82-2.06-22.29-3.76-34.44-5 0 0 74.78-32.6 147.14-2 54.51 23.09 63.16 11.27 64.39 2.9-13.41-16.33-58.1-54.8-185.6-64.36-13.31.2-27.55.74-42.83 1.66 0 0 60.56-60 17.73-121.89l-1.92-2.761923C1271.4 713.4 1257.22 715.2 1244.66 725.6z" fill="#FFF" fill-rule="nonzero"/>
      <path d="M1244.66 725.6c12.56-10.4 26.74-12.2 35.69-12.06-3.61333-5.18-7.05333-9.986667-10.32-14.42l-34.28 9.2c3.28492 5.592091 6.25942 11.360824 8.91 17.28zM1371.52 1046.34c1.48107-.78615 2.8306-1.79829 4-3 9.87-9.88-29.42-41.17-63.63-65.37 39.85 32.91 54.62 57.67 59.63 68.37zM1461 993.08c5.09-10.21-37.71-67.67-145.15-88.16 90.28 31.32 131.58 76.75 143.22 91.61.71674-1.107371 1.3614-2.259757 1.93-3.45z" fill="#FFF" fill-rule="nonzero"/>
      <path d="M1114.75 791.56c-1.28568.758-2.62219 1.426258-4 2-9.40721 4.089692-18.50744 8.852027-27.23 14.25 8.46666-5.202879 17.2922-9.797776 26.41-13.75 1.67075-.703504 3.28255-1.539502 4.82-2.5z" fill="#2FE4DA" fill-rule="nonzero"/>
      <path d="M1055.22 857.39L1028 867l64.5 94.59c8.12-2.25 17-4.37 26.42-6.08-25.34697-29.844298-46.75548-62.820791-63.7-98.12zM1200.64 660.89c-4-7.72-7.92-9.37-11.8-6.72 3.61-1.89 7.21 0 11 7.21 8.36 15.92 5.39 36.06-1.85 57.09l.73-.2c7.28-21.14 10.33-41.39 1.92-57.38zM1207.74 657.74c-5.5 5.12 12.87 24.58 28 50.58l34.28-9.2c-34.17-46.37-49.97-52.82-62.28-41.38zM1044.88 834.24v-.09c-9.18 6.84-17.9 13.69-25.65 20l.08.11c7.69-6.26 16.38-13.16 25.57-20.02z" fill="#FFF" fill-rule="nonzero"/>
      <path d="M1083.53 807.82c-12.89 7.77-26.22 17-38.69 26.33v.09c12.47-9.3 25.78-18.59 38.69-26.42z" fill="#2FE4DA" fill-rule="nonzero"/>
      <path d="M1155.06 730l-.7.19c-10.55 26.08-23.22 51.21-39.61 61.38 16.72-9.8 29.61-35.17 40.31-61.57zM1055.22 857.39c-3.56-7.4-7-15.12-10.34-23.15-9.19 6.86-17.89 13.73-25.61 20L1028 867l27.22-9.61z" fill="#FFF" fill-rule="nonzero"/>
      <path d="M1044.88 834.24c3.31 8 6.78 15.75 10.34 23.15l103.46-36.45c-.24-24.36 26.32-64.85 39.32-102.47L1155.06 730c-10.7 26.41-23.59 51.78-40.31 61.57-1.53391.96346-3.14236 1.802798-4.81 2.51-9.1178 3.952224-17.94334 8.547121-26.41 13.75-12.91 7.82-26.22 17.11-38.65 26.41zM1188.84 654.17c-10.25 5.36-20.51 41.51-34.48 76l.7-.19c13.66-33.66 23.77-68.98 33.78-75.81z" fill="#FFF" fill-rule="nonzero"/>
      <path d="M1199.82 661.38c-3.77-7.17-7.37-9.1-11-7.21-10 6.82-20.12 42.15-33.78 75.82l42.96-11.52c7.21-21.03 10.18-41.17 1.82-57.09zM988.08 881l58.44 97.21c14.84597-6.819171 30.23206-12.39496 46-16.67L1028 867l-39.92 14zM988.08 881l-.11-.17s12.8-11.61 31.3-26.64l-.08-.11c-18.9 15.33-32 27.25-32 27.25l.89-.33z" fill="#FFF" fill-rule="nonzero"/>
      <path d="M1201.66 663c7.11 15.65 4 35.06-3 55.29l10.17-2.73c4.34-16.34 8.71-43.74-7.17-52.56z" fill="#FFF" fill-rule="nonzero"/>
      <path d="M1022.37 765.63l132-35.45c14-34.5 24.23-70.65 34.48-76 3.88-2.65 7.75-1 11.8 6.72.37.68.7 1.38 1 2.09 15.88 8.84 11.51 36.24 7.21 52.56l26.88-7.22c-15.14-26-33.51-45.46-28-50.58 12.31-11.44 28.11-5 62.29 41.38l84.55-22.71c2.56617-.686841 4.14724-3.260482 3.6-5.86l-86-407.34-335.49 90.88c-2.5482.690734-4.120225 3.243632-3.59 5.83l83.08 401.88c.27804 1.348206 1.09963 2.522137 2.27109 3.245076 1.17147.722938 2.58916.930922 3.91891.574924zM1019.27 854.23c-18.5 15-31.3 26.64-31.3 26.64l.11.17L1028 867l-8.73-12.77z" fill="#FFF" fill-rule="nonzero"/>
      <circle fill="#FFF" fill-rule="nonzero" cx="1142.65" cy="510.05" r="121.04"/>
      <ellipse fill="#DEDEDE" fill-rule="nonzero" transform="rotate(-17.59 1100.156797 482.40609)" cx="1100.1568" cy="482.40609" rx="4.92" ry="13.78"/>
      <ellipse fill="#DEDEDE" fill-rule="nonzero" transform="rotate(-17.526 1160.79 462.437)" cx="1160.79" cy="462.437" rx="4.90151528" ry="13.7282277"/>
      <path d="M1159.86 564.31c-25.53 8.09-46.38 0-58.88-6.56-8.03659-4.143657-15.23766-9.737706-21.24-16.5l3.05-2.49-1.53 1.24 1.53-1.25c5.74045 6.371268 12.58769 11.64984 20.21 15.58 17.17 9 35.71 10.49 55.1 4.34s33.76-18.05 42.7-35.35c4.00048-7.614147 6.59853-15.88589 7.67-24.42l3.94.31c-1.07718 9.005058-3.78823 17.738038-8 25.77-6.54 12.61-19.02 31.24-44.55 39.33z" fill="#DEDEDE" fill-rule="nonzero"/>
      <path d="M1200.74 501.89c-.53166-.522635-.77976-1.268924-.66684-2.005847.11291-.736923.57309-1.374686 1.23684-1.714153 1.76-.9 4.6-1.67 8.91-1.07 4.66.66 7.34 2.39 8.82 3.82.49608.474636.75868 1.143187.71826 1.828563-.04043.685375-.37982 1.318416-.92826 1.731437-.49766.376583-1.12512.53877-1.74293.450512-.61781-.088258-1.17476-.419649-1.54707-.920512-1.22-1.63-3.21-3.72-5.53-4-2.32-.28-4.3 1.11-5.61 2.36-.9113.882694-2.3587.882694-3.27 0l-.39-.48zM1090.48 536.85c.12716-.733168-.10196-1.48311-.61716-2.020023-.5152-.536913-1.25505-.796782-1.99284-.699977-1.95.28-4.72 1.3-7.89 4.27-3.43 3.22-4.63 6.18-5 8.21-.12905.671986.04251 1.366787.4695 1.901482.42698.534696 1.06662.855706 1.7505.878518.62334.018844 1.2286-.210846 1.6825-.638487.4539-.427641.71921-1.018161.7375-1.641513.06-2 .48-4.89 2.19-6.49 1.71-1.6 4.15-1.57 5.95-1.3 1.25345.175346 2.42062-.673501 2.64-1.92l.08-.55z" fill="#DEDEDE" fill-rule="nonzero"/>
      <path d="M1175 414.17c.82666-.065714 1.464-.755728 1.464-1.585s-.63734-1.519286-1.464-1.585c-.82666.065714-1.464.755728-1.464 1.585s.63734 1.519286 1.464 1.585z" fill="#983AC9" fill-rule="nonzero"/>
    </g>
    <path d="M540 56.9989663c229.72391.1728423 427.561621 162.0761987 473.17064 387.2270847C1058.77967 669.376937 939.546769 895.509581 728 985.07c-245.805373 103.82953-529.240461-11.264632-633.0699934-257.070003C-8.89952524 482.194626 106.194631 198.759536 352 94.93c59.4765-25.1631558 123.419658-38.064028 188-37.9310337M540 0C241.77 0 0 241.77 0 540s241.77 540 540 540 540-241.77 540-540S838.23 0 540 0z" fill="#DEDEDE" fill-rule="nonzero"/>
  </g>
</svg>
