<svg xmlns="http://www.w3.org/2000/svg" viewBox="0 0 1080 1080">
  <defs>
    <style>
      .cls-3{fill:#332ba8}.cls-4{fill:#141491}.cls-6{fill:none}.cls-7{fill:#5f1896}
    </style>
  </defs>
  <circle cx="540" cy="540" r="540" fill="#2fe2d8"/>
  <path d="M540 57a483.15 483.15 0 01188 928.07A483.14 483.14 0 01352 94.93 479.94 479.94 0 01540 57m0-57C241.77 0 0 241.77 0 540s241.77 540 540 540 540-241.77 540-540S838.23 0 540 0z" fill="#06c7af"/>
  <path class="cls-3" d="M277.18 472.68h525.64V759.4a8.32 8.32 0 01-11.64 7.6c-30.83-16.12-131.86-41.11-253.22 4.64-17.27-8.37-141.06-64.58-248.9-14.16a8.32 8.32 0 01-11.88-7.48z"/>
  <path class="cls-4" d="M276.76 570.48s263 249.55 526.06 0V438.76H276.76z"/>
  <path class="cls-3" d="M534.45 309.39L134.28 468.1c-11.35 4.5-11.35 19.35 0 23.85l400.17 158.72a15.19 15.19 0 0011.1 0L945.72 492c11.35-4.5 11.35-19.35 0-23.85L545.55 309.39a15.09 15.09 0 00-11.1 0z"/>
  <path class="cls-4" d="M557 456.59c-.1 22.18-33.82 22.17-33.92 0 .06-22.18 33.78-22.17 33.92 0z"/>
  <path transform="rotate(-56.74 244.788 668.504)" fill="#803aa4" d="M161.26 628.24h167v80.48h-167z"/>
  <path class="cls-6" d="M217 650.26a23.62 23.62 0 00-3.08 6.87l8.15-12.44a23.91 23.91 0 00-5.07 5.57zM261.21 643.39c10.65 7 16.82 17.94 17.23 28.56l25.78-39.31A12.51 12.51 0 01301 618l-32.4-21.19a12.51 12.51 0 01-14.68 2.85L228.15 639c9.9-3.89 22.4-2.6 33.06 4.39zM228.31 693.56c-10.66-7-16.82-17.94-17.24-28.56l-25.78 39.31a12.52 12.52 0 013.25 14.6l32.37 21.23a12.51 12.51 0 0114.68-2.85L261.37 698c-9.91 3.84-22.37 2.55-33.06-4.44zM272.54 686.69a24.17 24.17 0 003.08-6.87l-8.16 12.44a23.73 23.73 0 005.08-5.57z"/>
  <path class="cls-7" d="M235.59 737.29a12.51 12.51 0 00-14.68 2.85l-32.37-21.23a12.52 12.52 0 00-3.25-14.6L211.07 665a28.79 28.79 0 01.1-3.72l-28.52 43.5.28.19a10.53 10.53 0 013 14.58l35.38 23.21a10.54 10.54 0 0114.59-3l.28.18 28.53-43.5a31.35 31.35 0 01-3.37 1.58zM303.56 617.4l-35.39-23.21a10.53 10.53 0 01-14.59 3l-.28-.18-28.52 43.5a29.65 29.65 0 013.37-1.58l25.77-39.3a12.51 12.51 0 0014.68-2.85L301 618a12.51 12.51 0 003.24 14.6l-25.8 39.4a28.84 28.84 0 01-.1 3.72l28.53-43.5-.28-.19a10.52 10.52 0 01-3.03-14.63z"/>
  <path class="cls-7" d="M229.38 691.93c-11.11-7.28-17.08-19.11-16.3-30l-2 3.07c.42 10.62 6.58 21.57 17.24 28.56s23.15 8.28 33.06 4.43l2-3.07c-9.67 5.08-22.9 4.29-34-2.99zM260.14 645c11.1 7.28 17.07 19.11 16.29 30l2-3.06c-.41-10.62-6.58-21.57-17.23-28.56s-23.16-8.28-33.06-4.43l-2 3.07c9.66-5.02 22.86-4.28 34 2.98zM272.54 686.69a23.73 23.73 0 01-5.08 5.57l-2.72 4.15a26 26 0 0013.6-20.74l-2.72 4.15a24.17 24.17 0 01-3.08 6.87zM217 650.26a23.91 23.91 0 015.07-5.57l2.73-4.15a26 26 0 00-13.61 20.74l2.73-4.15a23.62 23.62 0 013.08-6.87z"/>
  <path class="cls-7" d="M263.38 694.92l-2 3.07a31.35 31.35 0 003.37-1.58l2.72-4.15a25.75 25.75 0 01-4.09 2.66zM276.43 675a26 26 0 01-.81 4.81l2.72-4.15a28.84 28.84 0 00.1-3.72zM213.08 661.93a25.23 25.23 0 01.82-4.8l-2.73 4.15a28.79 28.79 0 00-.1 3.72zM226.14 642l2-3.07a29.65 29.65 0 00-3.37 1.58l-2.73 4.15a25.84 25.84 0 014.1-2.66z"/>
  <circle class="cls-7" cx="179.67" cy="712.92" r="2.1"/>
  <circle class="cls-7" cx="229.83" cy="745.82" r="2.1"/>
  <circle class="cls-7" cx="259.59" cy="591.07" r="2.1"/>
  <circle class="cls-7" cx="309.74" cy="623.96" r="2.1"/>
  <path class="cls-7" d="M255.58 677.08a26.68 26.68 0 01-10.58 8.27l-2.94-7a21.76 21.76 0 007.68-5.38l-2.91-1.9c-5.26 5.35-9.31 7.4-13.9 4.4l-.07-.05c-4.34-2.85-5.48-8-1.68-14.52l-2-1.31 2.39-3.64 2.1 1.38a21.41 21.41 0 018.23-6.37l3.11 6.85a16.09 16.09 0 00-5.46 3.68l2.87 1.88c5-5.09 9-7.22 13.75-4.1h.07c4.62 3 4.95 8.4 1.77 14.17l3.42 2.25-2.38 3.64zm-18.5-12.54c-1.09 1.74-.94 2.73-.25 3.19h.08c.73.48 1.49.23 3-1.38zm15.2 2.16l-.07-.05c-.74-.48-1.42-.28-2.91 1.3l2.84 1.86c.95-1.68.86-2.63.14-3.11z"/>
  <path class="cls-7" d="M261.6 675.82l-2.39 3.63a.2.2 0 01-.27.06l-3.31-2.17a27 27 0 01-10.55 8.19.2.2 0 01-.26-.1l-2.94-7a.19.19 0 01.1-.25 21.83 21.83 0 007.46-5.16l-2.58-1.69c-4.87 4.92-9.13 7.53-14 4.31l-.07-.05c-4.67-3.06-5.36-8.52-1.85-14.62l-1.84-1.21a.19.19 0 010-.27l2.38-3.64a.2.2 0 01.28 0l1.95 1.28a21.56 21.56 0 018.19-6.29.2.2 0 01.25.1l3.12 6.85a.22.22 0 010 .16.18.18 0 01-.11.1 15.77 15.77 0 00-5.22 3.47l2.53 1.66c4.72-4.79 8.9-7.28 13.88-4h.07c4.47 2.93 5.18 8.26 1.92 14.27l3.28 2.15a.21.21 0 01-.02.22zm-2.6 3.26l2.17-3.32-3.26-2.14a.19.19 0 01-.07-.26c3.3-6 2.68-11-1.7-13.91l-.07-.05c-4.82-3.16-8.74-.78-13.5 4.07a.2.2 0 01-.25 0l-2.87-1.88a.16.16 0 01-.08-.14.18.18 0 010-.16 16.53 16.53 0 015.34-3.65l-2.95-6.48a21.1 21.1 0 00-8 6.23.19.19 0 01-.26 0l-1.94-1.27-2.17 3.31 1.83 1.21a.18.18 0 01.06.26c-3.49 6-2.88 11.3 1.63 14.26h.07c4.09 2.69 7.92 1.46 13.65-4.37a.2.2 0 01.25 0l2.9 1.91a.2.2 0 01.09.13.18.18 0 01-.05.16 21.65 21.65 0 01-7.57 5.35l2.8 6.68a26.64 26.64 0 0010.38-8.02.2.2 0 01.26-.05zm-6.69-9.16a.2.2 0 01-.12.08.21.21 0 01-.15 0l-2.83-1.85a.24.24 0 01-.09-.14.18.18 0 010-.16c1.48-1.57 2.28-1.91 3.16-1.33h.07c.88.58.86 1.71-.08 3.37zm-2.69-2l2.46 1.61c1.09-2 .35-2.5.1-2.67h-.07c-.59-.42-1.11-.35-2.5 1.06zm-9.53-1.41c-1.5 1.61-2.39 2-3.26 1.41h-.07c-.53-.35-1.2-1.26.18-3.46a.18.18 0 01.13-.09.17.17 0 01.14 0l2.84 1.86a.19.19 0 01.09.14.31.31 0 01-.06.14zm-2.94-1.7c-.8 1.34-.87 2.32-.2 2.76h.07c.57.37 1.18.29 2.6-1.19z"/>
  <path stroke="#141491" stroke-linecap="round" stroke-linejoin="round" stroke-width="10.05" fill="none" d="M540 456.59L259.14 540.5v50.54"/>
</svg>
