<svg xmlns="http://www.w3.org/2000/svg" viewBox="0 0 1080 1080">
  <defs>
    <style>
      .prefix__cls-4{fill:#2fe2d8}
    </style>
  </defs>
  <circle cx="540" cy="540" r="540" fill="#ff4c22"/>
  <path d="M540 57a483.15 483.15 0 01188 928.07A483.14 483.14 0 01352 94.93 479.94 479.94 0 01540 57m0-57C241.77 0 0 241.77 0 540s241.77 540 540 540 540-241.77 540-540S838.23 0 540 0z" fill="#e02000"/>
  <path fill="none" stroke="#facc2f" stroke-miterlimit="10" stroke-width="23" d="M590.73 233.01L303.46 465.55l355.15 280.94"/>
  <circle class="prefix__cls-4" cx="658.61" cy="746.49" r="180.23"/>
  <ellipse cx="610.75" cy="688.12" rx="7.33" ry="20.51"/>
  <ellipse cx="709.33" cy="688.12" rx="7.33" ry="20.51"/>
  <path d="M658.61 831.25c-39.87 0-65.84-20.81-80.61-35.81-16-16.23-22.46-32.3-22.73-33l5.46-2.17-2.73 1.11 2.73-1.08c.06.15 6.4 15.79 21.63 31.19 20.3 20.54 46 31 76.25 31s56-10.42 76.52-31c15.35-15.4 21.81-31 21.88-31.2l5.44 2.21c-.27.67-6.88 16.73-23 33-14.86 14.94-40.97 35.75-80.84 35.75z"/>
  <path d="M744.72 761.06a3.48 3.48 0 012.49-5c2.9-.49 7.28-.29 13.12 2.5 6.32 3 9.35 6.69 10.81 9.39a3.5 3.5 0 01-1.9 5 3.5 3.5 0 01-4.45-2.15c-1-2.86-2.89-6.72-6-8.23s-6.61-.35-9 .83a3.49 3.49 0 01-4.62-1.53zm-172.22 0a3.47 3.47 0 00-2.48-5c-2.9-.49-7.28-.29-13.12 2.5-6.32 3-9.36 6.69-10.81 9.39a3.5 3.5 0 001.9 5 3.5 3.5 0 004.46-2.15c1-2.86 2.88-6.72 6-8.23s6.6-.35 9 .83a3.48 3.48 0 004.61-1.53z"/>
  <circle class="prefix__cls-4" cx="303.46" cy="465.55" r="142.92"/>
  <ellipse cx="265.51" cy="419.27" rx="5.81" ry="16.27"/>
  <ellipse cx="343.68" cy="419.27" rx="5.81" ry="16.27"/>
  <path d="M303.46 532.77c-31.62 0-52.22-16.51-63.92-28.4-12.68-12.88-17.82-25.61-18-26.15l4.33-1.72-2.17.86 2.17-.86A84 84 0 00243 501.23c16.1 16.29 36.45 24.55 60.47 24.55s44.44-8.26 60.68-24.55a85 85 0 0017.34-24.74l4.32 1.74c-.21.54-5.45 13.27-18.22 26.15-11.81 11.88-32.51 28.39-64.13 28.39z"/>
  <path d="M371.74 477.11a2.77 2.77 0 012-4c2.3-.38 5.78-.23 10.41 2 5 2.39 7.42 5.3 8.57 7.44a2.76 2.76 0 01-1.51 3.93 2.76 2.76 0 01-3.53-1.71c-.8-2.27-2.29-5.33-4.79-6.52s-5.23-.28-7.16.65a2.74 2.74 0 01-3.65-1.21zm-136.56 0a2.77 2.77 0 00-2-4c-2.3-.38-5.78-.23-10.41 2-5 2.39-7.42 5.3-8.57 7.44a2.76 2.76 0 001.51 3.93 2.76 2.76 0 003.53-1.71c.8-2.27 2.29-5.33 4.79-6.52s5.23-.28 7.16.65a2.74 2.74 0 003.65-1.21z"/>
  <circle class="prefix__cls-4" cx="590.73" cy="233.01" r="89.62"/>
  <ellipse cx="566.93" cy="203.99" rx="3.64" ry="10.2"/>
  <ellipse cx="615.95" cy="203.99" rx="3.64" ry="10.2"/>
  <path d="M590.73 275.16c-19.83 0-32.74-10.35-40.08-17.81A54.8 54.8 0 01539.34 241l2.72-1.08-1.36.54 1.36-.54a52.62 52.62 0 0010.75 15.51c10.1 10.21 22.86 15.39 37.92 15.39s27.87-5.18 38-15.4a53.17 53.17 0 0010.88-15.51l2.71 1.1a55.28 55.28 0 01-11.43 16.39c-7.35 7.41-20.33 17.76-40.16 17.76z"/>
  <path d="M633.55 240.26a1.73 1.73 0 011.24-2.51 10.92 10.92 0 016.52 1.25 11.36 11.36 0 015.38 4.67 1.73 1.73 0 01-1 2.46 1.74 1.74 0 01-2.22-1.07c-.5-1.42-1.43-3.34-3-4.09a5.33 5.33 0 00-4.49.42 1.73 1.73 0 01-2.29-.77zm-85.64 0a1.73 1.73 0 00-1.23-2.51 11 11 0 00-6.53 1.25 11.28 11.28 0 00-5.37 4.67 1.73 1.73 0 00.94 2.46 1.73 1.73 0 002.21-1.07c.5-1.42 1.44-3.34 3-4.09a5.33 5.33 0 014.49.42 1.74 1.74 0 002.3-.77z"/>
</svg>
