<svg xmlns="http://www.w3.org/2000/svg" viewBox="0 0 1080 1080">
  <defs>
    <clipPath id="clip-path">
      <path class="cls-1" d="M755.77 832.81l-35-40.61-51.42 17.91 68.22-269.48 86.42 22.7-68.22 269.48z"/>
    </clipPath>
    <clipPath id="clip-path-2">
      <path class="cls-2" d="M804.55 832.81l34.99-40.61 51.43 17.91-68.22-269.48-86.42 22.7 68.22 269.48z"/>
    </clipPath>
    <clipPath id="clip-path-3">
      <path class="cls-1" d="M895.13 756.1l-42.43-12.57-27.13 34.97-85.22-264.6 69.56-22.4 85.22 264.6z"/>
    </clipPath>
    <clipPath id="clip-path-4">
      <path class="cls-1" d="M665.19 756.1l42.43-12.57 27.12 34.97 85.23-264.6-69.56-22.4-85.22 264.6z"/>
    </clipPath>
    <style>
      .cls-1{fill:none}.cls-2{fill:#f9bb0b}.cls-5{fill:#fff}.cls-6{fill:#332baa}.cls-7{fill:#2fe4da}.cls-9{fill:#731daa}.cls-12{fill:#963ac7}
    </style>
  </defs>
  <circle cx="540" cy="540" r="540" fill="#facc2f"/>
  <path d="M540 57a483.15 483.15 0 01188 928.07A483.14 483.14 0 01352 94.93 479.94 479.94 0 01540 57m0-57C241.77 0 0 241.77 0 540s241.77 540 540 540 540-241.77 540-540S838.23 0 540 0z" fill="#f7b90b"/>
  <path class="cls-5" transform="rotate(90 495.635 514.875)" d="M271.95 221.41h447.38v586.93H271.95z"/>
  <path class="cls-6" d="M773.44 306.85V722.9H217.83v-416h555.61m15.66-15.66H202.17v447.33H789.1V291.19z"/>
  <rect x="268.32" y="510.96" width="454.62" height="19.15" rx="9.58"/>
  <rect x="268.32" y="548.43" width="454.62" height="19.15" rx="9.58"/>
  <rect x="268.76" y="627.85" width="126.44" height="8.67" rx="4.33"/>
  <rect x="268.76" y="652.97" width="126.44" height="8.67" rx="4.33"/>
  <rect x="596.07" y="627.85" width="126.44" height="8.67" rx="4.33"/>
  <rect class="cls-6" x="596.07" y="652.97" width="126.44" height="8.67" rx="1.98"/>
  <path class="cls-6" d="M290.56 409.84a68.54 68.54 0 01-3.91 7.47c-1.68-.26-5-.83-8.24-1.59l6.09 30c.58-.07 1.78-.31 2.4-.44a15.3 15.3 0 008.88-4.89l.55.54c-1.88 4.13-5 8.23-12.87 9.83-10.63 2.15-19.15-2.68-21.43-13.93-1.62-8 3-16.17 6.9-19.19l.77.33c-2.62 3.62-3.13 9.42-2.24 13.8 1 4.74 2.64 8.19 5.06 10.52 1.51-1.66 1.61-3.31 1.12-5.7l-3.14-15.48c3.79-4.34 6.19-7.49 8.71-10.82 4.79.87 6.91 1.2 9.05.77.47-.1.93-.52 1.4-1.64zm-13.18 5.6l-.63-.14-1.31 1.57 4 19.74s-3.37 3.18-6.32 6.27c2.68 2.28 6.19 3.25 10.42 3zM302.72 430.36l1.4 8c3.55 1.49 4.95 1.79 5.89 1.62a1.66 1.66 0 001-.76l.39-.56.93.71c-1 1.36-3.08 4.31-4.14 6-2.5-1-7-2.66-9.94-3.51v-.21c.55-.58.73-1.09.45-2.72l-3.28-18.85a36.46 36.46 0 008.7-5.88c1.65 2.41 5.28 7.12 7.15 9.22-1.68 1.75-5.84 4.8-8.55 6.94zm-1.82-12l-.25.1 1.84 10.54a49.93 49.93 0 004.33-3.34c-1.68-1.92-4.68-5.5-5.92-7.34zM325 421.13h-.21A26.18 26.18 0 01320 416l-.93 1.33 3 19.12c2.77 1.18 3.27 1.32 4.06 1.2.37-.06.63-.43.89-.84l.39-.6 1 .65c-2.62 3.58-4.3 5.94-4.3 5.94a58.82 58.82 0 00-8-3v-.21c.5-.62.74-1.14.49-2.77l-2.93-18.8a4.83 4.83 0 00-2.82-.8l-.13-.14a56.38 56.38 0 003.39-4.51c1.66 1 3.45 2.15 4.93 3 1.59-1.86 2.07-2.58 3.37-4.29a43.86 43.86 0 005.32 5.14 41 41 0 00-2.73 4.71zM344.89 434.51l-4.39 5.87a80.8 80.8 0 00-7.62-3.06v-.21c.63-.52.72-1.39.54-2.66l-2.54-18.16-2.21.31v-.31c2.58-2.24 4.78-7.6 5.71-11.7h.37l1.11 7.95 5.43-.76-1 3.24-4 .57 2.59 18.53c2.76 1.28 3 1.15 3.8 1a1.6 1.6 0 001-.68l.35-.54zM356.24 434.35l-3.62 4.43c-1.27-.75-3.86-2.13-5.46-2.89v-.21c.63-.51.76-1.12.58-2.6l-2.51-19.61-.73-.34a3.17 3.17 0 00-2.15-.42l-.08-.21 3.61-4.48c1.27.75 3.75 2.1 5.47 3v.21c-.58.45-.78 1-.6 2.44l2.53 19.77c1.77.85 2.36.88 2.83.82zm-10.45-29l-1.93-1.63a80.29 80.29 0 005.07-7.34 26.12 26.12 0 012.46 3.76c-1.13 1.21-4.05 3.94-5.6 5.21zM368.53 396.06l-3.16 4.22h-.05a17.32 17.32 0 01-4.31-1.64l-.1.06 1.2 10.46 6.39-.73-1.12 3.23-4.92.56 2.23 19.39a7 7 0 002.64.6c.37 0 .7-.4 1.11-1l.32-.47.95.75-4.64 5.78a66.35 66.35 0 00-6.46-2.69v-.26c.64-.45.78-1.11.61-2.58L357 412.85l-3.27.37 1.18-3.24 1.74-.2-.94-8.23a65.53 65.53 0 008.4-7c3 1.53 3.66 1.56 4.22 1.33zM382.47 431.48l-3.72 4.34c-1.26-.78-3.81-2.23-5.39-3v-.22c.64-.49.79-1.09.64-2.57l-2-19.67-.73-.36a3.17 3.17 0 00-2.13-.47l-.08-.21 3.72-4.39c1.26.78 3.7 2.19 5.39 3.08v.22c-.6.43-.81 1-.67 2.41l2 19.84c1.75.89 2.34.93 2.82.88zm-9.72-29.25l-1.88-1.68a81.73 81.73 0 005.24-7.21 25.48 25.48 0 012.37 3.82c-1.16 1.18-4.15 3.84-5.73 5.07zM397.94 406.34c-.88 1-2.74 3.44-3.51 4.36h-.05a21.67 21.67 0 01-5.72-3.71l-.21.13 1.77 20c3.42 1.83 5.21 2.1 6.27 2a1.51 1.51 0 001-.51l.43-.58.92.72c-1.31 1.51-3.14 3.75-4.68 5.65-2-1.05-7.55-3.33-10.09-4.28v-.22c.45-.36.83-.82.71-2.25l-1.59-17.84a72.18 72.18 0 008.59-6.69c4.41 3.4 5.52 3.3 6 3.1zM418.55 428.55c-1.14 1.26-2.76 3.08-3.75 4.22-1.79-1.2-4.07-2.58-5.19-3.25l-3.93 3.91c-1.57-1.11-4.08-2.69-6-3.77v-.21c.56-.42.84-.92.71-2.72l-.43-6a44.22 44.22 0 004.53-2.89 6 6 0 01-4.39-5.38c-.27-3.71 1.41-5.54 2.91-7.62a26.54 26.54 0 001.77-2.8c2.63.93 7.23 2.68 10.23 3.53v.21c-.6.52-.82 1.23-.72 2.56l1.38 19c.51.44 2.22 1.28 2.79 1zM408.81 409c-2.38-1.21-3.43-1.77-4.49-1.69s-3.29.93-3 5.11c.21 2.81 2.86 4.91 6.31 4.66a6.15 6.15 0 001.72-.49zm1.34 18.51l-.7-9.7a5.44 5.44 0 01-1.77.5 9 9 0 01-2.42-.25 4.93 4.93 0 00-.21 2.25l.54 7.47c1 .52 1.68 1.06 2.73 1.57zM432.62 426.49l-4.85 5.5a81.14 81.14 0 00-7.34-3.68v-.21c.67-.47.83-1.33.76-2.6l-1-18.31-2.23.12V407c2.76-2 5.39-7.18 6.65-11.19h.38l.45 8 5.47-.31-1.2 3.15-4.09.24 1.07 18.68c2.64 1.5 2.84 1.38 3.69 1.33a1.61 1.61 0 001.09-.59l.39-.5zM440.07 415.63l.35 8.12c3.33 1.94 4.68 2.41 5.63 2.37a1.65 1.65 0 001.09-.63l.46-.5.83.81c-1.17 1.23-3.61 3.88-4.87 5.43-2.35-1.34-6.64-3.55-9.41-4.76v-.21c.62-.51.86-1 .79-2.64l-.82-19.12a36.44 36.44 0 009.38-4.71c1.33 2.6 4.32 7.74 5.91 10.07-1.86 1.51-6.41 3.99-9.34 5.77zm-.26-12.17l-.26.06.46 10.73a50 50 0 004.72-2.76c-1.42-2.12-3.93-6.05-4.92-8.03zM474.86 403.56c-.47.39-.89.87-.86 2.41l.37 18.5a100.28 100.28 0 00-9 6.08c-2.37-1.54-5.11-3.19-7.37-4.42v-.22c.63-.27.88-1 .86-2.09l-.37-18.65a107.39 107.39 0 009-6.08c2.26 1.39 5.06 3.08 7.37 4.26zm-5.92 23.09l-.42-21c-1.24-.82-3.07-1.9-4.47-2.67l-.16.06.42 21c1.19.83 3.28 2.07 4.52 2.73zM493.11 389.71l-3.6 3.85h-.06a17.37 17.37 0 01-4.1-2.11l-.1.05v10.53h6.43l-1.47 3.09h-4.95l.08 19.51a7 7 0 002.56.9c.37 0 .74-.33 1.21-.86l.37-.43.86.85-5.24 5.23a66.78 66.78 0 00-6.13-3.38v-.26c.69-.38.9-1 .89-2.5l-.07-19h-3.3l1.53-3.09h1.75v-8.29a64.65 64.65 0 009.12-6c2.77 1.85 3.46 2 4.05 1.8zM533.2 415.48c-.12 4.78-5.11 8.86-6.15 9.85-1.25 1.19-2.89 2.9-5.62 5.81-3.72-2-12.16-4.77-16.59-6.15l-.1-.43c1.73-1.34 2.84-3.23 2.93-6.57l.16-6.54h-.69c-2.55-.06-4.27.53-5.16 2.27l-.48-.23c.67-5.46 3.23-7.73 6.31-7.66h.19l.16-6.38c-4.5-3.25-5.17-3.8-6.18-3.82-.8 0-1.23.34-2.48 1.37l-.68-.71c1.36-1 6.24-5 7.16-5.72 2.93 2.2 4.44 3.51 8.4 6.48L514 413.3c-.08 3.46-.6 4.83-4.13 7.77v.11a60.57 60.57 0 016.23 1.8l.71-28.54a12.85 12.85 0 00-.4-3.41v-.11l1.11.19a14.88 14.88 0 01.24 3l-.07 2.87 7.49-5.82c6.58 2.66 8.5 6.65 8.35 12.76zm-6-5.47l-9.94 4.17-.23 9.09a40.09 40.09 0 017.58 3.16c1.36-1.19 2.26-3.34 2.35-6.69zm0-1.06l.1-3.88-9.94 4.17-.1 3.93zm.13-4.94v-.21c.12-4.68-1.86-6.64-6.07-8.4 0 0-2.71 2.06-3.63 2.79l-.25 10zM555.05 405.4c-.5.35-.95.8-1 2.34l-.93 18.48a99.88 99.88 0 00-9.43 5.43 129.1 129.1 0 00-7-4.93v-.21c.65-.24 1-.91 1-2l.94-18.64a103.61 103.61 0 009.43-5.43c2.16 1.55 4.83 3.44 7.06 4.78zm-7.54 22.6l1.07-21c-1.18-.91-2.93-2.12-4.27-3l-.16.05-1.07 21c1.13.9 3.14 2.28 4.32 3zM566.18 429c-1.12.94-3 2.57-4.34 3.71-1.46-1.26-3.54-2.89-4.86-3.88v-.21c.66-.23 1-.9 1.07-2.49l2-31.46a4.69 4.69 0 00-.35-2.74l.22-.09a3.88 3.88 0 012.08 2.32h.11a6.79 6.79 0 014.4-3.76l.15.11a6.57 6.57 0 00-1.08 3.5l-2.15 33.48a5.37 5.37 0 002.63 1.39zM587.57 430.68c-1.65 1.31-2.9 2.33-4.34 3.65-1.59-1.45-3.09-2.75-4.54-3.93h-.06l-4.46 3.22c-1.65-1.36-3.91-3.19-5.73-4.5v-.22a2.29 2.29 0 001.07-2l1.55-19.67a5.52 5.52 0 00-2.61-1.43l-.09-.11c1.13-.93 3.07-2.43 4.44-3.65 1.5 1.34 3.45 3 4.75 4v.21c-.67.27-1 .88-1.11 2.47L575 427.76a26.71 26.71 0 002.33 2.21s1.87-1.4 2.21-1.64l1.63-20.61c-.6-.58-1-.88-1.7-1.47v-.05c1.08-.82 3-2.32 4.21-3.35 1 1 2.78 2.67 4 3.67v.22c-.66.32-1 .88-1.11 2.63l-1.56 19.77a5.18 5.18 0 002.55 1.42zM608.89 432.77c-1.15.9-3.07 2.47-4.46 3.57-1.22-1.14-3.69-3.25-4.73-4.1v-.21c.56-.27 1-.86 1.15-2.45l1.87-19.05c-.88-.83-1.72-1.45-2.51-2.11 0 0-1.66 1.06-2 1.3l-2 20.73c.59.6 1 .91 1.67 1.5v.05c-1.38 1-3 2.21-4.22 3.21-1.47-1.37-3-2.86-4-3.7v-.21c.51-.32 1-.86 1.16-2.61L592.8 409a5.28 5.28 0 00-2.52-1.48l-.1-.11c1.67-1.28 3-2.28 4.41-3.58a97.37 97.37 0 004.47 4h.05l4.53-3.14c1.62 1.39 3.84 3.26 5.63 4.61v.22a2.31 2.31 0 00-1.11 2l-1.92 19.63a5.43 5.43 0 002.58 1.48zM623.1 433.13l-5.71 4.59c-1.91-1.55-4.77-3.7-6.62-4.87v-.21c.73-.35 1-1.17 1.18-2.43l2.11-18.21-2.21-.25v-.32c3.06-1.52 6.53-6.15 8.46-9.89h.37l-.91 8 5.44.62-1.72 2.9-4.07-.46-2.12 18.59c2.35 1.93 2.57 1.85 3.42 1.94a1.57 1.57 0 001.16-.4l.48-.43zM632.29 423.69l-1 8.07c3 2.46 4.21 3.16 5.16 3.28a1.62 1.62 0 001.18-.44l.53-.41.69.95c-1.37 1-4.22 3.21-5.73 4.51-2.08-1.71-5.94-4.62-8.46-6.28v-.21c.7-.39 1-.84 1.23-2.47l2.43-19a36.62 36.62 0 0010-3c.88 2.79 2.95 8.36 4.12 10.92-2.06 1.15-6.94 2.83-10.15 4.08zm1.81-12h-.27l-1.37 10.65a48.72 48.72 0 005.13-1.92c-1.04-2.35-2.85-6.65-3.49-8.77zM649.2 426l-1.15 8c2.91 2.51 4.15 3.23 5.1 3.36a1.64 1.64 0 001.19-.42l.54-.4.67.95c-1.38 1-4.27 3.15-5.8 4.43-2-1.74-5.87-4.71-8.37-6.41v-.21c.7-.38 1-.82 1.27-2.45l2.72-18.94a36.38 36.38 0 0010.11-2.91c.84 2.81 2.83 8.41 4 11-2.14 1.17-7.04 2.77-10.28 4zm2-12h-.27l-1.53 10.63a50.37 50.37 0 005.15-1.84c-1-2.37-2.75-6.7-3.35-8.79zM673.18 424.05h-.21a26.73 26.73 0 01-3-6.4l-1.29 1-3 19.11c2.27 2 2.71 2.26 3.49 2.39a1.52 1.52 0 001.11-.53l.56-.44.76.92c-3.59 2.61-5.91 4.34-5.91 4.34a61.31 61.31 0 00-6.7-5.27v-.21c.66-.43 1.05-.85 1.31-2.48l3-18.8a4.85 4.85 0 00-2.4-1.68l-.08-.18a55.79 55.79 0 004.61-3.24c1.28 1.44 2.63 3.11 3.77 4.36 2.09-1.28 2.77-1.82 4.53-3a43.82 43.82 0 003.48 6.53 39.71 39.71 0 00-4.03 3.58zM685.15 443.67l-4.75 3.18c-1-1.09-3.07-3.18-4.37-4.37v-.21c.76-.31 1.07-.85 1.32-2.31l3.37-19.49-.61-.54a3.18 3.18 0 00-1.93-1v-.22l4.76-3.22c1 1.09 3 3.1 4.36 4.42v.21c-.7.26-1 .74-1.29 2.15l-3.4 19.64c1.45 1.33 2 1.54 2.48 1.62zm-1.48-30.79l-1.36-2.12a80 80 0 007-5.53 25.63 25.63 0 011.25 4.31 75.25 75.25 0 01-6.89 3.34zM706.26 447.6c-1.23.79-3.28 2.19-4.76 3.16-1.12-1.24-3.39-3.56-4.35-4.5v-.2c.58-.22 1.06-.78 1.36-2.35l3.53-18.81c-.8-.9-1.59-1.59-2.32-2.33l-2.1 1.12-3.85 20.49c.53.64 1 1 1.53 1.64v.05c-1.46.86-3.18 1.94-4.48 2.84-1.34-1.5-2.77-3.12-3.63-4v-.21c.54-.28 1.07-.77 1.39-2.5l3.66-19.49a5.19 5.19 0 00-2.38-1.69l-.09-.12c1.78-1.13 3.14-2 4.71-3.18 1.42 1.63 3.05 3.34 4.1 4.4h.05l4.78-2.73c1.5 1.53 3.55 3.59 5.21 5.09v.21a2.34 2.34 0 00-1.28 1.92l-3.64 19.39a5.49 5.49 0 002.44 1.7zM722.33 458.85s-4 3.25-5.47 4.68a17.78 17.78 0 00-9.37-4.06 5.17 5.17 0 00-1 1.27c-.06-.23-.33-1.05-.41-1.45 1.49-1.42 4.22-3.57 7.69-6.17l-5.69-5.84.05-.21c.51-.11 1-.65 1.32-1.95l3.73-18.12a69 69 0 0010.16-3.92c2.11 2.12 4.57 4.36 6.23 5.79v.21a2.42 2.42 0 00-1.34 2l-3.83 18.32c-.58 2.76 1.37 4.63 1 6.35-.21 1.09-1.88 2.1-3.07 3.1zm-1.7.63c.53-3.91-2.46-4.42-2-8.89l-6.68 5.24c4.89 1.07 6.7 2.26 8.63 3.69zm-1.76-10.41l4-19.42c-1.07-1.09-2.43-2.4-3.76-3.6l-.17.07-4.3 20.72 2.92 3.21z"/>
  <path class="cls-7" d="M780.16 461.79a1.31 1.31 0 000-2.61 1.31 1.31 0 000 2.61z"/>
  <g clip-path="url(#clip-path)">
    <path class="cls-9" d="M755.77 832.81l-35-40.61-51.42 17.91 68.22-269.48 86.42 22.7-68.22 269.48z"/>
    <path class="cls-7" transform="rotate(13.79 705.355 699.807)" d="M703.46 574.48h3.53v250.31h-3.53z"/>
    <path class="cls-7" d="M733.35 577.67l-59.68 243.09 3.43.84 59.68-243.09-3.43-.84z"/>
    <path class="cls-7" transform="rotate(13.79 777.562 717.548)" d="M775.65 592.2h3.53v250.31h-3.53z"/>
    <path class="cls-7" d="M805.54 595.39l-59.68 243.09 3.43.85 59.68-243.1-3.43-.84z"/>
  </g>
  <path class="cls-2" d="M804.55 832.81l34.99-40.61 51.43 17.91-68.22-269.48-86.42 22.7 68.22 269.48z"/>
  <g clip-path="url(#clip-path-2)">
    <path class="cls-9" d="M804.55 832.81l34.99-40.61 51.43 17.91-68.22-269.48-86.42 22.7 68.22 269.48z"/>
    <path class="cls-7" transform="rotate(166.21 855.108 699.611)" d="M853.33 574.48h3.53v250.31h-3.53z"/>
    <path class="cls-7" d="M826.97 577.67l-3.43.84 59.68 243.09 3.43-.84-59.68-243.09z"/>
    <path class="cls-7" transform="rotate(166.21 782.915 717.333)" d="M781.13 592.2h3.53v250.31h-3.53z"/>
    <path class="cls-7" d="M754.77 595.39l-3.42.84 59.67 243.1 3.43-.85-59.68-243.09z"/>
  </g>
  <g clip-path="url(#clip-path-3)">
    <path class="cls-12" d="M895.13 756.1l-42.43-12.57-27.13 34.97-85.22-264.6 69.56-22.4 85.22 264.6z"/>
    <path class="cls-7" transform="rotate(-18.02 852.187 643.548)" d="M850.36 518.34h3.53v250.31h-3.53z"/>
    <path class="cls-7" transform="rotate(-18.02 794.994 662.15)" d="M793.17 536.95h3.53v250.31h-3.53z"/>
  </g>
  <g clip-path="url(#clip-path-4)">
    <path class="cls-12" d="M665.19 756.1l42.43-12.57 27.12 34.97 85.23-264.6-69.56-22.4-85.22 264.6z"/>
    <path class="cls-7" transform="rotate(-71.98 708.169 643.492)" d="M583.04 641.73h250.31v3.53H583.04z"/>
    <path class="cls-7" transform="rotate(-72 766.092 662.772)" d="M640.22 660.34h250.31v3.53H640.22z"/>
  </g>
  <path class="cls-9" d="M923.83 492.48c0 6.6-14.48 12.1-15.38 18.45-.93 6.52 11.41 15.85 9.6 22s-17.29 7.48-20 13.36 6.48 18.4 3 23.85-18.68 2.27-22.94 7.17 1.06 19.46-3.85 23.72-18.55-3.07-24 .46-4.42 19-10.36 21.68-16.9-8.17-23.22-6.31-9.57 16.92-16.08 17.85c-6.35.9-13.84-12.64-20.44-12.64s-14.09 13.54-20.44 12.64c-6.52-.93-9.91-16-16.09-17.85s-17.3 9-23.17 6.34-4.92-18.17-10.37-21.68-19.12 3.79-24-.46.41-18.8-3.86-23.72-19.4-1.69-22.93-7.17 5.68-17.91 3-23.85-18.13-7.07-20-13.36 10.53-15.51 9.6-22c-.91-6.35-15.39-11.85-15.39-18.45S651 480.37 651.87 474c.93-6.51-11.41-15.85-9.6-22s17.28-7.48 20-13.36-6.47-18.39-3-23.84 18.68-2.27 22.93-7.18-1.06-19.45 3.86-23.72 18.54 3.08 24-.45 4.43-19 10.37-21.68 16.88 8.18 23.17 6.34 9.57-16.92 16.09-17.85c6.35-.91 13.84 12.63 20.44 12.63s14.09-13.54 20.44-12.63c6.51.93 9.9 16 16.08 17.85s17.3-9 23.18-6.34 4.92 18.17 10.36 21.68 19.12-3.8 24 .46-.41 18.8 3.85 23.71 19.41 1.7 22.94 7.18-5.68 17.9-3 23.84 18.13 7.07 20 13.36-10.53 15.52-9.6 22c.97 6.37 15.45 11.87 15.45 18.48z"/>
  <circle class="cls-12" cx="780.16" cy="492.48" r="118.14"/>
  <path class="cls-7" d="M780.16 379.28a113.22 113.22 0 11-80 33.16 112.47 112.47 0 0180-33.16m0-4.95A118.15 118.15 0 10898.3 492.48a118.14 118.14 0 00-118.14-118.15z"/>
  <path class="cls-5" d="M778.83 490.25a38.32 38.32 0 00-5-16.31 31.81 31.81 0 00-10.53-11.13 30.36 30.36 0 00-12.88-4.67 90.14 90.14 0 00-17.19.19l-33.59 2.95 1 12 10.75-.94 4.11 46.94-10.75.94 1.05 12 35.8-3.22a88.51 88.51 0 0013.26-1.88 36.88 36.88 0 009.18-4 27.65 27.65 0 008.27-7.29 33.48 33.48 0 005.25-11.35 40 40 0 001.27-14.23zm-21 15.77a16.12 16.12 0 01-6.93 8q-4.53 2.51-12.58 3.21l-4.44.39-4.11-46.95 4.44-.39a31.7 31.7 0 0112.7 1.05 16 16 0 018.48 7.11 30.18 30.18 0 014.12 13.56c.49 5.66-.05 10.33-1.64 14zM860.43 484.71A35.52 35.52 0 00847 460.3c-7.52-5.91-17.51-8.59-29.89-7.14s-21.51 6.4-27.44 13.92a35.64 35.64 0 00-7.32 26.79A36 36 0 00795.44 518c7.4 6.08 17.48 8.87 30.18 7.37C838 523.92 847.07 519 853 511.56a35.5 35.5 0 007.43-26.85zm-23.32 20.22a18.32 18.32 0 01-13 7.65A17.86 17.86 0 01809.6 508c-4.09-3.67-6.69-9.11-7.49-16-.93-7.94.46-14 3.59-18.37a18.18 18.18 0 0112.95-7.63 17.88 17.88 0 0114.78 4.77c4 3.72 6.53 9.12 7.34 16.06.91 7.7-.5 13.73-3.66 18.1z"/>
</svg>
