<svg xmlns="http://www.w3.org/2000/svg" viewBox="0 0 1080 1080">
  <defs>
    <clipPath id="prefix__clip-path">
      <path fill="none" d="M495.24 414.01h115.83v145.12H495.24z"/>
    </clipPath>
    <style>
      .prefix__cls-2{fill:#332ba8}.prefix__cls-7{fill:#963ac7}.prefix__cls-9{fill:#ff4c22}.prefix__cls-10{fill:#facc2f}
    </style>
  </defs>
  <circle class="prefix__cls-2" cx="540" cy="540" r="540"/>
  <path d="M540 57a483.15 483.15 0 01188 928.07A483.14 483.14 0 01352 94.93 479.94 479.94 0 01540 57m0-57C241.77 0 0 241.77 0 540s241.77 540 540 540 540-241.77 540-540S838.23 0 540 0z" fill="#141491"/>
  <path transform="rotate(180 524.93 556.025)" fill="#e4e4ed" d="M288.63 246.01h472.6v620.02h-472.6z"/>
  <path transform="rotate(180 555.07 523.975)" fill="#fff" d="M318.77 213.97h472.6v620.02h-472.6z"/>
  <path class="prefix__cls-2" d="M366.53 421.28h377.09v137.85H366.53z"/>
  <rect x="397.34" y="325.78" width="315.46" height="24.09" rx="11.85"/>
  <rect x="397.34" y="285.14" width="315.46" height="24.09" rx="11.85"/>
  <rect x="397.34" y="691.33" width="315.46" height="15.76" rx="7.75"/>
  <rect x="397.34" y="727.54" width="315.46" height="15.76" rx="7.75"/>
  <rect x="397.34" y="655.12" width="315.46" height="15.76" rx="7.75"/>
  <path stroke="#facc2f" stroke-miterlimit="10" stroke-width="6" fill="none" d="M366.53 384.61h377.08"/>
  <rect x="531.35" y="592.98" width="94.66" height="12.61" rx="6.2"/>
  <circle class="prefix__cls-7" cx="500.53" cy="599.28" r="19.89"/>
  <path class="prefix__cls-2" d="M597.21 496.05l-2.03-4.76-.81-6.51 10.32-10.6-2.43-5.97 1.72-7.27-4.96-2.85-3.12 1.41-6.59-.3-6.48 2.84-5.67.7-3.34 6.89-.91 4.55 3.75 16.19-1.58 5.73-2.17.88v62.15h25.97l-.87-62.53-.8-.55zM564 443.31l-5.77 12.05-2.83 1.51-.4-2.12 1.29-18.75-2.12-4.15-2.74 2.32v10l-2 7.29s-4.76-21.36-5-21.76a9.27 9.27 0 00-1.92-1.42l-1.42 1.82 2 21.66-2 1.22-8.7-20.65h-2.53l3.64 12.76 3.34 19.43-1 4.45-10.53-6.58s-3.14-1-3.54-1.11-3.24 1.62-3.24 1.62l12.55 12.7 8.17 7.86.09 2.93h-3.43v72.69h24.54v-72l-4.81-.07 1.66-3.18.61-3.84v-.07l.43.07 2.73-18.32 3.74-12.45 1.12-5.56z"/>
  <path class="prefix__cls-2" d="M521.73 502.05l-2-7.26 1.47-11.55.53-6.91h-2.28l-4.73 13.39-1.65-2.31-3.41-12.06-1.83.83.54 13.89-3.19.38-.73 1.95-3.14.81-.84 4.6 1.49 6.41.53 4.99 1.81 6.06-1.06.19-.89 43.67h18.33L520.3 540v-25.11l-3.2-.52 1.44-3.73 3.19-8.59z"/>
  <g clip-path="url(#prefix__clip-path)">
    <path class="prefix__cls-9" d="M596 497.39a1.21 1.21 0 01-1.2-1.08c-.4-3.72-.88-8.48-.84-10.08.06-2.19 3.32-5.64 7.58-9.92.76-.76 1.42-1.42 1.83-1.87.77-.84.26-1.94-1-3.81a11.05 11.05 0 01-.79-1.3 4.74 4.74 0 01.1-3c.55-2.37.82-4.3-1-5.77-2.69-2.16-3.64-1.24-4.83-.07l-1 .91-.8-.52c-3.32-2.19-4.68-.73-5.77.44a4.87 4.87 0 01-.61.6l-.51.41-.62-.2c-1.76-.57-2.88.1-4.06.81a8.63 8.63 0 01-1.78.87l-.26.07h-.26c-2.88-.42-3.31.57-4.1 2.36-.11.24-.21.49-.33.73a10.7 10.7 0 00-1.27 4.45 10.21 10.21 0 01.06 1.82 21.63 21.63 0 00.65 6.72c1.12 3.55 2 7.93 2 8.12a45.51 45.51 0 01.25 8.13 1.22 1.22 0 01-1.23 1.18 1.19 1.19 0 01-1.18-1.23 44.77 44.77 0 00-.21-7.61c0-.06-.87-4.44-2-7.86a24.25 24.25 0 01-.76-7.49 12.93 12.93 0 000-1.31c-.3-1.48.6-4.13 1.45-5.94.11-.23.2-.45.3-.68.81-1.84 1.9-4.35 6.36-3.82a10.76 10.76 0 001-.55 6.84 6.84 0 015.32-1.23c1-1.09 3.54-3.72 8-1.28 1.31-1.21 3.7-2.81 7.6.32 3.15 2.53 2.34 6.07 1.85 8.19a7.18 7.18 0 00-.25 1.52c.09.17.33.53.59.91 1 1.54 3 4.41.8 6.79-.45.49-1.13 1.17-1.91 2-1.87 1.88-6.84 6.86-6.88 8.28 0 1.13.27 4.6.83 9.75a1.21 1.21 0 01-1.07 1.33z"/>
    <path class="prefix__cls-9" d="M579.89 474.54a3 3 0 01-2.83-1.61 12.94 12.94 0 01-1-4.38 1.21 1.21 0 011.13-1.28 1.2 1.2 0 011.28 1.12 10.77 10.77 0 00.76 3.41c.35.66 1.82.19 2.67-.15.19-.07.06-.74 0-.84v-.2l-.84-5.19c-.19-1.13-.63-1.55-.83-1.61h.08l.29-2.39c.23 0 2.29.36 2.84 3.59l.83 5.11a2.9 2.9 0 01-1.45 3.76 7.62 7.62 0 01-2.93.66zm17.42-1.03a1.2 1.2 0 01-1.19-1 2.88 2.88 0 00-.67-1 9.22 9.22 0 01-7.7-1.88 4.39 4.39 0 01-1.65-3.73c.3-2.49 3.53-2.93 6.65-3.35a18.19 18.19 0 003.23-.62 4.45 4.45 0 015.43 2l2.53 4.72a1.2 1.2 0 11-2.12 1.14l-2.53-4.7a2 2 0 00-2.48-.92 20.47 20.47 0 01-3.73.74c-1.24.17-4.51.61-4.59 1.26a2.22 2.22 0 00.87 1.64 7 7 0 006.21 1.19l.59-.14.47.4a5.85 5.85 0 011.87 2.87 1.21 1.21 0 01-1 1.38z"/>
    <path class="prefix__cls-9" d="M595.17 464.55h-.07a1.21 1.21 0 01-1.14-1.26 11.31 11.31 0 00-.37-3.1 1.21 1.21 0 01.82-1.5 1.19 1.19 0 011.49.82 12.85 12.85 0 01.47 3.91 1.21 1.21 0 01-1.2 1.13zm-6.51 1.25h-.09a1.21 1.21 0 01-1.12-1.28c.14-1.93-1-2.45-1.17-2.5a1.23 1.23 0 01-.71-1.55 1.2 1.2 0 011.52-.72 4.66 4.66 0 012.77 4.93 1.2 1.2 0 01-1.2 1.12zM586 475c-2.79 0-3.49-1.69-4-3.58a1.21 1.21 0 012.33-.62c.43 1.61.52 1.95 2.33 1.75a1.85 1.85 0 001.25-.5.62.62 0 00.12-.31v-.08l-.21-2.54a1.2 1.2 0 112.4-.2l.21 2.51a2.91 2.91 0 01-.59 2.09 4.08 4.08 0 01-2.9 1.42 8 8 0 01-.94.06z"/>
    <path class="prefix__cls-9" d="M591.33 473.05h-.12c-.5 0-2-.18-2.12-.19a1.21 1.21 0 01.26-2.4c.42 0 1.6.16 2 .18a1.78 1.78 0 001.39-.88 1.21 1.21 0 011.67-.35 1.2 1.2 0 01.35 1.67 4.16 4.16 0 01-3.43 1.97zM575.29 708.8a3.69 3.69 0 01-3.69-3.7V496.78a1.21 1.21 0 011.17-1.21l25.31-.65a1.17 1.17 0 01.87.34 1.19 1.19 0 01.37.87v206.49a3.69 3.69 0 01-3.25 3.66l-20.33 2.49zM574 498v207.1a1.28 1.28 0 001.44 1.27l20.33-2.48a1.28 1.28 0 001.12-1.27V497.36z"/>
    <path class="prefix__cls-7" d="M555.66 487.07a17.49 17.49 0 01.6-4.82c1.46-5.16 2.22-12.49 2.72-17.33.25-2.49.44-4.29.64-5.24a49 49 0 011.63-4.73c1-2.52 3-7.91 3.26-10.28a56.56 56.56 0 00-3.74 7.15c-2.35 5.06-3.33 7.16-5 6.44-2.23-1-2.93-3.55-2.1-7.71 1-4.81 1.17-15.56-.14-17.46-.95 1.62-1.47 8.45-1.76 12.23-.49 6.35-.71 8-1.57 8.74a1.37 1.37 0 01-1.06.31c-1.4-.17-1.73-1.5-3.13-9.67-.77-4.5-2.35-13.64-3.77-15.25-.78 1.59.21 8.78.76 12.74.94 6.81 1.38 10.43.28 11.87a1.78 1.78 0 01-1.18.71c-2.23.29-3.55-3.08-6.12-10.12-1.26-3.42-3.81-10.4-5.26-11.12-.37 1.72 1.51 8.39 2.91 13.32 3.16 11.15 5.07 18.68 3 21.71a3 3 0 01-2.32 1.31H534l-.29-.13a24.87 24.87 0 01-6.63-4.7c-1.31-1.2-2.34-2.15-3.43-2.37a9 9 0 00-4.26.17l2 1.77c2.89 2.5 6.85 5.94 8.24 7.91a34.73 34.73 0 004.24 4c3.4 2.94 6.91 6 7.65 8.44a9.58 9.58 0 01.23 1l-2.37.47a9.33 9.33 0 00-.17-.73c-.54-1.78-4.22-5-6.92-7.31a33.74 33.74 0 01-4.63-4.46c-1.22-1.73-5.21-5.19-7.85-7.48-.85-.75-1.6-1.39-2.11-1.86a2.18 2.18 0 01-.77-2.71c1-2 5.36-1.92 7.18-1.55s3.07 1.55 4.59 3a22.9 22.9 0 005.67 4.12.64.64 0 00.27-.23c1.61-2.32-1.23-12.35-3.31-19.67-3-10.76-4.27-15.55-1.43-16.36 3.37-1 5.68 5.36 8.36 12.68a59.64 59.64 0 003.28 7.9 68.35 68.35 0 00-.91-9.21c-1.25-9-1.87-14.64 1-15.53a2.06 2.06 0 011.72.22c2.25 1.37 3.48 7.65 5.1 17.08.22 1.31.47 2.76.71 4 .1-1 .18-2.17.26-3.2.78-10.18 1.41-14.63 4.1-14.63a2.27 2.27 0 011.8.9c2.6 3.18 1.39 16.54.77 19.61-.27 1.37-.56 3.58.17 4.59.62-1 1.62-3.15 2.4-4.8 2.94-6.33 4.72-9.86 7-9.11a1.87 1.87 0 011.1 1c.91 1.93-.73 6.65-3.15 13.11-.71 1.88-1.37 3.66-1.53 4.38s-.37 2.76-.6 5c-.51 4.94-1.28 12.39-2.79 17.75a14.93 14.93 0 00-.51 4.15z"/>
    <path class="prefix__cls-7" d="M560.52 743h-24.68a1.21 1.21 0 01-1.2-1.21V486a1.22 1.22 0 01.37-.88 1.27 1.27 0 01.9-.33l24.68 1.3a1.21 1.21 0 011.14 1.21v254.5a1.21 1.21 0 01-1.21 1.2zm-23.47-2.41h22.27V488.4l-22.27-1.17z"/>
    <path class="prefix__cls-10" d="M504.43 516.5a1.2 1.2 0 01-1.19-1l-.25-1.78a10.43 10.43 0 00-.79-2.8 17.51 17.51 0 01-1.29-4.64l-1.09-8.4a1.21 1.21 0 012.39-.31l1.09 8.39a14.89 14.89 0 001.11 4 12.77 12.77 0 011 3.44l.25 1.77a1.21 1.21 0 01-1 1.36zm12.27-.65a1.13 1.13 0 01-.5-.11 1.21 1.21 0 01-.6-1.59l4.62-10.28a3.92 3.92 0 00.27-2.48l-.79-3.68a.66.66 0 00-.49-.49l-9.6-2A2.41 2.41 0 00510 497c.72 1 2.34 1.69 4.67 2a2.1 2.1 0 011.78 2.29l-.28 3.05a1.22 1.22 0 01-1.32 1.09 1.2 1.2 0 01-1.08-1.32l.26-2.77c-2.88-.48-4.89-1.47-6-3a4.84 4.84 0 01-.84-3.66 2.31 2.31 0 011-1.54 2.41 2.41 0 011.83-.36l9.66 2.06a3 3 0 012.34 2.33l.8 3.68a6.4 6.4 0 01-.43 4l-4.62 10.28a1.2 1.2 0 01-1.07.72z"/>
    <path class="prefix__cls-10" d="M508.92 503.59c-2.57 0-3.9-3.32-5-6.77-1.37-4.17-1.54-6.79 1.65-7.86a4.15 4.15 0 014.23 1 1.21 1.21 0 01-1.8 1.64 1.73 1.73 0 00-1.74-.35c-.85.29-1.53.51-.12 4.82 1.17 3.55 2.17 5.25 3 5.08.29-.07.36-.18.39-.24a2.22 2.22 0 000-1.44 1.2 1.2 0 01.81-1.5 1.19 1.19 0 011.49.8 4.6 4.6 0 01-.24 3.35 2.88 2.88 0 01-1.95 1.38 3.33 3.33 0 01-.72.09z"/>
    <path class="prefix__cls-10" d="M505 504.74c-2 0-3.6-2-4.89-5.91-1-2.91-1.62-5.84 1.52-6.88a3.23 3.23 0 013.78 1.49 1.22 1.22 0 01-.43 1.65 1.2 1.2 0 01-1.64-.42.85.85 0 00-.95-.43c-.63.21-1.13.37 0 3.84s2.28 4.34 2.76 4.23a.26.26 0 00.18-.12 2.85 2.85 0 00.07-1.61 1.21 1.21 0 012.35-.55 5 5 0 01-.38 3.44 2.61 2.61 0 01-1.69 1.19 3.25 3.25 0 01-.68.08zm15.19-7.33a1.23 1.23 0 01-1.09-.67c-.61-1.21-.23-3.87.56-8.86.51-3.24 1.44-9.12.88-10.62a3.42 3.42 0 00-.55 1.3c-.1.44-2.26 10.07-3.24 12.64-.29.77-.9 2.35-2.19 2.35a1.61 1.61 0 01-1.46-1.12l-.59-1.74c-.87-2.88-2.87-12.24-2.95-12.64a3.46 3.46 0 00-.53-1.36c-.58 1.49.22 7.39.66 10.64.34 2.5.66 4.86.7 6.49a1.2 1.2 0 01-1.17 1.24 1.21 1.21 0 01-1.21-1.17c0-1.5-.35-3.8-.68-6.24-.92-6.75-1.38-11 0-12.67a2 2 0 011.42-.79c1.84-.2 3 1.58 3.26 3.41 0 0 1.93 9.09 2.81 12.12 1-3.14 2.89-11.56 2.91-11.65.34-1.79 1.51-3.52 3.33-3.3a2 2 0 011.39.82c1.3 1.72.75 5.93-.31 12.67-.44 2.8-1 6.64-.78 7.42a1.2 1.2 0 01-.53 1.61 1.32 1.32 0 01-.64.12zm.08 204.36h-18.12a1.21 1.21 0 01-1.21-1.21V515.41a1.2 1.2 0 011.14-1.2l18.13-1a1.18 1.18 0 01.89.33 1.23 1.23 0 01.38.88v186.1a1.21 1.21 0 01-1.21 1.25zm-16.92-2.41h15.72V515.73l-15.72.82z"/>
  </g>
  <path d="M752.66 291.8a1.15 1.15 0 00.08 1.78c3.78 2.82 15.91 23 23.59 45.53 7.69-22.56 19.82-42.71 23.6-45.53a1.15 1.15 0 00.08-1.78c-18.78-17-23.68-45.79-23.68-45.79s-4.89 28.78-23.67 45.79zm56.98 28.79a.49.49 0 000 .77c1.65 1.24 6.94 10 10.29 19.87 3.35-9.85 8.65-18.63 10.3-19.87a.5.5 0 000-.77c-8.19-7.42-10.33-20-10.33-20s-2.07 12.58-10.26 20zM347.29 616.08a2 2 0 01-.13 3c-6.41 4.78-27 38.9-40 77.1-13-38.2-33.54-72.32-39.95-77.1a1.94 1.94 0 01-.13-3c31.8-28.79 40.08-77.52 40.08-77.52s8.33 48.73 40.13 77.52zm-96.48 48.76a.85.85 0 01-.05 1.31c-2.8 2.09-11.76 17-17.43 33.64-5.68-16.67-14.64-31.55-17.43-33.64a.84.84 0 01-.06-1.31c13.87-12.57 17.49-33.84 17.49-33.84s3.61 21.27 17.48 33.84z" fill="#f4c608"/>
</svg>
