<svg xmlns="http://www.w3.org/2000/svg" viewBox="0 0 1080 1080">
  <defs>
    <clipPath id="clip-path">
      <path class="cls-1" d="M0 0h1080v1080H0z"/>
    </clipPath>
    <clipPath id="clip-path-3">
      <circle class="cls-1" cx="540" cy="540" r="540"/>
    </clipPath>
    <style>
      .cls-1{fill:none}.cls-2{clip-path:url(#clip-path)}.cls-5{fill:#06c7af}.cls-6{fill:#19ddd3}.cls-7{fill:#332ba8}.cls-8{fill:#141491}
    </style>
  </defs>
  <g class="cls-2">
    <path d="M1080 540c0 298.23-241.77 540-540 540S0 838.23 0 540 241.77 0 540 0s540 241.77 540 540" fill="#2fe2d8"/>
    <g clip-path="url(#clip-path-3)">
      <path class="cls-5" transform="rotate(-60.43 868.722 558.813)" d="M678.73 467.26h379.98v183.11H678.73z"/>
      <path class="cls-6" d="M879.47 401.21a28.47 28.47 0 0032.91-8.61L989 436.07a28.48 28.48 0 009.49 32.67l-52.78 93a63.1 63.1 0 01.31 8.46l58.41-102.94-.66-.38a24 24 0 01-9-32.67L911 386.71a24 24 0 01-32.67 9l-.66-.37-58.4 102.96a65.65 65.65 0 017.42-4.07zM742.69 683.39l83.74 47.51a24 24 0 0132.67-9l.66.38 58.41-103a62.64 62.64 0 01-7.42 4.07l-52.78 93a28.47 28.47 0 00-32.91 8.6l-76.62-43.47a28.47 28.47 0 00-9.44-32.61l52.78-93a63 63 0 01-.31-8.46L733 650.34l.66.37a24 24 0 019 32.68"/>
      <path class="cls-6" d="M900.21 503.3c26.28 14.92 41.57 40.9 41.39 65.72l4.11-7.26c-2.49-24-18.09-48-43.31-62.32s-53.78-15.4-75.71-5.21l-4.12 7.26c21.22-12.89 51.36-13.1 77.64 1.81M837.23 614.31c-26.28-14.91-41.57-40.89-41.39-65.72l-4.11 7.26c2.49 24 18.09 48 43.31 62.33s53.79 15.4 75.71 5.2l4.12-7.25c-21.21 12.89-51.36 13.09-77.64-1.82M803 521.51a54.29 54.29 0 0110.71-13.38l5.58-9.83a59.14 59.14 0 00-27.85 49.09l5.57-9.82a54.35 54.35 0 016-16.06M934.46 596.11a54.47 54.47 0 01-10.71 13.38l-5.58 9.82A59.14 59.14 0 00946 570.22l-5.57 9.83a54.17 54.17 0 01-6 16.06"/>
      <path class="cls-6" d="M822.57 501.49l4.12-7.26a65.65 65.65 0 00-7.42 4.07l-5.58 9.83a57.21 57.21 0 018.88-6.64M795.84 548.59a57.33 57.33 0 011.15-11l-5.57 9.82a63 63 0 00.31 8.46zM941.6 569a57.35 57.35 0 01-1.15 11l5.57-9.83a63.1 63.1 0 00-.31-8.46zM914.87 616.13l-4.12 7.25a62.64 62.64 0 007.42-4.07l5.58-9.82a57.21 57.21 0 01-8.88 6.64M1007.64 452.5a4.77 4.77 0 116.5-1.79 4.77 4.77 0 01-6.5 1.79M889 385.16a4.76 4.76 0 116.5-1.79 4.77 4.77 0 01-6.5 1.79M844 740.88a4.77 4.77 0 116.5-1.79 4.77 4.77 0 01-6.5 1.79M725.33 673.54a4.77 4.77 0 116.5-1.8 4.77 4.77 0 01-6.5 1.8M842.88 540.86a60.72 60.72 0 0122.82-20.34l7.71 15.55c-7.45 3.87-12.9 8.45-16.65 13.33l6.88 3.9c11.17-12.94 20.06-18.19 30.91-12l.16.1c10.27 5.82 13.63 17.47 6 32.72l4.72 2.68-4.89 8.61-5-2.82a48.48 48.48 0 01-17.75 15.66l-8.07-15.09a36.73 36.73 0 0011.85-9.16l-6.79-3.85c-10.58 12.28-19.35 17.7-30.62 11.31l-.16-.09c-10.94-6.2-12.47-18.35-6.09-31.92l-8.12-4.61 4.89-8.61zm43.85 25.76c2.22-4.11 1.74-6.35.09-7.29l-.17-.09c-1.74-1-3.44-.31-6.63 3.57zm-34.83-2.68l.17.09c1.74 1 3.26.43 6.4-3.37l-6.71-3.81c-1.91 3.95-1.59 6.1.14 7.09"/>
      <path class="cls-6" d="M829.41 544.6l4.88-8.61a.46.46 0 01.61-.17l7.84 4.45a61.32 61.32 0 0122.76-20.15.46.46 0 01.6.21l7.71 15.54a.44.44 0 01-.19.59 49.33 49.33 0 00-16.19 12.8l6.11 3.47c10.33-11.9 19.62-18.43 31.23-11.85l.16.1c11.05 6.27 13.4 18.56 6.33 32.93l4.35 2.47a.45.45 0 01.17.61l-4.89 8.61a.45.45 0 01-.61.17l-4.62-2.62A48.82 48.82 0 01878 598.61a.45.45 0 01-.6-.18l-8.08-15.1a.44.44 0 01.21-.61 35.91 35.91 0 0011.35-8.62l-6-3.41c-10 11.56-19.13 17.84-30.94 11.14l-.16-.09c-10.57-6-13-18-6.44-32.13l-7.76-4.4a.44.44 0 01-.17-.61m5.44-7.78l-4.45 7.84 7.73 4.38a.45.45 0 01.18.58c-6.61 14-4.45 25.46 5.91 31.34l.16.1c11.41 6.47 20 .5 30.06-11.22a.46.46 0 01.56-.1l6.79 3.85a.45.45 0 01.22.32.44.44 0 01-.11.36 37.4 37.4 0 01-11.58 9.06l7.68 14.29a48.14 48.14 0 0017.2-15.31.43.43 0 01.58-.13l4.59 2.6 4.44-7.84-4.33-2.46a.45.45 0 01-.18-.59c7.07-14.06 4.91-26.07-5.78-32.14l-.16-.09c-9.69-5.5-18.2-2.15-30.36 11.93a.43.43 0 01-.55.09l-6.88-3.9a.41.41 0 01-.21-.3.43.43 0 01.08-.36 49.51 49.51 0 0116.41-13.24l-7.32-14.76a60.42 60.42 0 00-22.25 20 .46.46 0 01-.59.14zm16.53 19.81a.44.44 0 01.6-.16l6.71 3.8a.44.44 0 01.22.31.46.46 0 01-.09.36c-3.13 3.78-4.89 4.66-7 3.48l-.17-.1c-2.09-1.19-2.2-3.77-.32-7.66m6.41 4.15l-5.74-3.34c-2.17 4.76-.42 5.75.16 6.08l.17.1c1.36.77 2.61.53 5.5-2.87m21.85 1.81v-.06c3.17-3.86 5.12-4.86 7.19-3.68l.17.09c1.24.71 2.91 2.67.08 7.89a.41.41 0 01-.26.22.47.47 0 01-.35 0l-6.7-3.81a.44.44 0 01-.22-.31.45.45 0 010-.3m6.91 3.42c1.62-3.16 1.64-5.39.05-6.29l-.17-.1c-1.34-.76-2.72-.49-5.72 3.07z"/>
      <path class="cls-5" transform="rotate(-68.14 307.162 240.184)" d="M215.6 50.19h183.1v379.98H215.6z"/>
      <path class="cls-6" d="M464.77 229.69a28.48 28.48 0 0012.94 31.46l-32.79 81.75a28.48 28.48 0 00-31.1 13.8l-99.27-39.82a64.36 64.36 0 01-8.34 1.44l109.86 44.07.28-.71a24 24 0 0131.17-13.32L483.36 259A24 24 0 01470 227.83l.29-.7-109.82-44.07a65 65 0 015 6.81zM166.79 132l-35.85 89.36a24 24 0 0113.32 31.17l-.28.7 109.85 44.07a65 65 0 01-5-6.81l-99.26-39.82a28.47 28.47 0 00-12.95-31.46l32.8-81.75a28.49 28.49 0 0031.1-13.8l99.26 39.82a64.65 64.65 0 018.34-1.44L198.24 118l-.28.71A24 24 0 01166.79 132"/>
      <path class="cls-6" d="M366.38 263.94c-11.25 28.05-34.94 46.68-59.57 49.83l7.74 3.11c23.5-5.7 45.16-24.37 55.95-51.28s8.05-55.37-5-75.73l-7.74-3.11c15.62 19.29 19.87 49.14 8.62 77.18M247.93 216.43c11.25-28.05 34.94-46.69 59.56-49.83l-7.74-3.11c-23.5 5.7-45.16 24.37-55.95 51.28s-8 55.37 5 75.73l7.75 3.11c-15.63-19.29-19.87-49.14-8.62-77.18M335.29 170a54.38 54.38 0 0114.7 8.82l10.48 4.21a59.11 59.11 0 00-52.38-21l10.48 4.2a54.49 54.49 0 0116.72 3.77M279 310.34a54.1 54.1 0 01-14.69-8.83l-10.49-4.2a59.2 59.2 0 0052.38 21l-10.48-4.2a54.62 54.62 0 01-16.72-3.77"/>
      <path class="cls-6" d="M357.76 186.76l7.74 3.11a65 65 0 00-5-6.81l-10.5-4.21a58.1 58.1 0 017.77 7.91M307.49 166.6a57.88 57.88 0 0111.08-.35l-10.48-4.2a64.65 64.65 0 00-8.34 1.44zM306.81 313.77a57.86 57.86 0 01-11.08.35l10.48 4.2a64.36 64.36 0 008.34-1.44zM256.55 293.61l-7.75-3.11a65 65 0 005 6.81l10.49 4.2a56.34 56.34 0 01-7.77-7.9M431.14 363.58a4.77 4.77 0 112.65 6.2 4.77 4.77 0 01-2.65-6.2M481.94 236.92a4.77 4.77 0 112.65 6.21 4.77 4.77 0 01-2.65-6.21M123.41 240.14a4.77 4.77 0 112.65 6.2 4.77 4.77 0 01-2.65-6.2M174.22 113.48a4.77 4.77 0 112.65 6.2 4.77 4.77 0 01-2.65-6.2M321.47 212.17a60.72 60.72 0 0123.22 19.88l-14.37 9.73a49.35 49.35 0 00-15.44-14.71l-2.95 7.34c14.32 9.33 20.71 17.44 16.07 29l-.07.18c-4.4 11-15.49 15.85-31.63 10.3l-2 5-9.2-3.68 2.13-5.31a48.43 48.43 0 01-17.89-15.49l13.87-10A36.57 36.57 0 00293.84 255l2.91-7.24c-13.59-8.84-20.14-16.81-15.32-28.82l.07-.18c4.68-11.67 16.51-14.82 30.81-10.32l3.48-8.66 9.19 3.69zm-19.64 46.91c4.37 1.65 6.52.87 7.23-.89l.07-.18c.75-1.86-.15-3.45-4.43-6.09zm-2-34.87l-.07.17c-.74 1.86 0 3.29 4.2 5.9l2.88-7.16c-4.18-1.37-6.26-.77-7 1.09"/>
      <path class="cls-6" d="M316 199.32l9.19 3.69a.45.45 0 01.25.58L322 212a61.16 61.16 0 0123 19.85.44.44 0 01-.12.62l-14.37 9.73a.45.45 0 01-.51-.2 49.31 49.31 0 00-14.85-14.33l-2.62 6.52c13.18 8.65 20.9 17 15.93 29.36l-.07.17c-4.73 11.8-16.6 15.78-31.79 10.69l-1.86 4.65a.43.43 0 01-.58.24l-9.19-3.68a.45.45 0 01-.25-.58l2-4.93a48.85 48.85 0 01-17.72-15.4.45.45 0 01.1-.62l13.88-10a.41.41 0 01.34-.07.42.42 0 01.29.19 35.94 35.94 0 0010.07 10.1l2.57-6.4c-12.85-8.4-20.25-16.6-15.25-29.19l.08-.18c4.52-11.27 16.08-15.25 31-10.69l3.32-8.28a.45.45 0 01.58-.25m8.45 4.35l-8.43-3.36-3.31 8.25a.43.43 0 01-.54.26c-14.8-4.67-25.83-1-30.27 10.05l-.07.18C277 231.22 284 238.9 297 247.33a.44.44 0 01.17.54l-2.91 7.25a.45.45 0 01-.28.26.41.41 0 01-.37-.06 37.4 37.4 0 01-10.53-10.26l-13.14 9.49a48.12 48.12 0 0017.49 15 .44.44 0 01.2.56l-2 4.89 8.37 3.35 1.85-4.62a.46.46 0 01.56-.26c14.88 5.12 26.5 1.37 31.07-10l.07-.17c4.15-10.34-.31-18.32-15.89-28.48a.44.44 0 01-.17-.54l2.94-7.34a.44.44 0 01.27-.25.48.48 0 01.37 0 49.71 49.71 0 0115.33 14.49l13.64-9.24a60.48 60.48 0 00-22.8-19.36.44.44 0 01-.21-.57zm-17.42 19a.43.43 0 01.24.22.47.47 0 010 .35l-2.87 7.16a.43.43 0 01-.28.26.48.48 0 01-.37 0c-4.17-2.6-5.27-4.22-4.38-6.44l.07-.18c.9-2.24 3.44-2.69 7.55-1.34m-3.25 6.91l2.49-6.22c-5-1.52-5.75.35-6 1l-.07.18c-.58 1.45-.18 2.66 3.58 5.07m1.14 21.89h.06c4.25 2.63 5.5 4.42 4.62 6.63l-.08.18c-.53 1.33-2.25 3.24-7.8 1.15a.42.42 0 01-.25-.24.4.4 0 010-.34l2.87-7.16a.46.46 0 01.27-.26.47.47 0 01.31 0m-2.46 7.31c3.35 1.18 5.56.9 6.24-.8l.07-.18c.57-1.43.12-2.76-3.8-5.26z"/>
      <path class="cls-5" transform="rotate(-68.14 616.03 926.194)" d="M549.96 789.15h132.07v274.07H549.96z"/>
      <path class="cls-6" d="M729.68 918.61A20.51 20.51 0 00739 941.3l-23.66 59a20.55 20.55 0 00-22.43 10l-71.6-28.72a47.82 47.82 0 01-6 1l79.23 31.78.2-.5a17.29 17.29 0 0122.49-9.61l25.85-64.45a17.3 17.3 0 01-9.61-22.49l.21-.5L654.45 885a46.09 46.09 0 013.63 4.91zM514.76 848.16l-25.86 64.45a17.29 17.29 0 019.61 22.48l-.2.51 79.23 31.79a47.13 47.13 0 01-3.63-4.91l-71.59-28.72a20.56 20.56 0 00-9.34-22.7l23.65-59a20.55 20.55 0 0022.43-10l71.6 28.72a47.82 47.82 0 016-1L537.44 838l-.2.51a17.29 17.29 0 01-22.48 9.61"/>
      <path class="cls-6" d="M658.71 943.32c-8.11 20.23-25.2 33.67-43 35.94l5.58 2.24c16.95-4.11 32.57-17.58 40.36-37s5.8-39.93-3.61-54.62l-5.58-2.24c11.27 13.92 14.33 35.44 6.21 55.67M573.28 909.05c8.11-20.23 25.2-33.67 43-35.94l-5.58-2.24c-16.95 4.11-32.57 17.58-40.36 37s-5.8 39.94 3.61 54.63l5.58 2.24c-11.27-13.92-14.33-35.45-6.21-55.67M636.29 875.58a39.25 39.25 0 0110.6 6.37l7.56 3a42.65 42.65 0 00-37.78-15.15l7.56 3a39.27 39.27 0 0112.06 2.72M595.7 976.78a39.12 39.12 0 01-10.6-6.36l-7.56-3a42.65 42.65 0 0037.78 15.15l-7.56-3a39 39 0 01-12.06-2.73"/>
      <path class="cls-6" d="M652.5 887.65l5.58 2.24a46.09 46.09 0 00-3.63-4.91l-7.56-3a41.41 41.41 0 015.61 5.7M616.24 873.11a41.08 41.08 0 018-.25l-7.56-3a46.07 46.07 0 00-6 1zM615.75 979.26a41.88 41.88 0 01-8 .25l7.56 3a47.82 47.82 0 006-1zM579.49 964.72l-5.58-2.24a47.13 47.13 0 003.63 4.91l7.56 3a41.41 41.41 0 01-5.61-5.7M705.42 1015.19a3.44 3.44 0 111.91 4.47 3.43 3.43 0 01-1.91-4.47M742.07 923.83a3.44 3.44 0 111.91 4.48 3.43 3.43 0 01-1.91-4.48M483.47 926.15a3.44 3.44 0 111.91 4.48 3.44 3.44 0 01-1.91-4.48M520.12 834.8a3.44 3.44 0 111.91 4.47 3.43 3.43 0 01-1.91-4.47M626.32 906a43.78 43.78 0 0116.75 14.34l-10.37 7a35.56 35.56 0 00-11.13-10.62l-2.13 5.3c10.33 6.73 14.94 12.58 11.56 20.98v.12c-3.17 7.91-11.17 11.43-22.81 7.43l-1.46 3.63-6.63-2.66 1.53-3.82a34.89 34.89 0 01-12.9-11.18l10-7.23a26.46 26.46 0 007.68 7.6l2.1-5.23c-9.8-6.37-14.53-12.12-11-20.79v-.13c3.38-8.41 11.91-10.68 22.23-7.43l2.5-6.25 6.63 2.66zm-14.16 33.83c3.15 1.19 4.7.63 5.21-.64v-.13c.54-1.34-.11-2.49-3.19-4.39zm-1.46-25.15l-.05.13c-.54 1.34 0 2.37 3 4.25l2.07-5.16c-3-1-4.51-.56-5 .78"/>
      <path class="cls-6" d="M622.34 896.71l6.63 2.66a.32.32 0 01.18.42l-2.42 6a44.09 44.09 0 0116.6 14.32.32.32 0 01-.08.44l-10.37 7a.32.32 0 01-.44-.08 35.4 35.4 0 00-10.72-10.33l-1.88 4.7c9.5 6.23 15.07 12.24 11.49 21.18l-.05.12c-3.42 8.51-12 11.38-22.93 7.71l-1.35 3.4a.32.32 0 01-.42.18l-6.58-2.66a.33.33 0 01-.18-.42l1.43-3.55a35.34 35.34 0 01-12.77-11.14.32.32 0 01.08-.44l10-7.24a.32.32 0 01.25-.05.28.28 0 01.21.14 25.9 25.9 0 007.26 7.28l1.86-4.62c-9.23-6-14.6-11.94-11-21l.05-.12c3.27-8.13 11.6-11 22.34-7.72l2.4-6a.32.32 0 01.41-.18m6.09 3.14l-6-2.42-2.39 6a.32.32 0 01-.39.18c-10.67-3.36-18.63-.72-21.83 7.26v.12c-3.52 8.78 1.57 14.32 10.93 20.4a.33.33 0 01.12.39l-2.1 5.23a.3.3 0 01-.2.18.29.29 0 01-.27 0 26.7 26.7 0 01-7.59-7.4l-9.48 6.85a34.78 34.78 0 0012.61 10.81.32.32 0 01.15.41l-1.41 3.53 6 2.42 1.34-3.34a.31.31 0 01.4-.18c10.73 3.69 19.11 1 22.41-7.25l.05-.12c3-7.46-.22-13.22-11.46-20.54a.32.32 0 01-.12-.39l2.12-5.29a.3.3 0 01.19-.19.29.29 0 01.26 0 35.62 35.62 0 0111.06 10.45l9.84-6.67a43.64 43.64 0 00-16.44-14 .32.32 0 01-.16-.4zm-12.56 13.73a.3.3 0 01.17.16.31.31 0 010 .25l-2.04 5.17a.3.3 0 01-.2.18.32.32 0 01-.27 0c-3-1.87-3.8-3-3.16-4.64v-.13c.65-1.61 2.49-1.94 5.45-1m-2.34 5l1.8-4.48c-3.61-1.1-4.15.25-4.33.7v.13c-.42 1.05-.13 1.92 2.58 3.65m.82 15.79c3.06 1.89 4 3.18 3.32 4.78l-.05.13c-.38 1-1.62 2.34-5.63.82a.28.28 0 01-.18-.17.33.33 0 010-.24l2.07-5.17a.32.32 0 01.2-.18.33.33 0 01.22 0m-1.77 5.28c2.41.85 4 .65 4.5-.58v-.13c.41-1 .09-2-2.75-3.79z"/>
      <path class="cls-5" transform="rotate(-27.73 776.916 172.98)" d="M639.94 106.95h274.07v132.07H639.94z"/>
      <path class="cls-6" d="M844.91 81.52a20.53 20.53 0 0023.33 7.6l29.56 56.24a20.54 20.54 0 00-7 23.53l-68.28 35.89a46.89 46.89 0 01-3.11 5.26L895 170.32l-.26-.49a17.3 17.3 0 017.26-23.35L869.7 85a17.27 17.27 0 01-23.34-7.26l-.26-.48L770.53 117a46.32 46.32 0 016.1.42zM651.93 199.48L684.24 261a17.29 17.29 0 0123.35 7.26l.25.48L783.41 229a46.17 46.17 0 01-6.09-.42L709 264.45a20.54 20.54 0 00-23.33-7.61l-29.56-56.23a20.54 20.54 0 007-23.53l68.29-35.9a47.59 47.59 0 013.1-5.25l-75.56 39.72.25.48a17.29 17.29 0 01-7.26 23.35"/>
      <path class="cls-6" d="M817.71 151.57c10.14 19.29 9.3 41-.49 56l5.33-2.8c7.86-15.57 7.73-36.19-2-54.7s-26.64-30.31-43.92-32.67l-5.33 2.8c17.9.44 36.27 12.07 46.41 31.36M736.23 194.4c-10.14-19.29-9.3-41 .49-56l-5.33 2.8c-7.85 15.58-7.73 36.2 2 54.71s26.61 30.29 43.93 32.64l5.33-2.8c-17.9-.44-36.28-12.06-46.42-31.35M751.61 124.72a39.5 39.5 0 0111.71-3.94l7.21-3.79a42.69 42.69 0 00-36 18.94l7.21-3.79a39.61 39.61 0 019.9-7.42M802.34 221.24a38.9 38.9 0 01-11.72 3.94l-7.21 3.82a42.62 42.62 0 0036-18.94l-7.21 3.8a39.34 39.34 0 01-9.89 7.41"/>
      <path class="cls-6" d="M771.3 120.21l5.33-2.8a46.32 46.32 0 00-6.1-.42l-7.21 3.79a41 41 0 018-.57M736.72 138.38a42.41 42.41 0 015-6.24l-7.21 3.79a47.59 47.59 0 00-3.1 5.25zM817.22 207.58a41.22 41.22 0 01-5 6.25l7.21-3.79a46.89 46.89 0 003.11-5.26zM782.65 225.75l-5.33 2.8a46.17 46.17 0 006.09.42l7.21-3.79a40.85 40.85 0 01-8 .57M902.71 162.6a3.44 3.44 0 114.65 1.44 3.45 3.45 0 01-4.65-1.44M856.92 75.47a3.44 3.44 0 114.64 1.45 3.43 3.43 0 01-4.64-1.45M691 273.86a3.44 3.44 0 114.65 1.45 3.44 3.44 0 01-4.65-1.45M645.23 186.74a3.44 3.44 0 114.65 1.44 3.45 3.45 0 01-4.65-1.44M768.28 152a43.8 43.8 0 0121.78-3.45L788.68 161a35.55 35.55 0 00-15.3 1.6l2.66 5c11.81-3.5 19.25-3.22 23.44 4.74l.06.12c4 7.54 1.46 15.92-9.13 22.19l1.82 3.46-6.32 3.33-1.91-3.59a35 35 0 01-16.87 2.58l1-12.3a26.57 26.57 0 0010.77-.93l-2.62-5c-11.21 3.33-18.65 3.21-23-5.06l-.07-.12c-4.21-8-.41-16 8.75-21.75l-3.13-5.95 6.32-3.33zm16.58 32.72c2.95-1.62 3.53-3.17 2.89-4.39l-.06-.12c-.67-1.28-2-1.53-5.42-.41zm-20.09-15.2l.06.13c.67 1.27 1.81 1.52 5.2.44l-2.59-4.92c-2.7 1.65-3.34 3.08-2.67 4.35"/>
      <path class="cls-6" d="M758.65 149l6.32-3.32a.32.32 0 01.43.13l3 5.76a44.07 44.07 0 0121.66-3.36.31.31 0 01.28.35L789 161a.33.33 0 01-.35.29 35.46 35.46 0 00-14.81 1.46l2.36 4.48c10.9-3.19 19.09-3.54 23.56 5l.07.12c4.26 8.12.9 16.49-9 22.46l1.68 3.19a.32.32 0 01-.13.44l-6.32 3.32a.34.34 0 01-.44-.13l-1.78-3.4a35.22 35.22 0 01-16.76 2.5.31.31 0 01-.28-.34l1-12.31a.35.35 0 01.12-.23.36.36 0 01.25-.06 26 26 0 0010.25-.81l-2.31-4.4c-10.58 3.11-18.56 3.36-23.12-5.3l-.06-.12c-4.08-7.76-.86-16 8.61-22l-3-5.69a.33.33 0 01.14-.44m6.33-2.6l-5.75 3 3 5.68a.32.32 0 01-.11.42c-9.48 5.94-12.63 13.72-8.63 21.32l.06.12c4.4 8.37 11.92 8.09 22.62 4.91a.31.31 0 01.37.16l2.62 5a.29.29 0 010 .27.34.34 0 01-.2.19 27.14 27.14 0 01-10.56 1l-.93 11.65a34.68 34.68 0 0016.41-2.59.31.31 0 01.4.15l1.77 3.36 5.76-3-1.68-3.18a.34.34 0 01.13-.43c9.76-5.78 13.14-13.91 9-21.76l-.06-.12c-3.74-7.11-10.21-8.39-23.07-4.59a.32.32 0 01-.38-.15l-2.65-5.05a.32.32 0 010-.27.37.37 0 01.19-.18 35.69 35.69 0 0115.13-1.65l1.3-11.81a43.62 43.62 0 00-21.29 3.47.32.32 0 01-.41-.15zm2.31 18.46a.4.4 0 01.24 0 .32.32 0 01.2.16l2.59 4.92a.36.36 0 010 .27.34.34 0 01-.2.19c-3.37 1.07-4.78.92-5.58-.61l-.07-.12c-.81-1.54.13-3.15 2.8-4.78m2.28 5l-2.25-4.28c-3.17 2-2.5 3.32-2.27 3.75l.06.13c.53 1 1.38 1.34 4.46.4m12.55 9.61c3.43-1.1 5-.95 5.8.57l.07.12c.48.92.72 2.76-3 4.82a.32.32 0 01-.25 0 .3.3 0 01-.19-.16L782 180a.32.32 0 010-.27.41.41 0 01.15-.17m2.85 4.74c2.21-1.29 3.09-2.63 2.48-3.8l-.07-.12c-.51-1-1.46-1.36-4.67-.37z"/>
      <path class="cls-5" transform="rotate(-14.09 255.87 717.934)" d="M65.81 626.22h379.98v183.1H65.81z"/>
      <path class="cls-6" d="M377.22 616.73a28.48 28.48 0 0029 17.87l21.41 85.4a28.46 28.46 0 00-17.08 29.42l-103.73 26a66.35 66.35 0 01-5.91 6.06l114.8-28.82-.18-.74a24 24 0 0117.41-29.08l-23.45-93.38a24 24 0 01-29.08-17.41l-.19-.74-114.8 28.82a64.58 64.58 0 018.07 2.56zM78.66 712.61L102.1 806a24 24 0 0129.09 17.41l.18.74 114.8-28.82a65.11 65.11 0 01-8.07-2.56l-103.73 26a28.48 28.48 0 00-28.95-17.87L84 715.5a28.5 28.5 0 0017.08-29.43l103.73-26a66.36 66.36 0 015.9-6.07L95.89 682.79l.18.73a24 24 0 01-17.41 29.09"/>
      <path class="cls-6" d="M317.69 702.23c7.36 29.31-.88 58.31-19 75.31l8.1-2c15.67-18.41 22.24-46.24 15.18-74.36s-26-49.55-48.51-58.37l-8.09 2c24 6.44 44.93 28.11 52.29 57.42M193.9 733.31c-7.35-29.31.88-58.31 19-75.31l-8.09 2c-15.68 18.41-22.25 46.24-15.19 74.36s26 49.54 48.51 58.37l8.09-2c-24-6.45-44.93-28.12-52.29-57.42M237.39 644.46a54.43 54.43 0 0117.08-1.46l11-2.75A59.16 59.16 0 00210.68 654l11-2.75a54.2 54.2 0 0115.75-6.75M274.2 791.08a54.37 54.37 0 01-17.07 1.49l-11 2.75a59.18 59.18 0 0054.74-13.75l-11 2.75a54.55 54.55 0 01-15.76 6.76"/>
      <path class="cls-6" d="M265.4 644.81l8.09-2a64.58 64.58 0 00-8.07-2.56l-11 2.75a57.27 57.27 0 0110.93 1.84M212.87 658a57.43 57.43 0 018.77-6.79l-11 2.75a66.36 66.36 0 00-5.9 6.07zM298.72 777.54a56.18 56.18 0 01-8.76 6.78l11-2.75a65.09 65.09 0 005.91-6.06zM246.19 790.73l-8.09 2a65.11 65.11 0 008.07 2.56l11-2.75a58.17 58.17 0 01-10.94-1.84M428.61 744.87a4.77 4.77 0 115.79 3.46 4.77 4.77 0 01-5.79-3.46M395.38 612.51a4.77 4.77 0 115.79 3.46 4.77 4.77 0 01-5.79-3.46M107 825.61a4.77 4.77 0 115.79 3.46 4.77 4.77 0 01-5.79-3.46M73.8 693.25a4.77 4.77 0 115.78 3.46 4.77 4.77 0 01-5.78-3.46M250.94 686.69a60.57 60.57 0 0130.47 2.46l-5.92 16.31a49.26 49.26 0 00-21.14-2.84l1.92 7.66c17.07-.84 27 2 30 14.06l.05.19c2.88 11.45-3.23 21.92-19.56 26.9l1.32 5.27-9.6 2.41-1.39-5.54a48.53 48.53 0 01-23.59-2l5.35-16.26a36.74 36.74 0 0014.8 2.27l-1.9-7.57c-16.19.82-26.17-1.78-29.32-14.34l-.05-.18c-3.06-12.2 4.67-21.7 18.89-26.45L239 680l9.6-2.41zm11.64 49.5c4.51-1.23 5.8-3.12 5.33-5v-.18c-.49-1.94-2.15-2.71-7.17-2.33zm-22.1-27.05v.19c.49 1.94 1.95 2.65 6.86 2.3l-1.87-7.48c-4.18 1.34-5.52 3.06-5 5"/>
      <path class="cls-6" d="M238.93 679.52l9.6-2.41a.45.45 0 01.54.32l2.2 8.75a61.15 61.15 0 0130.29 2.55.44.44 0 01.26.57l-5.92 16.31a.44.44 0 01-.56.27 49.32 49.32 0 00-20.43-2.88l1.71 6.81c15.74-.74 26.88 1.47 30.13 14.41v.19c3.1 12.32-4.17 22.51-19.46 27.31l1.22 4.86a.44.44 0 01-.32.54l-9.6 2.41a.45.45 0 01-.54-.32l-1.3-5.16A48.8 48.8 0 01233.4 752a.45.45 0 01-.28-.56l5.34-16.26a.44.44 0 01.24-.26.39.39 0 01.35 0 36.18 36.18 0 0014.08 2.26l-1.68-6.69c-15.27.73-26.11-1.53-29.41-14.69v-.19c-3-11.78 4.06-21.79 18.79-26.83l-2.17-8.66a.44.44 0 01.32-.54m9.39-1.44l-8.74 2.2 2.16 8.62a.45.45 0 01-.29.53c-14.72 4.91-21.5 14.35-18.6 25.91l.05.18c3.19 12.72 13.41 14.79 28.87 14a.44.44 0 01.45.34l1.9 7.57a.44.44 0 01-.07.37.43.43 0 01-.34.18 37.27 37.27 0 01-14.55-2.13l-5.06 15.4a48.1 48.1 0 0023 1.88.44.44 0 01.5.33l1.28 5.11 8.74-2.2-1.21-4.83a.44.44 0 01.3-.53c15.05-4.6 22.25-14.46 19.26-26.37l-.05-.19c-2.71-10.8-11-14.65-29.58-13.72a.44.44 0 01-.46-.34l-1.92-7.66a.43.43 0 01.38-.55 49.52 49.52 0 0120.92 2.72l5.62-15.49a60.56 60.56 0 00-29.93-2.35.43.43 0 01-.5-.33zm-2.92 25.64a.45.45 0 01.54.32l1.87 7.49a.39.39 0 01-.07.36.42.42 0 01-.32.19c-4.9.34-6.75-.32-7.33-2.64l-.05-.19c-.58-2.34 1.21-4.2 5.33-5.52m1.42 7.5l-1.63-6.5c-4.94 1.71-4.45 3.66-4.28 4.32v.18c.38 1.52 1.42 2.26 5.87 2m13.78 17.06h.07c5-.38 7.05.34 7.63 2.66v.18c.35 1.39.08 3.95-5.64 5.51a.4.4 0 01-.34 0 .43.43 0 01-.21-.28l-1.88-7.48a.48.48 0 01.07-.37.43.43 0 01.26-.17m2.3 7.36c3.4-1 5-2.53 4.58-4.31l-.05-.19c-.37-1.49-1.52-2.31-6.17-2z"/>
    </g>
    <g class="cls-2">
      <path class="cls-7" d="M287.47 474.83h505.06v275.49a8 8 0 01-11.19 7.33c-30.42-13.23-120.43-42.78-239.27 4.59a5 5 0 01-4-.14c-16.59-8-135.54-62-239.15-13.59a8 8 0 01-11.42-7.23z"/>
      <path class="cls-8" d="M287.07 568.8s252.73 239.78 505.46 0V442.25H287.07z"/>
      <path class="cls-7" d="M534.66 317.94L150.18 470.43c-10.91 4.33-10.91 18.6 0 22.92l384.48 152.5a14.59 14.59 0 0010.68 0l384.48-152.5c10.91-4.32 10.91-18.59 0-22.92L545.34 317.94a14.59 14.59 0 00-10.68 0"/>
      <path class="cls-8" d="M556.29 459.38a16.29 16.29 0 11-16.29-16.3 16.29 16.29 0 0116.29 16.3"/>
      <path d="M540 459.38l-301.89 65.21a7.52 7.52 0 00-5.94 7.36v84.52" stroke="#141491" stroke-miterlimit="10" stroke-width="10.05" fill="none"/>
      <path d="M245.07 695.27l-10-64.92a13 13 0 10-6.9-.16l-12 64.72a14.58 14.58 0 1028.89.36" fill="#803aa4"/>
      <path class="cls-5" d="M540 57a483.15 483.15 0 01188 928.07A483.14 483.14 0 01352 94.93 479.94 479.94 0 01540 57m0-57C241.77 0 0 241.77 0 540s241.77 540 540 540 540-241.77 540-540S838.23 0 540 0"/>
    </g>
  </g>
</svg>
