<svg id="Layer_1" data-name="Layer 1" xmlns="http://www.w3.org/2000/svg" viewBox="0 0 1080 1080">
  <defs>
    <clipPath id="clip-path">
      <path class="cls-1" d="M0 0h1080v1080H0z"/>
    </clipPath>
    <clipPath id="clip-path-3">
      <path class="cls-1" d="M-143.09 540c0 298.23-241.76 540-540 540s-540-241.77-540-540 241.77-540 540-540 540 241.77 540 540"/>
    </clipPath>
    <style>
      .cls-1{fill:none}.cls-2{clip-path:url(#clip-path)}.cls-8{fill:#2fe2d8}
    </style>
  </defs>
  <g class="cls-2">
    <g class="cls-2">
      <g clip-path="url(#clip-path-3)">
        <path d="M494.8 777.7C474 529.83 372.62 339.25 201.58 226.57l-.4-.27c-217-142.76-464.56-163.87-716-61.06-161.5 66-196.85 108.34-206.41 120.74a5 5 0 00.36 6.51l35.89 37.3a294.48 294.48 0 0042.53-24.11l73.84 86.1.86-.48s-11 13.95-27.05 32.21l17.61 18.3a5 5 0 007.22 0c5.54-5.85 19-17.92 48.73-34.63 40.88-39.52 101.7-88.06 166.91-104.45 100.66-25.31 197.33-6.41 264.65 29.52q88.64 21 171.59 75.42l.29.19c280.36 184.71 183.35 648.67 182.34 653.34l106 23.24 106 23.49c1.36-6.15 33.2-152.67 18.31-330.22" fill="#983ac9"/>
      </g>
      <path d="M1080 540c0 298.23-241.77 540-540 540S0 838.23 0 540 241.77 0 540 0s540 241.77 540 540" fill="#ff4c22"/>
      <path d="M540 57a483.15 483.15 0 01188 928.07A483.14 483.14 0 01352 94.93 479.94 479.94 0 01540 57m0-57C241.77 0 0 241.77 0 540s241.77 540 540 540 540-241.77 540-540S838.23 0 540 0" fill="#e02000"/>
      <path stroke="#facc2f" stroke-miterlimit="10" stroke-width="23" fill="none" d="M590.73 233.01L303.46 465.55l355.15 280.94"/>
      <path class="cls-8" d="M838.84 746.49a180.23 180.23 0 01-360.46 0c0-99.53 80.7-180.22 180.23-180.22a180.23 180.23 0 01180.23 180.22"/>
      <path d="M618.08 688.12c0 11.33-3.28 20.52-7.33 20.52s-7.32-9.19-7.32-20.52 3.28-20.51 7.32-20.51 7.33 9.18 7.33 20.51M716.66 688.12c0 11.33-3.28 20.52-7.33 20.52s-7.33-9.19-7.33-20.52 3.28-20.51 7.33-20.51 7.33 9.18 7.33 20.51M658.61 831.25c-39.87 0-65.84-20.81-80.61-35.81-16-16.23-22.46-32.3-22.73-33l5.46-2.17-2.73 1.11 2.73-1.08c.06.15 6.4 15.79 21.63 31.19 20.3 20.54 46 31 76.25 31s56-10.42 76.52-31c15.35-15.4 21.81-31 21.88-31.2l5.44 2.21c-.27.67-6.88 16.73-23 33-14.88 15-41 35.8-80.86 35.8"/>
      <path d="M744.72 761.06a3.48 3.48 0 012.49-5c2.9-.49 7.28-.29 13.12 2.5 6.32 3 9.35 6.69 10.81 9.39a3.5 3.5 0 01-1.9 5 3.5 3.5 0 01-4.45-2.15c-1-2.86-2.89-6.72-6-8.23s-6.61-.35-9 .83a3.48 3.48 0 01-4.61-1.53zM572.5 761.06a3.47 3.47 0 00-2.48-5c-2.9-.49-7.28-.29-13.12 2.5-6.32 3-9.36 6.69-10.81 9.39a3.5 3.5 0 001.9 5 3.5 3.5 0 004.46-2.15c1-2.86 2.88-6.72 6-8.23s6.6-.35 9 .83a3.48 3.48 0 004.61-1.53z"/>
      <path class="cls-8" d="M446.38 465.55a142.92 142.92 0 11-142.92-142.92 142.92 142.92 0 01142.92 142.92"/>
      <path d="M271.32 419.27c0 9-2.6 16.27-5.81 16.27s-5.81-7.29-5.81-16.27 2.6-16.27 5.81-16.27 5.81 7.28 5.81 16.27M349.49 419.27c0 9-2.6 16.27-5.81 16.27s-5.81-7.29-5.81-16.27 2.6-16.27 5.81-16.27 5.81 7.28 5.81 16.27M303.46 532.77c-31.62 0-52.22-16.51-63.92-28.4-12.68-12.88-17.82-25.61-18-26.15l4.33-1.72-2.17.86 2.17-.86A84 84 0 00243 501.23c16.1 16.29 36.45 24.55 60.47 24.55s44.44-8.26 60.68-24.55a84.85 84.85 0 0017.34-24.74l4.32 1.74c-.21.54-5.45 13.27-18.22 26.15-11.8 11.88-32.5 28.39-64.12 28.39"/>
      <path d="M371.74 477.11a2.77 2.77 0 012-4c2.31-.38 5.78-.23 10.41 2 5 2.39 7.42 5.3 8.57 7.44a2.76 2.76 0 01-1.51 3.93 2.76 2.76 0 01-3.53-1.71c-.8-2.27-2.29-5.33-4.79-6.52s-5.23-.28-7.16.65a2.74 2.74 0 01-3.65-1.21zM235.18 477.11a2.77 2.77 0 00-2-4c-2.31-.38-5.78-.23-10.41 2-5 2.39-7.42 5.3-8.57 7.44a2.76 2.76 0 001.51 3.93 2.76 2.76 0 003.53-1.71c.8-2.27 2.29-5.33 4.79-6.52s5.23-.28 7.16.65a2.74 2.74 0 003.65-1.21z"/>
      <path class="cls-8" d="M680.35 233a89.62 89.62 0 11-89.62-89.62A89.61 89.61 0 01680.35 233"/>
      <path d="M570.58 204c0 5.63-1.63 10.2-3.65 10.2s-3.64-4.57-3.64-10.2 1.63-10.2 3.64-10.2 3.65 4.57 3.65 10.2M619.6 204c0 5.63-1.64 10.2-3.65 10.2s-3.64-4.57-3.64-10.2 1.63-10.2 3.64-10.2 3.65 4.57 3.65 10.2M590.73 275.16c-19.83 0-32.74-10.35-40.08-17.81A54.8 54.8 0 01539.34 241l2.72-1.08-1.36.54 1.36-.54a52.62 52.62 0 0010.75 15.51c10.1 10.21 22.86 15.39 37.92 15.39s27.87-5.18 38-15.4a53.17 53.17 0 0010.88-15.51l2.71 1.1a55.28 55.28 0 01-11.43 16.39c-7.4 7.45-20.38 17.8-40.21 17.8"/>
      <path d="M633.55 240.26a1.73 1.73 0 011.24-2.51 10.92 10.92 0 016.52 1.25 11.36 11.36 0 015.38 4.67 1.73 1.73 0 01-1 2.46 1.74 1.74 0 01-2.22-1.07c-.5-1.42-1.43-3.34-3-4.09a5.33 5.33 0 00-4.49.42 1.73 1.73 0 01-2.29-.77zM547.91 240.26a1.73 1.73 0 00-1.23-2.51 11 11 0 00-6.53 1.25 11.28 11.28 0 00-5.37 4.67 1.73 1.73 0 001 2.46 1.73 1.73 0 002.21-1.07c.5-1.42 1.44-3.34 3-4.09a5.33 5.33 0 014.49.42 1.74 1.74 0 002.3-.77z"/>
    </g>
  </g>
</svg>
