<svg id="Layer_1" data-name="Layer 1" xmlns="http://www.w3.org/2000/svg" viewBox="0 0 1080 1080">
  <defs>
    <clipPath id="clip-path">
      <path fill="none" d="M0 0h1080v1080H0z"/>
    </clipPath>
    <style>
      .cls-2{clip-path:url(#clip-path)}.cls-4{fill:#f7b90b}.cls-5{fill:#803aa4}.cls-7{fill:#fff}
    </style>
  </defs>
  <g class="cls-2">
    <g class="cls-2">
      <path d="M1080 540c0 298.23-241.77 540-540 540S0 838.23 0 540 241.77 0 540 0s540 241.77 540 540" fill="#facc2f"/>
      <path class="cls-4" d="M540 57a483.15 483.15 0 01188 928.07A483.14 483.14 0 01352 94.93 479.94 479.94 0 01540 57m0-57C241.77 0 0 241.77 0 540s241.77 540 540 540 540-241.77 540-540S838.23 0 540 0"/>
      <path class="cls-4" d="M388.22 237.15h152.97v175.36H388.22zM553.83 237.15h137.96v22.74H553.83zM553.83 275.31h137.96v22.74H553.83zM553.83 313.46h137.96v22.74H553.83zM553.83 351.62h137.96v22.74H553.83zM553.83 389.77h137.96v22.74H553.83zM388.22 427.92h303.56v22.74H388.22zM388.22 466.08h303.56v22.74H388.22zM388.22 504.23h303.56v22.74H388.22zM388.22 542.39h303.56v22.74H388.22zM388.22 581.81h303.56v22.74H388.22zM388.22 621.23h303.56v22.74H388.22zM388.22 660.97h303.56v22.74H388.22zM388.22 700.7h303.56v22.74H388.22zM388.22 740.44h303.56v22.74H388.22zM388.22 780.18h303.56v22.74H388.22zM388.22 819.47h303.56v22.74H388.22zM388.22 858.61h303.56v22.74H388.22z"/>
      <path class="cls-4" d="M676.57 162.89H403.43a48.55 48.55 0 00-48.5 48.5v657.22a48.55 48.55 0 0048.5 48.5h273.14a48.55 48.55 0 0048.5-48.5V211.39a48.55 48.55 0 00-48.5-48.5m39.5 705.72a39.55 39.55 0 01-39.5 39.5H403.43a39.55 39.55 0 01-39.5-39.5V211.39a39.55 39.55 0 0139.5-39.5h35.67a6.5 6.5 0 016.5 6.5v12.8a15.52 15.52 0 0015.5 15.5h157.8a15.52 15.52 0 0015.5-15.5v-12.8a6.5 6.5 0 016.5-6.5h35.67a39.55 39.55 0 0139.5 39.5z"/>
      <path class="cls-5" d="M852.29 269.64H624.67a22.09 22.09 0 00-22.09 22.09l-2.36 127.41q0 .78.06 1.56h-.06s1.34 12.55-8.11 19.71a.44.44 0 00.29.78c3-.15 10.37-.87 16.58-4.44a22 22 0 0013.32 4.47h230a22.09 22.09 0 0022.09-22.08V291.73a22.09 22.09 0 00-22.09-22.09M824.46 644.19H559.18a25.74 25.74 0 00-25.74 25.74l-2.75 148.48c0 .62 0 1.22.07 1.83h-.07s1.56 14.63-9.45 23a.5.5 0 00.33.9c3.55-.16 12.09-1 19.33-5.17a25.6 25.6 0 0015.53 5.21h268a25.73 25.73 0 0025.74-25.74V669.93a25.73 25.73 0 00-25.74-25.74M250.72 402.5h278.47a27 27 0 0127 27l2.9 155.87c0 .64 0 1.28-.08 1.91h.08s-1.64 15.35 9.91 24.11a.53.53 0 01-.35 1c-3.72-.18-12.69-1.06-20.28-5.44a26.86 26.86 0 01-16.3 5.48H250.72a27 27 0 01-27-27V429.52a27 27 0 0127-27"/>
      <path d="M798.7 357.91a56.54 56.54 0 11-56.54-56.53 56.54 56.54 0 0156.54 56.53" fill="#332ba8"/>
      <path class="cls-7" d="M723.33 326.19v63.44l47.15-31.72-47.15-31.72zM350.39 462.29v94.65c-4.14-5.09-11.55-8.48-20-8.48-13 0-23.49 8-23.49 17.82s10.52 17.81 23.49 17.81 23.5-8 23.5-17.81v-80.62l79.78-29V543c-4.14-5.08-11.55-8.47-20-8.47-13 0-23.5 8-23.5 17.82s10.52 17.81 23.5 17.81 23.49-8 23.49-17.81V430.82zM631.08 678.9h182.63v9.76H631.08zM569.85 709.1h243.86v9.75H569.85zM569.85 739.29h155.22v9.76H569.85zM747.07 739.29h66.64v9.76h-66.64zM569.85 769.49h243.86v9.76H569.85zM569.85 799.68h111.9v9.76h-111.9zM705.75 799.68h107.96v9.76H705.75zM569.85 678.9h41.23v9.76h-41.23z"/>
    </g>
  </g>
</svg>
