<svg xmlns="http://www.w3.org/2000/svg" viewBox="0 0 1080 1080">
  <defs>
    <clipPath id="clip-path">
      <path class="cls-1" d="M0 0h1080v1080H0z"/>
    </clipPath>
    <clipPath id="clip-path-3">
      <path class="cls-1" d="M280.5 46.66h519.01V696.9H280.5z"/>
    </clipPath>
    <style>
      .cls-1,.cls-4{fill:none}.cls-2{clip-path:url(#clip-path)}.cls-3{fill:#332ba8}.cls-4{stroke:#332ba8;stroke-miterlimit:10;stroke-width:7.15px}.cls-7{fill:#ff4c22}.cls-8{fill:#963ac7}.cls-9{fill:#facc2f}
    </style>
  </defs>
  <g class="cls-2">
    <g class="cls-2">
      <path class="cls-3" d="M1080 540c0 298.23-241.77 540-540 540S0 838.23 0 540 241.77 0 540 0s540 241.77 540 540"/>
      <path class="cls-4" d="M650.86 580.45L429.14 736.32M650.86 736.32L429.14 580.45"/>
      <path fill="#f7f7f7" d="M540 315.45l-266.87 206.9v349.84h533.74V522.35L540 315.45z"/>
      <path class="cls-3" d="M737.4 414.26l-9.11-21.35-3.62-29.16 46.25-47.48-10.88-26.76 7.71-32.55-22.22-12.8-14 6.34-29.54-1.35-29.02 12.7-25.4 3.17-14.97 30.84-4.08 20.41 16.78 72.56-7.08 25.65-9.7 3.95v244.85l116.34-35.53L741 416.72l-3.6-2.46zM588.51 178l-25.85 54-12.66 6.72-1.82-9.53 5.9-83.89-9.53-18.6-12.24 10.43V182l-9.07 32.65S501.9 119 501 117.18s-8.62-6.35-8.62-6.35L486 119l9.09 97-9.09 5.48L447 129h-11.32L452 186.12l15 87.06-4.54 20-47.16-29.48s-14.06-4.53-15.88-5-14.51 7.26-14.51 7.26l56.24 56.91 36.62 35.24.38 13.11h-15.38v292.06l80.47 57.79 29.54-42V374.34l-21.54-.34 7.41-14.24 2.76-17.22-.19-.31 1.9.31 12.24-82.08 16.78-55.78 5-25z"/>
      <path class="cls-3" d="M399.17 441.12l-8.97-32.53 6.58-51.73 2.39-30.96h-10.21l-21.2 59.98-7.37-10.32-15.31-54.08-8.16 3.74 2.38 62.25-14.28 1.7-3.26 8.74-14.09 3.62-3.74 20.63 6.68 28.69 2.34 22.37 8.13 27.17-4.74.82-8.96 118.84L363.46 659l29.33-47.83V498.69l-14.35-2.35 6.45-16.7 14.28-38.52z"/>
    </g>
    <g clip-path="url(#clip-path-3)">
      <path class="cls-7" d="M732 420.25a5.4 5.4 0 01-5.36-4.82c-1.83-16.66-4-38-3.77-45.15.25-9.85 14.87-25.29 34-44.45 3.43-3.44 6.39-6.41 8.22-8.42 3.41-3.73 1.15-8.67-4.53-17.08a48.31 48.31 0 01-3.56-5.78c-1.8-3.76-.75-8.32.46-13.61 2.44-10.62 3.66-19.26-4.52-25.83-12.06-9.7-16.31-5.56-21.67-.32l-4.27 4.08-3.58-2.35c-14.87-9.79-21-3.26-25.85 2a25.56 25.56 0 01-2.75 2.7L692.5 263l-2.77-.91c-7.88-2.57-12.9.44-18.22 3.62a35.52 35.52 0 01-8 3.91l-1.14.34-1.17-.17c-12.93-1.87-14.86 2.55-18.37 10.58-.48 1.09-1 2.19-1.48 3.29-4.8 10.2-6.08 18-5.69 19.93a43.55 43.55 0 01.25 8.15c-.13 7.88-.33 19.78 2.93 30.11 5 15.92 8.87 35.54 9 36.37 1.2 5.84 1.56 17.45 1.13 36.47a5.41 5.41 0 01-10.81-.25c.41-17.69.1-29.16-.92-34.1 0-.25-3.89-19.91-8.73-35.24-3.8-12-3.57-25.49-3.43-33.54 0-2.27.08-5.1 0-5.86-1.32-6.63 2.68-18.5 6.51-26.64.48-1 .92-2 1.36-3 3.61-8.26 8.5-19.5 28.46-17.13a37.76 37.76 0 004.54-2.47c5.59-3.35 13.08-7.82 23.83-5.51 4.55-4.89 15.9-16.65 35.8-5.73 5.89-5.41 16.62-12.59 34.09 1.44 14.11 11.34 10.47 27.2 8.28 36.68-.55 2.45-1.32 5.8-1.13 6.82.39.76 1.49 2.38 2.65 4.1 4.66 6.9 13.34 19.73 3.56 30.42-2 2.18-5 5.23-8.54 8.75-8.38 8.42-30.65 30.78-30.81 37.11-.13 5.09 1.18 20.61 3.71 43.7a5.42 5.42 0 01-4.79 6 5.83 5.83 0 01-.59 0"/>
      <path class="cls-7" d="M659.8 317.88c-7 0-10.74-3.54-12.69-7.22-3.76-7.11-4.57-18.37-4.65-19.63a5.41 5.41 0 0110.79-.69c.18 2.79 1.14 11 3.41 15.26 1.56 3 8.15.86 11.94-.65.88-.36.27-3.33.11-3.8l-.22-.88-3.77-23.27c-.86-5.06-2.82-6.94-3.74-7.22a1.45 1.45 0 00.38.07l1.29-10.73c1 .12 10.28 1.64 12.73 16.11l3.71 22.91c1.93 6.19.73 14-6.48 16.84a35 35 0 01-12.81 2.9M737.82 313.24a5.39 5.39 0 01-5.32-4.53c-.18-1.08-1.5-3-3-4.62-15.48 2.66-27.85-2.47-34.49-8.44-5.4-4.86-8.1-10.95-7.4-16.69 1.37-11.16 15.82-13.14 29.8-15 5.46-.75 11.11-1.52 14.48-2.75 12.62-4.6 21.43 3.94 24.32 9.1l11.36 21.15a5.4 5.4 0 01-9.52 5.11l-11.32-21.07c-.6-1-4.33-6.63-11.14-4.13-4.46 1.62-10.41 2.44-16.72 3.3-5.52.75-20.18 2.76-20.53 5.65-.26 2.13 1.23 4.94 3.9 7.34 5 4.53 15 8.32 27.79 5.35l2.68-.62 2.08 1.81c1.22 1.06 7.37 6.67 8.37 12.81a5.4 5.4 0 01-4.46 6.21 5.14 5.14 0 01-.88.07"/>
      <path class="cls-7" d="M728.25 273.1H728a5.4 5.4 0 01-5.1-5.69 49.59 49.59 0 00-1.69-13.89 5.4 5.4 0 1110.37-3 59.53 59.53 0 012.06 17.48 5.41 5.41 0 01-5.39 5.12M699.08 278.7h-.38a5.4 5.4 0 01-5-5.76c.6-8.63-4.67-11-5.27-11.19a5.46 5.46 0 01-3.15-6.92 5.32 5.32 0 016.77-3.26c4.72 1.62 13.39 8.34 12.43 22.12a5.4 5.4 0 01-5.38 5M687.06 320c-12.48 0-15.6-7.56-17.85-16a5.41 5.41 0 1110.45-2.77c1.91 7.22 2.3 8.72 10.4 7.81 2.78-.31 4.77-1.1 5.63-2.22a2.91 2.91 0 00.54-1.39l-.05-.37-.95-11.36a5.4 5.4 0 0110.77-.9l1 11.2a13.17 13.17 0 01-2.67 9.34c-2.74 3.58-7.11 5.73-13 6.4a37.67 37.67 0 01-4.21.25"/>
      <path class="cls-7" d="M711 311.21h-.55c-2.23-.1-8.73-.79-9.46-.87a5.4 5.4 0 111.15-10.74c1.89.2 7.17.74 8.78.81a8.1 8.1 0 006.24-3.94 5.4 5.4 0 119 5.9 18.69 18.69 0 01-15.16 8.84M639.19 1367.53a16.54 16.54 0 01-16.55-16.53V417.53a5.4 5.4 0 015.26-5.4l113.39-2.93a5.21 5.21 0 013.91 1.53 5.39 5.39 0 011.63 3.87v925.25a16.57 16.57 0 01-14.54 16.43l-91.1 11.13a16.77 16.77 0 01-2 .12m-5.75-944.73V1351a5.65 5.65 0 001.94 4.29 5.58 5.58 0 004.5 1.4l91.1-11.13a5.75 5.75 0 005-5.7V420.15z"/>
      <path class="cls-8" d="M551.24 374a77.47 77.47 0 012.69-21.6c6.52-23.13 9.91-56 12.15-77.69 1.15-11.14 2-19.19 2.9-23.47.86-4 3.7-11.58 7.29-21.16 4.24-11.31 13.3-35.48 14.58-46.09-5 6.8-12.37 22.7-16.72 32.06-10.56 22.67-14.92 32-22.47 28.82-10-4.28-13.13-15.89-9.4-34.52 4.31-21.58 5.25-69.75-.62-78.24-4.26 7.29-6.64 37.89-7.91 54.89-2.19 28.44-3.16 36-7 39.15a6.22 6.22 0 01-4.76 1.4c-6.26-.78-7.72-6.72-14-43.33C504.46 164 497.42 123 491 115.83c-3.5 7.14 1 39.36 3.41 57.08 4.22 30.51 6.19 46.73 1.26 53.21a7.89 7.89 0 01-5.31 3.15c-10 1.34-15.88-13.78-27.42-45.31-5.62-15.35-17.06-46.6-23.57-49.85-1.66 7.73 6.8 37.58 13.07 59.69 14.15 49.94 22.72 83.7 13.29 97.26a13.54 13.54 0 01-10.35 5.94l-1.41.11-1.29-.59c-13.75-6.42-22.6-14.52-29.68-21.09-5.84-5.37-10.46-9.62-15.38-10.6-7.54-1.51-15.59-.55-19.08.73 2.26 2.05 5.42 4.79 9 7.94 12.93 11.24 30.65 26.64 36.89 35.44 2.86 4 10.7 10.85 19 18.06 15.21 13.19 31 26.83 34.27 37.82.31 1 .65 2.47 1 4.28l-10.6 2.09c-.27-1.37-.51-2.48-.75-3.24-2.41-8-18.94-22.33-31-32.79-9.2-8-17.15-14.87-20.77-20-5.47-7.74-23.33-23.26-35.15-33.53-3.84-3.33-7.16-6.22-9.48-8.33-5.91-5.37-4.36-10.27-3.42-12.14 4.59-9.09 24-8.58 32.15-7 7.89 1.58 13.77 7 20.57 13.24 6.61 6.08 14.06 12.92 25.4 18.47a2.82 2.82 0 001.2-1.05c7.22-10.38-5.51-55.33-14.81-88.14-13.66-48.19-19.15-69.66-6.41-73.3 15.1-4.29 25.45 24 37.46 56.8 4.3 11.75 10.4 28.41 14.67 35.42.47-8.54-2.09-27.07-4.06-41.28-5.6-40.53-8.39-65.58 4.32-69.6a9.29 9.29 0 017.68 1c10.07 6.14 15.59 34.29 22.85 76.54 1 5.88 2.12 12.34 3.21 18.16.42-4.71.81-9.74 1.16-14.38 3.5-45.57 6.3-65.55 18.37-65.55a10.23 10.23 0 018.06 4.06c11.67 14.24 6.23 74.09 3.47 87.88-1.23 6.13-2.51 16 .74 20.56 2.79-4.48 7.28-14.12 10.74-21.54 13.19-28.33 21.15-44.18 31.23-40.82a8.35 8.35 0 014.93 4.46c4.11 8.63-3.25 29.79-14.1 58.74-3.17 8.44-6.15 16.41-6.84 19.63-.8 3.72-1.69 12.34-2.72 22.32-2.28 22.1-5.72 55.49-12.5 79.52A66.91 66.91 0 00562 374z"/>
      <path class="cls-8" d="M573 1520.65H462.43a5.41 5.41 0 01-5.41-5.4V369a5.42 5.42 0 015.69-5.4l110.58 5.82a5.4 5.4 0 015.12 5.4v1140.43a5.41 5.41 0 01-5.41 5.4m-105.17-10.8h99.77V380l-99.77-5.24z"/>
      <path class="cls-9" d="M321.68 505.88a5.4 5.4 0 01-5.34-4.67l-1.11-8a47.42 47.42 0 00-3.54-12.54 76.65 76.65 0 01-5.79-20.8l-4.9-37.58a5.4 5.4 0 0110.72-1.39l4.9 37.6a65.38 65.38 0 005 17.86 57.91 57.91 0 014.34 15.4l1.11 8a5.39 5.39 0 01-4.61 6.09 4.74 4.74 0 01-.75.06M376.64 503a5.4 5.4 0 01-4.93-7.62l20.72-46.06a17.82 17.82 0 001.21-11.1l-3.57-16.52a2.83 2.83 0 00-2.16-2.16l-43-9.14a10.62 10.62 0 001.89 7.89c3.22 4.42 10.46 7.58 20.93 9.16a9.47 9.47 0 018 10.25l-1.29 13.68a5.4 5.4 0 01-10.76-1l1.17-12.43c-12.88-2.13-21.88-6.59-26.76-13.26a21.44 21.44 0 01-3.77-16.4 10.24 10.24 0 014.37-6.87 10.62 10.62 0 018.2-1.63l43.31 9.2a13.62 13.62 0 0110.48 10.45l3.57 16.52a28.72 28.72 0 01-1.92 17.84l-20.71 46a5.41 5.41 0 01-4.93 3.19"/>
      <path class="cls-9" d="M341.81 448.05c-11.56 0-17.49-14.89-22.56-30.34-6.13-18.69-6.88-30.44 7.4-35.2a18.56 18.56 0 0118.92 4.26 5.4 5.4 0 01-7.71 7.57 7.79 7.79 0 00-7.8-1.58c-3.83 1.28-6.87 2.29-.54 21.58 5.23 15.93 9.7 23.55 13.24 22.78 1.32-.3 1.63-.83 1.78-1.09.9-1.53.59-4.77.09-6.47a5.41 5.41 0 0110.37-3.12c.27.88 2.52 8.79-1.09 15a13.13 13.13 0 01-8.74 6.22 15.39 15.39 0 01-3.34.39"/>
      <path class="cls-9" d="M324.21 453.2c-8.77 0-16.13-8.88-21.9-26.47-4.28-13-7.28-26.17 6.79-30.85 8.62-2.88 14.85 3.11 16.95 6.68a5.4 5.4 0 01-9.29 5.52c-.43-.66-1.95-2.71-4.24-1.95-2.82.94-5 1.68.05 17.23 5.25 16 10.22 19.46 12.37 18.94a1 1 0 00.79-.52c1-1.64.71-5.57.32-7.21a5.41 5.41 0 0110.52-2.49c.36 1.55 2 9.55-1.67 15.42a11.82 11.82 0 01-7.57 5.34 14.1 14.1 0 01-3.12.36M392.29 420.37a5.5 5.5 0 01-4.89-3c-2.75-5.43-1-17.35 2.49-39.69 2.29-14.53 6.45-40.9 4-47.6a14.87 14.87 0 00-2.45 5.81c-.45 2-10.13 45.16-14.53 56.68-1.31 3.42-4 10.53-9.82 10.53H367a7.19 7.19 0 01-6.54-5l-2.64-7.8c-3.93-12.91-12.85-54.87-13.23-56.65a15.47 15.47 0 00-2.37-6.09c-2.62 6.66 1 33.08 2.94 47.66 1.52 11.2 3 21.78 3.16 29.11a5.4 5.4 0 01-5.25 5.54h-.15a5.41 5.41 0 01-5.4-5.26c-.19-6.74-1.59-17-3.06-27.95-4.11-30.27-6.17-49.2-.2-56.77a9.12 9.12 0 016.35-3.56c8.22-.87 13.23 7.09 14.59 15.3.05.19 8.67 40.73 12.59 54.28 4.51-14.05 13-51.78 13.06-52.19 1.51-8 6.74-15.77 14.89-14.8a9.11 9.11 0 016.27 3.69c5.81 7.71 3.34 26.58-1.42 56.77-2 12.56-4.7 29.76-3.46 33.25a5.35 5.35 0 01-2.42 7.2 5.22 5.22 0 01-2.39.57M392.65 1336.06h-81.21a5.41 5.41 0 01-5.41-5.41V501a5.42 5.42 0 015.12-5.4l81.21-4.27a5.34 5.34 0 014 1.48 5.42 5.42 0 011.68 3.92v833.91a5.41 5.41 0 01-5.4 5.41m-75.81-10.81h70.4V502.43l-70.4 3.71z"/>
    </g>
    <g class="cls-2">
      <path fill="#fff" d="M273.13 522.35L540 671.52l266.87-149.17v349.84H273.13V522.35z"/>
      <path stroke-width="5" stroke="#332ba8" stroke-miterlimit="10" fill="none" d="M273.13 522.35L540 671.52l266.87-149.17"/>
      <path d="M540 57a483.15 483.15 0 01188 928.07A483.14 483.14 0 01352 94.93 479.94 479.94 0 01540 57m0-57C241.77 0 0 241.77 0 540s241.77 540 540 540 540-241.77 540-540S838.23 0 540 0" fill="#141491"/>
    </g>
  </g>
</svg>
