<svg id="Layer_1" width="78" height="66" viewBox="0 0 691.8 549.5" xmlns="http://www.w3.org/2000/svg">
  <style>
    .st1{fill:#fff}
  </style>
  <path fill="#010101" d="M616 285.3L599.1 13.1 430.6 33.7 237.5 46.4 18.8 59.1l17.2 116L51.9 349l4.8 184.7 251.2-19.8L531.3 499l111-1z"/>
  <path class="st1" d="M164.1 400.3c-1.7-13-9-19.2-20.8-27.6-9.7-6.8-17.3-11.7-18.4-20.2-.7-5.3 2.4-9.1 7.2-9.7 5.6-.7 8.7 2.5 10.4 10.5l14.1-3.9c-3.1-14.5-13.3-21.9-25.9-20.3-12.9 1.7-22.1 13.1-20.3 26.6 1.6 12.4 10.2 19.1 22.7 28.1 9.1 6.6 15.6 10.7 16.6 18.5.7 5.5-2.8 9.6-8.4 10.3-6.4.8-10.5-3.2-12.3-12.6l-13.8 4c2.9 16.4 13.8 24.6 28.6 22.6 13.6-1.6 22.1-12.5 20.3-26.3zM295.2 404.7l-12.4-93.9-20.1 2.7-2.6 53.4c-.2 4.6 0 11 .7 15.8-.7-5-1.9-11.4-3.3-15.5l-16.8-50.7-19.8 2.6 12.4 93.9 13.7-1.8-5.5-41.4-2.6-17.9c-.5-3.9-1.3-9.3-2.9-16.2.4 1.2 2 5.5 4.4 12.9l19.9 60.8 7.5-1 4-64c.2-2.6.6-7.1.9-13.6.3 8.4.9 13.8 1.3 16.5l2.1 17.6 5.5 41.7 13.6-1.9zM342.3 398.3l-1.9-14.1-19.2 2.6-3.2-23.6 19.2-2.7-1.8-13.2-19.1 2.8-3.8-29.7 22.6-3.2-1.8-13.4-37.4 5.2 12.4 93.9z"/>
  <path class="st1" d="M361.2 335.9l15.9-1.9-1.8-13.1-49.6 6.4 1.8 13.1 18.9-2.5 10.6 80.8 14.8-2zM394.8 413.8l14.7-2-5.6-42 15.2-2 5.6 42 14.8-1.9-12.4-94-14.8 2 5 38.3-15.2 2-5-38.3-14.7 2zM413.5 468.5l-1.6-12.7-12.9 1.6 1.6 12.7z"/>
  <path transform="rotate(-7.52 453.681 358.026)" class="st1" d="M446.1 310.8h15.2v94.7h-15.2z"/>
  <path class="st1" d="M468.2 308.5l12.4 93.9 13.7-1.8-4.9-37.4-1.8-11.7c-.3-2-1.2-6.3-3.2-12.8 1.7 4.4 3.4 7.5 4.6 9.8l25.5 49.4 13.8-1.8-12.4-93.9-13.8 1.8 5.9 44.7 1.4 8.7c.2 1.6 1 6 3.1 12.5-2.3-5.7-3.9-8.8-4.3-9.6l-26.7-53.6-13.3 1.8zM567 443.6l-2.5-20.6-21 2.6 1.1 9.3 9-1.1.7 5.5c-1.7 1.5-4 2.4-7.1 2.8-7.2.9-13.1-3.8-14-11.1v-.1c-.9-7 3.5-13.2 10.1-14 4.5-.6 8 .6 11.6 2.9l6.3-9.8c-5.3-3.6-11.3-5.4-19.4-4.4-14.2 1.8-23.3 13.5-21.7 26.8v.1c1.7 13.8 13.6 22.3 27.8 20.6 8.4-1 14.8-4.9 19.1-9.5zM585.4 388.5l-6.3-47.3-23.7 3.1 1.6 12 9.5-1.2 1.9 14.6c.8 6.5-1.6 10.2-6.8 10.9-5.2.7-8.5-2.3-9.4-8.8l-6.9-52.4c-.9-6.5 1.6-10.1 6.8-10.8 5.2-.7 8.5 2.1 9.3 8.6l1.3 10 14.2-1.9-1.1-8.7c-2.1-16-10.6-23.1-24.9-21.2-15.1 2-22.5 12.2-20.6 26.8l6.3 48.1c2.3 17 10.7 25.1 24.2 23.3 6.7-.9 11-4.1 13.6-10.4l3.8 6.1 7.2-.8zM218.4 390.7l-6.4-48.2c-2-15.2-12.1-22.9-25.9-21.1-15.1 2-22.5 12.2-20.6 26.8l6.4 48.2c2.3 17.2 11.5 25 26.6 23 14.9-1.9 22.1-12.1 19.9-28.7zm-21.7 14.7c-5.2.7-8.5-2.3-9.3-8.8l-6.9-52.4c-.9-6.5 1.6-10.1 6.7-10.8 5.2-.7 8.5 2.1 9.3 8.6l6.9 52.4c.9 6.6-1.6 10.3-6.7 11zM465.2 439.1v-.1c-1.6-13.1-13.4-22.4-27.5-20.6-14.1 1.8-23.3 13.7-21.7 26.8v.1c1.6 13.1 13.4 22.3 27.4 20.6 14.2-1.8 23.4-13.7 21.8-26.8zm-22.5 15.1c-6.9.9-12.4-4.3-13.2-10.9v-.1c-.8-6.6 3.1-12.8 10-13.6 7-.9 12.5 4.3 13.3 10.9v.1c.8 6.5-3.1 12.7-10.1 13.6zM504.8 441.3c5.4-3.1 8.5-8.2 7.7-15.2v-.1c-.6-4.5-2.4-7.9-5.4-10.1-3.5-2.8-8.5-4-15.5-3.1l-21.6 2.7 5.6 45.7 12.7-1.6-1.7-13.8 5.4-.7h.1l10.9 12.7 14.6-1.8-12.8-14.7zm-10.7-7.9l-8.3 1-1.4-11 8.3-1c4.2-.5 7.1 1 7.5 4.6v.1c.4 3.4-1.8 5.8-6.1 6.3z"/>
  <g>
    <path class="st1" d="M236.1 212.8c-6.9-46.7 23.1-86.1 71-93.6s88 20.8 94.9 67.5c6.9 46.7-23.1 86.1-71 93.6s-88-20.8-94.9-67.5zm116-17.1c-3.4-21.8-20.2-32.8-38.5-30.1-18.3 2.7-30.9 18.1-27.5 39.9 3.4 21.8 20.2 32.8 38.5 30.1 18.3-2.7 30.9-18.1 27.5-39.9z"/>
  </g>
  <path class="st1" d="M416.7 205.7c-4.3-46.8 28-84.3 76.2-89.1 48.2-4.8 86.7 25.7 90.9 72.6s-28 84.3-76.2 89.1c-48.2 4.8-86.7-25.7-90.9-72.6zm116.8-12.2c-2.2-21.7-18.1-33.5-36.4-31.9-18.2 1.6-31.6 16.1-29.4 37.8 2.2 21.7 18.2 33.5 36.4 31.9s31.6-16.1 29.4-37.8zM234 253.8c2.4 27-18.4 44.8-60 48.7l-85 8.1-14-154.7 80.7-7.7c41.7-4 62.6 11.2 64.7 34.6 1.3 14.4-4.7 27-17.9 35.4 18.3 5 29.9 17.3 31.5 35.6zm-105.7-66.2l2.1 23 23.7-2.3c11.4-1.1 16.3-5.6 15.6-13.1-.7-7.5-6.2-11-17.7-9.9l-23.7 2.3zm53.8 65.1c-.7-8-6.7-11.6-17.9-10.6l-30.6 2.9 2.2 24.3 30.6-2.9c11.2-1 16.4-5.7 15.7-13.7z"/>
  <g>
    <path d="M681 477.6c0 8.3-6.7 14.9-15.1 14.9-8.5 0-15.2-6.6-15.2-14.9s6.8-14.8 15.3-14.8c8.4 0 15 6.5 15 14.8zm-26.6 0c0 6.6 5 11.8 11.5 11.8 6.4.1 11.3-5.2 11.3-11.7 0-6.6-4.9-11.9-11.4-11.9-6.4 0-11.4 5.3-11.4 11.8zm9.1 7.6h-3.4v-14.8c1.4-.2 3.2-.5 5.7-.5 2.8 0 4.1.5 5 1.2.9.6 1.5 1.7 1.5 3.2 0 1.8-1.4 3-3.1 3.5v.2c1.4.5 2.2 1.6 2.6 3.6.5 2.3.8 3.1 1.1 3.6h-3.6c-.5-.5-.7-1.8-1.2-3.6-.3-1.5-1.2-2.3-3.1-2.3h-1.6v5.9zm.1-8.3h1.6c1.9 0 3.4-.6 3.4-2.2 0-1.4-1-2.3-3.2-2.3-.9 0-1.5.1-1.9.2v4.3z" fill="#231f20"/>
  </g>
</svg>