<svg xmlns="http://www.w3.org/2000/svg" xmlns:xlink="http://www.w3.org/1999/xlink" viewBox="0 0 1920 1080"><defs><style>.cls-1{fill:#9d1c6e;}.cls-2{clip-path:url(#clip-path);}.cls-3{fill:#b0397d;}</style><clipPath id="clip-path"><rect class="cls-1" x="-35.11" y="-19.75" width="1990.22" height="1119.5" transform="translate(1920 1080) rotate(-180)"/></clipPath></defs><title>pattern</title><g id="background_colors" data-name="background colors"><rect class="cls-1" x="-35.11" y="-19.75" width="1990.22" height="1119.5" transform="translate(1920 1080) rotate(-180)"/><g class="cls-2"><rect class="cls-1" x="-35.11" y="-19.75" width="1990.22" height="1119.5" transform="translate(1920 1080) rotate(-180)"/></g></g><g id="patterns"><path class="cls-3" d="M-86.17-53.24C-42-9,4.3,22.2,55.28,42.28c44.35,17.48,86.19,24.16,123.1,30.05C244,82.8,295.74,91.07,360.51,155.85S433.56,272.41,444,338c5.89,36.91,12.57,78.75,30.05,123.1,20.08,51,51.33,97.25,95.52,141.44S660.06,678,711.05,698.05c44.35,17.47,86.19,24.15,123.1,30.05,65.57,10.47,117.35,18.74,182.13,83.51s73,116.57,83.51,182.13c5.9,36.91,12.58,78.75,30,123.1,20.08,51,51.33,97.25,95.52,141.44s90.46,75.44,141.45,95.53c44.35,17.47,86.19,24.15,123.1,30,65.56,10.47,117.35,18.74,182.13,83.51l106.06-106.06c-44.19-44.2-90.46-75.44-141.44-95.53-44.35-17.47-86.19-24.15-123.1-30-65.57-10.47-117.36-18.74-182.13-83.51s-73-116.56-83.51-182.13c-5.9-36.91-12.58-78.75-30.05-123.1-20.08-51-51.33-97.25-95.52-141.44S1031.89,630.11,980.9,610c-44.35-17.47-86.19-24.15-123.1-30-65.57-10.47-117.36-18.74-182.13-83.51s-73-116.57-83.52-182.13c-5.89-36.92-12.57-78.75-30-123.1C542,140.24,510.77,94,466.58,49.78S376.12-25.66,325.13-45.75C280.78-63.22,239-69.9,202-75.79,136.47-86.26,84.68-94.53,19.9-159.31Z"/><path class="cls-3" d="M-311,171.62c44.2,44.19,90.47,75.44,141.45,95.52,44.35,17.47,86.19,24.16,123.1,30.05,65.57,10.47,117.36,18.74,182.13,83.52s73,116.56,83.52,182.13c5.89,36.91,12.57,78.75,30.05,123.1,20.08,51,51.33,97.25,95.52,141.44s90.46,75.44,141.45,95.53c44.35,17.47,86.19,24.15,123.1,30.05,65.57,10.47,117.35,18.74,182.13,83.51s73,116.57,83.51,182.13c5.9,36.91,12.58,78.75,30.05,123.1,20.08,51,51.33,97.25,95.52,141.44s90.46,75.44,141.45,95.53c44.35,17.47,86.19,24.15,123.1,30,65.56,10.47,117.35,18.74,182.13,83.51l106.06-106.06c-44.19-44.2-90.46-75.44-141.44-95.53-44.35-17.47-86.19-24.15-123.1-30.05-65.57-10.47-117.36-18.74-182.13-83.51s-73-116.56-83.51-182.13c-5.9-36.91-12.58-78.75-30-123.1-20.08-51-51.33-97.25-95.52-141.44S807,855,756,834.88c-44.35-17.47-86.19-24.15-123.1-30-65.57-10.47-117.36-18.74-182.13-83.51s-73.05-116.57-83.52-182.13c-5.89-36.92-12.57-78.75-30.05-123.1-20.08-51-51.33-97.26-95.52-141.45s-90.46-75.44-141.45-95.53c-44.35-17.47-86.18-24.15-123.1-30C-88.39,138.6-140.18,130.33-205,65.55Z"/><path class="cls-3" d="M-535.89,396.48c44.2,44.19,90.47,75.44,141.45,95.52,44.35,17.47,86.19,24.16,123.1,30,65.57,10.47,117.36,18.74,182.13,83.52S-16.16,722.13-5.69,787.7C.2,824.61,6.88,866.45,24.36,910.8c20.08,51,51.33,97.25,95.52,141.44s90.46,75.44,141.45,95.53c44.35,17.47,86.19,24.15,123.1,30,65.57,10.47,117.35,18.74,182.13,83.51s73,116.57,83.51,182.13c5.9,36.91,12.58,78.75,30,123.1,20.08,51,51.33,97.25,95.52,141.44s90.46,75.44,141.45,95.53c44.35,17.47,86.19,24.15,123.1,30,65.56,10.47,117.35,18.74,182.13,83.51L1328.38,1811c-44.19-44.2-90.46-75.44-141.44-95.53-44.35-17.47-86.19-24.15-123.1-30-65.57-10.47-117.36-18.74-182.13-83.51s-73-116.56-83.51-182.13c-5.9-36.91-12.58-78.75-30.05-123.1-20.08-51-51.33-97.25-95.52-141.44s-90.46-75.44-141.45-95.53c-44.35-17.47-86.19-24.15-123.1-30C342.51,1019.22,290.72,1011,226,946.18s-73-116.57-83.52-182.13c-5.89-36.92-12.57-78.75-30.05-123.1C92.3,590,61.05,543.69,16.86,499.5S-73.6,424.06-124.59,404c-44.35-17.47-86.18-24.15-123.1-30-65.56-10.47-117.35-18.74-182.13-83.52Z"/><path class="cls-3" d="M138.69-278.1c44.2,44.19,90.47,75.44,141.45,95.52,44.35,17.48,86.19,24.16,123.1,30.05C468.81-142.06,520.6-133.79,585.37-69s73,116.56,83.52,182.13c5.89,36.91,12.57,78.75,30.05,123.1,20.08,51,51.33,97.25,95.52,141.44s90.46,75.44,141.45,95.53c44.35,17.47,86.19,24.15,123.1,30.05,65.56,10.47,117.35,18.74,182.13,83.51s73,116.57,83.51,182.13c5.9,36.91,12.58,78.75,30,123.1,20.08,51,51.33,97.25,95.52,141.44s90.46,75.44,141.45,95.53c44.35,17.47,86.19,24.15,123.1,30,65.56,10.47,117.35,18.74,182.13,83.51L2003,1136.45c-44.19-44.2-90.46-75.44-141.44-95.53-44.35-17.47-86.19-24.15-123.1-30.05-65.57-10.47-117.36-18.74-182.13-83.51s-73-116.56-83.51-182.13c-5.9-36.91-12.58-78.75-30-123.1-20.08-51-51.33-97.25-95.52-141.44s-90.46-75.44-141.45-95.53c-44.35-17.47-86.19-24.15-123.1-30.05-65.57-10.47-117.36-18.74-182.13-83.51S827.48,155,817,89.47c-5.89-36.92-12.57-78.75-30-123.1-20.08-51-51.33-97.26-95.52-141.45S601-250.52,550-270.61c-44.35-17.47-86.18-24.15-123.1-30-65.56-10.47-117.35-18.74-182.13-83.52Z"/><path class="cls-3" d="M363.55-503C407.75-458.77,454-427.52,505-407.44c44.35,17.48,86.19,24.16,123.1,30.05,65.57,10.47,117.36,18.74,182.13,83.52s73,116.56,83.52,182.13c5.89,36.91,12.57,78.75,30,123.1,20.08,51,51.33,97.25,95.52,141.44s90.46,75.44,141.45,95.53c44.35,17.47,86.19,24.15,123.1,30,65.56,10.47,117.35,18.74,182.13,83.51s73,116.57,83.51,182.13c5.9,36.91,12.58,78.75,30,123.1,20.08,51,51.33,97.25,95.52,141.44s90.46,75.44,141.45,95.53c44.35,17.47,86.19,24.15,123.1,30,65.56,10.47,117.35,18.74,182.13,83.51l106.06-106.06c-44.19-44.2-90.46-75.44-141.44-95.53-44.35-17.47-86.19-24.15-123.1-30-65.57-10.47-117.36-18.74-182.13-83.51s-73-116.56-83.51-182.13c-5.9-36.91-12.58-78.75-30.05-123.1-20.08-51-51.33-97.25-95.52-141.44s-90.46-75.44-141.45-95.53c-44.35-17.47-86.19-24.15-123.1-30.05-65.57-10.47-117.36-18.74-182.13-83.51s-73.05-116.57-83.52-182.13c-5.89-36.92-12.57-78.75-30-123.1-20.08-51-51.33-97.26-95.52-141.45s-90.46-75.44-141.45-95.53c-44.35-17.47-86.18-24.15-123.1-30C586.19-536,534.4-544.25,469.62-609Z"/><path class="cls-3" d="M591.62-731c44.19,44.2,90.46,75.45,141.44,95.53,44.35,17.47,86.19,24.15,123.1,30,65.57,10.47,117.36,18.74,182.13,83.51s73,116.57,83.52,182.14c5.89,36.91,12.58,78.75,30,123.1,20.08,51,51.33,97.25,95.52,141.44S1337.84.18,1388.83,20.27c44.35,17.47,86.19,24.15,123.1,30.05,65.57,10.47,117.35,18.74,182.13,83.51s73,116.56,83.51,182.13c5.9,36.91,12.58,78.75,30,123.1,20.08,51,51.33,97.25,95.52,141.44s90.46,75.44,141.45,95.53c44.35,17.47,86.19,24.15,123.1,30.05,65.56,10.46,117.35,18.73,182.13,83.51l106.07-106.07c-44.2-44.19-90.46-75.44-141.45-95.52-44.35-17.47-86.19-24.15-123.1-30-65.57-10.47-117.35-18.74-182.13-83.51s-73-116.57-83.51-182.13c-5.9-36.91-12.58-78.75-30-123.1-20.08-51-51.33-97.25-95.52-141.44s-90.46-75.44-141.45-95.53c-44.35-17.47-86.19-24.15-123.1-30-65.57-10.47-117.35-18.74-182.13-83.51s-73-116.57-83.52-182.14c-5.89-36.91-12.57-78.75-30-123.1-20.09-51-51.34-97.25-95.53-141.44s-90.46-75.44-141.45-95.53c-44.35-17.47-86.18-24.15-123.1-30.05C814.25-764,762.46-772.31,697.68-837.09Z"/></g></svg>
