<?xml version="1.0" encoding="UTF-8"?>
<svg width="18px" height="18px" viewBox="0 0 18 18" version="1.1" xmlns="http://www.w3.org/2000/svg" xmlns:xlink="http://www.w3.org/1999/xlink">
    <!-- Generator: Sketch 49.3 (51167) - http://www.bohemiancoding.com/sketch -->
    <title>Link Icon</title>
    <desc>Created with Sketch.</desc>
    <defs></defs>
    <g id="Assembly" stroke="none" stroke-width="1" fill="none" fill-rule="evenodd">
        <g id="Referral-Action-+-Big-Views-L" transform="translate(-552.000000, -234.000000)" fill="#000000" fill-rule="nonzero">
            <g id="Share-Link-Field" transform="translate(148.000000, 221.000000)">
                <path d="M414.923077,22.6923077 C416.622415,22.6923077 418,23.9321345 418,25.4615385 L418,28.2307692 C418,29.7601732 416.622415,31 414.923077,31 L411.076923,31 C409.377585,31 408,29.7601732 408,28.2307692 L408,25.4615385 C408,23.9321345 409.377585,22.6923077 411.076923,22.6923077 L411.076923,24.7692308 C410.652089,24.7692308 410.307692,25.0791875 410.307692,25.4615385 L410.307692,28.2307692 C410.307692,28.6131202 410.652089,28.9230769 411.076923,28.9230769 L414.923077,28.9230769 C415.347911,28.9230769 415.692308,28.6131202 415.692308,28.2307692 L415.692308,25.4615385 C415.692308,25.0791875 415.347911,24.7692308 414.923077,24.7692308 L414.923077,22.6923077 Z M414.923077,21.3076923 L414.923077,19.2307692 C415.347911,19.2307692 415.692308,18.9208125 415.692308,18.5384615 L415.692308,15.7692308 C415.692308,15.3868798 415.347911,15.0769231 414.923077,15.0769231 L411.076923,15.0769231 C410.652089,15.0769231 410.307692,15.3868798 410.307692,15.7692308 L410.307692,18.5384615 C410.307692,18.9208125 410.652089,19.2307692 411.076923,19.2307692 L411.076923,21.3076923 C409.377585,21.3076923 408,20.0678655 408,18.5384615 L408,15.7692308 C408,14.2398268 409.377585,13 411.076923,13 L414.923077,13 C416.622415,13 418,14.2398268 418,15.7692308 L418,18.5384615 C418,20.0678655 416.622415,21.3076923 414.923077,21.3076923 Z M412.615385,17.8461538 C412.19055,17.8461538 411.846154,18.1561106 411.846154,18.5384615 L411.846154,25.4615385 C411.846154,25.8438894 412.19055,26.1538462 412.615385,26.1538462 L413.384615,26.1538462 C413.80945,26.1538462 414.153846,25.8438894 414.153846,25.4615385 L414.153846,18.5384615 C414.153846,18.1561106 413.80945,17.8461538 413.384615,17.8461538 L412.615385,17.8461538 Z" id="Link" transform="translate(413.000000, 22.000000) rotate(45.000000) translate(-413.000000, -22.000000) "></path>
            </g>
        </g>
    </g>
</svg>
