<svg width="60" height="60" xmlns="http://www.w3.org/2000/svg"><g fill-rule="nonzero" fill="none"><g><ellipse fill="#E7E7E7" cx="29.862" cy="29.783" rx="29.862" ry="29.783"/><path d="M8.646 41.85l42.583.355a.276.276 0 01.274.279l-.065 7.889a29.808 29.808 0 01-19.055 9.088l-5.545-.046a29.81 29.81 0 01-18.541-9.03l.07-8.262a.276.276 0 01.279-.273z" fill="#FFF"/><path d="M16.365 43.754l3.561-23.5a.276.276 0 01.298-.234l26.305 2.317a.277.277 0 01.249.317L43.422 43.98l-27.057-.226z" fill="#FFF"/></g><path d="M29.862 3.144c12.703.01 23.644 8.939 26.166 21.357 2.522 12.418-4.071 24.89-15.77 29.83-13.593 5.726-29.267-.622-35.008-14.18-5.742-13.556.623-29.189 14.215-34.915a26.602 26.602 0 0110.397-2.092zm0-3.144C13.37 0 0 13.335 0 29.783c0 16.449 13.37 29.783 29.862 29.783 16.492 0 29.862-13.334 29.862-29.783C59.724 13.335 46.354 0 29.862 0z" fill="#DDD"/></g></svg>